<svg width="356" height="303" viewBox="0 0 356 303" fill="none" xmlns="http://www.w3.org/2000/svg">
<path d="M216.49 239.02C89.393 242.836 80.304 260.183 107.552 273.753C134.801 287.323 77.7694 294.516 119.176 300.182C215.977 313.433 196.025 275.38 238.57 280.269C250.371 281.623 384.244 276.834 350.589 261.037C329.5 251.138 293 258.5 337.5 246.5C365.484 235.253 216.49 239.02 216.49 239.02Z" fill="#E8F4FF"/>
<path d="M70.0898 232.371C97.9171 232.611 117.951 243.377 99.338 244.504C80.7252 245.632 84.7942 254.6 58.214 254.6C31.6338 254.6 -62.6639 231.224 70.0898 232.371Z" fill="#E8F4FF"/>
<g opacity="0.5">
<path d="M114.668 13.1585L122.287 17.2742L121.592 9.84334L114.668 13.1585Z" fill="#9FFBFB"/>
<path d="M85.1252 39.6667L92.7482 43.7823L92.0527 36.3548L85.1252 39.6667Z" fill="#9FFBFB"/>
<path d="M203.696 16.0301L211.319 20.1458L210.624 12.715L203.696 16.0301Z" fill="#9FFBFB"/>
<path d="M284.981 21.0763L292.604 25.1919L291.909 17.7611L284.981 21.0763Z" fill="#9FFBFB"/>
<path d="M275.606 86.136L283.229 90.2516L282.531 82.8208L275.606 86.136Z" fill="#9FFBFB"/>
<path d="M230.016 140.743L237.639 144.859L236.943 137.428L230.016 140.743Z" fill="#9FFBFB"/>
<path d="M240.989 13.3786L248.608 17.4943L247.913 10.0635L240.989 13.3786Z" fill="#9FFBFB"/>
<path d="M140.933 17.7978L147.279 15.9134L142.879 12.2714L140.933 17.7978Z" fill="#E2BBFF"/>
<path d="M91.9424 22.8873L98.2915 21.0029L93.8883 17.3642L91.9424 22.8873Z" fill="#E2BBFF"/>
<path d="M80.197 58.7573L86.5428 56.873L82.1428 53.2309L80.197 58.7573Z" fill="#E2BBFF"/>
<path d="M228.621 6.92838L234.97 5.044L230.571 1.40196L228.621 6.92838Z" fill="#E2BBFF"/>
<path d="M275.643 5.55095L281.992 3.66656L277.592 0.0245209L275.643 5.55095Z" fill="#E2BBFF"/>
<path d="M272.27 80.7163L278.619 78.8319L274.219 75.1899L272.27 80.7163Z" fill="#E2BBFF"/>
<path d="M307.964 76.0603L314.31 74.176L309.91 70.5373L307.964 76.0603Z" fill="#E2BBFF"/>
<path d="M256.378 146.153L262.728 144.268L258.328 140.626L256.378 146.153Z" fill="#E2BBFF"/>
<path d="M171.469 144.435L177.818 142.551L173.418 138.912L171.469 144.435Z" fill="#E2BBFF"/>
<path d="M258.451 25.7322L264.797 23.8478L260.397 20.2058L258.451 25.7322Z" fill="#E2BBFF"/>
<path d="M293.744 12.9951L295.807 16.7172L297.867 14.2058L293.744 12.9951Z" fill="#FFC4C8"/>
<path d="M191.68 19.8089L193.743 23.5343L195.806 21.0196L191.68 19.8089Z" fill="#FFC4C8"/>
<path d="M107.944 16.0968L110.007 19.8222L112.07 17.3075L107.944 16.0968Z" fill="#FFC4C8"/>
<path d="M78.8128 35.7278L80.8757 39.4532L82.9386 36.9385L78.8128 35.7278Z" fill="#FFC4C8"/>
<path d="M94.4734 58.2838L96.5362 62.0058L98.5991 59.4944L94.4734 58.2838Z" fill="#FFC4C8"/>
<path d="M275.078 66.3316L277.141 70.057L279.204 67.5423L275.078 66.3316Z" fill="#FFC4C8"/>
<path d="M276.312 96.375L278.375 100.1L280.438 97.5857L276.312 96.375Z" fill="#FFC4C8"/>
<path d="M241.931 145.623L243.991 149.345L246.054 146.833L241.931 145.623Z" fill="#FFC4C8"/>
<path d="M190.332 139.919L192.395 143.641L194.458 141.13L190.332 139.919Z" fill="#FFC4C8"/>
<path d="M274.587 123.694L276.646 127.416L278.709 124.904L274.587 123.694Z" fill="#FFC4C8"/>
<path d="M225.622 13.5754L227.685 17.2975L229.748 14.7861L225.622 13.5754Z" fill="#FFC4C8"/>
<path d="M238.759 20.516L240.818 24.238L242.881 21.7233L238.759 20.516Z" fill="#FFC4C8"/>
<path d="M255.248 1.18182L257.311 4.9039L259.374 2.3925L255.248 1.18182Z" fill="#FFC4C8"/>
<path d="M279.134 31.2653L281.193 34.9874L283.256 32.476L279.134 31.2653Z" fill="#FFC4C8"/>
</g>
<path d="M263.393 25.8456H109.793C105.221 25.8456 101.515 29.5428 101.515 34.1036V130.601C101.515 135.162 105.221 138.859 109.793 138.859H263.393C267.965 138.859 271.671 135.162 271.671 130.601V34.1036C271.671 29.5428 267.965 25.8456 263.393 25.8456Z" fill="#E5E6E6"/>
<path d="M260.788 29.9546H112.397C109.919 29.9546 107.911 31.9585 107.911 34.4304V122.163C107.911 124.635 109.919 126.639 112.397 126.639H260.788C263.266 126.639 265.275 124.635 265.275 122.163V34.4304C265.275 31.9585 263.266 29.9546 260.788 29.9546Z" fill="#E8F4FF"/>
<path d="M134.745 41.7145H121.685C118.641 41.7145 116.172 44.1768 116.172 47.2142V64.4372C116.172 67.4746 118.641 69.9369 121.685 69.9369H134.745C137.79 69.9369 140.258 67.4746 140.258 64.4372V47.2142C140.258 44.1768 137.79 41.7145 134.745 41.7145Z" fill="#FF6669"/>
<path d="M165.451 42.8951H149.162C147.009 42.8951 145.263 44.6362 145.263 46.784V53.1175C145.263 55.2653 147.009 57.0064 149.162 57.0064H165.451C167.604 57.0064 169.349 55.2653 169.349 53.1175V46.784C169.349 44.6362 167.604 42.8951 165.451 42.8951Z" fill="#DCE6F0"/>
<path d="M240.885 88.1338H235.622C233.75 88.1338 232.232 89.6479 232.232 91.5157V106.09C232.232 107.958 233.75 109.472 235.622 109.472H240.885C242.757 109.472 244.275 107.958 244.275 106.09V91.5157C244.275 89.6479 242.757 88.1338 240.885 88.1338Z" fill="#FF6669"/>
<path d="M257.224 77.2677H253.593C251.27 77.2677 249.387 79.1462 249.387 81.4634V105.927C249.387 108.244 251.27 110.123 253.593 110.123H257.224C259.547 110.123 261.43 108.244 261.43 105.927V81.4634C261.43 79.1462 259.547 77.2677 257.224 77.2677Z" fill="#DCE6F0"/>
<path d="M183.218 64.0603H158.697C156.149 64.0603 154.083 66.1209 154.083 68.6629V73.5689C154.083 76.1109 156.149 78.1715 158.697 78.1715H183.218C185.766 78.1715 187.832 76.1109 187.832 73.5689V68.6629C187.832 66.1209 185.766 64.0603 183.218 64.0603Z" fill="#FF6669"/>
<path d="M230.885 44.7896H203.054C198.984 44.7896 195.685 48.0806 195.685 52.1403V65.9714C195.685 70.0311 198.984 73.3222 203.054 73.3222H230.885C234.955 73.3222 238.254 70.0311 238.254 65.9714V52.1403C238.254 48.0806 234.955 44.7896 230.885 44.7896Z" fill="#DCE6F0"/>
<path d="M159.513 83.8414H124.223C119.777 83.8414 116.172 87.437 116.172 91.8725V104.033C116.172 108.468 119.777 112.064 124.223 112.064H159.513C163.959 112.064 167.564 108.468 167.564 104.033V91.8725C167.564 87.437 163.959 83.8414 159.513 83.8414Z" fill="#DCE6F0"/>
<path d="M216.414 83.8414H195.528C191.313 83.8414 187.895 87.2504 187.895 91.4556V112.291C187.895 116.496 191.313 119.905 195.528 119.905H216.414C220.63 119.905 224.048 116.496 224.048 112.291V91.4556C224.048 87.2504 220.63 83.8414 216.414 83.8414Z" fill="#DCE6F0"/>
<path style="mix-blend-mode:soft-light" d="M260.788 29.9546H112.397C109.919 29.9546 107.911 31.9585 107.911 34.4304V122.163C107.911 124.635 109.919 126.639 112.397 126.639H260.788C263.266 126.639 265.275 124.635 265.275 122.163V34.4304C265.275 31.9585 263.266 29.9546 260.788 29.9546Z" fill="url(#paint0_linear_28_333)"/>
<path d="M141.937 198.869V198.966L141.756 209.101L141.686 212.627L140.703 267.074C140.702 267.203 140.674 267.331 140.623 267.451C140.572 267.57 140.498 267.678 140.404 267.768C140.311 267.858 140.201 267.929 140.08 267.976C139.959 268.024 139.83 268.047 139.7 268.044C139.444 268.037 139.201 267.932 139.02 267.752C138.839 267.571 138.734 267.329 138.727 267.074L137.724 211.646L137.654 207.911L137.486 198.966C137.478 198.383 137.698 197.82 138.1 197.396C138.501 196.973 139.052 196.722 139.636 196.698H139.72C140.3 196.7 140.856 196.929 141.27 197.334C141.684 197.74 141.923 198.29 141.937 198.869Z" fill="#C5C0FF"/>
<path d="M258.425 198.966V199.299L258.231 209.462L257.191 267.087C257.183 267.342 257.079 267.584 256.899 267.764C256.719 267.944 256.476 268.049 256.221 268.058C255.96 268.058 255.71 267.956 255.522 267.775C255.335 267.594 255.226 267.347 255.218 267.087L254.165 208.838L254.011 200.253L253.984 198.979V198.882C254.016 198.306 254.27 197.765 254.694 197.373C255.118 196.981 255.678 196.769 256.256 196.781C256.835 196.794 257.385 197.03 257.792 197.44C258.198 197.85 258.429 198.402 258.435 198.979L258.425 198.966Z" fill="#C5C0FF"/>
<path d="M171.603 183.384V183.48L171.131 209.268L170.356 251.588C170.348 251.849 170.239 252.095 170.051 252.277C169.864 252.458 169.613 252.559 169.353 252.559C169.098 252.552 168.857 252.447 168.678 252.266C168.5 252.085 168.399 251.842 168.396 251.588L167.597 208.331L167.139 183.47C167.145 182.892 167.376 182.338 167.784 181.927C168.192 181.516 168.744 181.279 169.324 181.266C169.904 181.253 170.466 181.466 170.891 181.86C171.316 182.253 171.572 182.796 171.603 183.374V183.384Z" fill="#C5C0FF"/>
<path d="M288.084 183.48L288.03 186.715L287.823 197.832L286.85 251.588C286.811 251.822 286.691 252.035 286.509 252.188C286.328 252.342 286.098 252.426 285.86 252.426C285.623 252.426 285.393 252.342 285.211 252.188C285.03 252.035 284.909 251.822 284.871 251.588L283.928 199.893L283.721 188.35L283.637 183.467V183.37C283.643 183.079 283.707 182.792 283.825 182.525C283.942 182.258 284.112 182.018 284.322 181.816C284.533 181.615 284.782 181.457 285.054 181.351C285.326 181.245 285.617 181.194 285.909 181.201C286.201 181.207 286.489 181.271 286.756 181.388C287.023 181.505 287.265 181.674 287.467 181.884C287.669 182.095 287.827 182.343 287.933 182.614C288.039 182.886 288.09 183.176 288.084 183.467V183.48Z" fill="#C5C0FF"/>
<path style="mix-blend-mode:soft-light" d="M288.044 186.715L287.836 197.832L283.941 199.906L283.734 188.363C285.035 187.849 286.673 187.229 288.044 186.715Z" fill="url(#paint1_linear_28_333)"/>
<path style="mix-blend-mode:soft-light" d="M258.425 199.283L258.231 209.448L254.155 208.825L254.001 200.236L258.425 199.283Z" fill="url(#paint2_linear_28_333)"/>
<path style="mix-blend-mode:soft-light" d="M141.937 198.869V198.966L141.756 209.101L141.686 212.627L137.724 211.646L137.654 207.911L137.486 198.966C137.478 198.383 137.698 197.82 138.1 197.396C138.501 196.973 139.052 196.722 139.636 196.698H139.72C140.3 196.7 140.856 196.929 141.27 197.334C141.684 197.74 141.923 198.29 141.937 198.869Z" fill="url(#paint3_linear_28_333)"/>
<path style="mix-blend-mode:soft-light" d="M171.603 183.384V183.48L171.131 209.268L167.597 208.331L167.139 183.47C167.145 182.892 167.376 182.338 167.784 181.927C168.192 181.516 168.744 181.279 169.324 181.266C169.904 181.253 170.466 181.466 170.891 181.86C171.316 182.253 171.572 182.796 171.603 183.374V183.384Z" fill="url(#paint4_linear_28_333)"/>
<path d="M159.864 176.647V182.567C159.864 184.137 160.489 185.642 161.602 186.753C162.715 187.863 164.225 188.486 165.798 188.486H266.903L262.316 190.771L260.237 204.192L287.653 187.743V187.706C288.573 187.197 289.34 186.452 289.874 185.549C290.409 184.645 290.693 183.616 290.695 182.567V176.647H159.864Z" fill="#9762FF"/>
<path d="M297.997 170.727C297.995 171.677 297.763 172.613 297.321 173.455C296.879 174.298 296.241 175.022 295.46 175.566L295.416 175.596C295.356 175.639 295.282 175.669 295.222 175.713L267.696 192.265L264.727 181.206L129.185 181.539L154.595 166.264H154.621C155.697 165.323 157.079 164.801 158.51 164.797H292.056C292.837 164.796 293.61 164.949 294.331 165.246C295.053 165.544 295.708 165.981 296.26 166.532C296.812 167.083 297.25 167.737 297.548 168.457C297.846 169.176 297.999 169.948 297.997 170.727Z" fill="#FFB6FF"/>
<path d="M132.535 193.049H263.369V198.986C263.369 200.556 262.744 202.062 261.631 203.172C260.518 204.282 259.009 204.906 257.435 204.906H138.469C136.895 204.906 135.386 204.282 134.273 203.172C133.16 202.062 132.535 200.556 132.535 198.986V193.049Z" fill="#B088FF"/>
<path d="M297.997 170.727C297.995 171.677 297.763 172.613 297.321 173.455C296.879 174.298 296.241 175.022 295.46 175.566L295.416 175.596C295.356 175.639 295.282 175.669 295.222 175.713L267.696 192.265L264.727 181.206L292.056 164.803C292.836 164.802 293.609 164.955 294.33 165.252C295.051 165.55 295.706 165.986 296.258 166.536C296.81 167.086 297.247 167.739 297.546 168.459C297.844 169.178 297.998 169.948 297.997 170.727Z" fill="#FFB6FF"/>
<path d="M264.727 181.206H131.171C127.893 181.206 125.236 183.856 125.236 187.126V187.129C125.236 190.399 127.893 193.049 131.171 193.049H264.727C268.004 193.049 270.661 190.399 270.661 187.129V187.126C270.661 183.856 268.004 181.206 264.727 181.206Z" fill="#A100FF"/>
<path style="mix-blend-mode:soft-light" d="M264.727 181.206H131.171C127.893 181.206 125.236 183.856 125.236 187.126V187.129C125.236 190.399 127.893 193.049 131.171 193.049H264.727C268.004 193.049 270.661 190.399 270.661 187.129V187.126C270.661 183.856 268.004 181.206 264.727 181.206Z" fill="url(#paint5_linear_28_333)"/>
<path d="M197.357 174.125L168.714 175.609C167.855 175.661 167.008 175.389 166.34 174.849L158.931 168.816C158.577 168.525 158.69 167.418 159.162 167.391L187.915 166.424C188.774 166.373 189.621 166.644 190.289 167.185L197.772 172.781C198.123 173.071 198.086 174.102 197.357 174.125Z" fill="#510080"/>
<path d="M197.357 173.605L168.714 175.089C167.855 175.14 167.008 174.869 166.34 174.329L158.931 168.309C158.855 168.238 158.802 168.147 158.778 168.047C158.753 167.946 158.76 167.841 158.795 167.744C158.831 167.647 158.895 167.563 158.978 167.502C159.062 167.441 159.162 167.406 159.265 167.401L187.909 165.914C188.767 165.865 189.614 166.138 190.282 166.678L197.691 172.711C197.764 172.781 197.815 172.872 197.838 172.97C197.86 173.069 197.853 173.172 197.818 173.267C197.782 173.362 197.72 173.445 197.638 173.505C197.556 173.565 197.458 173.599 197.357 173.605Z" fill="#510080"/>
<path d="M183.258 172.854L177.163 173.188C176.98 173.198 176.8 173.14 176.658 173.025L175.08 171.74C175.064 171.725 175.054 171.705 175.049 171.684C175.044 171.663 175.046 171.64 175.054 171.62C175.062 171.6 175.075 171.582 175.093 171.569C175.11 171.556 175.131 171.548 175.153 171.547L181.248 171.234C181.431 171.223 181.611 171.28 181.753 171.394L183.328 172.678C183.34 172.693 183.348 172.711 183.35 172.73C183.353 172.749 183.351 172.768 183.344 172.786C183.337 172.804 183.325 172.82 183.31 172.832C183.295 172.844 183.277 172.852 183.258 172.854Z" fill="#9FFBFB"/>
<path d="M185.331 144.852L156.841 146.33C156.637 146.341 156.437 146.394 156.253 146.485C156.07 146.576 155.907 146.704 155.775 146.86C155.642 147.016 155.543 147.197 155.484 147.393C155.424 147.588 155.405 147.794 155.427 147.997L157.748 166.231C157.79 166.568 157.96 166.876 158.223 167.093C158.486 167.309 158.822 167.417 159.162 167.395L187.651 165.921C187.855 165.909 188.055 165.855 188.239 165.764C188.422 165.673 188.584 165.545 188.717 165.389C188.849 165.233 188.948 165.052 189.008 164.857C189.068 164.662 189.087 164.456 189.065 164.253L186.738 146.016C186.696 145.68 186.526 145.373 186.265 145.157C186.004 144.941 185.67 144.832 185.331 144.852Z" fill="#A100FF"/>
<path d="M158.7 164.943L156.668 148.984C156.657 148.882 156.666 148.779 156.697 148.681C156.727 148.583 156.777 148.493 156.844 148.415C156.91 148.336 156.992 148.273 157.084 148.227C157.177 148.182 157.277 148.156 157.38 148.151L185.083 146.713C185.255 146.701 185.425 146.755 185.557 146.864C185.69 146.974 185.775 147.13 185.795 147.3L187.825 163.259C187.836 163.361 187.826 163.464 187.796 163.562C187.766 163.66 187.716 163.751 187.649 163.829C187.582 163.907 187.5 163.971 187.408 164.016C187.316 164.061 187.215 164.088 187.113 164.093L159.409 165.53C159.238 165.542 159.069 165.487 158.937 165.378C158.805 165.269 158.721 165.113 158.7 164.943Z" fill="#9FFBFB"/>
<path d="M267.348 166.394L257.214 171.884C256.462 172.294 254.824 172.624 253.557 172.624H229.066C227.799 172.624 227.394 172.291 228.14 171.884L238.274 166.394C239.026 165.987 240.664 165.654 241.931 165.654H266.422C267.689 165.64 268.1 165.974 267.348 166.394Z" fill="#A100FF"/>
<path d="M240.099 169.309L236.813 171.09C236.036 171.42 235.2 171.589 234.355 171.587C233.503 171.587 233.225 171.364 233.733 171.09L237.02 169.309C237.796 168.977 238.633 168.807 239.477 168.809C240.327 168.799 240.604 169.022 240.099 169.309Z" fill="#9FFBFB"/>
<path d="M250.236 166.714L242.182 171.08C241.405 171.41 240.569 171.579 239.725 171.577C238.872 171.577 238.595 171.354 239.103 171.08L247.157 166.714C247.934 166.385 248.77 166.216 249.615 166.217C250.464 166.217 250.741 166.441 250.236 166.714Z" fill="#9FFBFB"/>
<path d="M254.55 167.288L247.498 171.107C246.766 171.42 245.978 171.58 245.181 171.577H245.004C244.205 171.577 243.941 171.367 244.419 171.107L251.47 167.288C252.201 166.976 252.989 166.816 253.784 166.818H253.961C254.764 166.818 255.024 167.028 254.55 167.288Z" fill="#9FFBFB"/>
<path d="M260.962 166.714L252.938 171.08C252.161 171.41 251.325 171.579 250.481 171.577C249.628 171.577 249.35 171.354 249.859 171.08L257.913 166.714C258.69 166.385 259.526 166.216 260.37 166.217C261.203 166.217 261.48 166.441 260.962 166.714Z" fill="#9FFBFB"/>
<path d="M141.937 198.869V198.966L141.756 209.101L141.686 212.627L140.703 267.074C140.702 267.203 140.674 267.331 140.623 267.451C140.572 267.57 140.498 267.678 140.404 267.768C140.311 267.858 140.201 267.929 140.08 267.976C139.959 268.024 139.83 268.047 139.7 268.044C139.444 268.037 139.201 267.932 139.02 267.752C138.839 267.571 138.734 267.329 138.727 267.074L137.724 211.646L137.654 207.911L137.486 198.966C137.478 198.383 137.698 197.82 138.1 197.396C138.501 196.973 139.052 196.722 139.636 196.698H139.72C140.3 196.7 140.856 196.929 141.27 197.334C141.684 197.74 141.923 198.29 141.937 198.869Z" fill="#F8FCFF"/>
<path d="M258.425 198.966V199.299L258.231 209.462L257.191 267.087C257.183 267.342 257.079 267.584 256.899 267.764C256.719 267.944 256.476 268.049 256.221 268.058C255.96 268.058 255.71 267.956 255.522 267.775C255.335 267.594 255.226 267.347 255.218 267.087L254.165 208.838L254.011 200.253L253.984 198.979V198.882C254.016 198.306 254.27 197.765 254.694 197.373C255.118 196.981 255.678 196.769 256.256 196.781C256.835 196.794 257.385 197.03 257.792 197.44C258.198 197.85 258.429 198.402 258.435 198.979L258.425 198.966Z" fill="#F8FCFF"/>
<path d="M171.616 183.377V183.5L171.536 188.503L171.456 193.052L171.208 204.909L171.128 209.295L170.964 218.513L170.356 251.595C170.349 251.856 170.241 252.105 170.054 252.288C169.866 252.47 169.615 252.572 169.353 252.572C169.101 252.56 168.863 252.452 168.689 252.27C168.514 252.088 168.417 251.847 168.416 251.595L167.848 222.279L167.604 208.351L167.524 204.899L167.32 193.042L167.236 188.493L167.156 183.49C167.143 183.199 167.19 182.907 167.292 182.634C167.394 182.36 167.551 182.11 167.752 181.898C167.953 181.686 168.195 181.516 168.463 181.399C168.731 181.282 169.02 181.22 169.312 181.216H169.396C169.737 181.209 170.074 181.293 170.372 181.459C170.738 181.632 171.048 181.903 171.268 182.241C171.488 182.58 171.608 182.974 171.616 183.377Z" fill="#F8FCFF"/>
<path d="M288.084 183.48L288.03 186.715L287.823 197.832L286.85 251.588C286.811 251.822 286.691 252.035 286.509 252.188C286.328 252.342 286.098 252.426 285.86 252.426C285.623 252.426 285.393 252.342 285.211 252.188C285.03 252.035 284.909 251.822 284.871 251.588L283.928 199.893L283.721 188.35L283.637 183.467V183.37C283.643 183.079 283.707 182.792 283.825 182.525C283.942 182.258 284.112 182.018 284.322 181.816C284.533 181.615 284.782 181.457 285.054 181.351C285.326 181.245 285.617 181.194 285.909 181.201C286.201 181.207 286.489 181.271 286.756 181.388C287.023 181.505 287.265 181.674 287.467 181.884C287.669 182.095 287.827 182.343 287.933 182.614C288.039 182.886 288.09 183.176 288.084 183.467V183.48Z" fill="#F8FCFF"/>
<path style="mix-blend-mode:soft-light" d="M288.044 186.715L287.836 197.832L283.941 199.906L283.734 188.363C285.035 187.849 286.673 187.229 288.044 186.715Z" fill="url(#paint6_linear_28_333)"/>
<path style="mix-blend-mode:soft-light" d="M258.425 199.283L258.231 209.448L254.155 208.825L254.001 200.236L258.425 199.283Z" fill="url(#paint7_linear_28_333)"/>
<path style="mix-blend-mode:soft-light" d="M141.937 198.869V198.966L141.756 209.101L141.686 212.627L137.724 211.646L137.654 207.911L137.486 198.966C137.478 198.383 137.698 197.82 138.1 197.396C138.501 196.973 139.052 196.722 139.636 196.698H139.72C140.3 196.7 140.856 196.929 141.27 197.334C141.684 197.74 141.923 198.29 141.937 198.869Z" fill="url(#paint8_linear_28_333)"/>
<path style="mix-blend-mode:soft-light" d="M171.603 183.384V183.48L171.131 209.268L167.597 208.331L167.139 183.47C167.145 182.892 167.376 182.338 167.784 181.927C168.192 181.516 168.744 181.279 169.324 181.266C169.904 181.253 170.466 181.466 170.891 181.86C171.316 182.253 171.572 182.796 171.603 183.374V183.384Z" fill="url(#paint9_linear_28_333)"/>
<path d="M159.864 176.647V182.567C159.864 184.137 160.489 185.642 161.602 186.753C162.715 187.863 164.225 188.486 165.798 188.486H266.903L262.316 190.771L260.237 204.192L287.653 187.743V187.706C288.573 187.197 289.34 186.452 289.874 185.549C290.409 184.645 290.693 183.616 290.695 182.567V176.647H159.864Z" fill="#DEE8F1"/>
<path d="M298.011 170.707C298.009 171.665 297.775 172.609 297.329 173.457C296.882 174.306 296.236 175.034 295.446 175.579H295.399C295.339 175.631 295.27 175.673 295.195 175.703L292.999 177.003L290.678 178.424L285.998 181.226L283.838 182.523L283.798 182.567L268.05 192.025L267.686 192.269V192.229L266.71 188.617L266.666 188.493L264.714 181.226L229.3 181.316L194.194 181.399L188.089 181.439L171.372 181.479H159.854L129.282 181.559H129.201L154.611 166.291C155.442 165.545 156.477 165.064 157.584 164.91C157.894 164.862 158.206 164.835 158.52 164.83H292.056C293.626 164.826 295.133 165.441 296.249 166.542C297.365 167.644 297.998 169.141 298.011 170.707Z" fill="#F8FCFF"/>
<path d="M263.369 193.042V198.969C263.379 199.94 263.145 200.897 262.691 201.756C262.236 202.614 261.574 203.346 260.765 203.885C260.603 204.003 260.425 204.098 260.237 204.169V204.209C259.638 204.519 258.99 204.726 258.321 204.819C258.025 204.865 257.727 204.892 257.428 204.899H138.483C138.183 204.892 137.883 204.866 137.587 204.819C136.179 204.615 134.893 203.911 133.965 202.836C133.038 201.761 132.531 200.388 132.538 198.969V193.042H263.369Z" fill="#F8FCFF"/>
<path d="M298.011 170.707C298.009 171.665 297.775 172.609 297.329 173.457C296.882 174.306 296.236 175.034 295.446 175.579H295.399C295.339 175.631 295.27 175.673 295.195 175.703L292.999 177.003L290.678 178.424L285.998 181.226L283.838 182.523L283.798 182.567L268.05 192.025L267.686 192.269V192.229L266.71 188.617L266.666 188.493L264.714 181.226L272.367 176.647L290.087 166.007L292.093 164.83C293.656 164.835 295.154 165.455 296.262 166.555C297.37 167.656 297.998 169.147 298.011 170.707Z" fill="#DEE8F1"/>
<path d="M264.727 181.206H131.171C127.893 181.206 125.236 183.856 125.236 187.126V187.129C125.236 190.399 127.893 193.049 131.171 193.049H264.727C268.004 193.049 270.661 190.399 270.661 187.129V187.126C270.661 183.856 268.004 181.206 264.727 181.206Z" fill="#C3D2DF"/>
<path style="mix-blend-mode:soft-light" d="M264.727 181.206H131.171C127.893 181.206 125.236 183.856 125.236 187.126V187.129C125.236 190.399 127.893 193.049 131.171 193.049H264.727C268.004 193.049 270.661 190.399 270.661 187.129V187.126C270.661 183.856 268.004 181.206 264.727 181.206Z" fill="url(#paint10_linear_28_333)"/>
<path d="M197.357 174.125L168.714 175.609C167.855 175.661 167.008 175.389 166.34 174.849L158.931 168.816C158.577 168.525 158.69 167.418 159.162 167.391L187.915 166.424C188.774 166.373 189.621 166.644 190.289 167.185L197.772 172.781C198.123 173.071 198.086 174.102 197.357 174.125Z" fill="#510080"/>
<path d="M197.357 173.605L168.714 175.089C167.855 175.14 167.008 174.869 166.34 174.329L158.931 168.309C158.855 168.238 158.802 168.147 158.778 168.047C158.753 167.946 158.76 167.841 158.795 167.744C158.831 167.647 158.895 167.563 158.978 167.502C159.062 167.441 159.162 167.406 159.265 167.401L187.909 165.914C188.767 165.865 189.614 166.138 190.282 166.678L197.691 172.711C197.764 172.781 197.815 172.872 197.838 172.97C197.86 173.069 197.853 173.172 197.818 173.267C197.782 173.362 197.72 173.445 197.638 173.505C197.556 173.565 197.458 173.599 197.357 173.605Z" fill="#510080"/>
<path d="M183.258 172.854L177.163 173.188C176.98 173.198 176.8 173.14 176.658 173.025L175.08 171.74C175.064 171.725 175.054 171.705 175.049 171.684C175.044 171.663 175.046 171.64 175.054 171.62C175.062 171.6 175.075 171.582 175.093 171.569C175.11 171.556 175.131 171.548 175.153 171.547L181.248 171.234C181.431 171.223 181.611 171.28 181.753 171.394L183.328 172.678C183.34 172.693 183.348 172.711 183.35 172.73C183.353 172.749 183.351 172.768 183.344 172.786C183.337 172.804 183.325 172.82 183.31 172.832C183.295 172.844 183.277 172.852 183.258 172.854Z" fill="#9FFBFB"/>
<path d="M189.079 164.253C189.091 164.445 189.064 164.638 188.998 164.82C188.92 165.12 188.748 165.387 188.508 165.584C188.268 165.781 187.971 165.898 187.661 165.917H187.297L159.546 167.378H159.182C158.844 167.404 158.508 167.302 158.243 167.09C157.978 166.879 157.803 166.576 157.754 166.241L157.594 164.907L155.434 148.014C155.414 147.81 155.436 147.605 155.497 147.409C155.559 147.214 155.66 147.033 155.793 146.878C155.926 146.722 156.089 146.595 156.273 146.504C156.457 146.412 156.657 146.359 156.862 146.346L185.354 144.845C185.696 144.83 186.031 144.942 186.295 145.159C186.558 145.377 186.731 145.685 186.778 146.023L188.958 163.306L189.079 164.253Z" fill="#ECF5FF"/>
<path d="M158.7 164.943L156.668 148.984C156.657 148.882 156.666 148.779 156.697 148.681C156.727 148.583 156.777 148.493 156.844 148.415C156.91 148.336 156.992 148.273 157.084 148.227C157.177 148.182 157.277 148.156 157.38 148.151L185.083 146.713C185.255 146.701 185.425 146.755 185.557 146.864C185.69 146.974 185.775 147.13 185.795 147.3L187.825 163.259C187.836 163.361 187.826 163.464 187.796 163.562C187.766 163.66 187.716 163.751 187.649 163.829C187.582 163.907 187.5 163.971 187.408 164.016C187.316 164.061 187.215 164.088 187.113 164.093L159.409 165.53C159.238 165.542 159.069 165.487 158.937 165.378C158.805 165.269 158.721 165.113 158.7 164.943Z" fill="black"/>
<path d="M267.348 166.394L257.214 171.884C256.462 172.294 254.824 172.624 253.557 172.624H229.066C227.799 172.624 227.394 172.291 228.14 171.884L238.274 166.394C239.026 165.987 240.664 165.654 241.931 165.654H266.422C267.689 165.64 268.1 165.974 267.348 166.394Z" fill="#A100FF"/>
<path d="M240.099 169.309L236.813 171.09C236.036 171.42 235.2 171.589 234.355 171.587C233.503 171.587 233.225 171.364 233.733 171.09L237.02 169.309C237.796 168.977 238.633 168.807 239.477 168.809C240.327 168.799 240.604 169.022 240.099 169.309Z" fill="#9FFBFB"/>
<path d="M250.236 166.714L242.182 171.08C241.405 171.41 240.569 171.579 239.725 171.577C238.872 171.577 238.595 171.354 239.103 171.08L247.157 166.714C247.934 166.385 248.77 166.216 249.615 166.217C250.464 166.217 250.741 166.441 250.236 166.714Z" fill="#9FFBFB"/>
<path d="M254.55 167.288L247.498 171.107C246.766 171.42 245.978 171.58 245.181 171.577H245.004C244.205 171.577 243.941 171.367 244.419 171.107L251.47 167.288C252.201 166.976 252.989 166.816 253.784 166.818H253.961C254.764 166.818 255.024 167.028 254.55 167.288Z" fill="#9FFBFB"/>
<path d="M260.962 166.714L252.938 171.08C252.161 171.41 251.325 171.579 250.481 171.577C249.628 171.577 249.35 171.354 249.859 171.08L257.913 166.714C258.69 166.385 259.526 166.216 260.37 166.217C261.203 166.217 261.48 166.441 260.962 166.714Z" fill="#9FFBFB"/>
<g opacity="0.1">
<path d="M152.445 56.1159C152.264 55.933 152.019 55.8268 151.761 55.8194C151.503 55.8119 151.252 55.9038 151.061 56.0759L150.084 57.0097L139.72 66.8752L139.68 66.9152L137.005 69.4333L136.925 69.4767L122.515 83.151C122.684 82.9182 122.807 82.6557 122.879 82.3772C122.919 81.4834 122.879 81.1999 121.903 81.4434C121.082 81.8721 120.359 82.4647 119.778 83.1842C119.197 83.9037 118.771 84.7348 118.526 85.6257L107.941 90.7019L101.548 93.7869V101.381C103.464 100.287 105.62 98.9465 107.941 97.5257C110.615 95.9015 113.477 94.1138 116.206 92.4895C116.54 92.2461 116.894 92.0426 117.209 91.8225C117.63 92.1083 118.138 92.2367 118.645 92.1848C119.151 92.1329 119.623 91.9042 119.977 91.539L121.278 90.1582C122.413 90.0911 123.535 89.8861 124.621 89.5479C126.085 88.6541 126.126 87.6402 126.627 86.3828C126.774 85.6881 126.855 84.9814 126.871 84.2716L127.279 83.8247L152.478 57.4299C152.584 57.3011 152.654 57.1471 152.682 56.983C152.711 56.83 152.704 56.6725 152.663 56.5224C152.622 56.3722 152.547 56.2333 152.445 56.1159Z" fill="black"/>
</g>
<path d="M55.4925 234.452C55.4925 234.452 54.5931 237.247 55.1581 238.361C55.7232 239.475 47.5619 237.491 47.5619 237.491C47.5619 237.491 50.9421 233.852 50.4071 231.754C49.8722 229.656 55.4925 234.452 55.4925 234.452Z" fill="#EDB6A4"/>
<path d="M61.9486 246.779L46.4284 241.576C45.85 239.575 46.512 237.907 48.1369 236.503C50.6311 237.534 53.0952 238.088 55.4924 237.794C56.9569 240.129 59.5413 242.463 62.6173 244.768C63.5835 245.605 63.1388 246.245 61.9486 246.779Z" fill="#B21298"/>
<path d="M46.1898 242.234L61.7355 247.443L61.9591 246.779L46.4134 241.57L46.1898 242.234Z" fill="#9FFBFB"/>
<path d="M85.3157 231.854C85.3157 231.854 85.0182 234.776 85.7972 235.75C86.5762 236.723 78.1842 236.47 78.1842 236.47C78.1842 236.47 80.7319 232.214 79.7724 230.27C78.8128 228.325 85.3157 231.854 85.3157 231.854Z" fill="#EDB6A4"/>
<path d="M94.1992 242.573L77.9335 240.702C76.9539 238.871 77.2648 237.104 78.5487 235.386C81.2033 235.876 83.7276 235.91 86.0212 235.123C87.9437 237.124 90.9527 238.851 94.4433 240.459C95.5533 241.089 95.2524 241.806 94.1992 242.573Z" fill="#B21298"/>
<path d="M77.8187 241.397L94.1102 243.272L94.1906 242.576L77.8992 240.701L77.8187 241.397Z" fill="#9FFBFB"/>
<path d="M77.5757 155.438L77.0742 158.713L73.8478 179.335L71.6144 193.579L56.4052 235.513C53.9562 235.578 51.5146 235.217 49.1901 234.446C52.353 218.867 55.5158 203.201 58.4848 195.237C57.1474 181.826 55.8101 168.419 56.2514 161.378L56.1377 159.57L60.6313 151.759L77.5757 155.438Z" fill="#6669FB"/>
<path d="M79.0101 232.728C81.5176 233.558 83.9349 233.778 86.2519 233.308L88.512 188.283C87.9303 174.562 86.8136 161.935 84.8343 151.059L62.8914 150.725L75.8572 188.653C75.6466 195.691 77.4587 215.001 79.0101 232.728Z" fill="#6669FB"/>
<path d="M87.0343 151.139C87.1479 151.596 86.3656 152.073 84.9714 152.53C82.7012 153.293 78.8061 154.054 74.4931 154.644C71.2466 155.101 67.7528 155.465 64.5665 155.712C63.7072 155.768 62.868 155.805 62.0656 155.862C62.0601 155.857 62.0529 155.854 62.0455 155.854C62.0381 155.854 62.031 155.857 62.0255 155.862C58.0134 156.055 54.7903 155.978 53.57 155.501C53.1888 155.348 53.015 155.168 53.035 154.948C54.3256 127.266 56.6125 129.524 50.7715 111.647C49.822 108.752 49.0463 106.01 49.4074 103.762C49.4643 103.429 49.5412 103.095 49.6181 102.762C49.7675 102.138 49.9654 101.527 50.2098 100.934C50.4479 100.369 50.7484 99.8321 51.1059 99.3333V99.3133H51.1259C53.6225 96.9354 56.4682 94.9515 59.5647 93.43C62.868 91.7358 66.5324 90.4584 70.5412 89.3744C71.9922 88.9742 73.5001 88.594 75.0648 88.2505C75.666 88.1188 76.2841 88.0806 76.897 88.1371C76.9171 88.1171 76.9171 88.1171 76.9371 88.1371C86.5127 104.523 79.866 136.231 87.0343 151.139Z" fill="#FC8A2B"/>
<path d="M59.1033 93.9336C61.1729 97.1655 72.8749 93.0098 70.5779 89.9514C68.6822 88.9509 67.4318 86.4595 66.2315 83.828L58.2073 84.3783C59.6249 87.36 60.8787 91.2988 59.1033 93.9336Z" fill="#E0A494"/>
<path style="mix-blend-mode:soft-light" d="M59.1033 93.9336C61.1729 97.1655 72.8749 93.0098 70.5779 89.9514C68.6822 88.9509 67.4318 86.4595 66.2315 83.828L58.2073 84.3783C59.6249 87.36 60.8787 91.2988 59.1033 93.9336Z" fill="url(#paint11_linear_28_333)"/>
<path d="M61.1194 86.8931C60.6179 88.1471 69.1236 89.161 69.478 88.544C71.8184 87.0031 72.019 75.1331 70.4375 71.1142L57.7526 71.291L55.3721 80.3794L61.1194 86.8931Z" fill="#EDB6A4"/>
<path style="mix-blend-mode:soft-light" d="M61.1194 86.8931C60.6179 88.1471 69.1236 89.161 69.478 88.544C71.8184 87.0031 72.019 75.1331 70.4375 71.1142L57.7526 71.291L55.3721 80.3794L61.1194 86.8931Z" fill="url(#paint12_linear_28_333)"/>
<path d="M125.122 82.3238C124.648 83.5879 124.591 84.5851 123.136 85.4723C121.624 86.0159 120.016 86.243 118.412 86.1393C109.174 91.589 96.8907 99.8136 93.5272 100.277C91.2133 100.742 88.8337 100.78 86.506 100.391C87.9771 97.489 88.0339 93.6435 88.1777 91.4189L94.1959 92.5295L117.021 81.5601C117.268 80.6692 117.693 79.8375 118.272 79.1152C118.85 78.3929 119.569 77.795 120.385 77.3577C121.388 77.1109 121.421 77.4344 121.368 78.3016C121.12 79.0353 121.14 78.8285 120.592 79.5423C121.839 79.5623 123.237 79.092 124.825 78.6951C125.708 78.5917 125.33 81.4934 125.122 82.3238Z" fill="#EDB6A4"/>
<path style="mix-blend-mode:soft-light" d="M125.122 82.3238C124.648 83.5879 124.591 84.5851 123.136 85.4723C121.624 86.0159 120.016 86.243 118.412 86.1393C109.174 91.589 96.8907 99.8136 93.5272 100.277C91.2133 100.742 88.8337 100.78 86.506 100.391C87.9771 97.489 88.0339 93.6435 88.1777 91.4189L94.1959 92.5295L117.021 81.5601C117.268 80.6692 117.693 79.8375 118.272 79.1152C118.85 78.3929 119.569 77.795 120.385 77.3577C121.388 77.1109 121.421 77.4344 121.368 78.3016C121.12 79.0353 121.14 78.8285 120.592 79.5423C121.839 79.5623 123.237 79.092 124.825 78.6951C125.708 78.5917 125.33 81.4934 125.122 82.3238Z" fill="url(#paint13_linear_28_333)"/>
<path d="M60.9389 76.7741C60.9389 76.7741 69.8792 77.5645 72.2162 73.6423C73.2661 71.878 72.9484 70.6006 70.4208 69.0097C67.6792 67.2888 66.0008 67.5789 63.6638 67.8057C59.8623 68.1759 55.2049 70.6073 54.6934 75.5801C53.9043 83.2944 57.3915 87.2766 59.9492 87.4834C61.4604 87.6068 61.6544 84.2949 59.8188 83.2777C58.4514 82.5206 57.9565 79.8024 59.197 79.7858C60.9857 79.7591 60.2668 82.5173 61.0425 80.9531C61.6076 79.8124 60.9389 76.7741 60.9389 76.7741Z" fill="black"/>
<path d="M60.8954 156.455C60.1599 156.249 60.3872 156.248 59.6483 155.738C59.6884 156.962 60.1966 158.303 60.6146 159.827C60.745 160.678 57.893 160.414 57.0806 160.224C55.8335 159.81 54.8505 159.77 53.9444 158.396C53.2758 156.605 52.9615 154.871 53.2055 153.25C48.8992 141.847 45.3652 129.904 43.9108 121.492C43.533 121.436 44.516 117.664 45.8199 113.595C48.5214 114.782 51.8381 115.402 54.2821 115.743L52.4132 119.248L57.7024 152.383C58.5533 152.605 59.3518 152.993 60.0523 153.523C60.7529 154.054 61.3416 154.717 61.7848 155.475C62.0489 156.435 61.748 156.475 60.8954 156.455Z" fill="#EDB6A4"/>
<path style="mix-blend-mode:soft-light" d="M60.8954 156.455C60.1599 156.249 60.3872 156.248 59.6483 155.738C59.6884 156.962 60.1966 158.303 60.6146 159.827C60.745 160.678 57.893 160.414 57.0806 160.224C55.8335 159.81 54.8505 159.77 53.9444 158.396C53.2758 156.605 52.9615 154.871 53.2055 153.25C48.8992 141.847 45.3652 129.904 43.9108 121.492C43.533 121.436 44.516 117.664 45.8199 113.595C48.5214 114.782 51.8381 115.402 54.2821 115.743L52.4132 119.248L57.7024 152.383C58.5533 152.605 59.3518 152.993 60.0523 153.523C60.7529 154.054 61.3416 154.717 61.7848 155.475C62.0489 156.435 61.748 156.475 60.8954 156.455Z" fill="url(#paint14_linear_28_333)"/>
<path d="M54.7836 116.893C54.4761 116.843 54.115 116.78 53.7639 116.696C51.3801 116.223 45.188 113.385 45.0944 113.361C44.837 113.001 49.5111 101.445 50.4874 100.868C50.5056 100.815 50.5366 100.768 50.5776 100.731C53.5867 100.271 56.1946 100.204 58.3845 100.547C58.7189 100.594 59.0532 100.661 59.3875 100.724C60.0183 100.851 60.6377 101.028 61.2398 101.254C61.8065 101.488 62.3523 101.769 62.8714 102.095L62.8914 102.115C61.5407 105.33 57.9933 111.774 54.7836 116.893Z" fill="#FC8A2B"/>
<path d="M61.2398 79.3822C62.5772 83.3044 65.1349 84.8819 67.9266 86.6863C68.4046 86.2265 69.0172 85.9309 69.6752 85.8425C69.8867 85.8565 70.0883 85.937 70.2511 86.0724C70.4139 86.2078 70.5295 86.3912 70.5813 86.5962C70.6248 87.6168 70.5813 88.624 69.0801 89.5012C66.8133 90.1682 64.2288 88.594 63.3729 87.1999L60.6213 81.3933L61.2398 79.3822Z" fill="black"/>
<path opacity="0.05" d="M86.2251 116.259C86.1161 116.231 86.0035 116.218 85.8908 116.223C85.9109 115.916 85.9276 115.626 85.9276 115.319L86.2251 116.259Z" fill="black"/>
<path d="M150.964 53.3477L118.486 87.46C118.288 87.6666 118.052 87.8322 117.79 87.9476C117.528 88.063 117.246 88.1258 116.96 88.1324C116.674 88.1391 116.389 88.0895 116.123 87.9864C115.856 87.8833 115.612 87.7288 115.405 87.5318C115.198 87.3347 115.032 87.0988 114.916 86.8377C114.8 86.5766 114.737 86.2953 114.731 86.0099C114.724 85.7245 114.774 85.4406 114.877 85.1744C114.98 84.9082 115.135 84.6649 115.333 84.4584L115.41 84.3783L149.626 51.9969C149.811 51.8479 150.044 51.7726 150.281 51.7857C150.518 51.7989 150.742 51.8994 150.909 52.0679C151.075 52.2363 151.173 52.4606 151.184 52.6971C151.194 52.9337 151.115 53.1655 150.964 53.3477Z" fill="#510080"/>
<path style="mix-blend-mode:soft-light" d="M150.964 53.3477L118.486 87.46C118.288 87.6666 118.052 87.8322 117.79 87.9476C117.528 88.063 117.246 88.1258 116.96 88.1324C116.674 88.1391 116.389 88.0895 116.123 87.9864C115.856 87.8833 115.612 87.7288 115.405 87.5318C115.198 87.3347 115.032 87.0988 114.916 86.8377C114.8 86.5766 114.737 86.2953 114.731 86.0099C114.724 85.7245 114.774 85.4406 114.877 85.1744C114.98 84.9082 115.135 84.6649 115.333 84.4584L115.41 84.3783L149.626 51.9969C149.811 51.8479 150.044 51.7726 150.281 51.7857C150.518 51.7989 150.742 51.8994 150.909 52.0679C151.075 52.2363 151.173 52.4606 151.184 52.6971C151.194 52.9337 151.115 53.1655 150.964 53.3477Z" fill="url(#paint15_linear_28_333)"/>
<path d="M76.2918 88.2038C75.1551 92.1126 75.9575 96.1516 76.2751 100.651C80.197 101.108 85.6835 100.724 88.9968 101.281C90.4746 98.3795 90.6518 93.6101 90.7889 91.4022C86.1616 90.0582 78.211 87.7502 76.2918 88.2038Z" fill="#FC8A2B"/>
<g opacity="0.1">
<path d="M168.156 221.181C168.035 221.515 167.952 221.872 167.821 222.279L168.39 251.595C168.39 251.847 168.488 252.088 168.662 252.27C168.836 252.452 169.074 252.56 169.326 252.572C169.588 252.572 169.839 252.47 170.027 252.288C170.214 252.105 170.323 251.856 170.329 251.595L170.937 218.503C169.623 219.11 168.644 220.004 168.156 221.181Z" fill="black"/>
<path d="M195.675 204.899C196.04 201.327 195.839 197.388 195.471 193.042C195.307 191.582 195.137 190.077 194.983 188.493C194.739 186.219 194.455 183.864 194.208 181.389V181.226C194.047 179.762 193.873 178.224 193.763 176.637C193.719 176.303 193.719 175.97 193.679 175.663C193.435 175.996 193.151 176.33 192.867 176.637C191.493 178.304 189.966 179.841 188.306 181.226L188.102 181.429C187.322 182.056 186.507 182.638 185.662 183.174C180.865 182.883 176.089 182.314 171.359 181.469H171.278C170.87 181.389 170.463 181.306 170.098 181.226C166.678 180.615 163.298 179.845 159.841 178.951C157.968 178.504 156.093 177.977 154.18 177.45L154.264 177.204C153.686 177.324 153.085 177.254 152.552 177.003C151.805 176.644 151.202 176.042 150.843 175.296C149.907 175.663 148.279 175.866 146.611 176.07C145.875 175.539 145.674 174.972 145.919 174.362C148.155 172.454 149.175 170.423 153.528 169.613C154.996 170.506 155.808 171.357 155.892 172.171L156.052 171.684L163.341 172.414L164.073 172.494L181.997 174.312L182.893 172.851L183.137 172.484L187.002 166.434L187.29 165.947V165.907L188.022 164.81L188.958 163.309L189.079 164.243C189.091 164.435 189.064 164.629 188.998 164.81H227.304C227.792 167.085 228.2 169.399 228.484 171.714C228.524 171.997 228.564 172.281 228.608 172.564C228.768 173.898 228.942 175.286 229.012 176.627C229.176 178.171 229.257 179.672 229.3 181.216C229.311 181.226 229.317 181.241 229.317 181.256C229.317 181.271 229.311 181.285 229.3 181.296C229.42 183.694 229.461 186.089 229.461 188.483C229.42 189.094 229.42 189.701 229.42 190.351C229.884 189.698 230.387 189.074 230.928 188.483C232.393 186.899 233.777 186.452 235.275 187.916C235.473 188.085 235.651 188.275 235.806 188.483C237.123 189.821 238.221 191.356 239.063 193.032C241.015 196.564 241.911 200.627 241.992 204.889L195.675 204.899Z" fill="black"/>
</g>
<path opacity="0.1" d="M225.522 126.649C225.19 126.092 224.764 125.598 224.261 125.188C222.105 123.52 217.381 121.696 213.76 122.103C210.38 121.899 205.575 123.727 205.047 124.104C204.639 124.437 204.763 125.405 205.171 126.662C205.704 128.378 206.342 130.06 207.083 131.698C207.171 131.851 207.284 131.989 207.417 132.105C207.079 133.72 206.915 135.367 206.929 137.018C206.929 137.685 206.929 138.275 206.969 138.885H226.264C226.803 136.859 227.064 134.769 227.04 132.672C227.072 130.566 226.549 128.489 225.522 126.649Z" fill="black"/>
<path d="M205.99 266.527L208.32 269.972L208.13 272.303L203.71 273.931L200.018 271.653L200.697 268.475L205.99 266.527Z" fill="#EDB6A4"/>
<path d="M208.186 269.002C209.243 269.914 210.026 271.101 210.446 272.43C210.403 273.204 207.608 274.845 205.271 275.198C201.225 274.895 196.367 276.753 193.776 276.126C193.034 275.675 192.887 273.457 193.442 272.79C195.702 272.367 198.825 271.456 199.821 270.689C200.155 271.426 200.49 272.12 201.158 272.137C204.228 271.366 207.468 270.099 208.186 269.002Z" fill="#7100B2"/>
<path d="M211.232 208.154L181.589 216.275L199.109 269.282C201.894 269.122 206.979 267.281 206.979 267.281C204.649 249.687 200.781 232.408 197.494 221.805C201.423 208.798 225.478 214.331 225.478 214.331L211.232 208.154Z" fill="#6669FB"/>
<path d="M176.36 270.906L177.711 274.838L176.919 277.043L172.228 277.47L168.868 274.678L170.84 271.41L176.36 270.906Z" fill="#EDB6A4"/>
<path d="M177.835 273.868C178.618 275.022 179.063 276.371 179.122 277.763C178.881 278.497 175.755 279.361 173.405 279.097C169.577 277.763 164.401 278.29 162.064 277.013C161.465 276.386 161.903 274.198 162.619 273.714C164.912 273.894 168.169 273.811 169.329 273.341C169.449 274.138 169.6 274.895 170.235 275.082C173.395 275.135 176.865 274.745 177.835 273.868Z" fill="#7100B2"/>
<path d="M205.177 212.627C190.329 213.04 173.916 210.506 171.265 216.886C167.958 226.685 168.533 271.78 168.533 271.78C171.659 272.477 174.578 272.65 177.079 271.78C177.079 271.78 182.485 242.096 182.078 231.024C203.599 236.36 211.787 229.559 211.787 229.559L205.177 212.627Z" fill="#6669FB"/>
<path d="M193.95 212.627C197.838 214.541 197.752 217.469 205.161 218.84L207.618 219.277H207.638C210.156 219.681 212.72 220.011 215.137 220.231C220.34 220.685 225.044 220.634 227.973 219.817C228.698 219.642 229.39 219.348 230.019 218.947C230.474 206.58 237.836 169.669 225.131 145.626C222.276 143.478 199.082 149.628 196.655 151.759C194.375 180.525 204.863 200.263 193.95 212.627Z" fill="#FFE6A9"/>
<path d="M217.287 145.669C217.053 148.457 210.062 148.724 205.983 148.317C209.26 145.806 206.451 143.058 205.401 141.157L214.626 138.859C214.301 140.393 216.2 143.038 217.287 145.669Z" fill="#E0A494"/>
<path d="M201.493 140.99C202.202 141.502 203.003 141.872 203.853 142.081C204.559 142.294 205.354 142.487 206.194 142.678C207.12 142.878 208.103 143.068 209.059 143.261L210.022 143.171C212.068 142.968 213.96 142.604 215.398 141.697C215.821 141.426 216.205 141.099 216.538 140.723C217.979 136.364 218.584 131.774 218.324 127.192C212.914 124.571 207.625 122.686 202.753 123.21C201.941 124.866 201.334 126.614 200.944 128.416C200.354 131.255 200.274 134.175 200.71 137.041C200.88 138.374 201.141 139.693 201.493 140.99Z" fill="#EDB6A4"/>
<path style="mix-blend-mode:soft-light" d="M201.493 140.99C202.202 141.502 203.003 141.872 203.853 142.081C204.559 142.294 205.354 142.487 206.194 142.678C207.12 142.878 208.103 143.068 209.059 143.261L210.022 143.171C212.068 142.968 213.96 142.604 215.398 141.697C215.821 141.426 216.205 141.099 216.538 140.723C217.979 136.364 218.584 131.774 218.324 127.192C212.914 124.571 207.625 122.686 202.753 123.21C201.941 124.866 201.334 126.614 200.944 128.416C200.354 131.255 200.274 134.175 200.71 137.041C200.88 138.374 201.141 139.693 201.493 140.99Z" fill="url(#paint16_linear_28_333)"/>
<path d="M217.163 141.981C215.137 143.578 214.408 143.491 211.48 143.538C210.105 141.847 207.909 140.623 208.327 138.435C209.798 135.834 210.333 135.337 210.196 133.966C210.099 133.299 209.25 132.555 207.959 132.479C207.29 132.812 206.491 133.766 206.424 134.393L205.251 134.036C205.481 132.555 206.103 129.484 207.14 128.967C204.375 128.947 201.055 129.217 200.617 127.989C199.243 124.854 197.705 121.142 198.581 120.398C199.079 120.065 203.883 118.221 207.274 118.397C210.898 117.997 215.632 119.842 217.775 121.506C219.581 122.94 220.6 126.175 220.544 128.943C220.644 133.266 219.31 137.625 217.163 141.981Z" fill="black"/>
<path d="M214.823 206.046C201.897 211.309 182.967 207.737 190.463 222.602C196.056 233.678 219.169 241.613 231.968 230.343C245.619 218.337 250.203 195.12 238.391 183.61C232.637 178.007 228.407 200.52 214.823 206.046Z" fill="#FF595C"/>
<path style="mix-blend-mode:soft-light" d="M214.823 206.046C201.897 211.309 182.967 207.737 190.463 222.602C196.056 233.678 219.169 241.613 231.968 230.343C245.619 218.337 250.203 195.12 238.391 183.61C232.637 178.007 228.407 200.52 214.823 206.046Z" fill="url(#paint17_linear_28_333)"/>
<path d="M205.461 233.972L190.75 280.998C190.699 281.156 190.588 281.288 190.44 281.365C190.292 281.443 190.12 281.46 189.961 281.412C189.801 281.365 189.666 281.257 189.585 281.111C189.504 280.966 189.483 280.795 189.527 280.635L201.7 232.434C202.922 233.022 204.178 233.535 205.461 233.972Z" fill="#FF6669"/>
<path d="M219.099 278.397C219.125 278.563 219.085 278.734 218.986 278.87C218.887 279.007 218.738 279.099 218.571 279.127C218.491 279.144 218.408 279.144 218.328 279.129C218.247 279.113 218.171 279.082 218.103 279.036C218.035 278.991 217.976 278.933 217.931 278.865C217.886 278.797 217.854 278.72 217.839 278.64L215.164 265.566L214.188 260.774L208.939 234.949C210.253 235.248 211.586 235.464 212.927 235.596L215.696 254.804L216.592 261.017L219.099 278.397Z" fill="#FF6669"/>
<path d="M224.923 234.419L216.565 261.017L215.157 265.566L210.6 280.144C210.58 280.225 210.544 280.301 210.494 280.367C210.444 280.434 210.381 280.489 210.309 280.531C210.237 280.573 210.157 280.599 210.075 280.61C209.992 280.62 209.908 280.614 209.828 280.591C209.666 280.548 209.528 280.442 209.444 280.297C209.36 280.152 209.337 279.979 209.38 279.818L214.181 260.774L215.689 254.804L220.574 235.459C222.053 235.251 223.51 234.902 224.923 234.419Z" fill="#FF6669"/>
<path d="M245.155 274.498C245.2 274.665 245.179 274.843 245.096 274.995C245.012 275.147 244.873 275.261 244.707 275.312C244.55 275.357 244.381 275.34 244.236 275.264C244.092 275.188 243.982 275.06 243.931 274.905L228.952 232.548C230.032 231.929 231.041 231.194 231.961 230.357C232.065 230.271 232.16 230.177 232.246 230.073L245.155 274.498Z" fill="#FF6669"/>
<path d="M196.655 151.759L185.087 170.02L159.162 167.391L157.316 173.171C167.998 176.21 178.517 178.261 188.784 178.874C193.499 175.809 197.2 171.46 200.349 166.418L196.655 151.759Z" fill="#FFE6A9"/>
<path d="M159.011 167.865C158.918 167.061 158.109 166.197 156.671 165.317C152.291 166.121 151.281 168.182 149.048 170.07C148.817 170.68 148.984 171.257 149.753 171.791C151.425 171.587 153.033 171.374 153.966 171.017C154.345 171.754 154.951 172.35 155.695 172.718C156.363 173.008 156.621 172.998 157.396 172.904L159.011 167.865Z" fill="#EDB6A4"/>
<path style="mix-blend-mode:soft-light" d="M159.011 167.865C158.918 167.061 158.109 166.197 156.671 165.317C152.291 166.121 151.281 168.182 149.048 170.07C148.817 170.68 148.984 171.257 149.753 171.791C151.425 171.587 153.033 171.374 153.966 171.017C154.345 171.754 154.951 172.35 155.695 172.718C156.363 173.008 156.621 172.998 157.396 172.904L159.011 167.865Z" fill="url(#paint18_linear_28_333)"/>
<path opacity="0.1" d="M260.197 164.82H283.236C283.01 165.122 282.75 165.397 282.46 165.64C276.235 168.806 264.917 171.31 252.744 173.762L252.664 173.395C251.24 173.678 250.019 174.085 248.879 173.762C246.559 172.908 243.466 173.718 240.37 174.612C240.336 174.249 240.38 173.882 240.499 173.537C240.619 173.192 240.811 172.876 241.062 172.611C241.203 172.479 241.353 172.356 241.51 172.244C243.419 170.713 245.665 169.656 248.063 169.159C249.095 168.89 250.142 168.687 251.199 168.549L251.076 168.265L254.66 166.931L257.953 165.674L260.197 164.82Z" fill="black"/>
<path opacity="0.1" d="M298.01 170.706C298.009 171.665 297.775 172.609 297.328 173.457C296.882 174.306 296.236 175.034 295.446 175.579H295.399C295.338 175.631 295.269 175.673 295.195 175.703L292.999 177.003C292.183 173.335 291.166 169.666 290.066 165.997C289.946 165.634 289.822 165.227 289.702 164.82H292.056C293.627 164.815 295.136 165.432 296.252 166.536C297.368 167.639 298.001 169.139 298.01 170.706Z" fill="black"/>
<path d="M306.496 264.722L307.994 268.598L307.285 270.826L302.614 271.429L299.639 269.138L299.491 265.626L306.496 264.722Z" fill="#EDB6A4"/>
<path d="M308.081 267.621C308.906 268.746 309.402 270.077 309.515 271.466C309.301 272.21 306.212 273.187 303.855 273.01C299.98 271.813 294.827 272.543 292.447 271.343C291.825 270.739 292.183 268.534 292.882 268.027C295.178 268.121 298.425 267.914 299.568 267.4C299.719 268.194 299.903 268.945 300.541 269.105C303.694 269.055 307.145 268.534 308.081 267.621Z" fill="#7100B2"/>
<path d="M332.849 255.834L335.049 259.089L334.868 261.294L330.692 262.831L327.466 261.347L326.583 258.139L332.849 255.834Z" fill="#EDB6A4"/>
<path d="M334.922 258.172C335.921 259.034 336.661 260.157 337.058 261.414C337.018 262.141 334.383 263.695 332.17 264.029C328.345 263.738 323.755 265.496 321.307 264.902C320.608 264.479 320.468 262.374 321.006 261.757C323.143 261.36 326.092 260.487 327.024 259.756C327.329 260.453 327.653 261.11 328.278 261.124C331.174 260.417 334.256 259.213 334.922 258.172Z" fill="#7100B2"/>
<path d="M313.093 177.917C310.221 189.79 310.538 202.528 313.093 215.868L326.603 258.132L326.663 258.349L333.35 256.554L333.424 256.534C331.237 239.918 329.927 223.599 326.827 213.584C330.816 188.066 328.73 176.806 326.359 175.076L313.093 177.917Z" fill="#FFE6A9"/>
<path d="M306.824 265.363L299.301 265.586L293.259 215.125L297.489 178.174H317.165C320.679 191.712 312.838 204.879 307.994 223.199C308.382 238.228 308.051 252.355 306.824 265.363Z" fill="#FFE6A9"/>
<path d="M296.088 186.455C299.876 187.883 328.967 180.612 329.301 180.118C325.219 166.084 321.164 139.059 309.91 126.178C306.636 125.334 285.021 135.107 285.028 135.123C281.725 139.959 295.687 167.765 296.088 186.455Z" fill="#FC8A2B"/>
<path d="M303.089 128.046C301.367 130.047 295.526 132.498 292.206 132.182C295.135 129.18 292.731 126.805 291.397 125.044L300.337 121.412C300.224 123 300.996 125.911 303.089 128.046Z" fill="#E0A494"/>
<path style="mix-blend-mode:soft-light" d="M303.089 128.046C301.367 130.047 295.526 132.498 292.206 132.182C295.135 129.18 292.731 126.805 291.397 125.044L300.337 121.412C300.224 123 300.996 125.911 303.089 128.046Z" fill="url(#paint19_linear_28_333)"/>
<path d="M287.435 125.441C288.223 125.852 289.082 126.109 289.966 126.198C290.705 126.312 291.534 126.392 292.39 126.462C293.35 126.532 294.366 126.578 295.356 126.638L296.309 126.408C298.338 125.911 300.187 125.274 301.501 124.157C301.886 123.823 302.224 123.438 302.504 123.013C303.324 118.426 303.27 113.726 302.347 109.159C296.533 107.301 290.936 106.157 286.124 107.391C285.548 109.172 285.189 111.017 285.058 112.884C284.87 115.821 285.21 118.768 286.061 121.586C286.429 122.901 286.889 124.189 287.435 125.441Z" fill="#EDB6A4"/>
<path style="mix-blend-mode:soft-light" d="M287.435 125.441C288.223 125.852 289.082 126.109 289.966 126.198C290.705 126.312 291.534 126.392 292.39 126.462C293.35 126.532 294.366 126.578 295.356 126.638L296.309 126.408C298.338 125.911 300.187 125.274 301.501 124.157C301.886 123.823 302.224 123.438 302.504 123.013C303.324 118.426 303.27 113.726 302.347 109.159C296.533 107.301 290.936 106.157 286.124 107.391C285.548 109.172 285.189 111.017 285.058 112.884C284.87 115.821 285.21 118.768 286.061 121.586C286.429 122.901 286.889 124.189 287.435 125.441Z" fill="url(#paint20_linear_28_333)"/>
<path d="M302.534 123.92C300.728 125.815 300.775 126.101 297.833 126.568C296.208 125.068 293.821 124.15 293.931 121.899C295.035 119.071 295.509 118.497 295.162 117.14C294.968 116.473 294.005 115.856 292.701 115.966C292.072 116.413 291.41 117.47 291.434 118.11L290.203 117.92C290.203 116.399 290.404 113.221 291.37 112.551C288.589 112.931 285.289 113.678 284.683 112.507C280.508 108.575 279.177 102.915 279.949 102.038C280.401 101.621 284.526 104.68 289.729 102.632C293.309 101.708 298.612 102.178 300.999 103.542C303.005 104.726 304.513 107.821 304.858 110.62C305.57 114.945 304.51 119.668 302.534 123.92Z" fill="#281F1C"/>
<path d="M285.015 135.11L274.67 156.372L252.333 164.803L254.005 170.29C266.171 167.855 277.479 165.317 283.724 162.152C287.913 158.25 289.923 152.93 291.016 147.017L285.015 135.11Z" fill="#FC8A2B"/>
<path d="M308.79 126.165L311.906 110.913L291.845 86.3159L296.145 82.0269C307.847 90.595 317.476 98.923 321.856 106.631C323.457 117.016 321.21 127.576 316.947 138.218L308.79 126.165Z" fill="#FC8A2B"/>
<path d="M252.423 165.1C248.668 165.604 245.348 166.584 242.747 168.769C242.358 169.018 242.045 169.369 241.843 169.784C241.641 170.199 241.557 170.661 241.6 171.12C244.71 170.253 247.796 169.453 250.126 170.28C251.27 170.613 252.467 170.196 253.891 169.913L252.423 165.1Z" fill="#EDB6A4"/>
<path style="mix-blend-mode:soft-light" d="M252.423 165.1C248.668 165.604 245.348 166.584 242.747 168.769C242.358 169.018 242.045 169.369 241.843 169.784C241.641 170.199 241.557 170.661 241.6 171.12C244.71 170.253 247.796 169.453 250.126 170.28C251.27 170.613 252.467 170.196 253.891 169.913L252.423 165.1Z" fill="url(#paint21_linear_28_333)"/>
<path d="M292.527 85.6222C290.738 85.5051 289.004 84.9594 287.472 84.0313C287 83.0708 287.024 82.2737 287.472 81.6066C287.836 81.2998 288.863 81.9602 289.521 81.7534C289.729 80.6194 289.087 79.2353 288.017 77.7278C287.99 76.7706 289.157 75.0797 290.264 73.4254C291.564 73.2853 292.44 73.1619 293.56 73.919C294.744 75.1297 295.533 77.2542 295.613 78.8818C295.493 80.0991 295.897 81.3231 295.613 82.5505L292.527 85.6222Z" fill="#EDB6A4"/>
<path style="mix-blend-mode:soft-light" d="M292.527 85.6222C290.738 85.5051 289.004 84.9594 287.472 84.0313C287 83.0708 287.024 82.2737 287.472 81.6066C287.836 81.2998 288.863 81.9602 289.521 81.7534C289.729 80.6194 289.087 79.2353 288.017 77.7278C287.99 76.7706 289.157 75.0797 290.264 73.4254C291.564 73.2853 292.44 73.1619 293.56 73.919C294.744 75.1297 295.533 77.2542 295.613 78.8818C295.493 80.0991 295.897 81.3231 295.613 82.5505L292.527 85.6222Z" fill="url(#paint22_linear_28_333)"/>
<defs>
<linearGradient id="paint0_linear_28_333" x1="189.597" y1="-57.7244" x2="184.869" y2="157.49" gradientUnits="userSpaceOnUse">
<stop stop-color="white"/>
<stop offset="0.1" stop-color="#FAFAFA"/>
<stop offset="0.22" stop-color="#EAEAEA"/>
<stop offset="0.36" stop-color="#D0D0D0"/>
<stop offset="0.51" stop-color="#ABABAB"/>
<stop offset="0.67" stop-color="#7D7D7D"/>
<stop offset="0.83" stop-color="#444444"/>
<stop offset="1"/>
</linearGradient>
<linearGradient id="paint1_linear_28_333" x1="283.095" y1="228.032" x2="284.127" y2="214.464" gradientUnits="userSpaceOnUse">
<stop stop-color="white"/>
<stop offset="0.1" stop-color="#FAFAFA"/>
<stop offset="0.22" stop-color="#EAEAEA"/>
<stop offset="0.36" stop-color="#D0D0D0"/>
<stop offset="0.51" stop-color="#ABABAB"/>
<stop offset="0.67" stop-color="#7D7D7D"/>
<stop offset="0.83" stop-color="#444444"/>
<stop offset="1"/>
</linearGradient>
<linearGradient id="paint2_linear_28_333" x1="254.506" y1="225.854" x2="255.541" y2="212.286" gradientUnits="userSpaceOnUse">
<stop stop-color="white"/>
<stop offset="0.1" stop-color="#FAFAFA"/>
<stop offset="0.22" stop-color="#EAEAEA"/>
<stop offset="0.36" stop-color="#D0D0D0"/>
<stop offset="0.51" stop-color="#ABABAB"/>
<stop offset="0.67" stop-color="#7D7D7D"/>
<stop offset="0.83" stop-color="#444444"/>
<stop offset="1"/>
</linearGradient>
<linearGradient id="paint3_linear_28_333" x1="139.004" y1="220.718" x2="139.65" y2="203.735" gradientUnits="userSpaceOnUse">
<stop stop-color="white"/>
<stop offset="0.08" stop-color="#FAFAFA"/>
<stop offset="0.17" stop-color="#EAEAEA"/>
<stop offset="0.28" stop-color="#D0D0D0"/>
<stop offset="0.4" stop-color="#ABABAB"/>
<stop offset="0.52" stop-color="#7D7D7D"/>
<stop offset="0.65" stop-color="#444444"/>
<stop offset="0.78" stop-color="#020202"/>
<stop offset="0.79"/>
</linearGradient>
<linearGradient id="paint4_linear_28_333" x1="167.38" y1="219.21" x2="168.415" y2="205.642" gradientUnits="userSpaceOnUse">
<stop stop-color="white"/>
<stop offset="0.1" stop-color="#FAFAFA"/>
<stop offset="0.22" stop-color="#EAEAEA"/>
<stop offset="0.36" stop-color="#D0D0D0"/>
<stop offset="0.51" stop-color="#ABABAB"/>
<stop offset="0.67" stop-color="#7D7D7D"/>
<stop offset="0.83" stop-color="#444444"/>
<stop offset="1"/>
</linearGradient>
<linearGradient id="paint5_linear_28_333" x1="198.367" y1="175.256" x2="197.182" y2="209.118" gradientUnits="userSpaceOnUse">
<stop stop-color="white"/>
<stop offset="0.1" stop-color="#FAFAFA"/>
<stop offset="0.22" stop-color="#EAEAEA"/>
<stop offset="0.36" stop-color="#D0D0D0"/>
<stop offset="0.51" stop-color="#ABABAB"/>
<stop offset="0.67" stop-color="#7D7D7D"/>
<stop offset="0.83" stop-color="#444444"/>
<stop offset="1"/>
</linearGradient>
<linearGradient id="paint6_linear_28_333" x1="283.095" y1="228.032" x2="284.127" y2="214.464" gradientUnits="userSpaceOnUse">
<stop stop-color="white"/>
<stop offset="0.1" stop-color="#FAFAFA"/>
<stop offset="0.22" stop-color="#EAEAEA"/>
<stop offset="0.36" stop-color="#D0D0D0"/>
<stop offset="0.51" stop-color="#ABABAB"/>
<stop offset="0.67" stop-color="#7D7D7D"/>
<stop offset="0.83" stop-color="#444444"/>
<stop offset="1"/>
</linearGradient>
<linearGradient id="paint7_linear_28_333" x1="254.506" y1="225.854" x2="255.541" y2="212.286" gradientUnits="userSpaceOnUse">
<stop stop-color="white"/>
<stop offset="0.1" stop-color="#FAFAFA"/>
<stop offset="0.22" stop-color="#EAEAEA"/>
<stop offset="0.36" stop-color="#D0D0D0"/>
<stop offset="0.51" stop-color="#ABABAB"/>
<stop offset="0.67" stop-color="#7D7D7D"/>
<stop offset="0.83" stop-color="#444444"/>
<stop offset="1"/>
</linearGradient>
<linearGradient id="paint8_linear_28_333" x1="139.004" y1="220.718" x2="139.65" y2="203.735" gradientUnits="userSpaceOnUse">
<stop stop-color="white"/>
<stop offset="0.08" stop-color="#FAFAFA"/>
<stop offset="0.17" stop-color="#EAEAEA"/>
<stop offset="0.28" stop-color="#D0D0D0"/>
<stop offset="0.4" stop-color="#ABABAB"/>
<stop offset="0.52" stop-color="#7D7D7D"/>
<stop offset="0.65" stop-color="#444444"/>
<stop offset="0.78" stop-color="#020202"/>
<stop offset="0.79"/>
</linearGradient>
<linearGradient id="paint9_linear_28_333" x1="167.38" y1="219.21" x2="168.415" y2="205.642" gradientUnits="userSpaceOnUse">
<stop stop-color="white"/>
<stop offset="0.1" stop-color="#FAFAFA"/>
<stop offset="0.22" stop-color="#EAEAEA"/>
<stop offset="0.36" stop-color="#D0D0D0"/>
<stop offset="0.51" stop-color="#ABABAB"/>
<stop offset="0.67" stop-color="#7D7D7D"/>
<stop offset="0.83" stop-color="#444444"/>
<stop offset="1"/>
</linearGradient>
<linearGradient id="paint10_linear_28_333" x1="198.367" y1="175.256" x2="197.182" y2="209.118" gradientUnits="userSpaceOnUse">
<stop stop-color="white"/>
<stop offset="0.1" stop-color="#FAFAFA"/>
<stop offset="0.22" stop-color="#EAEAEA"/>
<stop offset="0.36" stop-color="#D0D0D0"/>
<stop offset="0.51" stop-color="#ABABAB"/>
<stop offset="0.67" stop-color="#7D7D7D"/>
<stop offset="0.83" stop-color="#444444"/>
<stop offset="1"/>
</linearGradient>
<linearGradient id="paint11_linear_28_333" x1="55.5994" y1="87.9103" x2="72.307" y2="91.0938" gradientUnits="userSpaceOnUse">
<stop stop-color="white"/>
<stop offset="1"/>
</linearGradient>
<linearGradient id="paint12_linear_28_333" x1="59.0532" y1="65.3277" x2="67.9914" y2="89.6089" gradientUnits="userSpaceOnUse">
<stop stop-color="white"/>
<stop offset="1"/>
</linearGradient>
<linearGradient id="paint13_linear_28_333" x1="99.5353" y1="78.2749" x2="108.479" y2="94.4326" gradientUnits="userSpaceOnUse">
<stop stop-color="white"/>
<stop offset="1"/>
</linearGradient>
<linearGradient id="paint14_linear_28_333" x1="42.9513" y1="138.052" x2="57.4375" y2="136.473" gradientUnits="userSpaceOnUse">
<stop stop-color="white"/>
<stop offset="1"/>
</linearGradient>
<linearGradient id="paint15_linear_28_333" x1="130.077" y1="67.7023" x2="138.724" y2="73.532" gradientUnits="userSpaceOnUse">
<stop stop-color="white"/>
<stop offset="1"/>
</linearGradient>
<linearGradient id="paint16_linear_28_333" x1="194.806" y1="118.741" x2="212.587" y2="136.868" gradientUnits="userSpaceOnUse">
<stop stop-color="white"/>
<stop offset="0.1" stop-color="#FAFAFA"/>
<stop offset="0.22" stop-color="#EAEAEA"/>
<stop offset="0.36" stop-color="#D0D0D0"/>
<stop offset="0.51" stop-color="#ABABAB"/>
<stop offset="0.67" stop-color="#7D7D7D"/>
<stop offset="0.83" stop-color="#444444"/>
<stop offset="1"/>
</linearGradient>
<linearGradient id="paint17_linear_28_333" x1="227.05" y1="176.69" x2="209.15" y2="238.301" gradientUnits="userSpaceOnUse">
<stop stop-color="white"/>
<stop offset="0.1" stop-color="#FAFAFA"/>
<stop offset="0.22" stop-color="#EAEAEA"/>
<stop offset="0.36" stop-color="#D0D0D0"/>
<stop offset="0.51" stop-color="#ABABAB"/>
<stop offset="0.67" stop-color="#7D7D7D"/>
<stop offset="0.83" stop-color="#444444"/>
<stop offset="1"/>
</linearGradient>
<linearGradient id="paint18_linear_28_333" x1="152.565" y1="160.277" x2="154.592" y2="173.223" gradientUnits="userSpaceOnUse">
<stop stop-color="white"/>
<stop offset="0.1" stop-color="#FAFAFA"/>
<stop offset="0.22" stop-color="#EAEAEA"/>
<stop offset="0.36" stop-color="#D0D0D0"/>
<stop offset="0.51" stop-color="#ABABAB"/>
<stop offset="0.67" stop-color="#7D7D7D"/>
<stop offset="0.83" stop-color="#444444"/>
<stop offset="1"/>
</linearGradient>
<linearGradient id="paint19_linear_28_333" x1="294.817" y1="119.504" x2="297.773" y2="130.674" gradientUnits="userSpaceOnUse">
<stop stop-color="white"/>
<stop offset="0.1" stop-color="#FAFAFA"/>
<stop offset="0.22" stop-color="#EAEAEA"/>
<stop offset="0.36" stop-color="#D0D0D0"/>
<stop offset="0.51" stop-color="#ABABAB"/>
<stop offset="0.67" stop-color="#7D7D7D"/>
<stop offset="0.83" stop-color="#444444"/>
<stop offset="1"/>
</linearGradient>
<linearGradient id="paint20_linear_28_333" x1="277.494" y1="104.069" x2="297.983" y2="119.734" gradientUnits="userSpaceOnUse">
<stop stop-color="white"/>
<stop offset="0.1" stop-color="#FAFAFA"/>
<stop offset="0.22" stop-color="#EAEAEA"/>
<stop offset="0.36" stop-color="#D0D0D0"/>
<stop offset="0.51" stop-color="#ABABAB"/>
<stop offset="0.67" stop-color="#7D7D7D"/>
<stop offset="0.83" stop-color="#444444"/>
<stop offset="1"/>
</linearGradient>
<linearGradient id="paint21_linear_28_333" x1="244.118" y1="161.315" x2="248.849" y2="172.489" gradientUnits="userSpaceOnUse">
<stop stop-color="white"/>
<stop offset="0.1" stop-color="#FAFAFA"/>
<stop offset="0.22" stop-color="#EAEAEA"/>
<stop offset="0.36" stop-color="#D0D0D0"/>
<stop offset="0.51" stop-color="#ABABAB"/>
<stop offset="0.67" stop-color="#7D7D7D"/>
<stop offset="0.83" stop-color="#444444"/>
<stop offset="1"/>
</linearGradient>
<linearGradient id="paint22_linear_28_333" x1="288.609" y1="71.8745" x2="292.663" y2="84.7408" gradientUnits="userSpaceOnUse">
<stop stop-color="white"/>
<stop offset="0.1" stop-color="#FAFAFA"/>
<stop offset="0.22" stop-color="#EAEAEA"/>
<stop offset="0.36" stop-color="#D0D0D0"/>
<stop offset="0.51" stop-color="#ABABAB"/>
<stop offset="0.67" stop-color="#7D7D7D"/>
<stop offset="0.83" stop-color="#444444"/>
<stop offset="1"/>
</linearGradient>
</defs>
</svg>
