<svg width="368" height="303" viewBox="0 0 368 303" fill="none" xmlns="http://www.w3.org/2000/svg">
<path d="M270.549 219.838C266.208 232.133 228.157 233.318 215.057 233.723C178.081 234.872 177.407 226.667 142.769 226.897C112.067 227.104 101.37 233.625 66.2813 230.429C42.9346 228.305 36.4514 224.393 34.1877 220.072C30.7884 213.586 35.8816 204.214 44.0855 199.813C53.2008 194.923 61.9591 198.492 87.5733 201.933C120.288 206.324 139.863 208.95 157.458 201.461C167.249 197.294 168.445 193.393 177.553 192.282C191.796 190.535 195.81 199.229 214.448 202.167C236.455 205.636 246.161 195.942 259.139 202.401C266.553 206.097 272.651 213.875 270.549 219.838Z" fill="#CCDDEE"/>
<path d="M0.629681 249.823C7.12596 278.091 64.0792 280.809 83.685 281.747C139.028 284.386 140.038 265.524 191.882 266.056C237.837 266.524 253.848 281.503 306.364 274.169C341.308 269.291 351.013 260.297 354.402 250.365C359.488 235.46 351.865 213.904 339.585 203.831C325.932 192.631 312.827 200.799 274.488 208.709C225.522 218.801 196.222 224.842 169.884 207.625C155.227 198.045 153.437 189.078 139.804 186.522C118.496 182.533 112.479 202.492 84.5822 209.248C51.642 217.224 37.1024 194.942 17.69 209.79C6.59978 218.248 -2.5184 236.134 0.629681 249.823Z" fill="#E8F4FF"/>
<path d="M257.5 269C313.557 269 359 263.18 359 256C359 248.82 313.557 243 257.5 243C201.443 243 156 248.82 156 256C156 263.18 201.443 269 257.5 269Z" fill="#CCDDEE"/>
<path d="M192.769 237.45C211.626 237.45 226.912 234.053 226.912 229.862C226.912 225.672 211.626 222.275 192.769 222.275C173.912 222.275 158.626 225.672 158.626 229.862C158.626 234.053 173.912 237.45 192.769 237.45Z" fill="#DCE6F0"/>
<path d="M69.7951 224.146C90.0544 224.146 106.478 221.906 106.478 219.143C106.478 216.38 90.0544 214.14 69.7951 214.14C49.5358 214.14 33.1124 216.38 33.1124 219.143C33.1124 221.906 49.5358 224.146 69.7951 224.146Z" fill="#CCDDEE"/>
<path d="M166.363 227.162C166.363 227.162 165.421 228.423 168.563 229.62C171.705 230.817 177.741 229.494 178.371 229.114V229.971L183.339 229.718V228.609C183.3 226.659 182.638 224.774 181.451 223.23H177.492C177.492 223.23 177.429 224.743 176.672 225.561C174.977 225.126 169.442 224.813 166.363 227.162Z" fill="#212121"/>
<path d="M196.475 227.162C196.475 227.162 195.532 228.423 198.678 229.62C201.824 230.817 207.856 229.494 208.486 229.114V229.971L213.453 229.718V228.609C213.417 226.66 212.757 224.774 211.569 223.23H207.607C207.607 223.23 207.544 224.743 206.791 225.561C205.088 225.126 199.557 224.813 196.475 227.162Z" fill="#212121"/>
<path d="M178.245 127.214L175.544 223.739H182.333C182.333 223.739 190.411 199.162 189.654 189.587C188.898 180.013 191.728 174.308 191.728 165.488C191.728 156.668 192.131 144.857 192.131 144.857L193.903 144.601C193.903 144.601 197.406 170.056 198.429 172.577C197.925 183.162 203.456 200.314 204.213 207.609C204.969 214.905 206.728 223.739 206.728 223.739H212.763C212.763 223.739 215.275 199.797 212.763 187.698C210.252 175.6 211.506 144.864 211.506 144.864C211.506 144.864 211.754 130.75 209.491 127.98C207.229 125.21 178.245 127.214 178.245 127.214Z" fill="#3D3C5B"/>
<path d="M195.028 152.504C194.982 146.967 194.261 141.444 193.532 135.964C193.213 133.566 193.36 129.795 192.782 126.554C185.339 126.719 178.245 127.214 178.245 127.214L175.544 223.739H182.333C182.333 223.739 190.411 199.162 189.654 189.587C188.898 180.013 191.728 174.307 191.728 165.488C191.728 156.668 192.131 144.857 192.131 144.857L193.903 144.601C193.903 144.601 194.376 148.035 195.028 152.504Z" fill="#2F2F49"/>
<path d="M179.065 78.3131C179.065 78.3131 190.274 66.7829 206.791 76.6734C201.824 86.3778 203.456 125.329 201.571 127.232C196.04 129.117 182.393 129.493 180.634 128.612C178.883 116.011 176.928 86.0162 176.928 85.6405C176.928 85.2648 179.065 78.3131 179.065 78.3131Z" fill="#B3B3B3"/>
<path d="M172.413 126.916C172.413 130.427 182.687 138.046 183.44 132.502C184.193 126.958 187.966 80.3284 185.703 76.2942C183.952 74.7845 181.177 72.5164 179.92 78.8151C178.662 85.1139 172.413 123.408 172.413 126.916Z" fill="#6691DD"/>
<path d="M209.492 132.755C209.492 132.755 201.319 141.845 199.936 137.28C198.552 132.716 185.479 88.8882 201.337 75.6552C208.882 77.7969 212.276 98.087 211.019 111.446C211.754 127.839 214.017 130.234 209.492 132.755Z" fill="#6691DD"/>
<path d="M177.87 112.022L178.249 114.796C178.249 114.796 200.251 119.143 205.922 115.049C211.593 110.955 212.777 81.343 211.268 78.5658C209.758 75.7886 200.832 73.1448 200.832 73.1448C200.832 73.1448 192.846 104.463 194.229 107.992C194.229 107.992 193.529 109.375 192.155 109.045C190.782 108.715 177.885 110.491 177.885 110.491L177.87 112.022Z" fill="#3B57B5"/>
<path d="M190.597 63.9776L188.68 75.2865L196.765 77.0842L196.068 64.6376L190.597 63.9776Z" fill="#F8A17A"/>
<path d="M204.255 57.9562C204.906 66.3019 195.739 70.5291 190.113 70.5291C184.488 70.5291 183.882 64.3147 183.882 57.9562C183.882 51.5978 188.435 46.4401 194.068 46.4401C199.701 46.4401 203.764 51.6118 204.255 57.9562Z" fill="#F8A17A"/>
<path d="M182.407 48.9434C182.249 49.2945 179.391 58.1423 188.064 57.1346C196.737 56.1269 198.625 56.3797 199.508 54.1116C200.391 51.8435 204.535 47.0545 201.14 45.2885C197.746 43.5224 183.664 46.0469 182.407 48.9434Z" fill="#212121"/>
<path d="M194.769 66.33C193.368 65.3715 191.616 55.8953 193.368 53.8308C195.119 51.7663 200.682 45.9591 203.242 48.6345C208.822 54.4733 203.221 65.3188 202.892 66.5406C202.563 67.7625 195.942 67.1235 194.769 66.33Z" fill="#212121"/>
<path d="M193.346 63.6089C194.554 63.6089 195.532 62.628 195.532 61.418C195.532 60.2081 194.554 59.2272 193.346 59.2272C192.139 59.2272 191.161 60.2081 191.161 61.418C191.161 62.628 192.139 63.6089 193.346 63.6089Z" fill="#F8A17A"/>
<path d="M187.801 72.2004C187.672 72.2004 186.292 74.3737 186.292 74.3737C186.292 74.3737 190.681 79.089 191.101 78.9731C192.233 78.8151 193.427 76.2942 193.427 76.2942C193.427 76.2942 188.491 72.1688 187.801 72.2004Z" fill="white"/>
<path d="M195.319 79.0679C195.196 79.0679 193.434 76.2942 193.434 76.2942C193.434 76.2942 196.545 71.6948 197.238 71.758C197.932 71.8212 199.907 72.2004 199.907 72.2004C199.907 72.2004 196.257 79.1627 195.319 79.0679Z" fill="white"/>
<path d="M178.914 76.2942C178.914 76.2942 164.959 106.794 170.49 111.706C173.005 113.599 181.808 115.867 181.808 81.7152C182.813 78.5553 183.44 78.8151 183.44 78.8151L178.914 76.2942Z" fill="#3B57B5"/>
<path d="M181.832 78.9766C183.821 78.9766 185.433 77.3607 185.433 75.3673C185.433 73.3739 183.821 71.758 181.832 71.758C179.843 71.758 178.231 73.3739 178.231 75.3673C178.231 77.3607 179.843 78.9766 181.832 78.9766Z" fill="#F8A17A"/>
<path d="M170.49 111.706C173.005 113.599 181.808 115.867 181.808 81.7152C182.813 78.5553 183.44 78.8151 183.44 78.8151L183.002 78.5729C182.452 78.615 182.001 79.1768 181.762 79.7245C180.943 81.6345 180.88 83.7692 180.456 85.8056C180.06 87.7085 179.349 89.5343 178.886 91.4232C178.186 94.232 178.077 97.1566 177.485 99.99C176.918 102.669 175.93 105.235 174.949 107.788C174.794 108.392 174.491 108.948 174.067 109.405C173.643 109.862 173.112 110.205 172.522 110.404C171.789 110.755 171.064 111.176 170.315 111.496C170.37 111.569 170.428 111.639 170.49 111.706Z" fill="#2A2A7C"/>
<path d="M175.016 115.786C176.954 115.786 178.526 114.371 178.526 112.626C178.526 110.881 176.954 109.466 175.016 109.466C173.077 109.466 171.506 110.881 171.506 112.626C171.506 114.371 173.077 115.786 175.016 115.786Z" fill="#F8A17A"/>
<path d="M312.103 237.228C312.103 237.228 314.362 246.494 308.533 246.708C302.705 246.922 294.69 248.162 294.69 248.162C294.69 248.162 302.046 243.85 305.598 233.314L312.187 234.662L312.103 237.228Z" fill="#F8A17A"/>
<path d="M311.994 253.389C312.404 251.097 315.122 243.418 313.112 242.154C312.183 241.154 311.22 241.519 310.183 242.088C309.146 242.656 298.802 248.516 296.2 247.14C292.994 248.098 289.477 248.952 289.467 250.216C289.456 251.48 292.336 252.807 295.545 253.635C298.753 254.464 309.98 247.066 310.089 248.018C310.197 248.969 310.565 253.495 310.565 253.495L311.994 253.389Z" fill="#212121"/>
<path d="M340.382 233.545C340.382 233.545 347.083 240.318 342.204 243.527C337.324 246.736 328.892 248.242 328.892 248.242C328.892 248.242 335.163 244.429 332.791 233.563L339.132 231.316L340.382 233.545Z" fill="#F8A17A"/>
<path d="M347.556 251.318C347.356 249.211 347.048 240.185 345.493 238.383C343.938 236.582 342.712 238.829 342.064 239.598C341.416 240.367 332.441 248.453 329.597 247.705C326.693 249.369 323.768 251.501 323.736 252.234C323.705 252.968 327.117 254.102 330.43 254.179C333.744 254.257 342.999 244.493 343.321 245.402C343.643 246.311 346.453 252.073 346.453 252.073L347.556 251.318Z" fill="#212121"/>
<path d="M313.777 147.968L311.893 150.513C307.427 156.236 304.694 181.979 305.195 189.37C305.052 200.433 315.375 204.864 317.343 194.285C318.643 184.651 321.775 175.22 324.58 170.059C324.58 170.319 329.929 155.755 330.427 147.624L313.777 147.968Z" fill="#6669FB"/>
<path d="M338.406 148.477L325.579 148.358C311.164 149.534 318.345 163.006 319.035 171.436C319.883 177.299 320.412 184.353 322.888 197.027C326.983 196.037 331.131 195.247 335.289 194.534C335.289 194.089 335.268 193.639 335.289 193.204C335.46 181.628 342.985 161.928 338.406 148.477Z" fill="#6669FB"/>
<path d="M322.874 197.027C323.025 197.81 323.183 198.607 323.34 199.425C325.477 210.38 328.504 228.805 332.637 237.449L341.251 233.521C339.941 219.431 335.439 205.85 335.275 194.548C331.117 195.247 326.969 196.037 322.874 197.027Z" fill="#6669FB"/>
<path d="M302.782 235.115L313.571 237.923C313.571 237.923 318.709 219.459 317.277 206.479C316.868 202.295 316.907 198.078 317.396 193.902C315.217 184.637 309.43 184.374 305.882 189.805C302.333 195.237 302.782 235.115 302.782 235.115Z" fill="#6669FB"/>
<path d="M316.086 76.5049C316.086 76.5049 310.677 85.005 313.721 89.6396C316.765 94.2741 321.838 91.999 321.838 91.999L321.487 101.082L329.632 101.724C329.632 101.724 331.961 84.5205 330.332 79.4857C328.703 74.4509 320.191 70.0376 316.086 76.5049Z" fill="#F8A17A"/>
<path d="M301.24 126.186L298.172 125.483C298.172 125.483 296.476 126.161 295.52 124.781C294.564 123.401 294.592 123.057 294.494 121.653C294.469 121.26 295.46 119.107 295.993 118.711C296.224 118.535 298.147 117.064 299.398 120.098C301.822 125.975 302.712 123.303 302.712 123.303L301.24 126.186Z" fill="#F8A17A"/>
<path d="M321.817 133.264C312.359 130.532 301.191 120.059 301.191 120.059C301.191 120.059 299.713 121.983 299.384 125.361C299.054 128.738 312.289 138.453 321.564 140.023C326.283 140.82 328.321 137.417 324.538 133.959C323.176 133.32 322.776 133.538 321.817 133.264Z" fill="#E3585B"/>
<path d="M328.048 103.34C319.515 101.623 321.239 112.117 321.508 117.935C321.75 123.159 322.37 131.062 320.892 134.981C319.414 138.899 323.291 141.785 326.553 137.47C331.176 130.539 335.702 104.874 328.048 103.34Z" fill="#5851BC"/>
<path d="M340.904 149.33C340.904 149.33 324.99 157.244 305.041 150.735C306.891 142.234 310.621 132.309 310.274 125.217C309.928 118.124 305.538 123.303 304.53 116.72C304.141 114.192 308.032 110.003 309.865 107.24C311.697 104.477 310.103 99.2632 312.565 98.3258C317.669 96.3772 317.82 96.5703 322.416 95.6995C332.613 93.8141 338.116 98.9297 335.688 116.091C333.261 133.253 337.906 146.848 340.904 149.33Z" fill="#FF6669"/>
<path d="M293.271 126.719C292.003 125.564 291.043 124.093 289.751 122.963C288.458 121.832 286.496 121.021 284.871 121.734C286.127 124.44 287.702 126.986 289.562 129.317C290.07 130.001 290.668 130.611 291.341 131.133C292.928 132.281 295.051 132.477 296.946 132.053C297.405 131.951 297.937 131.73 298.025 131.266C298.196 130.308 297.226 129.303 296.508 128.914C295.345 128.315 294.258 127.578 293.271 126.719Z" fill="#F8A17A"/>
<path d="M318.674 130.634C308.866 131.765 294.567 126.4 294.567 126.4C294.567 126.4 293.94 128.742 294.917 131.989C295.895 135.237 311.854 139.099 321.018 136.968C325.68 135.887 326.272 131.961 321.438 130.223C319.946 130.167 319.673 130.518 318.674 130.634Z" fill="#E3585B"/>
<path d="M316.545 100.538C307.864 101.24 312.404 110.85 314.261 116.376C315.925 121.333 318.692 128.759 318.349 132.934C318.005 137.108 322.524 138.815 324.472 133.766C327.029 125.831 324.325 99.9057 316.545 100.538Z" fill="#E3585B"/>
<path d="M343.661 127.337C343.661 127.337 335.457 132.727 330.465 132.67C329.26 123.616 329.618 121.786 329.618 121.786L328.567 133.503C328.567 133.503 327.232 134.77 324.58 133.341C321.929 131.912 321.536 130.883 321.536 130.883C321.536 130.883 329.677 97.8799 324.255 86.8623C319.063 79.1381 319.28 82.6246 319.28 82.6246L313.21 76.7155C313.21 76.7155 316.254 68.2891 325.659 69.6935C340.021 71.8001 339.979 90.3663 340.13 90.7947C341.99 96.0893 338.112 123.398 343.661 127.337Z" fill="#212121"/>
<path d="M324.074 85.425C324.672 84.0511 324.163 82.5024 322.935 81.9659C321.708 81.4293 320.229 82.108 319.631 83.4819C319.033 84.8558 319.543 86.4044 320.77 86.941C321.997 87.4776 323.477 86.7988 324.074 85.425Z" fill="#F8A17A"/>
<path d="M258.021 136.898C259.072 130.367 261.563 124.023 262.876 117.535C263.283 112.661 264.193 107.497 266.19 102.999C267.864 100.65 271.553 99.4001 274.408 99.4879C276.579 100.831 278.337 102.749 279.487 105.032C281.687 110.175 279.081 115.589 276.548 120.101C272.996 126.421 269.987 133.092 265.111 138.509C264.614 139.057 263.153 139.935 262.333 139.994C261.391 140.065 260.389 139.254 259.657 138.759C258.925 138.263 258.056 137.835 258.021 136.898Z" fill="#6691DD"/>
<path d="M258.501 132.986C258.69 129.212 268.772 131.189 267.115 137.129C265.458 143.07 252.959 159.853 252.959 159.853L247.8 157.082C247.8 157.082 258.105 140.876 258.501 132.986Z" fill="#6691DD"/>
<path d="M263.626 77.8074C263.626 77.8074 258.165 88.4282 263.139 90.6191C268.113 92.81 265.059 97.5779 265.059 97.5779L276.096 101.317C276.096 101.317 274.38 97.1847 274.821 95.4467C275.263 93.7088 278.723 90.9737 280.076 85.6967C282.058 77.8847 279.904 75.4867 277.526 73.9559C275.147 72.4251 267.574 69.5706 263.626 77.8074Z" fill="#F8A17A"/>
<path d="M234.828 255.995C234.828 255.995 234.695 256.072 234.478 256.205C233.259 256.985 229.479 259.716 234.828 260.475C241.085 261.37 246.444 260.475 250.914 260.475C255.383 260.475 255.38 260.475 254.487 256.893C253.594 253.312 252.7 248.818 252.7 247.042C252.7 245.265 248.231 245.251 248.231 245.251C248.231 245.251 248.231 251.518 246.444 252.413C244.658 253.309 237.512 254.197 234.828 255.995Z" fill="#103942"/>
<path d="M283.971 259.579C283.971 259.579 278.611 259.579 280.398 256.893C282.184 254.208 285.757 254.204 288.455 253.309C291.152 252.413 293.814 249.728 293.814 247.042C293.814 244.356 296.494 245.251 296.494 245.251C296.494 245.251 296.494 250.623 298.28 253.326C300.067 256.03 300.96 259.597 299.174 259.597L283.971 259.579Z" fill="#103942"/>
<path d="M293.092 199.165C292.924 201.518 294.469 206.124 295.005 208.533C296.792 216.608 299.471 230.923 297.685 247.042C295.898 249.727 290.539 248.832 290.539 247.042C290.539 245.251 282.482 207.638 281.603 202.262L281.582 202.153C281.974 192.403 290.129 194.06 293.092 199.165Z" fill="#5751BB"/>
<path d="M287.856 149.306C291.432 153.786 291.432 164.533 290.539 173.486C289.912 179.767 291.481 190.444 293.093 199.046C293.825 206.23 285.652 211.198 281.582 202.034C280.594 196.416 275.75 183.426 271.774 169.905C267.798 156.384 269.861 150.366 269.861 150.366C276.909 150.647 284.479 150.577 287.856 149.306Z" fill="#5751BB"/>
<path d="M261.92 201.953C260.915 225.07 253.012 249.727 253.012 249.727L245.862 247.937C245.862 247.937 247.463 208.691 248.059 198.572C248.654 188.453 260.196 193.544 261.92 201.953Z" fill="#5751BB"/>
<path d="M249.439 172.71C250.332 161.067 256.701 149.604 256.701 149.604C256.701 149.604 263.805 147.431 269.861 150.485C275.918 153.54 273.935 164.916 271.297 171.105C269.437 175.361 264.06 197.642 261.945 201.367C259.829 205.092 248.602 204.695 248.059 198.558C247.516 192.421 249.127 176.727 249.439 172.71Z" fill="#5751BB"/>
<path d="M262.466 73.3484C261.041 77.1438 264.064 79.7631 263.167 83.2355C262.27 86.7078 266.19 85.8547 266.204 82.1611C266.218 78.4675 269.139 79.6753 269.357 82.5122C269.686 87.0765 267.034 93.4701 277.119 91.8831C284.398 90.7385 283.225 82.3542 283.022 79.5278C282.818 76.7015 283.477 74.0998 277.855 70.817C269.802 66.1017 263.892 69.553 262.466 73.3484Z" fill="black"/>
<path d="M253.979 151.676C253.979 151.676 275.651 168.286 291.247 156.858C287.512 141.929 285.596 122.32 286.09 119.571C286.09 119.571 287.726 106.229 285.207 103.771C282.689 101.314 276.828 95.1062 273.119 95.6504C272.369 95.7592 269.395 98.238 265.458 96.8266C256.13 100.636 253.758 107.447 255.299 115.393C256.841 123.338 259.072 132.548 258.855 137.983C258.638 143.418 253.979 151.676 253.979 151.676Z" fill="#6691DD"/>
<path d="M256.025 119.055C256.161 119.061 256.297 119.076 256.431 119.1C258.056 119.392 259.422 120.466 260.659 121.558C263.307 123.921 265.787 126.747 266.554 130.22C267.381 133.956 266.095 137.825 264.54 141.318C262.826 145.17 260.765 148.856 258.382 152.332C258.098 152.75 257.762 153.347 257.391 153.958C255.254 152.648 253.979 151.676 253.979 151.676C253.979 151.676 258.624 143.386 258.855 137.962C259.051 133.362 257.45 126.045 256.025 119.055Z" fill="#2A2A7C"/>
<path d="M266.407 140.17C263.647 134.163 264.586 127.144 262.071 121.021C259.699 116.744 258.865 112.64 258.025 107.791C258.592 101.243 261.055 97.9325 266.53 101.724C271.21 104.765 272.057 110.716 272.46 115.877C272.271 121.727 278.138 145.454 266.407 140.17Z" fill="#6691DD"/>
<path d="M243.659 121.021C243.659 121.021 237.333 134.082 237.515 134.043C237.697 134.005 242.941 136.687 243.162 136.501C243.383 136.315 249.439 123.995 249.439 123.995L243.659 121.021Z" fill="#2A2A7C"/>
<path d="M242.023 132.302C236.839 129.563 241.004 121.463 244.5 127.355C245.221 128.759 247.498 128.341 247.544 129.044C246.335 134.12 247.733 135.648 242.023 132.302Z" fill="#F8A17A"/>
<path d="M272.145 137.888C275.918 137.962 275.238 148.017 269.143 147.146C263.048 146.276 243.484 134.419 243.484 134.419L247.337 129.879C247.337 129.879 265.675 137.765 272.145 137.888Z" fill="#6691DD"/>
<path d="M135.142 217.233C135.801 217.128 136.106 215.615 135.822 213.855L116.906 97.3497C116.622 95.5942 115.855 94.2495 115.197 94.3583C114.538 94.4637 114.233 95.9769 114.517 97.7359L133.415 214.242C133.717 216.001 134.484 217.331 135.142 217.233Z" fill="#2A2A7C"/>
<path d="M86.928 217.233C86.2659 217.128 85.9647 215.615 86.2484 213.855L105.147 97.3497C105.43 95.5942 106.198 94.2495 106.856 94.3583C107.515 94.4637 107.819 95.9769 107.536 97.7359L88.6199 214.242C88.3536 216.001 87.5865 217.331 86.928 217.233Z" fill="#2A2A7C"/>
<path d="M148.758 4.66263H73.312V123.317H148.758V4.66263Z" fill="#E8F4FF"/>
<path d="M148.758 115.625H73.312V123.314H148.758V115.625Z" fill="#DCE6F0"/>
<path d="M146.173 4.18512H142.194V78.4816H146.173V4.18512Z" fill="#DCE6F0"/>
<path d="M68.8213 0.161514V127.818H153.242V0.161514H68.8213ZM73.3121 4.66263H148.758V123.314H73.3121V4.66263Z" fill="#E5E6E6"/>
<path d="M82.6972 22.9196L80.0245 22.9408L80.1041 33.1434L82.7768 33.1223L82.6972 22.9196Z" fill="#FF6669"/>
<path d="M86.1755 18.8898L83.5028 18.9108L83.6143 33.1405L86.287 33.1195L86.1755 18.8898Z" fill="#FF6669"/>
<path d="M89.6648 16.2817L86.9922 16.3028L87.1241 33.141L89.7968 33.12L89.6648 16.2817Z" fill="#FF6669"/>
<path d="M93.1574 14.0739L90.4847 14.0949L90.634 33.1416L93.3067 33.1205L93.1574 14.0739Z" fill="#FF6669"/>
<path d="M96.6392 10.4969L93.9666 10.5179L94.1438 33.1422L96.8165 33.1211L96.6392 10.4969Z" fill="#FF6669"/>
<path d="M111.536 50.2496C111.5 52.1856 110.893 54.0676 109.794 55.6597C108.694 57.2517 107.15 58.4827 105.354 59.1983C103.559 59.9139 101.593 60.0823 99.7031 59.6822C97.8129 59.2821 96.0826 58.3314 94.7294 56.9494C93.3762 55.5675 92.4604 53.8157 92.0967 51.914C91.7331 50.0122 91.9379 48.0452 92.6854 46.2597C93.4329 44.4741 94.6898 42.9496 96.2985 41.8774C97.9072 40.8052 99.796 40.233 101.728 40.2327V42.585C100.262 42.5855 98.8286 43.0193 97.6073 43.832C96.3859 44.6448 95.4308 45.8004 94.8614 47.1544C94.292 48.5084 94.1335 50.0007 94.4059 51.4445C94.6782 52.8883 95.3693 54.2196 96.3926 55.2717C97.4159 56.3239 98.7261 57.0503 100.159 57.36C101.592 57.6697 103.085 57.5491 104.45 57.0131C105.815 56.4771 106.992 55.5495 107.833 54.3465C108.675 53.1435 109.144 51.7184 109.182 50.2496H111.536Z" fill="#6669FB"/>
<path d="M109.193 50.0565V50.2496C109.167 52.2487 108.354 54.1565 106.93 55.5566C105.506 56.9567 103.587 57.7353 101.593 57.7226C99.5981 57.7098 97.6895 56.9067 96.2836 55.4885C94.8777 54.0703 94.0886 52.1523 94.0886 50.153C94.0886 48.1537 94.8777 46.2357 96.2836 44.8175C97.6895 43.3993 99.5981 42.5962 101.593 42.5834C103.587 42.5707 105.506 43.3493 106.93 44.7494C108.354 46.1495 109.167 48.0574 109.193 50.0565Z" fill="#FF6669"/>
<path d="M117.235 117.355V118.089C117.064 118.879 115.393 119.494 113.361 119.494C111.21 119.494 109.469 118.791 109.469 117.945V117.212C109.473 117.337 109.512 117.458 109.581 117.563C109.995 118.24 111.529 118.746 113.361 118.746C115.193 118.746 116.727 118.24 117.141 117.563C117.178 117.496 117.21 117.427 117.235 117.355Z" fill="#A3C1F5"/>
<path d="M117.235 116.443V117.18C117.064 117.97 115.393 118.584 113.361 118.584C111.21 118.584 109.469 117.882 109.469 117.039V116.306C109.475 116.431 109.514 116.552 109.581 116.657C109.995 117.334 111.529 117.836 113.361 117.836C115.193 117.836 116.727 117.334 117.141 116.657C117.178 116.588 117.209 116.516 117.235 116.443Z" fill="#A3C1F5"/>
<path d="M117.235 115.533V116.267C117.064 117.057 115.393 117.671 113.361 117.671C111.21 117.671 109.469 116.969 109.469 116.123V115.389C109.472 115.52 109.511 115.648 109.581 115.758C109.995 116.432 111.529 116.938 113.361 116.938C115.193 116.938 116.727 116.432 117.141 115.758C117.178 115.686 117.21 115.611 117.235 115.533Z" fill="#A3C1F5"/>
<path d="M117.235 114.62V115.358C117.064 116.148 115.393 116.762 113.361 116.762C111.21 116.762 109.469 116.06 109.469 115.217V114.483C109.475 114.608 109.514 114.73 109.581 114.835C109.995 115.512 111.529 116.014 113.361 116.014C115.193 116.014 116.727 115.512 117.141 114.835C117.178 114.766 117.209 114.694 117.235 114.62Z" fill="#A3C1F5"/>
<path d="M117.235 113.711V114.459C117.064 115.249 115.393 115.863 113.361 115.863C111.21 115.863 109.469 115.161 109.469 114.315V113.581C109.475 113.706 109.514 113.827 109.581 113.932C109.995 114.606 111.529 115.112 113.361 115.112C115.193 115.112 116.727 114.606 117.141 113.932C117.178 113.861 117.21 113.787 117.235 113.711Z" fill="#A3C1F5"/>
<path d="M117.235 112.798V113.535C117.064 114.325 115.393 114.94 113.361 114.94C111.21 114.94 109.469 114.238 109.469 113.395V112.661C109.475 112.786 109.514 112.907 109.581 113.012C109.995 113.69 111.529 114.192 113.361 114.192C115.193 114.192 116.727 113.69 117.141 113.012C117.178 112.944 117.21 112.872 117.235 112.798Z" fill="#A3C1F5"/>
<path d="M113.354 113.943C115.498 113.943 117.235 113.253 117.235 112.401C117.235 111.55 115.498 110.86 113.354 110.86C111.211 110.86 109.473 111.55 109.473 112.401C109.473 113.253 111.211 113.943 113.354 113.943Z" fill="#A3C1F5"/>
<path d="M118.181 109.586L117.89 110.263C117.417 110.916 115.641 110.821 113.774 110.01C111.802 109.154 110.478 107.827 110.818 107.044L111.109 106.37C111.059 106.489 111.044 106.621 111.067 106.749C111.175 107.535 112.387 108.61 114.065 109.336C115.743 110.063 117.354 110.218 118.002 109.761C118.067 109.708 118.127 109.649 118.181 109.586Z" fill="#A3C1F5"/>
<path d="M118.343 109.234C118.681 108.453 117.36 107.127 115.393 106.273C113.426 105.419 111.558 105.36 111.22 106.142C110.883 106.923 112.203 108.248 114.17 109.102C116.137 109.956 118.006 110.015 118.343 109.234Z" fill="#A3C1F5"/>
<path d="M128.378 112.767V113.504C128.207 114.294 126.539 114.908 124.504 114.908C122.357 114.908 120.612 114.206 120.612 113.363V112.633C120.618 112.758 120.656 112.879 120.724 112.984C121.138 113.662 122.675 114.164 124.504 114.164C126.332 114.164 127.87 113.662 128.284 112.984C128.322 112.915 128.354 112.842 128.378 112.767Z" fill="#A3C1F5"/>
<path d="M128.378 111.857V112.591C128.207 113.381 126.539 113.995 124.504 113.995C122.357 113.995 120.612 113.293 120.612 112.447V111.72C120.616 111.845 120.655 111.967 120.724 112.071C121.138 112.749 122.675 113.251 124.504 113.251C126.332 113.251 127.87 112.749 128.284 112.071C128.323 112.004 128.354 111.932 128.378 111.857Z" fill="#A3C1F5"/>
<path d="M128.378 110.948V111.685C128.207 112.475 126.539 113.09 124.504 113.09C122.357 113.09 120.612 112.387 120.612 111.545V110.811C120.618 110.936 120.656 111.057 120.724 111.162C121.138 111.84 122.675 112.342 124.504 112.342C126.332 112.342 127.87 111.84 128.284 111.162C128.322 111.094 128.354 111.022 128.378 110.948Z" fill="#A3C1F5"/>
<path d="M128.378 110.035V110.769C128.207 111.559 126.539 112.173 124.504 112.173C122.357 112.173 120.612 111.471 120.612 110.625V109.895C120.616 110.02 120.655 110.141 120.724 110.246C121.138 110.923 122.675 111.429 124.504 111.429C126.332 111.429 127.87 110.923 128.284 110.246C128.322 110.179 128.354 110.108 128.378 110.035Z" fill="#A3C1F5"/>
<path d="M128.378 109.122V109.859C128.207 110.649 126.539 111.264 124.504 111.264C122.357 111.264 120.612 110.562 120.612 109.719V108.985C120.618 109.11 120.656 109.231 120.724 109.336C121.138 110.014 122.675 110.516 124.504 110.516C126.332 110.516 127.87 110.014 128.284 109.336C128.322 109.268 128.354 109.196 128.378 109.122Z" fill="#A3C1F5"/>
<path d="M128.378 117.355V118.089C128.207 118.879 126.539 119.494 124.504 119.494C122.357 119.494 120.612 118.791 120.612 117.945V117.211C120.616 117.337 120.655 117.458 120.724 117.563C121.138 118.24 122.675 118.746 124.504 118.746C126.332 118.746 127.87 118.24 128.284 117.563C128.322 117.497 128.354 117.428 128.378 117.355Z" fill="#A3C1F5"/>
<path d="M128.378 116.443V117.18C128.207 117.97 126.539 118.584 124.504 118.584C122.357 118.584 120.612 117.882 120.612 117.039V116.306C120.618 116.431 120.656 116.552 120.724 116.657C121.138 117.334 122.675 117.836 124.504 117.836C126.332 117.836 127.87 117.334 128.284 116.657C128.322 116.589 128.354 116.517 128.378 116.443Z" fill="#A3C1F5"/>
<path d="M128.378 115.533V116.267C128.207 117.057 126.539 117.671 124.504 117.671C122.357 117.671 120.612 116.969 120.612 116.123V115.389C120.615 115.52 120.653 115.648 120.724 115.758C121.138 116.432 122.675 116.938 124.504 116.938C126.332 116.938 127.87 116.432 128.284 115.758C128.323 115.686 128.354 115.611 128.378 115.533Z" fill="#A3C1F5"/>
<path d="M128.378 114.62V115.358C128.207 116.148 126.539 116.762 124.504 116.762C122.357 116.762 120.612 116.06 120.612 115.217V114.483C120.618 114.608 120.656 114.73 120.724 114.835C121.138 115.512 122.675 116.014 124.504 116.014C126.332 116.014 127.87 115.512 128.284 114.835C128.322 114.766 128.354 114.695 128.378 114.62Z" fill="#A3C1F5"/>
<path d="M128.378 113.711V114.459C128.207 115.249 126.539 115.863 124.504 115.863C122.357 115.863 120.612 115.161 120.612 114.315V113.581C120.618 113.706 120.656 113.827 120.724 113.932C121.138 114.606 122.675 115.112 124.504 115.112C126.332 115.112 127.87 114.606 128.284 113.932C128.322 113.862 128.354 113.788 128.378 113.711Z" fill="#A3C1F5"/>
<path d="M128.378 108.213V108.947C128.207 109.737 126.539 110.351 124.504 110.351C122.357 110.351 120.612 109.649 120.612 108.803V108.069C120.616 108.194 120.655 108.316 120.724 108.42C121.138 109.098 122.675 109.603 124.504 109.603C126.332 109.603 127.87 109.098 128.284 108.42C128.322 108.354 128.354 108.285 128.378 108.213Z" fill="#A3C1F5"/>
<path d="M124.497 109.354C126.64 109.354 128.378 108.664 128.378 107.813C128.378 106.961 126.64 106.271 124.497 106.271C122.353 106.271 120.616 106.961 120.616 107.813C120.616 108.664 122.353 109.354 124.497 109.354Z" fill="#A3C1F5"/>
<path d="M129.324 105L129.033 105.674C128.56 106.331 126.784 106.233 124.917 105.425C122.949 104.568 121.625 103.238 121.961 102.455L122.252 101.781C122.203 101.901 122.188 102.032 122.21 102.16C122.322 102.946 123.53 104.021 125.212 104.751C126.893 105.481 128.497 105.629 129.145 105.172C129.211 105.121 129.27 105.063 129.324 105Z" fill="#A3C1F5"/>
<path d="M129.489 104.649C129.827 103.867 128.506 102.542 126.539 101.688C124.572 100.834 122.704 100.775 122.366 101.556C122.029 102.337 123.35 103.663 125.317 104.517C127.283 105.371 129.152 105.43 129.489 104.649Z" fill="#A3C1F5"/>
<path d="M139.731 108.09V108.841C139.556 109.631 137.889 110.246 135.857 110.246C133.706 110.246 131.965 109.543 131.965 108.701V107.967C131.971 108.092 132.009 108.213 132.077 108.318C132.491 108.996 134.025 109.498 135.857 109.498C137.689 109.498 139.223 108.996 139.637 108.318C139.674 108.245 139.706 108.168 139.731 108.09Z" fill="#A3C1F5"/>
<path d="M139.731 107.181V107.914C139.556 108.704 137.889 109.319 135.857 109.319C133.706 109.319 131.965 108.617 131.965 107.77V107.037C131.971 107.162 132.009 107.283 132.077 107.388C132.491 108.062 134.025 108.567 135.857 108.567C137.689 108.567 139.223 108.062 139.637 107.388C139.673 107.321 139.705 107.252 139.731 107.181Z" fill="#A3C1F5"/>
<path d="M139.731 106.268V107.005C139.556 107.795 137.889 108.409 135.857 108.409C133.706 108.409 131.965 107.707 131.965 106.865V106.131C131.971 106.256 132.009 106.377 132.077 106.482C132.491 107.159 134.025 107.662 135.857 107.662C137.689 107.662 139.223 107.159 139.637 106.482C139.674 106.413 139.705 106.341 139.731 106.268Z" fill="#A3C1F5"/>
<path d="M139.731 105.358V106.092C139.556 106.882 137.889 107.497 135.857 107.497C133.706 107.497 131.965 106.794 131.965 105.948V105.214C131.971 105.339 132.009 105.461 132.077 105.565C132.491 106.24 134.025 106.745 135.857 106.745C137.689 106.745 139.223 106.24 139.637 105.565C139.673 105.499 139.705 105.43 139.731 105.358Z" fill="#A3C1F5"/>
<path d="M139.731 104.445V105.183C139.556 105.973 137.889 106.587 135.857 106.587C133.706 106.587 131.965 105.885 131.965 105.042V104.312C131.971 104.437 132.009 104.558 132.077 104.663C132.491 105.341 134.025 105.843 135.857 105.843C137.689 105.843 139.223 105.341 139.637 104.663C139.674 104.593 139.705 104.52 139.731 104.445Z" fill="#A3C1F5"/>
<path d="M139.731 112.679V113.406C139.556 114.196 137.889 114.81 135.857 114.81C133.706 114.81 131.965 114.108 131.965 113.262V112.528C131.968 112.659 132.006 112.786 132.077 112.896C132.491 113.571 134.025 114.076 135.857 114.076C137.689 114.076 139.223 113.571 139.637 112.896C139.674 112.827 139.705 112.754 139.731 112.679Z" fill="#A3C1F5"/>
<path d="M139.731 111.766V112.503C139.556 113.293 137.889 113.908 135.857 113.908C133.706 113.908 131.965 113.205 131.965 112.363V111.65C131.971 111.775 132.009 111.896 132.077 112.001C132.491 112.679 134.025 113.181 135.857 113.181C137.689 113.181 139.223 112.679 139.637 112.001C139.675 111.926 139.707 111.847 139.731 111.766Z" fill="#A3C1F5"/>
<path d="M139.731 110.857V111.594C139.556 112.384 137.889 112.998 135.857 112.998C133.706 112.998 131.965 112.296 131.965 111.45V110.716C131.971 110.841 132.009 110.962 132.077 111.067C132.491 111.741 134.025 112.247 135.857 112.247C137.689 112.247 139.223 111.741 139.637 111.067C139.674 111 139.705 110.929 139.731 110.857Z" fill="#A3C1F5"/>
<path d="M139.731 109.944V110.681C139.556 111.471 137.889 112.085 135.857 112.085C133.706 112.085 131.965 111.383 131.965 110.541V109.807C131.969 109.932 132.008 110.054 132.077 110.158C132.491 110.836 134.025 111.338 135.857 111.338C137.689 111.338 139.223 110.836 139.637 110.158C139.674 110.089 139.706 110.018 139.731 109.944Z" fill="#A3C1F5"/>
<path d="M139.731 109.034V109.772C139.556 110.562 137.889 111.176 135.857 111.176C133.706 111.176 131.965 110.474 131.965 109.628V108.894C131.968 109.025 132.006 109.153 132.077 109.263C132.491 109.937 134.025 110.442 135.857 110.442C137.689 110.442 139.223 109.937 139.637 109.263C139.674 109.189 139.706 109.113 139.731 109.034Z" fill="#A3C1F5"/>
<path d="M139.731 117.355V118.089C139.556 118.879 137.889 119.494 135.857 119.494C133.706 119.494 131.965 118.791 131.965 117.945V117.212C131.969 117.337 132.008 117.458 132.077 117.563C132.491 118.24 134.025 118.746 135.857 118.746C137.689 118.746 139.223 118.24 139.637 117.563C139.674 117.496 139.705 117.427 139.731 117.355Z" fill="#A3C1F5"/>
<path d="M139.731 116.443V117.18C139.556 117.97 137.889 118.584 135.857 118.584C133.706 118.584 131.965 117.882 131.965 117.039V116.306C131.971 116.431 132.009 116.552 132.077 116.657C132.491 117.334 134.025 117.836 135.857 117.836C137.689 117.836 139.223 117.334 139.637 116.657C139.674 116.588 139.705 116.516 139.731 116.443Z" fill="#A3C1F5"/>
<path d="M139.731 115.533V116.267C139.556 117.057 137.889 117.671 135.857 117.671C133.706 117.671 131.965 116.969 131.965 116.123V115.389C131.968 115.52 132.006 115.648 132.077 115.758C132.491 116.432 134.025 116.938 135.857 116.938C137.689 116.938 139.223 116.432 139.637 115.758C139.674 115.686 139.706 115.611 139.731 115.533Z" fill="#A3C1F5"/>
<path d="M139.731 114.62V115.358C139.556 116.148 137.889 116.762 135.857 116.762C133.706 116.762 131.965 116.06 131.965 115.217V114.483C131.971 114.608 132.009 114.73 132.077 114.835C132.491 115.512 134.025 116.014 135.857 116.014C137.689 116.014 139.223 115.512 139.637 114.835C139.674 114.766 139.705 114.694 139.731 114.62Z" fill="#A3C1F5"/>
<path d="M139.731 113.711V114.459C139.556 115.249 137.889 115.863 135.857 115.863C133.706 115.863 131.965 115.161 131.965 114.315V113.581C131.971 113.706 132.009 113.827 132.077 113.932C132.491 114.606 134.025 115.112 135.857 115.112C137.689 115.112 139.223 114.606 139.637 113.932C139.674 113.861 139.706 113.787 139.731 113.711Z" fill="#A3C1F5"/>
<path d="M139.731 103.536V104.277C139.556 105.067 137.889 105.681 135.857 105.681C133.706 105.681 131.965 104.979 131.965 104.133V103.399C131.971 103.524 132.009 103.645 132.077 103.75C132.491 104.424 134.025 104.93 135.857 104.93C137.689 104.93 139.223 104.424 139.637 103.75C139.674 103.681 139.705 103.61 139.731 103.536Z" fill="#A3C1F5"/>
<path d="M135.846 104.677C137.99 104.677 139.728 103.987 139.728 103.136C139.728 102.285 137.99 101.595 135.846 101.595C133.703 101.595 131.965 102.285 131.965 103.136C131.965 103.987 133.703 104.677 135.846 104.677Z" fill="#A3C1F5"/>
<path d="M140.677 100.324L140.383 100.998C139.913 101.654 138.137 101.556 136.27 100.748C134.298 99.8917 132.974 98.561 133.314 97.7781L133.605 97.104C133.554 97.2248 133.538 97.3573 133.559 97.4867C133.671 98.2696 134.88 99.344 136.561 100.074C138.242 100.805 139.85 100.952 140.498 100.496C140.564 100.444 140.623 100.387 140.677 100.324Z" fill="#A3C1F5"/>
<path d="M140.842 99.9704C141.18 99.1893 139.859 97.8638 137.892 97.0098C135.925 96.1559 134.057 96.0968 133.719 96.878C133.381 97.6591 134.702 98.9846 136.669 99.8386C138.636 100.693 140.504 100.752 140.842 99.9704Z" fill="#A3C1F5"/>
<path d="M100.74 64.4551H79.1654V64.8202H100.74V64.4551Z" fill="#8896D8"/>
<path d="M100.74 65.5049H79.1654V65.87H100.74V65.5049Z" fill="#8896D8"/>
<path d="M100.74 66.5582H79.1654V66.9233H100.74V66.5582Z" fill="#8896D8"/>
<path d="M100.74 67.6115H79.1654V67.9766H100.74V67.6115Z" fill="#8896D8"/>
<path d="M100.74 68.6613H79.1654V69.0264H100.74V68.6613Z" fill="#8896D8"/>
<path d="M100.74 69.7146H79.1654V70.0797H100.74V69.7146Z" fill="#8896D8"/>
<path d="M100.74 71.0347H79.1654V71.3999H100.74V71.0347Z" fill="#8896D8"/>
<path d="M100.74 72.088H79.1654V72.4532H100.74V72.088Z" fill="#8896D8"/>
<path d="M100.74 73.1378H79.1654V73.503H100.74V73.1378Z" fill="#8896D8"/>
<path d="M100.74 74.1911H79.1654V74.5563H100.74V74.1911Z" fill="#8896D8"/>
<path d="M100.74 75.2409H79.1654V75.6061H100.74V75.2409Z" fill="#8896D8"/>
<path d="M100.74 76.2942H79.1654V76.6594H100.74V76.2942Z" fill="#8896D8"/>
<path d="M140.113 43.0099H118.538V43.375H140.113V43.0099Z" fill="#8896D8"/>
<path d="M140.113 44.0596H118.538V44.4248H140.113V44.0596Z" fill="#8896D8"/>
<path d="M140.113 45.1129H118.538V45.4781H140.113V45.1129Z" fill="#8896D8"/>
<path d="M140.113 46.1663H118.538V46.5314H140.113V46.1663Z" fill="#8896D8"/>
<path d="M140.113 47.216H118.538V47.5812H140.113V47.216Z" fill="#8896D8"/>
<path d="M140.113 48.2693H118.538V48.6345H140.113V48.2693Z" fill="#8896D8"/>
<path d="M140.113 49.5895H118.538V49.9546H140.113V49.5895Z" fill="#8896D8"/>
<path d="M140.113 50.6428H118.538V51.008H140.113V50.6428Z" fill="#8896D8"/>
<path d="M140.113 51.6926H118.538V52.0577H140.113V51.6926Z" fill="#8896D8"/>
<path d="M140.113 52.7459H118.538V53.111H140.113V52.7459Z" fill="#8896D8"/>
<path d="M140.113 53.7957H118.538V54.1608H140.113V53.7957Z" fill="#8896D8"/>
<path d="M140.113 54.849H118.538V55.2141H140.113V54.849Z" fill="#8896D8"/>
<path d="M140.113 55.9936H118.538V56.3587H140.113V55.9936Z" fill="#8896D8"/>
<path d="M140.113 57.0433H118.538V57.4085H140.113V57.0433Z" fill="#8896D8"/>
<path d="M140.113 58.0966H118.538V58.4618H140.113V58.0966Z" fill="#8896D8"/>
<path d="M140.113 59.15H118.538V59.5151H140.113V59.15Z" fill="#8896D8"/>
<path d="M140.113 60.1998H118.538V60.5649H140.113V60.1998Z" fill="#8896D8"/>
<path d="M140.113 61.2531H118.538V61.6182H140.113V61.2531Z" fill="#8896D8"/>
<path d="M140.113 62.5732H118.538V62.9383H140.113V62.5732Z" fill="#8896D8"/>
<path d="M140.113 63.6265H118.538V63.9917H140.113V63.6265Z" fill="#8896D8"/>
<path d="M140.113 64.6763H118.538V65.0414H140.113V64.6763Z" fill="#8896D8"/>
<path d="M140.113 65.7296H118.538V66.0947H140.113V65.7296Z" fill="#8896D8"/>
<path d="M140.113 66.7794H118.538V67.1445H140.113V66.7794Z" fill="#8896D8"/>
<path d="M140.113 67.8327H118.538V68.1978H140.113V67.8327Z" fill="#8896D8"/>
<path d="M83.8699 115.74L82.6929 118.117L81.5159 115.74V109.291H83.8699V115.74Z" fill="#B4BDED"/>
<path d="M88.0524 115.74L86.8754 118.117L85.7019 115.74V107.1H88.0524V115.74Z" fill="#6E66C9"/>
<path d="M92.2349 115.74L91.0579 118.117L89.8845 115.74V98.87H92.2349V115.74Z" fill="#C4C3FC"/>
<path d="M96.4174 115.74L95.2439 118.117L94.0669 115.74V104.066H96.4174V115.74Z" fill="#B4BDED"/>
<path d="M100.603 115.74L99.4264 118.117L98.2495 115.74V100.12H100.603V115.74Z" fill="#C4C3FC"/>
<path d="M82.6929 119.104C82.8844 119.104 83.0397 118.948 83.0397 118.756C83.0397 118.564 82.8844 118.409 82.6929 118.409C82.5014 118.409 82.3461 118.564 82.3461 118.756C82.3461 118.948 82.5014 119.104 82.6929 119.104Z" fill="#9595CE"/>
<path d="M86.8754 119.104C87.0669 119.104 87.2222 118.948 87.2222 118.756C87.2222 118.564 87.0669 118.409 86.8754 118.409C86.6839 118.409 86.5286 118.564 86.5286 118.756C86.5286 118.948 86.6839 119.104 86.8754 119.104Z" fill="#9595CE"/>
<path d="M91.0579 119.104C91.2495 119.104 91.4047 118.948 91.4047 118.756C91.4047 118.564 91.2495 118.409 91.0579 118.409C90.8664 118.409 90.7112 118.564 90.7112 118.756C90.7112 118.948 90.8664 119.104 91.0579 119.104Z" fill="#9595CE"/>
<path d="M95.2439 119.104C95.4354 119.104 95.5907 118.948 95.5907 118.756C95.5907 118.564 95.4354 118.409 95.2439 118.409C95.0524 118.409 94.8971 118.564 94.8971 118.756C94.8971 118.948 95.0524 119.104 95.2439 119.104Z" fill="#9595CE"/>
<path d="M99.4264 119.104C99.618 119.104 99.7732 118.948 99.7732 118.756C99.7732 118.564 99.618 118.409 99.4264 118.409C99.2349 118.409 99.0797 118.564 99.0797 118.756C99.0797 118.948 99.2349 119.104 99.4264 119.104Z" fill="#9595CE"/>
<path d="M127.895 32.4487C127.895 32.54 127.895 32.6313 127.895 32.7226H122.609V27.1436C124.011 27.1464 125.355 27.7065 126.346 28.701C127.337 29.6955 127.894 31.0432 127.895 32.4487Z" fill="#464646"/>
<path d="M122.146 27.6V33.179H116.861C116.861 33.0877 116.861 32.9965 116.861 32.9052C116.861 31.4994 117.417 30.1511 118.408 29.1564C119.399 28.1616 120.744 27.6019 122.146 27.6Z" fill="#F2C5BA"/>
<path d="M122.146 33.179V38.2103C120.79 38.2112 119.485 37.6895 118.501 36.753C117.517 35.8166 116.93 34.5371 116.861 33.179H122.146Z" fill="#5D5C93"/>
<path d="M127.432 33.179C127.362 34.5365 126.774 35.8151 125.79 36.7511C124.807 37.6872 123.503 38.2095 122.146 38.2103V33.179H127.432Z" fill="#F2C5BA"/>
<path d="M127.895 17.4427C127.895 17.534 127.895 17.6253 127.895 17.7166H122.609V12.1376C124.011 12.1403 125.355 12.7004 126.346 13.6949C127.337 14.6894 127.894 16.0372 127.895 17.4427Z" fill="#464646"/>
<path d="M120.826 11.2738V16.8528H115.54C115.54 16.7651 115.54 16.6738 115.54 16.5825C115.539 15.886 115.675 15.1961 115.94 14.5523C116.205 13.9085 116.595 13.3234 117.085 12.8304C117.576 12.3374 118.159 11.9462 118.801 11.6791C119.443 11.412 120.131 11.2743 120.826 11.2738Z" fill="#EFA935"/>
<path d="M122.146 18.173V23.2043C120.79 23.2051 119.485 22.6834 118.501 21.747C117.517 20.8106 116.93 19.5311 116.861 18.173H122.146Z" fill="#5D5C93"/>
<path d="M127.432 18.173C127.362 19.5308 126.775 20.8098 125.791 21.746C124.808 22.6823 123.503 23.2043 122.146 23.2043V18.173H127.432Z" fill="#F2C5BA"/>
<path d="M140.025 14.4443H131.16V15.2764H140.025V14.4443Z" fill="#5D5C93"/>
<path d="M140.025 16.8212H131.16V17.6534H140.025V16.8212Z" fill="#5D5C93"/>
<path d="M140.025 19.2017H131.16V20.0338H140.025V19.2017Z" fill="#5D5C93"/>
<path d="M140.025 29.8822H131.16V30.7143H140.025V29.8822Z" fill="#5D5C93"/>
<path d="M140.025 32.2592H131.16V33.0913H140.025V32.2592Z" fill="#5D5C93"/>
<path d="M140.025 34.6396H131.16V35.4717H140.025V34.6396Z" fill="#5D5C93"/>
<path d="M88.0314 38.6562H79.1654V39.4883H88.0314V38.6562Z" fill="#5D5C93"/>
<path d="M88.0314 41.0367H79.1654V41.8688H88.0314V41.0367Z" fill="#5D5C93"/>
<path d="M88.0314 43.4136H79.1654V44.2457H88.0314V43.4136Z" fill="#5D5C93"/>
<path d="M88.0314 45.8397H79.1654V46.6718H88.0314V45.8397Z" fill="#5D5C93"/>
<path d="M88.0314 48.2202H79.1654V49.0523H88.0314V48.2202Z" fill="#5D5C93"/>
<path d="M88.0314 50.5971H79.1654V51.4292H88.0314V50.5971Z" fill="#5D5C93"/>
<path d="M119.334 74.1104V77.8777C117.671 77.8846 116.072 78.5232 114.86 79.6648L112.202 76.9999C114.118 75.1511 116.674 74.1159 119.334 74.1104Z" fill="#A3C1F5"/>
<path d="M114.86 79.6648C114.205 80.2808 113.682 81.0246 113.324 81.8506C112.967 82.6767 112.781 83.5673 112.78 84.4678H109.021C109.021 83.0724 109.303 81.6914 109.85 80.4079C110.396 79.1245 111.196 77.9653 112.202 76.9999L114.86 79.6648Z" fill="#DDA905"/>
<path d="M126.952 77.4212L124.29 80.0861C123.675 79.3918 122.919 78.8358 122.074 78.4546C121.229 78.0734 120.313 77.8756 119.386 77.8741H119.348V74.1104H119.386C120.807 74.1109 122.212 74.4052 123.514 74.9749C124.816 75.5446 125.986 76.3774 126.952 77.4212Z" fill="#EFA935"/>
<path d="M129.723 84.4679H125.965C125.962 82.8508 125.366 81.2912 124.29 80.0861L126.953 77.4213C128.732 79.3345 129.722 81.8523 129.723 84.4679Z" fill="#A3C1F5"/>
<path d="M114.986 89.4148L112.324 92.0797C111.281 91.1101 110.448 89.9346 109.88 88.627C109.311 87.3195 109.019 85.9082 109.021 84.4819H112.78C112.778 85.4138 112.974 86.3355 113.355 87.1859C113.735 88.0363 114.291 88.796 114.986 89.4148Z" fill="#00A09D"/>
<path d="M119.334 91.0896V94.8569C116.732 94.8499 114.23 93.8579 112.328 92.0797L114.99 89.4148C116.186 90.4846 117.731 91.0801 119.334 91.0896Z" fill="#A3C1F5"/>
<path d="M129.723 84.4678C129.727 87.1479 128.692 89.7247 126.837 91.6549L124.196 89.0041C125.345 87.7801 125.984 86.1624 125.982 84.4819L129.723 84.4678Z" fill="#5751BB"/>
<path d="M126.837 91.6689C125.872 92.6783 124.713 93.4812 123.43 94.0291C122.147 94.5771 120.767 94.8587 119.372 94.8569H119.334V91.0896H119.372C120.276 91.0932 121.171 90.9098 122.001 90.5509C122.831 90.1921 123.578 89.6655 124.196 89.0041L126.837 91.6689Z" fill="#F2C5BA"/>
<path d="M133.636 72.4602H126.087V74.1104H133.636V72.4602Z" fill="#EFA935"/>
<path d="M138.299 80.4021H130.75V82.0523H138.299V80.4021Z" fill="#6691DD"/>
<path d="M138.299 89.78H130.75V91.4302H138.299V89.78Z" fill="#5751BB"/>
<path d="M131.237 95.1624H123.688V96.8125H131.237V95.1624Z" fill="#F2C5BA"/>
<path d="M115.221 95.1624H107.672V96.8125H115.221V95.1624Z" fill="#A3C1F5"/>
<path d="M108.411 89.6711H100.863V91.3213H108.411V89.6711Z" fill="#00A09D"/>
<path d="M112.188 73.2853H104.639V74.9355H112.188V73.2853Z" fill="#A3C1F5"/>
<path d="M105.973 79.5138H98.4246V81.164H105.973V79.5138Z" fill="#DDA905"/>
<path d="M74.7658 4.66263H73.312V123.317H74.7658V4.66263Z" fill="#C5C5C5"/>
<path d="M148.758 4.66263H74.7658V5.61058H148.758V4.66263Z" fill="#C5C5C5"/>
<path d="M49.0087 191.217L51.9721 211.465L55.6117 211.91L55.0512 188.748L49.0087 191.217Z" fill="#F8A17A"/>
<path d="M58.7994 216.791C56.6171 215.502 58.4947 214.098 58.5752 213.315C58.6558 212.532 56.8973 212.416 56.6171 212.444H56.4735C56.3628 212.12 56.3164 211.778 56.3369 211.436C56.4209 210.762 53.9619 209.92 51.8146 210.383C50.4134 210.678 50.3854 211.752 50.5395 212.455C49.7443 212.56 49.2574 212.757 49.4886 213.104C50.2733 214.308 50.9739 215.685 50.3854 216.162C49.7969 216.64 47.6426 217.338 49.909 219.048H59.4229C59.4229 219.048 60.9818 218.083 58.7994 216.791Z" fill="#103942"/>
<path d="M75.9813 188.748C75.9813 188.748 82.77 208.603 82.9556 211.921C86.5006 215.681 89.2995 213.55 89.2995 213.55C89.2995 213.55 81.2427 191.561 81.0185 187.186C80.7943 182.811 75.9813 188.748 75.9813 188.748Z" fill="#F8A17A"/>
<path d="M83.2324 211.226C83.2324 211.226 81.3828 210.383 81.2707 213.02C81.2401 214.99 81.3714 216.959 81.6631 218.908C81.6631 218.908 97.3317 219.357 98.2284 218.908C98.3966 216.099 96.3264 215.446 94.4243 215.102C92.5222 214.758 90.3889 211.475 89.7479 210.397C89.1068 209.319 87.8212 212.514 83.2324 211.226Z" fill="#103942"/>
<path d="M75.7956 152.961C77.7327 122.148 65.8718 97.1707 65.8718 97.1707L52.5396 98.6383C48.6304 97.915 47.2152 96.9389 47.2152 96.9389C47.2152 96.9389 27.7424 125.139 44.3078 155.057C42.206 175.248 48.6339 192.747 48.6339 192.747H55.4996C55.4996 192.747 58.351 170.403 60.2566 147.526C61.6792 151.643 63.3798 155.658 65.3464 159.544C64.9015 173.454 75.5049 190.054 75.1966 190.504C74.8884 190.953 82.9556 189.907 82.9556 189.907C82.9556 189.907 81.7646 183.773 75.7956 152.961Z" fill="#FC8A2B"/>
<path d="M52.5396 98.6383C47.5024 96.8442 47.9368 97.9712 47.9368 97.9712C47.9368 97.9712 40.8819 104.797 38.5524 115.793C42.9066 113.202 51.3697 107.177 53.3033 98.5891L52.5396 98.6383Z" fill="#DF761E"/>
<path d="M66.8036 122.675L63.651 125.364C63.651 125.364 63.4898 106.44 63.0975 97.915L59.1357 98.1854C60.0499 104.238 63.9872 131.765 61.3005 139.836C65.7947 137.705 66.8036 122.675 66.8036 122.675Z" fill="#DF761E"/>
<path d="M46.0242 70.2483C45.6494 69.9498 37.8168 58.4302 38.6365 48.2623C39.4562 38.0945 45.2921 39.7341 45.2921 39.7341C45.2921 39.7341 45.1414 34.8749 52.9004 37.1184C60.6594 39.3619 62.8243 48.4906 62.9749 53.3884C63.1255 58.2863 62.9749 71.1471 62.9749 71.1471L46.0242 70.2483Z" fill="#212121"/>
<path d="M39.1794 67.7835C39.1794 67.7835 48.3081 63.6862 60.099 67.1831C63.665 74.6616 62.3198 77.2422 62.3198 77.2422C62.3198 77.2422 50.3468 77.5196 50.1226 77.5196C49.8984 77.5196 39.1794 67.7835 39.1794 67.7835Z" fill="#F29175"/>
<path d="M52.41 75.6517C52.41 75.6517 57.6644 79.4541 75.2737 76.8103C92.8829 74.1665 91.2401 73.4117 92.7113 71.5614C94.1825 69.7111 102.239 52.9214 103.837 49.9406C105.434 46.9597 104.464 41.63 103.858 40.6434C103.252 39.6568 99.5525 40.0641 99.7697 46.261C99.7697 46.261 99.57 48.1956 98.9185 47.0651C98.2669 45.9345 95.0653 44.5582 96.6381 46.735C98.2109 48.9119 99.549 50.4672 99.1567 52.5387C98.7644 54.6102 88.1785 68.4155 87.555 68.6894C86.9315 68.9632 68.4465 66.1263 62.0221 67.2007C55.3455 68.2856 52.2594 72.0283 52.41 75.6517Z" fill="#F29175"/>
<path d="M40.1252 67.5553C40.1252 67.5553 53.3313 78.3236 60.9432 73.7628C62.1377 73.0149 59.542 66.8636 59.542 66.8636L60.8696 67.1831C60.8696 67.1831 74.7482 84.682 68.1837 93.3577C66.0189 96.4228 65.8718 97.1707 65.8718 97.1707C65.8718 97.1707 50.5745 101.201 47.59 97.915C44.4549 93.3507 38.7871 85.953 38.7871 85.953C38.7871 85.953 35.2036 74.5844 36.2475 71.1471C37.2914 67.7098 40.1252 67.5553 40.1252 67.5553Z" fill="#6669FB"/>
<path d="M37.8168 69.2757C37.8168 69.2757 32.6675 73.2396 30.1313 90.8895C27.5952 108.539 28.7862 107.191 30.1313 109.147C31.4765 111.102 45.194 123.654 47.59 126.049C49.986 128.443 55.349 129.04 56.4699 128.742C57.5909 128.443 58.2599 124.778 52.2909 123.208C52.2909 123.208 50.5009 122.46 51.769 122.155C53.037 121.85 55.2719 119.164 52.7393 120.048C50.2067 120.933 48.3361 121.769 46.469 120.796C44.602 119.824 34.4575 105.699 34.3839 105.018C34.3103 104.337 42.3286 87.4101 43.1412 80.9358C44.01 74.2122 41.3232 70.1745 37.8168 69.2757Z" fill="#F29175"/>
<path d="M46.0242 67.1831C46.0242 67.1831 47.7406 59.9259 46.6197 56.7133C51.5448 58.209 53.6256 59.5537 53.6256 59.5537C53.6256 59.5537 51.5238 64.8624 54.4487 67.629C57.3737 70.3957 52.0597 69.2757 52.0597 69.2757L46.0242 67.1831Z" fill="#F29175"/>
<path d="M50.8863 62.0957C55.3572 62.0957 58.9815 57.4082 58.9815 51.6259C58.9815 45.8435 55.3572 41.156 50.8863 41.156C46.4154 41.156 42.791 45.8435 42.791 51.6259C42.791 57.4082 46.4154 62.0957 50.8863 62.0957Z" fill="#F29175"/>
<path d="M42.791 55.2176C43.7602 55.2176 44.546 54.1959 44.546 52.9355C44.546 51.6751 43.7602 50.6533 42.791 50.6533C41.8217 50.6533 41.036 51.6751 41.036 52.9355C41.036 54.1959 41.8217 55.2176 42.791 55.2176Z" fill="#F29175"/>
<path d="M41.5965 49.1225C41.5965 49.1225 43.947 51.6645 44.0976 53.42C44.2482 55.1755 44.7982 53.42 44.7982 53.42C44.7982 53.42 43.9785 47.4759 46.7003 45.3833C49.422 43.2907 44.2097 41.781 44.1536 41.781C44.0976 41.781 39.239 45.4851 41.5965 49.1225Z" fill="#212121"/>
<path d="M47.0821 40.5521C47.0821 40.5521 47.5655 42.7219 49.4676 42.908C51.3697 43.0941 57.675 46.0679 55.885 53.8202C55.885 53.8202 55.9235 54.6769 56.519 53.8202C57.1145 52.9635 59.1847 41.3 53.0161 39.5796C46.8474 37.8592 47.0821 40.5521 47.0821 40.5521Z" fill="#212121"/>
<path d="M190.505 255.665L197.42 255.113C197.42 255.113 206.64 236.631 207.081 222.991C211.141 214.301 215.972 192.628 215.972 192.628L204.062 186.909C204.062 186.909 200.594 215.639 198.839 223.009C197.084 230.378 192.923 244.995 190.505 255.665Z" fill="#2A2A7C"/>
<path d="M224.971 192.849L223.219 255.665H227.5C227.5 255.665 233.206 227.06 234.194 220.681C235.182 214.301 232.877 204.839 234.194 202.199C235.511 199.559 237.266 188.889 237.266 188.889L224.971 192.849Z" fill="#2A2A7C"/>
<path d="M181.657 259.815C181.657 259.815 198.303 260.843 198.689 260.348C199.074 259.853 199.512 253.361 197.753 252.097C195.995 250.833 191.882 251.49 191.882 251.49C191.882 251.49 186.278 256.936 184.365 256.883C182.452 256.83 179.934 258.782 181.657 259.815Z" fill="#212121"/>
<path d="M221.128 258.635C221.128 258.635 219.026 260.169 222.179 260.475C225.332 260.78 234.471 260.945 229.535 257.919C229.535 257.919 230.029 256.711 230.236 254.179C230.443 251.648 228.04 250.935 227.546 250.823C227.052 250.711 221.675 251.044 221.566 252.638C221.458 254.232 221.839 257.259 221.289 257.259C220.739 257.259 221.128 258.635 221.128 258.635Z" fill="#212121"/>
<path d="M264.841 135.005C264.841 135.005 269.84 129.426 270.971 128.685C272.103 127.945 277.764 132.941 277.953 133.601C278.142 134.261 274.18 136.533 273.329 136.153C272.478 135.774 271.399 134.64 271.399 134.64L267.293 137.41L264.841 135.005Z" fill="#F8A17A"/>
<path d="M234.741 127.611C234.741 127.611 240.118 152.034 246.924 151.925C253.73 151.816 270.19 138.832 269.64 137.625C269.09 136.417 264.922 134.114 264.922 134.114C264.922 134.114 250.21 142.916 249.446 142.803C248.682 142.691 245.897 114.153 241.799 113.848C237.701 113.543 234.741 127.611 234.741 127.611Z" fill="#FFE6A9"/>
<path d="M198.191 188.667C198.191 188.667 209.166 203.849 238.58 192.179C240.997 191.518 234.191 144.429 236.387 135.191C238.583 125.954 246.658 114.729 239.105 111.211C231.553 107.693 214.214 111.65 212.238 115.172C210.262 120.01 209.387 150.594 206.532 160.716C203.677 170.839 198.191 188.667 198.191 188.667Z" fill="#FFE6A9"/>
<path d="M218.841 120.968C218.522 118.897 217.625 116.72 215.765 115.758C214.798 115.256 213.593 115.08 212.395 114.957C212.338 115.029 212.286 115.104 212.238 115.182C210.262 120.02 209.386 150.605 206.531 160.727C205.032 166.046 202.804 173.489 201.028 179.356C201.33 179.304 201.634 179.265 201.932 179.198C203.274 178.893 204.636 178.415 205.607 177.443C206.717 176.319 207.151 174.708 207.544 173.173C208.195 170.624 208.846 168.075 209.495 165.526C208.537 165.48 207.597 165.256 206.721 164.866C209.289 155.349 212.293 145.962 215.73 136.705C217.615 131.631 219.664 126.316 218.841 120.968Z" fill="#E9D095"/>
<path d="M186.999 159.979C186.999 159.979 181.296 162.437 181.044 164.315C180.792 166.194 185.248 170.986 186.859 170.467C188.47 169.947 190.828 167.584 190.562 166.931C190.295 166.278 190.611 162.482 190.611 162.482L187.539 159.979H186.999Z" fill="#F8A17A"/>
<path d="M192.453 163.504C192.453 163.504 201.561 155.222 207.579 148.976C213.043 143.288 217.363 123.981 217.363 123.981C217.363 123.981 217.688 110.814 212.809 114.501C207.929 118.188 203.663 140.391 203.663 140.391C203.663 140.391 188.519 156.493 187.087 158.445C185.654 160.397 190.67 164.477 192.453 163.504Z" fill="#FFE6A9"/>
<path d="M236.555 134.524L238.072 131.628C238.072 131.628 238.962 139.289 239.589 143.168C238.878 142.712 236.555 134.524 236.555 134.524Z" fill="#E9D095"/>
<path d="M225.461 106.601C230.149 106.601 233.949 101.167 233.949 94.4637C233.949 87.7603 230.149 82.3261 225.461 82.3261C220.774 82.3261 216.974 87.7603 216.974 94.4637C216.974 101.167 220.774 106.601 225.461 106.601Z" fill="#F8A17A"/>
<path d="M229.192 103.08C229.192 103.301 232.485 112.029 232.485 112.029L221.654 113.837C221.654 113.837 222.754 106.015 222.095 103.448C221.437 100.882 229.192 103.08 229.192 103.08Z" fill="#F8A17A"/>
<path d="M220.228 108.873C220.228 108.873 232.705 108.581 233.949 106.601C235.193 104.621 235.483 113.054 235.483 113.054C235.483 113.054 221.948 114.74 220.704 114.459C219.461 114.178 220.228 108.873 220.228 108.873Z" fill="#E9D095"/>
<path d="M213.387 97.139C213.387 97.139 227.143 110.235 245.582 102.202C245.582 102.202 236.363 89.5623 235.483 83.4988C234.604 77.4352 220.137 77.4493 217.366 83.2776C214.595 89.1058 213.387 97.139 213.387 97.139Z" fill="#212121"/>
</svg>
