<svg width="356" height="269" viewBox="0 0 356 269" fill="none" xmlns="http://www.w3.org/2000/svg">
<path d="M0.425208 235.865C6.92149 264.133 63.8747 266.851 83.4805 267.789C138.824 270.428 139.833 251.567 191.678 252.098C237.633 252.567 253.643 267.545 306.16 260.212C341.103 255.334 350.809 246.339 354.197 236.407C359.284 221.502 351.661 199.946 339.381 189.873C325.727 178.673 289.925 166.5 266.296 179.5C234.051 197.24 200.981 179.5 168.425 179.5C141.425 179.5 125.822 199.744 97.9252 206.5C79.7403 210.904 80.7956 186.555 37.7955 192.344C11.7956 195.844 -2.72287 222.177 0.425208 235.865Z" fill="#E8F4FF"/>
<path d="M177.425 222C233.482 222 278.925 216.18 278.925 209C278.925 201.82 233.482 196 177.425 196C121.368 196 75.9253 201.82 75.9253 209C75.9253 216.18 121.368 222 177.425 222Z" fill="#CCDDEE"/>
<path d="M245.365 207.06C244.235 194.72 240.965 188.7 240.965 188.7C228.635 180.42 194.525 166.32 194.525 166.32H154.835C154.835 166.32 130.535 182.16 117.215 188.09C117.215 188.09 113.765 194.88 112.095 207.06H245.365Z" fill="#F495BF"/>
<path d="M194.525 166.32L175.035 184.91L154.835 166.32V133.1H194.525V166.32Z" fill="#E78779"/>
<path d="M175.035 184.91C175.035 184.91 195.575 174.76 207.845 178.44C207.845 178.44 206.975 165.71 194.525 163.29V166.32L175.035 184.91Z" fill="#EA507E"/>
<path d="M175.035 184.91C175.035 184.91 154.495 174.76 142.225 178.44C142.225 178.44 142.385 165.71 154.835 163.29V166.32L175.035 184.91Z" fill="#EA507E"/>
<path d="M176.455 184.91H173.605V207.07H176.455V184.91Z" fill="#EA507E"/>
<path d="M216.625 110.21C213.205 124.99 192.515 152.95 173.865 152.95C157.845 152.95 132.075 129.69 130.945 114.35C130.945 114.35 126.955 86.96 126.385 77.75C124.685 50.5 150.175 28.33 173.865 28.33C197.575 28.33 223.965 50.51 222.025 77.75C221.375 86.98 218.705 101.21 216.625 110.21Z" fill="#F69583"/>
<path d="M214.805 90.26C214.805 76.34 203.425 64.65 203.425 64.65C201.955 64.65 187.375 80.48 156.715 79.77C139.965 79.38 122.015 106.63 153.925 145.04C153.925 145.04 117.815 145.75 120.905 81.43C122.075 57.05 137.525 26.61 173.335 26.61C202.355 26.61 231.775 46.13 231.775 91.26C231.775 117.43 214.815 114.01 214.815 90.26H214.805Z" fill="#071938"/>
<path d="M256.465 207.06C247.685 190.86 236.425 185.71 236.425 185.71C236.425 185.71 236.475 193.54 236.505 207.06H256.475H256.465Z" fill="#F495BF"/>
<path d="M119.115 207.06C119.145 194.42 119.185 187.13 119.185 187.13C119.185 187.13 105.825 192.58 95.2852 207.06H119.115Z" fill="#F495BF"/>
<path d="M201.385 203.12C202.545 204.38 203.505 205.7 204.305 207.06H230.355C234.235 195.25 234.815 182.06 231.765 174.1C225.985 159.01 218.265 156.08 231.765 125.49C245.265 94.9 223.465 56.29 223.465 56.29L203.575 64.78C228.205 134.63 187.365 130.39 187.365 157.01C187.365 172.3 190.595 191.42 201.395 203.12H201.385Z" fill="#071938"/>
<path d="M174.865 119.59C174.665 119.59 174.435 119.58 174.225 119.57C173.865 119.53 173.565 119.21 173.615 118.84C173.645 118.47 173.935 118.16 174.355 118.22C175.705 118.35 176.735 117.96 176.845 117.66C176.905 117.53 176.765 117.07 175.645 116.31C172.275 114.02 171.885 106.04 171.865 105.71C171.865 105.34 172.135 105.02 172.525 105C172.905 104.99 173.205 105.27 173.215 105.64C173.315 107.76 174.065 113.61 176.395 115.2C177.885 116.19 178.455 117.17 178.115 118.11C177.735 119.16 176.295 119.59 174.865 119.59Z" fill="#071938"/>
<path d="M152.475 100.43C151.465 100.43 150.555 100.84 149.905 101.57C149.365 102.22 149.095 103.04 149.095 103.93C149.095 105.68 150.265 107.46 152.475 107.46C153.525 107.46 154.435 107.05 155.075 106.31C155.625 105.68 155.925 104.85 155.925 103.93C155.925 102.2 154.755 100.44 152.485 100.44L152.475 100.43Z" fill="#071938"/>
<path d="M194.745 100.43C195.755 100.43 196.665 100.84 197.315 101.57C197.855 102.22 198.125 103.04 198.125 103.93C198.125 105.68 196.955 107.46 194.745 107.46C193.695 107.46 192.785 107.05 192.145 106.31C191.595 105.68 191.295 104.85 191.295 103.93C191.295 102.2 192.465 100.44 194.735 100.44L194.745 100.43Z" fill="#071938"/>
<path d="M202.815 91.6C202.815 91.6 199.025 86.9 190.585 89.76" stroke="#071938" stroke-width="1.9" stroke-linecap="round" stroke-linejoin="round"/>
<path d="M145.335 91.6C145.335 91.6 149.125 86.9 157.565 89.76" stroke="#071938" stroke-width="1.9" stroke-linecap="round" stroke-linejoin="round"/>
<path d="M161.125 119.02C161.125 122.02 157.415 124.45 152.825 124.45C148.235 124.45 144.525 122.02 144.525 119.02C144.525 116.02 148.235 113.6 152.825 113.6C157.415 113.6 161.125 116.03 161.125 119.02Z" fill="#F37784"/>
<path d="M202.695 120.17C202.695 123.16 198.975 125.59 194.395 125.59C189.815 125.59 186.095 123.17 186.095 120.17C186.095 117.17 189.805 114.74 194.395 114.74C198.985 114.74 202.695 117.17 202.695 120.17Z" fill="#F37784"/>
<path d="M163.035 129.5C163.225 135.38 168.515 140.12 175.045 140.12C181.575 140.12 186.865 135.39 187.045 129.5H163.035Z" fill="white"/>
<path d="M248.715 41.9H103.045V187.56H248.715V41.9Z" stroke="white" stroke-width="2.08" stroke-miterlimit="10"/>
<path d="M228.095 62.51H123.655V166.95H228.095V62.51Z" stroke="white" stroke-width="2.08" stroke-miterlimit="10"/>
<path d="M145.395 82.7C145.395 84.66 143.805 86.26 141.845 86.26C139.885 86.26 138.285 84.67 138.285 82.7C138.285 80.73 139.875 79.14 141.845 79.14C143.815 79.14 145.395 80.73 145.395 82.7Z" fill="white"/>
<path d="M180.195 105.31C180.195 107.27 178.605 108.87 176.635 108.87C174.665 108.87 173.075 107.28 173.075 105.31C173.075 103.34 174.665 101.75 176.635 101.75C178.605 101.75 180.195 103.34 180.195 105.31Z" fill="white"/>
<path d="M205.445 86.25C205.445 88.21 203.855 89.81 201.895 89.81C199.935 89.81 198.335 88.22 198.335 86.25C198.335 84.28 199.925 82.69 201.895 82.69C203.865 82.69 205.445 84.28 205.445 86.25Z" fill="white"/>
<path d="M156.155 137.15C156.155 139.11 154.565 140.71 152.605 140.71C150.645 140.71 149.045 139.12 149.045 137.15C149.045 135.18 150.645 133.59 152.605 133.59C154.565 133.59 156.155 135.18 156.155 137.15Z" fill="white"/>
<path d="M203.035 142.76C203.035 144.72 201.445 146.32 199.475 146.32C197.505 146.32 195.915 144.73 195.915 142.76C195.915 140.79 197.505 139.2 199.475 139.2C201.445 139.2 203.035 140.79 203.035 142.76Z" fill="white"/>
<path d="M152.605 137.15L176.635 105.31L141.835 82.7" stroke="white" stroke-width="1.09" stroke-miterlimit="10"/>
<path d="M178.275 107.5L200.385 142.76" stroke="white" stroke-width="1.09" stroke-miterlimit="10"/>
<path d="M200.385 140.96L203.035 86.25" stroke="white" stroke-width="1.09" stroke-miterlimit="10"/>
<path d="M151.505 137.15L140.745 82.7L201.895 85.43L178.775 104.4" stroke="white" stroke-width="1.09" stroke-miterlimit="10"/>
<path d="M153.715 139.2L197.955 142.76" stroke="white" stroke-width="1.09" stroke-miterlimit="10"/>
<path d="M120.965 23.86H122.225" stroke="white" stroke-width="1.26" stroke-linecap="round" stroke-linejoin="round"/>
<path d="M125.715 23.86H160.535" stroke="white" stroke-width="1.26" stroke-linecap="round" stroke-linejoin="round" stroke-dasharray="2.61 3.48"/>
<path d="M162.275 23.86H163.535L164.325 24.85" stroke="white" stroke-width="1.26" stroke-linecap="round" stroke-linejoin="round"/>
<path d="M166.735 27.84L169.745 31.58" stroke="white" stroke-width="1.26" stroke-linecap="round" stroke-linejoin="round" stroke-dasharray="2.88 3.84"/>
<path d="M170.945 33.08L171.735 34.06" stroke="white" stroke-width="1.26" stroke-linecap="round" stroke-linejoin="round"/>
<path d="M117.835 23.86C117.835 25.34 119.035 26.55 120.525 26.55C122.015 26.55 123.215 25.35 123.215 23.86C123.215 22.37 122.015 21.17 120.525 21.17C119.035 21.17 117.835 22.37 117.835 23.86Z" fill="white"/>
<path d="M169.056 34.06C169.056 35.54 170.256 36.75 171.746 36.75C173.236 36.75 174.436 35.55 174.436 34.06C174.436 32.57 173.236 31.37 171.746 31.37C170.256 31.37 169.056 32.57 169.056 34.06Z" fill="white"/>
<path d="M111.795 0H42.6353V45.07H111.795V0Z" fill="white"/>
<path d="M59.0251 30.99C59.0251 31.17 65.2751 25.3 65.2751 25.3C63.7251 23.6 61.4951 22.53 59.0251 22.53V30.98V30.99Z" fill="#82B1DF"/>
<path d="M50.5652 30.99H59.0152V22.54C54.3452 22.54 50.5652 26.33 50.5652 30.99Z" fill="#F99B2D"/>
<path d="M67.4751 31H59.0151V39.45C63.6851 39.45 67.4751 35.66 67.4751 31Z" fill="#128C96"/>
<path d="M59.0251 30.99H67.4851C67.4851 28.8 66.6551 26.8 65.2851 25.3L59.0351 30.99H59.0251Z" fill="#071938"/>
<path d="M59.0251 31C59.0251 30.82 52.7751 36.69 52.7751 36.69C54.3251 38.39 56.5551 39.46 59.0251 39.46V31.01V31Z" fill="#F495BF"/>
<path d="M59.0252 31H50.5752C50.5752 33.19 51.4052 35.19 52.7752 36.69L59.0252 31Z" fill="#EA507E"/>
<path d="M105.275 5.95001H49.0652V7.66001H105.275V5.95001Z" fill="#071938"/>
<path d="M105.275 11.2H49.0652V12.91H105.275V11.2Z" fill="#071938"/>
<path d="M105.275 16.45H49.0652V18.16H105.275V16.45Z" fill="#071938"/>
<path d="M104.175 27.41H71.9453V34.06H104.175V27.41Z" fill="#82B1DF"/>
<path d="M104.175 27.41H87.3755V34.06H104.175V27.41Z" fill="#071938"/>
<path d="M95.4585 139.21H96.6797" stroke="white" stroke-width="1.07" stroke-linecap="round" stroke-linejoin="round"/>
<path d="M100.035 139.21H133.601" stroke="white" stroke-width="1.07" stroke-linecap="round" stroke-linejoin="round" stroke-dasharray="2.21 2.94"/>
<path d="M135.291 139.21H136.5L137.265 138.38" stroke="white" stroke-width="1.07" stroke-linecap="round" stroke-linejoin="round"/>
<path d="M139.582 135.85L142.492 132.69" stroke="white" stroke-width="1.07" stroke-linecap="round" stroke-linejoin="round" stroke-dasharray="2.43 3.24"/>
<path d="M143.645 131.43L144.409 130.6" stroke="white" stroke-width="1.07" stroke-linecap="round" stroke-linejoin="round"/>
<path d="M92.4453 139.21C92.4453 137.96 93.598 136.94 95.0361 136.94C96.4741 136.94 97.6269 137.96 97.6269 139.21C97.6269 140.46 96.4627 141.48 95.0361 141.48C93.6095 141.48 92.4453 140.46 92.4453 139.21Z" fill="white"/>
<path d="M141.818 130.6C141.818 129.35 142.983 128.33 144.409 128.33C145.836 128.33 147 129.35 147 130.6C147 131.85 145.836 132.87 144.409 132.87C142.983 132.87 141.818 131.85 141.818 130.6Z" fill="white"/>
<path d="M90.3453 117.44H31.9253V155.51H90.3453V117.44Z" fill="white"/>
<path d="M48.0952 129.32C48.0952 129.47 53.3752 124.52 53.3752 124.52C52.0652 123.09 50.1852 122.18 48.0952 122.18V129.32Z" fill="#82B1DF"/>
<path d="M40.9553 129.32H48.0953V122.18C44.1553 122.18 40.9553 125.38 40.9553 129.32Z" fill="#F99B2D"/>
<path d="M55.2352 129.33H48.0952V136.47C52.0352 136.47 55.2352 133.27 55.2352 129.33Z" fill="#128C96"/>
<path d="M48.0952 129.32H55.2352C55.2352 127.47 54.5352 125.78 53.3752 124.52L48.0952 129.32Z" fill="#071938"/>
<path d="M48.0954 129.33C48.0954 129.18 42.8154 134.13 42.8154 134.13C44.1154 135.57 46.0054 136.47 48.0954 136.47V129.33Z" fill="#F495BF"/>
<path d="M48.0953 129.33H40.9553C40.9553 131.18 41.6653 132.87 42.8153 134.13L48.0953 129.33Z" fill="#EA507E"/>
<path d="M73.5454 129.32C73.5454 129.47 78.8354 124.52 78.8354 124.52C77.5254 123.09 75.6454 122.18 73.5454 122.18V129.32Z" fill="#82B1DF"/>
<path d="M66.4053 129.32H73.5453V122.18C69.6053 122.18 66.4053 125.38 66.4053 129.32Z" fill="#F99B2D"/>
<path d="M80.6854 129.33H73.5454V136.47C77.4954 136.47 80.6854 133.27 80.6854 129.33Z" fill="#128C96"/>
<path d="M73.5452 129.32H80.6852C80.6852 127.47 79.9752 125.78 78.8252 124.52L73.5352 129.32H73.5452Z" fill="#071938"/>
<path d="M73.5451 129.33C73.5451 129.18 68.2651 134.13 68.2651 134.13C69.5751 135.57 71.4551 136.47 73.5451 136.47V129.33Z" fill="#F495BF"/>
<path d="M73.5453 129.33H66.4053C66.4053 131.18 67.1053 132.87 68.2653 134.13L73.5453 129.33Z" fill="#EA507E"/>
<path d="M85.7353 142.11H38.1753V148.16H85.7353V142.11Z" fill="#82B1DF"/>
<path d="M85.7354 142.11H52.5054V148.16H85.7354V142.11Z" fill="#071938"/>
<path style="mix-blend-mode:screen" d="M148.825 243.73H201.445L244.785 84H98.5352L148.825 243.73Z" fill="url(#paint0_linear_418_658)"/>
<path d="M265.44 110.88H264.32" stroke="white" stroke-width="1.12" stroke-linecap="round" stroke-linejoin="round"/>
<path d="M261.23 110.88H230.32" stroke="white" stroke-width="1.12" stroke-linecap="round" stroke-linejoin="round" stroke-dasharray="2.32 3.09"/>
<path d="M228.78 110.88H227.66L226.95 110" stroke="white" stroke-width="1.12" stroke-linecap="round" stroke-linejoin="round"/>
<path d="M224.82 107.35L222.15 104.03" stroke="white" stroke-width="1.12" stroke-linecap="round" stroke-linejoin="round" stroke-dasharray="2.56 3.41"/>
<path d="M221.08 102.7L220.37 101.83" stroke="white" stroke-width="1.12" stroke-linecap="round" stroke-linejoin="round"/>
<path d="M268.22 110.88C268.22 109.56 267.16 108.5 265.84 108.5C264.52 108.5 263.46 109.57 263.46 110.88C263.46 112.19 264.53 113.26 265.84 113.26C267.15 113.26 268.22 112.19 268.22 110.88Z" fill="white"/>
<path d="M222.76 101.83C222.76 100.51 221.69 99.45 220.38 99.45C219.07 99.45 218 100.52 218 101.83C218 103.14 219.07 104.21 220.38 104.21C221.69 104.21 222.76 103.14 222.76 101.83Z" fill="white"/>
<path d="M334.96 88H273.58V128H334.96V88Z" fill="white"/>
<path d="M286.78 100.98C286.78 101.14 281.23 95.93 281.23 95.93C282.6 94.42 284.58 93.48 286.78 93.48V100.98Z" fill="#82B1DF"/>
<path d="M294.29 100.98H286.79V93.48C290.93 93.48 294.29 96.84 294.29 100.98Z" fill="#F99B2D"/>
<path d="M279.28 100.99H286.78V108.49C282.64 108.49 279.28 105.13 279.28 100.99Z" fill="#128C96"/>
<path d="M286.78 100.98H279.28C279.28 99.04 280.02 97.26 281.23 95.93L286.78 100.98Z" fill="#071938"/>
<path d="M286.78 100.99C286.78 100.83 292.33 106.04 292.33 106.04C290.96 107.55 288.98 108.5 286.78 108.5V101V100.99Z" fill="#F495BF"/>
<path d="M286.78 100.99H294.28C294.28 102.93 293.54 104.71 292.33 106.04L286.78 100.99Z" fill="#EA507E"/>
<path d="M329.26 95.57H298.98V97.08H329.26V95.57Z" fill="#071938"/>
<path d="M329.26 100.23H298.98V101.74H329.26V100.23Z" fill="#071938"/>
<path d="M329.26 104.89H298.98V106.4H329.26V104.89Z" fill="#071938"/>
<path d="M291.22 113.54H282.47V122.29H291.22V113.54Z" fill="#82B1DF"/>
<path d="M302.84 113.54H294.09V122.29H302.84V113.54Z" fill="#F99B2D"/>
<path d="M314.45 113.54H305.7V122.29H314.45V113.54Z" fill="#128C96"/>
<path d="M326.06 113.54H317.31V122.29H326.06V113.54Z" fill="#EA507E"/>
<defs>
<linearGradient id="paint0_linear_418_658" x1="171.655" y1="264.68" x2="171.655" y2="61.38" gradientUnits="userSpaceOnUse">
<stop stop-color="white"/>
<stop offset="0.33" stop-color="#7A7A7A" stop-opacity="0.76"/>
<stop offset="0.68" stop-opacity="0"/>
</linearGradient>
</defs>
</svg>
