<svg width="364" height="264" viewBox="0 0 364 264" fill="none" xmlns="http://www.w3.org/2000/svg">
<g clip-path="url(#clip0_28_1124)">
<path d="M52.4146 191.697L162.114 199.205C156.628 182.239 151.142 165.272 145.549 160.134C144.166 158.861 142.782 158.316 141.375 158.316C137.134 158.316 132.849 163.347 128.577 168.381C128.646 164.033 128.719 159.686 127.699 159.065C127.61 159.011 127.508 158.983 127.405 158.985C126.305 158.985 124.368 161.659 122.279 162.501C121.801 162.7 121.288 162.803 120.771 162.805C119.041 162.805 117.706 161.597 118.37 159.627C119.221 157.098 123.392 153.316 123.009 151.77C122.867 151.204 122.12 150.938 121.03 150.938C119.131 150.938 116.188 151.749 113.566 153.216C109.454 155.528 106.164 159.458 103.169 164.23C100.174 169.002 97.4826 174.613 94.7848 180.223C96.2894 174.823 97.7905 169.423 94.598 167.625C93.6676 167.101 92.336 166.884 90.7207 166.884C86.8019 166.884 81.2159 168.164 75.6265 169.444C75.9378 167.073 76.2456 164.699 74.7757 164.699C74.4525 164.714 74.1353 164.791 73.8418 164.927C71.3307 165.962 65.9453 170.872 61.8986 175.969C57.8518 181.065 55.1262 186.393 52.4146 191.697Z" fill="#00E3B1"/>
<path d="M123.029 152.015C121.429 152.098 119.815 152.813 118.187 154.161C116.562 155.73 115.269 157.607 114.382 159.682C114.119 160.253 113.962 160.867 113.919 161.494C113.911 162.203 114.045 162.907 114.313 163.564C115.065 165.23 116.039 166.173 117.236 166.394H117.26C118.279 166.46 119.547 165.661 121.065 163.996C121.573 163.457 122.064 162.919 122.531 162.384C122.265 162.547 121.971 162.657 121.663 162.708C121.261 162.768 120.855 162.787 120.449 162.764C119.296 162.692 118.57 162.198 118.27 161.28C118.085 160.5 118.209 159.679 118.616 158.989C118.593 158.775 119.765 157.096 122.133 153.951C122.773 152.916 123.057 152.322 122.981 152.226C122.996 152.16 123.006 152.093 123.009 152.025L123.029 152.015Z" fill="black" fill-opacity="0.11"/>
<path d="M128.449 161.28C128.186 161.446 127.913 161.625 127.629 161.832C126.827 162.446 126.344 163.072 126.18 163.709C126.051 164.193 126.001 164.694 126.032 165.193C126.077 165.923 126.183 166.648 126.35 167.36C126.675 168.681 127 169.351 127.318 169.372C127.354 169.378 127.39 169.378 127.425 169.372C127.685 169.313 128.065 168.882 128.574 168.081C128.671 165.819 128.63 163.554 128.449 161.297V161.28Z" fill="black" fill-opacity="0.11"/>
<path d="M94.9992 167.846C95.2099 168.53 95.3672 169.229 95.4696 169.937C95.5283 170.365 95.5606 170.796 95.5664 171.228L95.5457 171.894C95.5157 172.358 95.4498 172.82 95.3486 173.274C95.2347 173.767 95.0903 174.252 94.9162 174.727L94.6187 175.476C94.4043 175.984 94.1622 176.498 93.8924 177.018C93.2329 178.318 92.0961 180.204 90.482 182.677C92.0016 182.249 93.1072 181.759 93.799 181.207C94.0922 180.988 94.3622 180.739 94.6049 180.465L94.9681 180.006C95.2159 179.654 95.4269 179.277 95.5976 178.881C95.7994 178.42 95.9648 177.943 96.0922 177.456L96.1268 177.311C95.6656 178.261 95.2102 179.238 94.7606 180.241C96.9488 173.236 97.0249 169.105 94.9888 167.846H94.9992Z" fill="black" fill-opacity="0.11"/>
<path d="M74.8586 164.72C74.477 164.718 74.1003 164.806 73.7588 164.975C74.0898 165.004 74.4168 165.067 74.7341 165.165C74.933 165.226 75.1193 165.322 75.2841 165.448L75.4743 165.659L75.5988 165.928L75.6403 166.256C75.6316 166.559 75.5683 166.858 75.4536 167.139L75.2045 167.712C74.9556 168.186 74.682 168.646 74.3848 169.092C73.8591 169.899 72.9367 171.206 71.6178 173.012C71.2719 173.488 70.9952 173.906 70.7704 174.258C70.6038 174.497 70.4733 174.76 70.383 175.037L70.4245 175.189H70.4591C70.7565 175.172 71.3826 174.792 72.3441 174.054C73.7251 172.991 75.0471 171.854 76.3044 170.648C76.9512 170.024 77.5185 169.437 78.0027 168.882C77.2348 169.056 76.4405 169.246 75.6196 169.451C75.9724 167.219 75.9643 165.789 75.5954 165.158C75.5222 165.027 75.4155 164.917 75.2861 164.84C75.1567 164.763 75.0093 164.722 74.8586 164.72Z" fill="black" fill-opacity="0.11"/>
<path d="M68.2869 180.127C66.9472 180.097 63.0342 181.339 56.5478 183.854C55.1089 186.294 53.7312 188.911 52.4146 191.704L159.769 199.053C161.062 194.982 159.756 191.991 155.85 190.082C153.559 189.015 151.103 188.346 148.586 188.105C147.895 188.029 147.203 187.97 146.511 187.929C144.784 187.802 143.05 187.802 141.323 187.929C140.467 187.908 138.642 188.207 135.848 188.826C135.237 188.886 131.893 190.078 125.817 192.404C124.372 192.841 122.899 193.176 121.407 193.408C117.762 194.009 113.541 194.156 108.744 193.85C108.222 193.819 107.707 193.777 107.153 193.736C103.768 193.391 101.497 192.733 100.34 191.762C99.9245 191.608 99.7793 190.952 99.9038 189.795C101.128 187.401 101.595 186.114 101.315 185.941C101.111 185.702 100.861 185.504 100.58 185.361C100.3 185.218 99.9933 185.131 99.679 185.106C99.5546 185.098 99.4298 185.098 99.3054 185.106C97.7656 185.08 96.226 185.164 94.6983 185.358C93.4324 185.473 87.6769 186.27 77.432 187.749C75.472 188.005 73.6619 188.198 72.0017 188.329C70.599 188.457 69.1892 188.491 67.782 188.429C66.7443 188.363 66.0076 188.198 65.6098 187.939L65.0288 187.39C64.9235 187.155 64.8726 186.898 64.8798 186.64C64.8869 186.382 64.952 186.129 65.0703 185.9C65.3216 185.182 66.4941 183.539 68.5879 180.972C68.9407 180.61 68.8334 180.327 68.2869 180.127Z" fill="black" fill-opacity="0.11"/>
<path d="M85.1313 34.4988C82.9868 33.926 80.8458 33.3498 78.3866 33.3498C76.4674 33.3612 74.5642 33.6996 72.7592 34.3505C67.6159 36.1482 60.9439 40.7064 67.6747 42.1315C69.3522 42.4766 71.8599 42.6457 74.8102 42.6457C83.7028 42.6457 96.6006 41.1895 102.806 39.2227C111.072 36.6037 107.472 33.0772 103.152 30.7308C99.7689 28.8882 95.9435 27.7702 92.9447 27.7702C92.1813 27.7599 91.4199 27.848 90.6792 28.0325C87.5732 28.8572 86.3453 31.6797 85.1313 34.4988Z" fill="#ECF5FF"/>
<path d="M106.444 34.9164C102.353 33.9744 98.2643 33.0324 94.7017 33.0324C92.5296 33.0324 90.5512 33.3775 88.891 34.2953C84.5052 36.7107 82.3193 43.0494 83.3362 47.5835C84.353 52.1176 88.5624 54.8297 95.4108 55.9132C98.0082 56.2888 100.631 56.463 103.255 56.4342C109.025 56.4342 116.053 55.7441 124.582 54.5053C137.435 52.611 153.66 49.3985 157.603 44.5711C161.546 39.7438 153.214 33.3154 146.961 31.5004C145.719 31.1316 144.431 30.9399 143.135 30.931C138.884 30.931 135.626 33.1428 132.371 35.3512C128.567 28.6226 124.762 21.894 120.176 20.1135C119.279 19.7689 118.325 19.5945 117.364 19.5993C113.559 19.5993 109.734 22.1493 107.797 24.7752C105.376 28.0774 105.905 31.4969 106.444 34.9164Z" fill="#DDEDFF"/>
<path d="M144.484 48.1321C148.081 46.1687 151.678 44.2054 157.078 44.2054C157.828 44.2054 158.617 44.2433 159.447 44.3261C166.212 44.9921 175.648 48.5669 167.904 52.2624C160.827 55.6475 139.393 59.136 127.519 59.136C126.402 59.136 125.371 59.1049 124.44 59.0394C113.646 58.2872 116.969 52.956 121.511 48.8429C126.007 44.7851 131.649 41.9142 135.671 41.9142H135.841C139.874 42.0004 142.181 45.068 144.484 48.1321Z" fill="#ECF5FF"/>
<path d="M244.443 207.376L326.451 212.99C322.349 200.306 318.247 187.625 314.069 183.784C313.031 182.832 311.994 182.404 310.956 182.404C307.788 182.404 304.585 186.169 301.382 189.93C301.434 186.68 301.489 183.429 300.725 182.974C300.659 182.933 300.584 182.913 300.507 182.915C299.684 182.915 298.235 184.913 296.675 185.544C296.316 185.69 295.934 185.766 295.547 185.769C294.267 185.769 293.257 184.868 293.752 183.395C294.388 181.504 297.505 178.678 297.211 177.529C297.107 177.104 296.55 176.904 295.734 176.904C294.312 176.904 292.109 177.511 290.155 178.609C287.076 180.334 284.621 183.274 282.383 186.842C280.145 190.41 278.129 194.606 276.112 198.798C277.236 194.761 278.36 190.724 275.974 189.381C275.282 188.988 274.282 188.826 273.075 188.826C270.146 188.826 265.967 189.785 261.793 190.741C262.021 188.967 262.253 187.194 261.156 187.194C260.917 187.207 260.683 187.264 260.464 187.363C258.59 188.149 254.564 191.807 251.537 195.62C248.511 199.433 246.47 203.408 244.443 207.376Z" fill="#00E3B1"/>
<path d="M297.231 177.712C296.035 177.774 294.829 178.309 293.614 179.316C292.398 180.493 291.43 181.901 290.767 183.457C290.57 183.884 290.453 184.344 290.421 184.813C290.416 185.341 290.516 185.866 290.715 186.355C291.275 187.6 292.004 188.305 292.901 188.47C293.662 188.519 294.614 187.922 295.758 186.68C296.138 186.277 296.504 185.876 296.854 185.475C296.656 185.595 296.436 185.677 296.208 185.717C295.906 185.76 295.602 185.774 295.298 185.758C294.438 185.703 293.895 185.333 293.669 184.647C293.526 184.06 293.621 183.44 293.932 182.922C293.911 182.759 294.787 181.503 296.56 179.154C297.038 178.372 297.249 177.94 297.193 177.86C297.207 177.812 297.214 177.762 297.214 177.712H297.231Z" fill="black" fill-opacity="0.11"/>
<path d="M301.282 184.633C301.088 184.758 300.88 184.896 300.669 185.047C300.163 185.382 299.782 185.874 299.587 186.448C299.49 186.81 299.453 187.186 299.476 187.56C299.509 188.106 299.589 188.649 299.715 189.181C299.945 190.168 300.186 190.668 300.438 190.682C300.464 190.689 300.491 190.689 300.517 190.682C300.711 190.641 300.998 190.337 301.375 189.72C301.448 188.029 301.418 186.335 301.285 184.647L301.282 184.633Z" fill="black" fill-opacity="0.11"/>
<path d="M276.278 189.544C276.434 190.055 276.549 190.577 276.624 191.107C276.669 191.426 276.694 191.747 276.697 192.069V192.57C276.675 192.918 276.625 193.264 276.548 193.605C276.464 193.973 276.356 194.334 276.226 194.688L276.005 195.251C275.842 195.63 275.659 196.013 275.462 196.403C274.966 197.376 274.116 198.787 272.913 200.634C273.801 200.42 274.644 200.049 275.4 199.536C275.619 199.372 275.822 199.186 276.005 198.981L276.275 198.636C276.46 198.371 276.618 198.089 276.748 197.794C276.896 197.448 277.018 197.091 277.115 196.728L277.143 196.621C276.797 197.328 276.451 198.06 276.122 198.808C277.757 193.575 277.814 190.487 276.292 189.544H276.278Z" fill="black" fill-opacity="0.11"/>
<path d="M261.222 187.211C260.936 187.211 260.655 187.277 260.399 187.404C260.646 187.426 260.891 187.473 261.129 187.546C261.278 187.591 261.417 187.663 261.54 187.76L261.682 187.915L261.772 188.115L261.806 188.36C261.8 188.588 261.752 188.812 261.665 189.022L261.478 189.447C261.294 189.803 261.09 190.149 260.866 190.482C260.476 191.087 259.79 192.064 258.808 193.412C258.552 193.757 258.344 194.078 258.175 194.343C258.049 194.52 257.952 194.716 257.888 194.923L257.919 195.04H257.943C258.174 195.026 258.643 194.744 259.351 194.191C260.381 193.393 261.366 192.538 262.301 191.631C262.785 191.171 263.208 190.732 263.57 190.313C262.996 190.449 262.403 190.591 261.789 190.741C262.052 189.071 262.045 188.001 261.768 187.532C261.713 187.436 261.633 187.356 261.538 187.3C261.442 187.243 261.333 187.213 261.222 187.211Z" fill="black" fill-opacity="0.11"/>
<path d="M256.307 198.725C255.309 198.7 252.384 199.628 247.532 201.51C246.457 203.332 245.428 205.287 244.443 207.376L324.687 212.873C325.651 209.829 324.675 207.598 321.758 206.179C320.046 205.381 318.211 204.881 316.331 204.698C315.805 204.643 315.293 204.598 314.788 204.567C313.497 204.475 312.202 204.475 310.911 204.567C310.275 204.553 308.911 204.777 306.819 205.237C306.358 205.285 303.857 206.178 299.317 207.914C298.236 208.24 297.133 208.492 296.017 208.667C292.885 209.13 289.711 209.24 286.554 208.994C286.163 208.97 285.766 208.943 285.361 208.908C282.824 208.653 281.127 208.162 280.27 207.435C279.958 207.317 279.85 206.826 279.944 205.961C280.867 204.174 281.213 203.214 280.982 203.08C280.676 202.711 280.236 202.478 279.758 202.431C279.666 202.425 279.573 202.425 279.481 202.431C278.325 202.409 277.169 202.472 276.022 202.621C275.074 202.704 270.772 203.299 263.114 204.405C261.647 204.598 260.294 204.743 259.053 204.84C258.005 204.934 256.951 204.96 255.899 204.916C255.336 204.92 254.779 204.794 254.273 204.547L253.841 204.139C253.762 203.963 253.724 203.77 253.73 203.577C253.735 203.384 253.784 203.194 253.872 203.021C254.063 202.488 254.941 201.261 256.504 199.34C256.798 199.084 256.708 198.874 256.307 198.725Z" fill="black" fill-opacity="0.11"/>
<path d="M271.927 71.6926C270.305 71.2578 268.683 70.8231 266.822 70.8231C265.367 70.8318 263.925 71.0886 262.557 71.5822C258.662 72.9417 253.609 76.413 258.707 77.4723C260.493 77.7734 262.303 77.9039 264.113 77.8622C270.844 77.8622 280.612 76.7615 285.312 75.2709C291.573 73.2902 288.847 70.6195 285.579 68.839C283.016 67.4587 280.121 66.5961 277.852 66.5961C277.269 66.5881 276.688 66.6553 276.122 66.7962C273.767 67.4208 272.843 69.5463 271.927 71.6926Z" fill="#ECF5FF"/>
<path d="M288.066 72.0101C284.953 71.2958 281.871 70.5815 279.173 70.5815C277.527 70.5815 276.029 70.8472 274.77 71.5408C271.45 73.3662 269.796 78.1693 270.564 81.6027C271.332 85.036 274.524 87.096 279.709 87.9103C281.677 88.1981 283.663 88.3343 285.651 88.3175C290.02 88.3175 295.336 87.8033 301.801 86.8544C311.534 85.419 323.823 82.9863 326.808 79.3322C329.793 75.678 323.484 70.792 318.749 69.4221C317.808 69.1435 316.832 68.9983 315.85 68.9908C312.63 68.9908 310.164 70.6643 307.698 72.3413C304.82 67.2448 301.939 62.1483 298.463 60.7992C297.784 60.538 297.063 60.4058 296.336 60.4092C293.454 60.4092 290.556 62.3416 289.072 64.336C287.256 66.8308 287.661 69.4187 288.066 72.0101Z" fill="#DDEDFF"/>
<path d="M316.891 82.0168C319.613 80.5296 322.335 79.0424 326.427 79.0424C326.998 79.0424 327.593 79.0734 328.222 79.1355C333.345 79.6393 340.491 82.348 334.624 85.1499C329.263 87.7102 313.035 90.3533 304.038 90.3533C303.194 90.3533 302.413 90.3292 301.711 90.2809C293.534 89.7116 296.055 85.6744 299.493 82.5585C302.931 79.4426 307.169 77.3102 310.216 77.3102H310.344C313.38 77.3757 315.127 79.698 316.891 82.0168Z" fill="#ECF5FF"/>
<path d="M164.279 179.599C146.791 181.956 129.3 184.312 116.745 184.775C104.189 185.237 96.566 183.84 71.2165 188.671C45.867 193.501 2.7774 204.574 0.131418 218.801C-2.51456 233.028 35.2762 250.408 66.7547 258.238C84.3565 262.613 99.9868 264.004 115.461 264.004C127.661 264.004 139.763 263.137 152.661 262.195C181.922 260.053 215.265 257.492 259.537 250.809C303.81 244.125 359.009 233.366 363.647 225.557C368.285 217.749 322.425 212.928 280.761 205.761C239.096 198.594 201.693 189.095 164.279 179.599Z" fill="#E8F4FF"/>
<path d="M206.433 201.844C200.06 199.422 193.664 197 178.151 197C174.095 197 169.408 197.166 163.938 197.54C137.553 199.342 92.8368 205.999 84.5169 212.935C76.197 219.872 104.268 227.085 116.137 231.555C128.005 236.025 123.669 237.745 133.472 239.623C141.96 241.253 161.053 243 176.572 243C178.973 243 181.288 242.958 183.466 242.865C199.718 242.173 208.278 238.8 221.885 238.084C224.029 237.973 226.3 237.928 228.702 237.928C239.449 237.928 252.81 238.848 269.235 238.848C272.414 238.848 275.706 238.809 279.111 238.731C304.085 238.129 335.386 234.96 336.939 229.002C338.491 223.045 310.287 214.298 283.589 209.303C256.891 204.307 231.656 203.082 206.433 201.844Z" fill="#CCDDEE"/>
<path d="M153.353 53.3701C152.686 51.1686 152.094 49.0638 151.575 47.0556L152.841 46.7277C153.357 48.7176 153.946 50.8052 154.608 52.9905L153.353 53.3701ZM151.412 46.4275C150.84 44.164 150.365 42.0246 149.987 40.0095L151.274 39.7679C151.647 41.7578 152.117 43.8707 152.682 46.1066L151.412 46.4275ZM149.866 39.3539C149.444 37.0075 149.155 34.829 148.998 32.8185L150.302 32.7184C150.454 34.6806 150.739 36.8154 151.156 39.1227L149.866 39.3539ZM148.949 32.156C148.786 29.9397 148.839 27.7127 149.109 25.5067L150.406 25.6827C150.147 27.8017 150.097 29.941 150.257 32.0697L148.949 32.156ZM149.209 24.8442C149.353 23.9454 149.563 23.0584 149.838 22.1907V22.17C150.3 20.8933 150.794 19.6718 151.322 18.5055L152.516 19.0438C151.999 20.1802 151.518 21.3695 151.073 22.6117V22.591C150.817 23.3967 150.62 24.2201 150.485 25.0547L149.209 24.8442ZM151.606 17.9086C152.54 15.8977 153.646 13.9709 154.912 12.1495L155.985 12.8983C154.762 14.6633 153.694 16.53 152.792 18.4779L151.606 17.9086ZM155.303 11.6009C156.612 9.79554 158.121 8.14269 159.8 6.67348L160.661 7.66034C159.057 9.0649 157.616 10.6448 156.365 12.3704L155.303 11.6009ZM160.308 6.2456C162.03 4.81748 163.927 3.61284 165.953 2.66046L166.513 3.84401C164.587 4.74847 162.783 5.89282 161.145 7.24972L160.308 6.2456ZM166.565 2.38097C168.376 1.58761 170.264 0.981732 172.199 0.572859L172.96 0.42794L173.189 1.71501C172.947 1.75642 172.704 1.80472 172.462 1.85303C170.615 2.24104 168.812 2.81923 167.084 3.57832L166.565 2.38097ZM173.631 0.310622C175.839 -0.0270892 178.079 -0.100072 180.303 0.0932342L180.189 1.39755C178.069 1.20997 175.933 1.27832 173.829 1.60113L173.631 0.310622ZM180.961 0.18985C182.367 0.347398 183.76 0.605705 185.128 0.962775C185.158 0.97159 185.187 0.981956 185.215 0.993829C185.948 1.29748 186.685 1.59539 187.425 1.88754L186.941 3.10214C186.194 2.80539 185.454 2.50518 184.713 2.20153L184.796 2.22914C183.489 1.88579 182.159 1.63785 180.815 1.48727L180.961 0.18985ZM188.03 2.12907H188.01H188.027C190.051 2.925 192.089 3.68874 194.139 4.42026L193.699 5.64866C191.624 4.91484 189.573 4.14651 187.546 3.34368H187.567L188.03 2.12907ZM194.758 4.63765C196.798 5.35767 198.856 6.04778 200.932 6.70799L200.537 7.95364C198.448 7.29343 196.373 6.60332 194.312 5.8833L194.758 4.63765ZM201.561 6.89777C203.636 7.54417 205.723 8.15838 207.822 8.74037L207.476 9.99983C205.359 9.41323 203.259 8.79443 201.177 8.14342L201.561 6.89777ZM208.448 8.9129C210.539 9.4811 212.647 10.0217 214.77 10.5347L214.466 11.8045C212.328 11.2892 210.207 10.744 208.102 10.1689L208.448 8.9129ZM215.41 10.6899C217.513 11.1868 219.632 11.6538 221.767 12.0909L221.505 13.371C219.356 12.9317 217.223 12.4612 215.106 11.9598L215.41 10.6899ZM222.407 12.222C224.026 12.5464 225.648 12.8535 227.284 13.1433L227.378 13.1675H227.346H227.374C227.903 13.3469 228.412 13.5401 228.906 13.7472L228.395 14.9514C227.931 14.7547 227.45 14.5753 226.956 14.4062H226.987H227.053C225.411 14.1164 223.776 13.807 222.148 13.478L222.407 12.222ZM229.529 14.0232C231.48 14.9014 233.247 16.1388 234.738 17.6705L234.79 17.7291L235.028 18.05L233.963 18.8161C233.891 18.7125 233.818 18.6125 233.742 18.5124L233.794 18.5745C232.415 17.1602 230.782 16.0177 228.979 15.2067L229.529 14.0232ZM235.409 18.6021C236.703 20.4636 237.627 22.5557 238.131 24.7648L236.851 25.0443C236.382 22.9959 235.524 21.0562 234.323 19.3302L235.409 18.6021ZM238.262 25.4377C238.633 27.6839 238.515 29.9834 237.917 32.1801L236.651 31.8523C237.199 29.828 237.304 27.7097 236.958 25.6413L238.262 25.4377ZM237.747 32.8392C237.215 34.5629 236.482 36.2179 235.561 37.7701L235.533 37.8115C235.278 38.1841 235.004 38.5395 234.721 38.8811L233.714 38.0427C233.974 37.7321 234.223 37.4077 234.454 37.0696L234.43 37.111C235.303 35.6488 236 34.0886 236.505 32.4631L237.747 32.8392ZM234.268 39.3953C232.7 41.0703 230.749 42.3418 228.581 43.1012L228.135 41.8728C230.111 41.1811 231.889 40.0206 233.316 38.4912L234.268 39.3953ZM227.952 43.322C225.799 43.9769 223.561 44.3106 221.311 44.3123L221.29 42.977C223.413 42.9785 225.524 42.6657 227.554 42.0488L227.952 43.322ZM220.643 44.3158C219.312 44.3046 217.982 44.2217 216.659 44.0674H216.614C215.733 43.9022 214.862 43.6926 214.002 43.4393L214.376 42.1868C215.16 42.4168 215.988 42.6158 216.859 42.7837H216.814C218.091 42.9312 219.375 43.0107 220.661 43.0218L220.643 44.3158ZM213.352 43.2323C211.175 42.5591 209.157 41.4522 207.42 39.9784L208.285 38.9985C209.89 40.3542 211.754 41.3718 213.764 41.9901L213.352 43.2323ZM206.902 39.5022C205.258 37.8984 204.051 35.9034 203.394 33.7053L204.643 33.3188C205.236 35.3077 206.328 37.1128 207.815 38.5637L206.902 39.5022ZM203.208 33.0221C202.606 30.349 202.789 28.0751 203.758 26.2003L204.92 26.7972C204.101 28.3914 203.956 30.3709 204.484 32.7357L203.208 33.0221ZM204.135 25.5826C205.255 23.8366 207.111 22.5082 209.703 21.5972L210.139 22.8325C207.833 23.64 206.199 24.7901 205.238 26.2831L204.135 25.5826ZM210.443 21.4005C212.369 21.0762 214.618 21.2108 217.191 21.8043L216.897 23.0775C214.497 22.5254 212.422 22.3954 210.672 22.6876L210.443 21.4005ZM217.842 21.963C219.89 22.5015 221.895 23.1936 223.839 24.0333L223.891 24.0575L224.019 24.1265L224.151 24.1955L223.535 25.348L223.407 25.279L223.279 25.21L223.327 25.2341C221.445 24.4193 219.504 23.7469 217.52 23.2224L217.842 21.963ZM224.728 24.5026C226.718 25.5516 228.647 26.5614 230.515 27.5322L229.909 28.6916C228.042 27.7208 226.109 26.7087 224.113 25.6551L224.728 24.5026ZM231.113 27.8393C233.122 28.8814 235.061 29.8763 236.931 30.824L236.336 31.9869C234.468 31.0322 232.52 30.0362 230.491 28.9987L231.113 27.8393ZM237.512 31.1208C239.55 32.1537 241.5 33.1267 243.361 34.04L242.78 35.2132C240.919 34.293 238.966 33.3165 236.92 32.2836L237.512 31.1208ZM243.931 34.3505C246.007 35.3696 247.967 36.3139 249.811 37.1835L249.251 38.3636C247.406 37.4917 245.437 36.544 243.343 35.5203L243.931 34.3505ZM250.41 37.4561C252.547 38.4567 254.529 39.3539 256.355 40.1475L255.83 41.3448C253.985 40.5466 251.993 39.6449 249.853 38.6396L250.41 37.4561ZM256.954 40.4097C259.218 41.3874 261.23 42.1983 262.989 42.8424L262.536 44.0708C260.754 43.4152 258.72 42.594 256.435 41.6071L256.954 40.4097ZM263.598 43.0632C266.31 44.0294 268.36 44.5734 269.748 44.6954L269.634 45.9962C268.133 45.8651 265.973 45.2969 263.155 44.2916L263.598 43.0632ZM270.336 44.7023C270.471 44.7023 270.592 44.7023 270.706 44.6781H270.772C272.746 44.6949 274.711 44.4182 276.603 43.8569L277.011 45.0991C274.992 45.7016 272.893 46.0005 270.785 45.9859H270.855C270.687 46.0072 270.519 46.0175 270.35 46.0169L270.336 44.7023ZM277.188 43.6464C278.155 43.2899 279.046 42.7563 279.816 42.0729L279.761 42.1281C280.483 41.2885 281.192 40.4834 281.888 39.7127L282.867 40.5823C282.175 41.3552 281.471 42.1603 280.754 42.9977L280.702 43.0563C279.812 43.8506 278.779 44.4699 277.658 44.8817L277.188 43.6464ZM282.327 39.2158C283.902 37.4722 285.41 35.8826 286.852 34.4472L287.779 35.3719C286.351 36.7889 284.859 38.3613 283.303 40.0888L282.327 39.2158ZM287.322 34.0055C289.047 32.3078 290.68 30.8344 292.223 29.5853L293.05 30.5998C291.539 31.8236 289.936 33.2682 288.239 34.9337L287.322 34.0055ZM292.742 29.1747C294.471 27.7651 296.35 26.5489 298.345 25.5481L298.909 26.7248C297.003 27.6861 295.208 28.8512 293.555 30.1995L292.742 29.1747ZM298.968 25.2652C299.433 25.0628 299.909 24.8843 300.393 24.7303L300.331 24.751C301.939 24.0471 303.635 23.5609 305.373 23.3052L305.56 24.5992C303.937 24.837 302.354 25.2919 300.853 25.9518L300.787 25.976C300.346 26.1154 299.914 26.2778 299.49 26.4625L298.968 25.2652ZM306.048 23.2224C308.303 22.9907 310.582 23.1719 312.772 23.7573L312.426 25.0202C310.389 24.4757 308.27 24.3061 306.172 24.5199L306.048 23.2224ZM313.412 23.9367C315.559 24.5918 317.61 25.5294 319.51 26.7248L318.818 27.8358C317.016 26.7005 315.072 25.8093 313.035 25.1858L313.412 23.9367ZM320.077 27.0836L320.357 27.2665C320.415 27.3042 320.466 27.3508 320.509 27.4045C321.817 29.0585 323.04 30.7516 324.179 32.4838L323.082 33.2015C321.964 31.5015 320.764 29.8383 319.482 28.212L319.634 28.35L319.364 28.174L320.077 27.0836ZM324.539 33.0462C325.731 34.9049 326.829 36.8073 327.835 38.7535L326.669 39.3504C325.687 37.4434 324.609 35.5766 323.435 33.7501L324.539 33.0462ZM328.136 39.3401C329.12 41.3046 330.01 43.314 330.806 45.3682L329.585 45.8375C328.808 43.8224 327.934 41.8509 326.963 39.9232L328.136 39.3401ZM331.041 45.9859C331.809 48.0332 332.48 50.1231 333.054 52.2556L331.792 52.6006C331.224 50.505 330.565 48.453 329.813 46.4448L331.041 45.9859ZM333.224 52.887C333.77 54.9919 334.224 57.1393 334.586 59.3292L333.293 59.5397C332.94 57.3889 332.495 55.2794 331.958 53.2114L333.224 52.887ZM334.69 59.9814C335.022 62.1254 335.268 64.3107 335.427 66.5375L334.119 66.6272C333.967 64.4418 333.726 62.2956 333.397 60.1884L334.69 59.9814ZM335.472 67.1896C335.606 69.3405 335.659 71.5259 335.631 73.7457H334.32C334.348 71.5512 334.296 69.3946 334.164 67.2759L335.472 67.1896ZM335.621 74.4117C335.574 76.5695 335.453 78.7617 335.257 80.9885L333.953 80.8746C334.147 78.6732 334.262 76.5097 334.299 74.3841L335.621 74.4117ZM335.192 81.6234C334.991 83.7605 334.718 85.9297 334.372 88.1312L333.078 87.9276C333.417 85.7537 333.687 83.6109 333.888 81.4992L335.192 81.6234ZM334.272 88.7833C333.926 90.9089 333.518 93.0621 333.047 95.2428L331.767 94.9668C332.229 92.8067 332.632 90.6766 332.978 88.5763L334.272 88.7833ZM332.888 95.8915V95.9122V95.9364C332.337 98.0843 331.556 100.167 330.557 102.147L329.391 101.554C330.349 99.6551 331.097 97.6582 331.622 95.5982V95.6224V95.6017L332.888 95.8915ZM330.235 102.751C329.173 104.725 327.836 106.538 326.265 108.138L325.331 107.223C326.816 105.709 328.08 103.993 329.083 102.127L330.235 102.751ZM325.784 108.617C324.167 110.164 322.337 111.472 320.35 112.503L319.745 111.343C321.632 110.373 323.371 109.139 324.909 107.679L325.784 108.617ZM319.724 112.799C317.71 113.763 315.595 114.501 313.419 115.001L313.121 113.728C315.203 113.251 317.225 112.545 319.15 111.623L319.724 112.799ZM312.775 115.146C310.602 115.603 308.397 115.891 306.179 116.008L306.107 114.704C308.256 114.59 310.393 114.309 312.499 113.866L312.775 115.146ZM305.422 115.957C303.015 115.708 300.835 115.387 298.885 114.994L299.144 113.714C301.053 114.096 303.191 114.41 305.557 114.656L305.422 115.957ZM298.235 114.859C296.045 114.421 293.91 113.747 291.867 112.848L292.42 111.661C294.375 112.52 296.417 113.165 298.511 113.583L298.235 114.859ZM291.258 112.551C288.699 111.251 287.084 109.624 286.416 107.668L287.657 107.254C288.202 108.865 289.594 110.245 291.836 111.395L291.258 112.551ZM286.243 106.968C285.823 104.996 286.324 102.767 287.744 100.281L288.882 100.926C287.628 103.127 287.174 105.05 287.523 106.695L286.243 106.968ZM288.09 99.7044C289.128 98.0763 290.317 96.5491 291.642 95.1428C291.68 95.1015 291.723 95.0655 291.77 95.0358L292.514 94.5596L293.205 95.6638L292.469 96.1331L292.597 96.0226C291.333 97.3711 290.197 98.8335 289.204 100.391L288.09 99.7044ZM293.06 94.2076C295.117 92.9171 297.019 91.8164 298.767 90.9055L299.372 92.0614C297.657 92.9585 295.784 94.042 293.755 95.3118L293.06 94.2076ZM299.355 90.6018C301.323 89.5582 303.392 88.7154 305.529 88.0863L305.875 89.3458C303.823 89.952 301.837 90.7611 299.947 91.7612L299.355 90.6018ZM306.19 87.9242C309.404 87.1788 311.633 87.6964 312.876 89.4769L311.8 90.2257C310.894 88.9283 309.122 88.5832 306.484 89.1905L306.19 87.9242ZM313.256 90.1325C314.01 91.6899 314.125 93.9627 313.602 96.9509L312.312 96.73C312.773 94.0133 312.692 92.0027 312.07 90.6984L313.256 90.1325ZM313.488 97.6134C313.457 97.779 313.422 97.9584 313.384 98.1171C313.378 98.1481 313.369 98.1782 313.356 98.2069C312.656 100.128 311.805 101.992 310.811 103.78L309.673 103.134C310.633 101.406 311.456 99.6052 312.132 97.7479L312.101 97.8549C312.135 97.6893 312.17 97.5306 312.201 97.3718L313.488 97.6134ZM310.472 104.359C309.757 105.577 308.904 106.708 307.929 107.73H307.912L306.141 109.428L305.235 108.49C305.816 107.926 306.406 107.359 307.006 106.788C307.909 105.837 308.701 104.786 309.365 103.655L310.472 104.359ZM305.685 109.918C304.001 111.528 302.433 113.041 300.981 114.456L300.068 113.521C301.527 112.106 303.096 110.591 304.775 108.976L305.685 109.918ZM300.497 114.911C298.776 116.581 297.219 118.103 295.824 119.476L294.904 118.548C296.306 117.168 297.866 115.643 299.583 113.973L300.497 114.911ZM295.374 119.925C293.546 121.733 292.011 123.274 290.77 124.549L289.83 123.641C291.077 122.357 292.619 120.809 294.454 118.997L295.374 119.925ZM290.317 125.021C288.267 127.151 287.163 128.404 287.004 128.779C287.042 128.68 287.047 128.572 287.018 128.47C286.988 128.369 286.926 128.28 286.841 128.217C286.785 128.156 286.715 128.11 286.638 128.082C286.56 128.054 286.477 128.044 286.395 128.054C286.524 128.039 286.655 128.062 286.77 128.121C286.886 128.18 286.982 128.272 287.045 128.385C287.108 128.498 287.136 128.628 287.125 128.757C287.114 128.886 287.064 129.009 286.983 129.11C286.786 129.355 286.589 129.617 286.392 129.887L285.33 129.117C285.541 128.831 285.748 128.558 285.959 128.296L286.551 129.352C286.44 129.37 286.327 129.362 286.22 129.328C286.113 129.295 286.015 129.237 285.935 129.159C285.818 129.048 285.74 128.902 285.714 128.743C285.689 128.583 285.716 128.42 285.793 128.279C286.024 127.747 287.217 126.359 289.373 124.114L290.317 125.021ZM286.021 130.415C284.821 132.194 283.755 134.06 282.832 135.998L281.656 135.428C282.605 133.43 283.703 131.506 284.942 129.673L286.021 130.415ZM282.563 136.581C281.719 138.357 280.868 140.343 280.01 142.54L278.789 142.067C279.656 139.843 280.52 137.826 281.38 136.018L282.563 136.581ZM279.775 143.137C279.36 144.22 278.942 145.354 278.523 146.539L277.288 146.104C277.71 144.91 278.132 143.76 278.554 142.654L279.775 143.137ZM155.573 60.2298C154.835 58.0744 154.16 55.996 153.546 53.9947L154.798 53.6116C155.407 55.5992 156.078 57.6638 156.811 59.8054L155.573 60.2298Z" fill="#E8F4FF"/>
<path d="M153.498 75.9851L118.239 212.562C117.786 215.947 117.336 219.329 136.263 222.017C151.194 224.139 178.187 225.833 198.521 225.833C203.958 225.833 208.922 225.712 213.048 225.443C232.597 224.184 233.389 219.664 234.181 215.143L272.48 75.4675C274.037 71.5408 275.593 67.614 256.691 64.9502C244.049 63.1731 222.286 61.9551 203.097 61.9551C193.558 61.9551 184.655 62.2553 177.813 62.9385C157.195 64.9847 155.366 70.4849 153.498 75.9851Z" fill="#E5E6E6"/>
<path d="M264.214 66.3131L225.288 208.052C224.65 209.663 224.088 210.677 223.604 211.096C221.692 213.626 215.928 215.255 206.31 215.982C199.346 216.258 192.553 216.396 185.931 216.396C173.867 216.396 162.371 215.936 151.443 215.016C135.763 213.865 124.829 212.523 118.64 210.989L118.228 212.559C116.96 215.692 119.347 218.132 125.388 219.877C133.689 221.932 145.175 223.427 159.845 224.363C175.156 225.364 188.043 225.864 198.507 225.864C218.167 225.864 229.268 224.098 231.812 220.564C232.338 220.267 232.959 219.212 233.676 217.397L273.141 73.5076C274.063 71.5339 272.853 69.6936 269.509 67.9867C267.806 67.2486 266.032 66.6866 264.214 66.3097V66.3131Z" fill="black" fill-opacity="0.11"/>
<path d="M246.048 63.7977L234.44 109.573L203.574 107.313L209.285 85.2637C209.433 84.6941 209.452 84.0987 209.341 83.5208C209.229 82.9428 208.991 82.3968 208.642 81.9224C208.293 81.448 207.842 81.057 207.323 80.7779C206.803 80.4988 206.228 80.3385 205.639 80.3087L153.093 77.569L151.066 85.419L200.364 87.9897L195.522 106.73L173.957 105.149H173.666C172.783 105.149 171.925 105.442 171.228 105.982C170.53 106.522 170.032 107.278 169.813 108.131L162.062 138.178L138.13 135.508L136.128 143.271L160.063 145.942L150.99 181.197L140.96 180.403H140.915C140.595 180.323 140.266 180.282 139.936 180.282C139.804 180.282 139.673 180.282 139.542 180.299L126.83 179.275L124.817 187.076L134.921 187.901L128.608 212.787C130.995 213.111 133.647 213.426 136.564 213.732L142.955 188.543L153.678 189.392C153.785 189.392 153.889 189.392 153.996 189.392C154.878 189.392 155.735 189.099 156.432 188.559C157.129 188.019 157.627 187.263 157.845 186.41L176.661 113.3L193.468 114.528L186.412 141.788C186.207 142.574 186.25 143.405 186.534 144.167C186.819 144.929 187.332 145.585 188.003 146.046L221.117 168.854L216.59 191.203L183.863 188.667C183.759 188.667 183.655 188.667 183.551 188.667C182.664 188.671 181.803 188.972 181.106 189.521C180.41 190.07 179.918 190.836 179.709 191.697L173.697 216.234C176.381 216.307 179.096 216.356 181.843 216.379L186.633 196.838L215.019 199.036L211.695 215.426C215.302 214.936 218.136 214.265 220.197 213.411L229.442 167.864C229.597 167.102 229.524 166.312 229.233 165.591C228.941 164.87 228.444 164.251 227.803 163.809L194.817 141.087L201.54 115.118L237.166 117.73H237.46C238.346 117.736 239.209 117.445 239.911 116.905C240.613 116.365 241.114 115.606 241.334 114.749L254.035 64.6397C251.436 64.3314 248.774 64.0508 246.048 63.7977Z" fill="white"/>
<path d="M201.523 149.327L202.834 150.224L201.931 151.529L200.624 150.635L201.523 149.327ZM205.449 152.015L213.293 157.405L212.394 158.709L204.546 153.319L205.449 152.015ZM215.894 159.213L217.205 160.107L216.303 161.411L214.995 160.514L215.894 159.213ZM219.82 161.908L226.108 166.225C226.235 166.313 226.334 166.435 226.392 166.578C226.45 166.721 226.466 166.877 226.437 167.029L226.091 168.881L224.541 168.578L224.887 166.725L225.233 167.529L218.942 163.205L219.82 161.908ZM225.486 171.997L225.188 173.55L223.628 173.253L223.926 171.697L225.486 171.997ZM224.59 176.663L222.802 185.979L221.242 185.682L223.03 176.345L224.59 176.663ZM222.203 189.112L221.906 190.665L220.346 190.368L220.643 188.812L222.203 189.112ZM221.321 193.767L219.533 203.101L217.973 202.804L219.761 193.467L221.321 193.767ZM218.935 206.213L218.637 207.766L217.077 207.469L217.375 205.913L218.935 206.213ZM218.039 210.882L217.295 214.357L215.912 214.577L216.476 210.582L218.039 210.882ZM191.06 142.126L198.908 147.529L198.009 148.834L190.161 143.444L191.06 142.126Z" fill="#6669FB"/>
<path d="M208.358 141.598L208.382 143.188C207.988 146.45 206.04 149.251 202.54 151.591C199.04 153.93 194.714 155.222 189.563 155.466C184.651 155.539 180.596 154.529 177.398 152.436C175.092 150.582 173.913 149.367 173.86 148.792C173.328 147.868 172.988 146.845 172.86 145.787C172.597 142.483 174.006 139.546 177.087 136.974C180.167 134.402 184.217 132.776 189.234 132.095C194.27 131.584 198.587 132.223 202.184 134.01C205.781 135.797 207.839 138.327 208.358 141.598Z" fill="black" fill-opacity="0.11"/>
<path d="M201.468 141.16C201.468 141.28 201.43 141.377 201.381 141.377C201.333 141.377 201.291 141.28 201.291 141.16C201.291 141.039 201.333 140.939 201.381 140.939C201.43 140.939 201.468 141.039 201.468 141.16Z" fill="black" fill-opacity="0.11"/>
<path d="M182.607 80.8711C186.562 80.1258 190.123 80.7756 193.291 82.8207C196.459 84.8657 198.517 87.8367 199.465 91.7335L199.745 93.6417C199.96 97.5523 198.855 100.956 196.432 103.852C194.417 106.269 191.632 107.923 188.542 108.538C187.925 108.684 187.297 108.783 186.664 108.835C182.745 109.076 179.228 108.069 176.433 105.529C174.181 103.486 173.147 101.951 173.005 101.267C172.405 100.144 171.972 98.9402 171.719 97.6927C170.944 93.7556 171.622 90.198 173.673 87.0338C175.724 83.8697 178.699 81.8166 182.607 80.8746V80.8711ZM182.804 74.039C182.559 74.0907 182.337 74.1735 182.112 74.2219C178.97 74.9159 176.033 76.3339 173.538 78.3625C170.929 80.4831 168.889 83.2174 167.603 86.3196C166.902 87.9903 166.419 89.7437 166.164 91.5368L165.918 94.4181L166.026 97.4753C166.262 99.7606 166.711 102.019 167.368 104.221L168.512 107.741C169.377 110.115 170.404 112.471 171.497 114.856C173.254 118.679 176.205 124.124 180.615 131.046C184.157 136.608 186.699 140.214 188.037 141.995C189.324 143.72 190.151 144.593 190.569 144.614L190.714 144.634C190.777 144.655 190.845 144.655 190.908 144.634C191.199 144.572 191.634 144.217 192.091 143.485C193.063 141.808 193.902 140.056 194.599 138.247C197.202 131.988 199.653 125.079 201.952 117.52C204.429 109.376 205.722 101.647 205.757 94.2697L205.47 90.8985L204.826 87.8344L203.834 85.0739C203.103 83.4043 202.138 81.8473 200.966 80.4501C199.864 79.1434 198.583 77.997 197.162 77.0444L194.996 75.7953C193.528 75.036 191.954 74.4999 190.327 74.2046C187.02 73.6767 184.506 73.6939 182.808 74.0597L182.804 74.039Z" fill="#FF6669"/>
<path d="M182.804 74.0321C182.565 74.0839 182.348 74.1632 182.137 74.2116C178.994 74.9056 176.057 76.3236 173.562 78.3522C171.186 80.2787 169.282 82.7203 167.994 85.4915C169.058 83.7793 170.401 82.2562 171.968 80.985C174.263 79.1231 176.964 77.8233 179.854 77.1894C180.051 77.148 180.248 77.0721 180.469 77.0272H180.49C182.05 76.6822 184.364 76.6822 187.408 77.1618C188.906 77.4331 190.355 77.9262 191.707 78.6248L193.696 79.7739C195.002 80.6509 196.179 81.7055 197.193 82.907C198.267 84.1874 199.152 85.6142 199.821 87.1443L200.735 89.6908L201.336 92.5168L201.599 95.6224C201.575 102.399 200.385 109.521 198.106 117.016C195.989 123.97 193.733 130.325 191.337 136.08C190.696 137.748 189.925 139.364 189.03 140.911C188.643 141.536 188.269 141.864 187.992 141.946C188.007 141.958 188.02 141.972 188.03 141.988C189.317 143.713 190.144 144.586 190.562 144.607L190.707 144.627C190.77 144.648 190.838 144.648 190.901 144.627C191.192 144.565 191.628 144.21 192.084 143.478C193.056 141.801 193.895 140.049 194.592 138.24C197.195 131.981 199.646 125.072 201.945 117.513C204.422 109.369 205.715 101.64 205.75 94.2628L205.463 90.8916L204.826 87.8344L203.834 85.074C203.103 83.4043 202.138 81.8474 200.966 80.4502C199.864 79.1434 198.583 77.997 197.162 77.0445L194.996 75.7954C193.528 75.0361 191.954 74.4999 190.327 74.2046C187.017 73.656 184.502 73.6871 182.804 74.0321Z" fill="black" fill-opacity="0.11"/>
<path d="M180.487 77.0238C181.742 76.7547 183.479 76.6788 185.675 76.9272C183.461 76.6926 181.722 76.7547 180.466 77.0238H180.487Z" fill="black" fill-opacity="0.11"/>
<path d="M173.784 86.8545C173.146 87.499 172.577 88.2079 172.085 88.9697C170.2 91.882 169.578 95.1531 170.287 98.7762C170.521 99.9228 170.92 101.029 171.473 102.061C171.605 102.693 172.552 104.107 174.624 105.984C177.197 108.317 180.431 109.249 184.039 109.024C184.437 108.997 184.832 108.943 185.222 108.862C181.884 108.8 178.882 107.748 176.433 105.526C174.181 103.483 173.147 101.947 173.005 101.264C172.405 100.141 171.972 98.9368 171.719 97.6893C170.944 93.7522 171.622 90.1947 173.673 87.0305L173.787 86.8545H173.784Z" fill="black" fill-opacity="0.11"/>
<path d="M124.126 53.3942C124.472 50.0748 124.817 46.7553 125.551 44.4952C126.111 42.7388 126.889 41.6208 127.28 41.6208C127.387 41.6208 127.46 41.714 127.488 41.9038C127.609 42.7733 126.765 45.6994 126.862 47.5213C126.958 49.3432 127.993 50.0299 128.318 50.927C128.643 51.8242 128.269 52.9249 127.892 54.0326C126.509 62.6969 125.101 71.3579 119.245 81.6372C113.39 91.9164 103.031 103.742 95.8743 107.962C93.6987 109.242 91.8137 109.818 90.3402 109.818C86.9541 109.818 85.7504 106.768 88.2303 102.185C91.786 95.6292 102.916 85.9021 110.166 77.2446C117.416 68.5871 120.778 60.9924 124.126 53.3942Z" fill="#6669FB"/>
<path d="M127.232 41.6346C127.08 41.6346 126.886 41.8106 126.63 42.1695C126.161 42.8897 125.798 43.6728 125.551 44.4952C125.018 46.2067 124.573 48.8969 124.216 52.5661L124.126 53.3942C123.413 55.039 122.71 56.6067 122.016 58.0973H122.272C123.288 58.0534 124.296 58.2924 125.184 58.7875C125.798 59.1764 126.351 59.6543 126.824 60.2056C127.151 58.4504 127.497 56.387 127.861 54.0153C128.237 52.9157 128.419 52.2026 128.408 51.8759C128.435 51.5513 128.394 51.2245 128.287 50.9167C127.293 49.4997 126.807 48.3644 126.831 47.511C126.812 47.0025 126.837 46.4933 126.907 45.9893L127.394 42.8838L127.457 41.8934C127.418 41.7244 127.349 41.6346 127.232 41.6346Z" fill="#FFC290"/>
<path d="M125.201 58.8116C125.102 59.805 124.925 60.7891 124.672 61.755C123.542 65.7587 121.916 69.6059 119.83 73.2074C116.952 78.5466 114.166 82.4481 111.47 84.9118C108.53 87.6723 103.759 91.0078 97.1575 94.9185L95.8777 95.6983C96.5188 100.338 97.199 103.967 97.9184 106.585C100.796 104.43 103.469 102.018 105.905 99.3766C110.876 93.8143 114.22 89.6345 115.935 86.8372C120.45 80.4881 123.735 73.1994 125.789 64.9709C126.098 63.7793 126.436 62.1944 126.803 60.216C126.336 59.6706 125.79 59.1973 125.184 58.8116H125.201Z" fill="black" fill-opacity="0.11"/>
<path d="M95.8189 99.7838C93.8054 100.558 91.8871 101.56 90.1016 102.769L90.022 102.824C88.08 104.199 86.3276 105.824 84.8096 107.655L84.7128 107.744C83.6359 108.786 81.8051 111.777 79.2202 116.716C79.2202 116.743 79.1891 116.771 79.1752 116.799C76.5857 122.188 73.851 130.87 70.971 142.844C70.8804 143.239 70.8703 143.649 70.9412 144.048C71.0121 144.448 71.1627 144.829 71.3839 145.169C71.6051 145.51 71.8926 145.802 72.2292 146.03C72.5658 146.257 72.9448 146.415 73.3437 146.494L94.6914 150.614C95.1964 150.713 95.7191 150.667 96.1994 150.483C96.5522 150.348 96.8719 150.139 97.1374 149.871C97.4028 149.602 97.6077 149.281 97.7386 148.927L98.6724 146.436C101.4 139.116 103.772 133.832 105.787 130.584C105.804 130.556 105.822 130.528 105.836 130.501C107.911 126.798 110.802 123.612 114.289 121.184L114.368 121.129C116.068 119.859 118.539 118.6 121.781 117.351C124.819 116.207 127.912 115.216 131.05 114.383L130.791 119.559C130.768 120.101 130.89 120.64 131.145 121.12C131.399 121.599 131.777 122.003 132.24 122.288C132.608 122.521 133.025 122.665 133.459 122.709C133.892 122.753 134.33 122.697 134.737 122.544C134.911 122.477 135.077 122.391 135.232 122.288L157.873 107.492C158.288 107.216 158.619 106.833 158.832 106.383C159.044 105.933 159.13 105.434 159.08 104.939C159.034 104.427 158.86 103.935 158.573 103.508C158.287 103.082 157.897 102.733 157.441 102.496L131.393 89.056C131.041 88.8711 130.655 88.7626 130.258 88.7376C129.862 88.7127 129.464 88.7718 129.093 88.911C128.844 89.0077 128.611 89.1403 128.401 89.3044C127.985 89.641 127.676 90.0895 127.508 90.5966C127.341 91.1036 127.323 91.648 127.457 92.1649L128.805 97.7549C123.105 97.3178 118.955 97.0878 116.354 97.0648H116.298C111.313 97.0648 108.216 97.1637 107.008 97.3615C105.073 97.5363 103.151 97.8232 101.249 98.2207L101.149 98.2414L98.541 98.8763L98.4684 98.8936C97.5656 99.1489 96.6836 99.4387 95.8189 99.7734V99.7838Z" fill="#FF6669"/>
<path d="M21.8838 121.139C21.4687 119.925 21.0537 118.724 19.9469 118.724C19.435 118.724 18.7743 118.983 17.8958 119.628C15.1288 121.66 10.1827 127.502 9.82643 129.241C9.73996 129.659 9.91982 129.842 10.3003 129.842C11.5039 129.842 14.7102 128.047 17.9096 126.25C30.389 138.855 42.8717 151.46 54.4241 152.191C54.77 152.212 55.1435 152.226 55.5033 152.226C66.6406 152.226 76.9478 141.425 87.2273 130.628C82.2882 126.015 77.349 121.405 72.7799 121.405C72.2731 121.403 71.768 121.462 71.2754 121.581C66.2947 122.778 61.819 130.297 58.4778 134.296C56.5374 136.619 54.981 137.747 52.8607 137.747C51.3285 137.747 49.4988 137.157 47.0188 135.991C41.1147 133.206 31.4992 127.171 21.8838 121.139Z" fill="#FC8A2B"/>
<path d="M22.1466 121.305C21.6167 121.478 21.096 121.679 20.5867 121.905C19.9496 122.193 19.3705 122.594 18.8781 123.089C18.4111 123.594 18.0667 124.2 17.8716 124.859C17.7113 125.376 17.5956 125.906 17.5257 126.443L17.9062 126.229C19.8223 128.235 21.7327 130.17 23.6374 132.033C24.2323 130.193 24.8733 128.823 25.5605 127.923C25.8994 127.364 26.6488 126.55 27.8087 125.48L28.1892 125.135C26.2914 123.962 24.2784 122.685 22.1501 121.305H22.1466Z" fill="#FFC290"/>
<path d="M72.7419 121.391C72.3352 121.389 71.9295 121.43 71.5313 121.512C69.6083 122.031 67.8652 123.067 66.4918 124.507C65.7098 125.257 64.9674 126.047 64.2678 126.874L62.8324 128.713C63.141 129.584 63.53 130.424 63.9946 131.222L64.8731 132.319C66.5633 133.594 67.3312 134.291 67.1767 134.41C67.4864 135.473 67.4864 136.602 67.1767 137.664C65.8116 142.985 62.7575 146.107 58.0144 147.029C57.122 147.144 56.2232 147.202 55.3234 147.202C50.0499 147.202 44.1826 145.298 37.7216 141.491C35.3767 140.014 33.2329 138.24 31.3436 136.215C30.6518 135.755 27.7338 131.987 22.5894 124.911C21.2889 123.63 20.4726 122.99 20.1406 122.992C20.1211 122.989 20.1012 122.989 20.0818 122.992C19.698 122.865 19.2963 122.8 18.8919 122.799C18.0031 122.823 17.1389 123.095 16.3981 123.586C15.402 124.071 13.3728 125.994 10.3107 129.355C10.1689 129.476 10.034 129.583 9.90253 129.68C10.0251 129.776 10.1794 129.823 10.3349 129.811C10.9547 129.746 11.5573 129.568 12.1127 129.286C12.7814 129.056 14.7206 128.036 17.9304 126.226C23.7818 132.395 29.9943 138.214 36.5352 143.651C38.4725 145.197 40.5007 146.625 42.6089 147.93L45.6146 149.589C47.4919 150.545 49.4777 151.271 51.5291 151.753L54.8876 152.198L58.2841 151.991L61.02 151.36C62.8954 150.777 64.7004 149.989 66.4019 149.01C67.3081 148.713 69.9449 146.82 74.3122 143.33C76.927 141.188 81.2321 136.952 87.2273 130.622C82.2882 125.998 79.0323 123.379 77.4597 122.765C76.7069 122.351 75.9143 122.015 75.0939 121.761L73.9283 121.491C73.5358 121.429 73.1393 121.396 72.7419 121.391Z" fill="black" fill-opacity="0.11"/>
<path d="M29.8113 169.91C29.6511 169.884 29.4893 169.869 29.3271 169.865C28.6008 169.865 27.743 170.272 26.1554 172.832C24.2012 175.986 21.1471 182.404 21.8146 183.477C21.8509 183.535 21.9024 183.581 21.9635 183.611C22.0246 183.641 22.0928 183.653 22.1605 183.647C23.4229 183.647 27.3487 179.827 31.2709 176.007C46.0538 173.409 60.8367 170.807 72.5655 162.132C84.2942 153.457 92.9724 138.71 93.0657 130.37C93.1315 125.27 89.9978 122.564 85.9752 122.564C83.4226 122.564 80.5138 123.655 77.8401 125.915C70.9571 131.733 65.6444 145.3 57.9037 153.923C50.1629 162.546 39.9767 166.228 29.8113 169.91Z" fill="#FC8A2B"/>
<path d="M36.9745 167.236C34.9961 168.029 32.8701 168.827 30.5965 169.63C29.664 170.677 29.0445 171.963 28.8083 173.343C28.5541 174.924 28.6726 176.543 29.1542 178.07C29.8113 177.438 30.5112 176.748 31.2537 176C33.2459 175.669 35.1517 175.336 36.971 175.003C36.5594 174.317 36.2878 173.558 36.1721 172.767C35.9576 171.187 36.3934 169.247 36.978 167.246L36.9745 167.236Z" fill="#FFC290"/>
<path d="M86.2865 122.602C82.5556 122.602 79.1729 124.243 76.1384 127.523C75.5573 127.93 73.9513 130.037 71.3203 133.844C70.6286 134.969 69.9771 136.034 69.3661 137.04C69.6331 137.767 70.0736 138.418 70.6493 138.937C71.5278 139.628 72.1181 139.993 72.4202 140.035C74.9832 140.849 76.4428 141.415 76.8094 141.732C77.7191 142.485 78.1653 143.019 78.1376 143.344C78.4097 145.929 77.3801 148.746 75.0489 151.794C70.255 158.074 64.6299 162.667 58.1734 165.572C47.8455 170.173 37.8669 172.812 28.2376 173.488L25.2181 179.402C24.5263 180.495 24.0962 181.094 23.9279 181.2C23.7896 181.444 23.3123 181.774 22.496 182.19L21.8319 182.359C21.697 183.108 21.6866 183.481 21.8008 183.481H21.8215C21.8575 183.539 21.909 183.585 21.9701 183.615C22.0313 183.645 22.0996 183.657 22.1674 183.65C22.2955 183.644 22.4217 183.618 22.5409 183.571C23.876 183.012 26.7895 180.492 31.2813 176.01C42.4232 174.17 50.8396 172.252 56.5305 170.255C63.4508 168.053 69.8706 164.517 75.4259 159.848C79.1161 156.648 82.4071 153.018 85.2281 149.034C86.5533 147.173 87.7682 145.236 88.8668 143.233C91.1726 138.506 92.3256 135.769 92.3256 135.021C93.2479 131.497 93.324 128.824 92.5538 127.002C91.5116 124.398 89.6485 122.938 86.9644 122.623C86.7258 122.609 86.5044 122.602 86.2865 122.602Z" fill="black" fill-opacity="0.11"/>
<path d="M120.473 99.4766C116.24 108.338 112.003 117.199 110.633 117.199H110.612C109.267 117.102 110.834 108 108.969 101.778C107.52 96.9474 104.009 93.8625 99.6305 93.8625C98.2581 93.8763 96.901 94.1516 95.6322 94.6734C89.4513 97.1234 82.3919 105.37 77.0481 111.509C71.7042 117.647 68.0863 121.695 69.705 125.273C71.3238 128.851 78.1756 131.964 83.3223 132.958C84.441 133.179 85.5783 133.295 86.7188 133.303C90.0427 133.303 92.4639 132.116 94.2521 129.876C96.6041 126.936 97.8665 122.185 99.129 117.433C100.27 121.526 101.415 125.618 103.971 128.216C105.258 129.528 106.904 130.459 108.693 130.459C110.481 130.459 112.369 129.552 114.227 127.209C117.948 122.485 121.428 111.926 124.911 101.364C125.454 100.612 126 99.8562 125.99 99.0143C125.98 98.1723 125.419 97.2303 124.364 96.6196C123.452 96.1197 122.427 95.8608 121.386 95.8674C121.072 95.8681 120.759 95.8934 120.449 95.9433C119.124 96.171 118.028 96.9094 118.059 97.5823C118.09 98.2551 119.276 98.8762 120.473 99.4766Z" fill="#6669FB"/>
<path d="M121.632 95.8812C119.598 95.964 118.401 96.4747 118.052 97.4202C117.985 98.0413 118.792 98.7314 120.473 99.4905L119.415 101.702C118.954 102.705 118.502 103.66 118.059 104.566C119.293 104.762 120.496 105.117 121.639 105.622C122.187 105.886 122.707 106.204 123.192 106.571C123.738 104.938 124.304 103.213 124.89 101.395C125.318 100.881 125.653 100.298 125.883 99.6699C126.169 97.5697 124.752 96.3068 121.632 95.8812Z" fill="#FFC290"/>
<path d="M121.632 95.8812C119.711 95.9571 118.54 96.4172 118.118 97.2615C118.876 97.1878 119.532 97.151 120.086 97.151C120.622 97.1359 121.158 97.1892 121.68 97.3098C122.013 97.3706 122.329 97.5022 122.607 97.6957C122.884 97.8892 123.117 98.1401 123.289 98.4312C123.93 99.9702 123.641 102.292 122.424 105.398C119.08 113.1 115.094 119.131 110.463 123.493C108.972 124.907 107.625 125.614 106.424 125.611C105.434 125.611 104.542 125.131 103.746 124.169C102.132 122.359 100.238 117.289 98.0637 108.959C97.6555 114.53 96.1268 119.032 93.4773 122.464C89.8041 126.548 86.0444 128.649 82.1982 128.769H81.9353C78.8386 128.769 76.2422 126.943 74.1461 123.293C73.286 121.813 72.8998 119.467 72.9874 116.253C71.9012 117.548 70.9476 118.948 70.1408 120.432C69.4053 121.84 69.1551 123.149 69.3903 124.359C69.5332 125.004 69.8075 125.614 70.1962 126.15C70.27 126.467 71.1358 127.293 72.7937 128.627C77.636 131.705 82.3861 133.243 87.044 133.241C87.459 133.241 87.8741 133.241 88.2891 133.206C91.3675 132.645 93.5384 131.277 94.802 129.103C96.4023 126.635 97.8389 122.745 99.1117 117.434C101.235 126.067 104.383 130.382 108.554 130.38C109.368 130.372 110.175 130.226 110.941 129.949C113.284 128.727 115.294 126.306 116.973 122.685C119.083 118.427 121.728 111.328 124.907 101.388C125.335 100.874 125.671 100.291 125.9 99.6631C126.174 97.5674 124.752 96.3068 121.632 95.8812Z" fill="black" fill-opacity="0.11"/>
<path d="M98.458 94.0455C99.2798 93.2989 100.056 92.5039 100.782 91.6646C101.318 90.9917 101.495 90.5052 101.702 88.7109C101.91 86.9166 102.152 83.818 103.262 82.0789C104.373 80.3398 106.351 79.9603 108.333 79.5807C109.492 80.433 110.65 81.2853 111.117 82.7035C111.584 84.1216 111.366 86.1092 110.889 88.076C110.412 90.0428 109.671 91.9993 108.727 92.4237C108.588 92.4849 108.437 92.5166 108.284 92.5169C107.43 92.5169 106.448 91.5783 105.462 90.6398C105.007 91.739 104.66 92.8796 104.424 94.0455C104.325 94.8572 104.401 95.6806 104.646 96.4609C104.148 96.8412 103.543 97.0549 102.916 97.0717C102.788 97.0705 102.66 97.0613 102.532 97.044C101.411 96.8494 100.347 96.406 99.4196 95.7466C99.148 95.5468 98.9219 95.292 98.7562 94.9988C98.5905 94.7056 98.4888 94.3807 98.458 94.0455Z" fill="#FFC290"/>
<path d="M108.326 79.5531C107.189 79.7069 106.081 80.0218 105.033 80.4882C104.609 80.6942 104.219 80.9642 103.878 81.2887C103.641 81.5171 103.432 81.7731 103.255 82.0513C102.937 82.447 102.605 83.343 102.259 84.7393C101.956 86.3061 101.733 87.8874 101.592 89.477C101.541 89.9232 101.439 90.3621 101.287 90.7847C101.132 91.1652 100.91 91.5156 100.634 91.8199C100.015 92.5189 99.36 93.1858 98.6725 93.8178L98.4511 94.0283C98.5029 94.5538 98.7294 95.0469 99.0944 95.4292C99.3988 95.7881 100.091 96.1952 101.17 96.6507C101.715 96.8911 102.303 97.0235 102.899 97.0406C103.156 97.0416 103.412 97.0067 103.66 96.9371C103.66 96.4609 103.632 95.9019 103.601 95.2118L103.643 94.1352C103.663 93.6621 103.84 93.2091 104.148 92.8482C104.324 92.6745 104.538 92.5445 104.774 92.4686C104.94 91.9579 105.153 91.3587 105.414 90.6708C105.28 90.5026 105.164 90.321 105.068 90.1291C104.819 89.6161 104.963 89.0203 105.5 88.3417C106.193 87.5163 107.172 86.9816 108.243 86.8442C108.492 86.82 108.731 86.8062 108.966 86.8062C109.282 86.804 109.598 86.8306 109.91 86.8856C110.296 86.9415 110.675 87.0375 111.041 87.172C111.428 85.1844 111.441 83.6892 111.079 82.6862C110.842 81.704 109.924 80.6596 108.326 79.5531Z" fill="black" fill-opacity="0.11"/>
<path d="M106.019 88.8179C104.22 92.717 102.422 96.6162 100.62 99.2248C99.4887 100.864 98.3577 101.985 96.4692 101.985C95.3555 101.985 93.9823 101.588 92.1941 100.664C87.7599 98.3725 80.7801 92.8482 75.5919 92.8482C75.1669 92.846 74.7428 92.8864 74.326 92.9689C69.0894 94.049 66.4261 102.493 63.0296 103.773C62.7181 103.891 62.3875 103.952 62.0542 103.952C58.8825 103.952 55.4029 98.6831 54.4103 94.011C53.9399 91.8188 54.0048 89.5459 54.5995 87.384C55.1943 85.2221 56.3014 83.2345 57.8276 81.5889C60.4113 78.7664 63.6522 77.5552 66.8896 76.3406C65.2291 76.3295 63.5751 76.5478 61.9746 76.9893C60.055 77.5449 57.7134 78.6145 55.3718 79.6842C59.8682 76.5373 64.3647 73.3904 69.833 73.3904C70.1581 73.3904 70.4867 73.3904 70.8188 73.4249C76.7264 73.832 83.7754 77.9831 88.2649 79.1425C89.1798 79.3883 90.1226 79.5158 91.07 79.522C93.7852 79.522 95.6598 78.3902 98.8315 78.1418C99.2708 78.1108 99.7308 78.0935 100.215 78.0935C104.286 78.0935 109.651 79.2184 112.186 80.6435C115.015 82.2411 114.31 84.2148 113.303 84.8083C113.003 84.9724 112.663 85.0523 112.321 85.0395C111.785 85.0395 111.207 84.9119 110.619 84.9119C110.312 84.9075 110.006 84.9529 109.713 85.0464C108.464 85.5157 107.24 87.1685 106.019 88.8179Z" fill="black"/>
<path d="M282.092 192.128L292.168 220.016L302.056 218.98C299.227 204.654 296.401 190.341 292.894 182.698C291.006 178.585 288.916 176.421 285.354 176.421C282.307 176.421 278.187 178.001 272.19 181.293C259.174 188.439 237.325 203.66 234.447 210.834C232.946 214.571 236.595 216.123 242.005 216.123C246.982 216.123 253.443 214.809 258.763 212.673C269.852 208.211 275.981 200.171 282.092 192.128Z" fill="#5B5FE8"/>
<path d="M299.096 204.284C298.052 205.482 296.801 206.481 295.402 207.235C294.408 207.716 293.317 207.962 292.213 207.952C290.642 207.952 289.048 207.511 287.45 206.917L292.175 220.009L302.063 218.974C301.053 213.542 300.069 208.646 299.11 204.284H299.096Z" fill="#FFC290"/>
<path d="M265.065 185.465C261.451 187.708 257.539 190.306 253.329 193.26C247.013 197.925 243.439 200.695 242.607 201.569C240.747 203.15 238.987 204.845 237.339 206.645C235.912 208.225 234.948 209.619 234.447 210.827C234.237 211.181 234.137 211.589 234.16 212C236.236 213.168 239.021 214.542 242.517 216.12L243.278 216.089C249.358 215.606 254.52 214.465 258.763 212.666C260.541 211.954 262.266 211.116 263.923 210.157C264.846 209.782 267.006 208.226 270.405 205.489C273.693 202.673 277.589 198.219 282.092 192.128L292.168 220.016L296.419 219.567C293.947 214.087 292.553 210.752 292.237 209.56C291.912 208.822 290.851 204.336 289.055 196.103L287.813 192.121C286.875 189.345 285.722 187.396 284.354 186.276C283.839 185.796 283.099 185.555 282.127 185.555C281.906 185.555 281.67 185.555 281.435 185.593C280.44 185.778 279.496 186.175 278.668 186.755C278.103 187.018 276.132 188.752 272.754 191.959L261.872 202.58C260.503 203.84 259.484 204.471 258.818 204.471C258.665 204.475 258.515 204.435 258.385 204.354C258.255 204.274 258.152 204.157 258.088 204.019C257.853 203.618 257.96 202.832 258.434 201.659L263.626 189.443C264.288 187.76 264.766 186.433 265.061 185.465H265.065Z" fill="black" fill-opacity="0.11"/>
<path d="M321.595 227.583C322.497 227.916 323.444 228.114 324.404 228.173C325.549 228.173 326.617 227.7 327.517 226.154C329.115 223.394 330.156 217.183 330.256 213.891C330.322 211.796 330.007 210.868 329.374 210.868C329.028 210.868 328.54 211.179 327.99 211.751C326.451 213.321 324.217 216.869 321.979 220.412C303.336 217.121 284.69 213.832 270.256 211.979C255.823 210.126 245.602 209.705 235.378 209.288C232.334 214.35 229.294 219.415 231.95 223.09C234.606 226.765 242.973 229.053 251.129 229.515C252.274 229.581 253.415 229.608 254.564 229.608C261.595 229.608 268.89 228.525 278.959 227.986C286.122 227.603 294.686 227.496 303.796 227.496C309.569 227.51 315.584 227.555 321.595 227.583Z" fill="#6669FB"/>
<path d="M301.527 216.858C302.189 220.274 302.346 223.102 301.998 225.34C301.906 226.081 301.734 226.81 301.482 227.514H304.315C309.367 227.514 315.113 227.542 321.554 227.6C322.137 226.746 322.602 225.817 322.937 224.839C323.206 224.087 323.303 223.284 323.221 222.49C323.095 221.623 322.883 220.771 322.588 219.947C322.588 219.798 322.567 219.65 322.553 219.501C322.366 219.802 322.173 220.105 321.972 220.423C314.072 219.022 307.264 217.833 301.548 216.855L301.527 216.858Z" fill="#FFC290"/>
<path d="M235.357 209.295C231.668 215.241 230.232 219.193 231.051 221.151C231.791 223.911 234.594 226.032 239.459 227.514C244.144 228.893 249.001 229.603 253.886 229.622H254.543C254.64 229.622 254.768 229.622 254.937 229.622C255.749 229.622 257.405 229.56 259.904 229.436L276.479 228.135C279.49 227.948 282.183 227.821 284.558 227.752C288.617 227.605 294.256 227.522 301.475 227.503H304.315C309.388 227.503 315.153 227.532 321.609 227.59L321.848 227.666C322.672 227.974 323.541 228.148 324.421 228.18C324.799 228.188 325.175 228.127 325.531 228C326.458 227.703 327.261 226.841 327.911 225.402C328.893 223.249 329.636 220.035 330.138 215.761C330.429 212.614 330.227 210.992 329.533 210.896C329.494 210.892 329.455 210.892 329.415 210.896C328.878 210.896 328.16 211.458 327.261 212.583C327.444 213.361 327.527 214.158 327.51 214.957C326.839 219.238 324.901 221.819 321.695 222.7C320.402 223.245 318.246 223.526 315.228 223.542C315.228 223.542 315.176 223.563 315.03 223.563C313.99 223.563 308.837 223.169 299.57 222.383C297.37 222.252 295.582 222.187 294.205 222.189C293.714 222.189 293.275 222.189 292.887 222.214H292.666C291.755 222.214 289.571 222.379 286.115 222.711C276.548 223.957 271.26 224.581 270.253 224.581H270.163C268.683 224.698 267.239 224.757 265.833 224.757C263.705 224.762 261.579 224.615 259.472 224.318C253.518 223.419 250.354 221.786 249.981 219.419C249.981 218.701 250.368 217.824 251.112 216.796C253.457 214.199 255.283 212.109 256.591 210.527C250.077 209.974 242.999 209.564 235.357 209.295Z" fill="black" fill-opacity="0.11"/>
<path d="M301.081 170.955C298.632 175.645 296.187 180.331 297.47 182.922C298.207 184.419 300.189 185.217 302.184 185.217C303.654 185.217 305.135 184.785 306.141 183.881C308.517 181.749 308.258 176.98 307.995 172.222L301.081 170.955Z" fill="#E5E6E6"/>
<path d="M306.812 172.008C306.868 173.202 306.885 173.888 306.864 174.078C306.952 177.956 306.24 180.498 304.73 181.704L304.267 182.049C303.935 182.266 303.579 182.442 303.205 182.573C302.801 182.713 302.384 182.813 301.96 182.87C301.448 182.925 301.133 182.953 301.012 182.953H300.981C299.383 182.914 298.122 182.541 297.197 181.835L297.245 182.242L297.491 182.932L297.698 183.277C298.226 183.991 298.961 184.524 299.805 184.802C300.566 185.067 301.365 185.205 302.171 185.213C302.305 185.213 302.44 185.213 302.572 185.213C304.721 185.098 306.245 184.232 307.144 182.615C307.683 181.495 308 180.283 308.078 179.043C308.175 177.952 308.206 176.857 308.172 175.762C308.172 175.389 308.12 174.211 308.016 172.229L306.84 172.015L306.812 172.008Z" fill="black" fill-opacity="0.11"/>
<path d="M253.249 181.404C257.116 183.785 260.987 186.165 266.393 186.165C267.737 186.16 269.078 186.022 270.395 185.751C278.004 184.24 288.436 178.277 298.874 172.315C299.711 173.164 300.548 174.013 301.295 174.385C301.553 174.531 301.84 174.615 302.136 174.63C302.482 174.63 302.686 174.468 302.676 174.123C302.676 173.533 301.984 172.422 301.316 171.311L307.075 172.118C307.203 171.88 307.331 171.642 306.792 171.221C305.779 170.561 304.705 169.999 303.585 169.544C302.122 168.892 300.403 168.188 299.193 168.012C298.989 167.983 298.783 167.968 298.577 167.967C297.876 167.985 297.191 168.182 296.588 168.54C288.827 171.173 281.062 173.806 274.611 173.806C273.919 173.806 273.227 173.778 272.574 173.712C265.756 173.05 260.724 168.809 253.44 166.28C250.897 165.4 248.078 164.724 245.27 164.724C240.033 164.724 234.824 167.07 231.483 174.775C226.347 186.618 225.603 211.117 231.009 218.135C231.53 218.862 232.22 219.452 233.019 219.856C233.818 220.26 234.703 220.465 235.599 220.454C241.355 220.454 248.808 212.994 251.648 207.407C255.349 200.127 251.212 196.02 250.178 192.225C249.144 188.429 251.191 184.92 253.249 181.404Z" fill="#FC8A2B"/>
<path d="M298.663 167.96C298.56 167.959 298.457 167.969 298.356 167.988C290.977 170.491 286.026 172.024 283.503 172.587C285.078 173.581 286.087 174.765 286.53 176.138C286.786 176.787 286.887 177.747 286.834 179.019C290.139 177.273 294.149 175.039 298.864 172.315C300.365 173.891 301.438 174.68 302.084 174.682C302.199 174.684 302.312 174.653 302.409 174.592C302.953 174.362 302.585 173.275 301.302 171.331L307.054 172.135C307.654 171.774 306.838 171.076 304.606 170.041C301.615 168.654 299.634 167.96 298.663 167.96Z" fill="#FFC290"/>
<path d="M298.349 171.766C297.787 171.776 297.227 171.841 296.678 171.959C295.156 172.335 293.672 172.852 292.247 173.505C283.024 178.035 277.81 180.434 276.607 180.703C273.127 181.985 269.88 182.647 266.867 182.691H266.78C259.697 182.691 254.515 180.267 251.236 175.42C248.384 183.196 246.98 188.193 247.024 190.413C247.024 192.295 247.12 193.34 247.314 193.55C247.448 194.194 248.241 195.752 249.694 198.225L250.24 199.968C250.372 201.691 250.316 202.835 250.074 203.401C248.866 208.271 246.107 212.143 241.797 215.016C241.006 215.381 240.147 215.576 239.276 215.589C237.872 215.589 236.554 215.013 235.322 213.863C234.847 213.863 232.196 210.485 227.367 203.729C227.471 205.855 227.702 207.973 228.059 210.071C228.774 214.817 230.326 218.029 232.715 219.709C233.58 220.215 234.568 220.475 235.572 220.461C236.066 220.458 236.56 220.407 237.045 220.309L238.567 219.881C239.652 219.473 240.69 218.949 241.662 218.318C246.101 215.233 249.422 211.598 251.624 207.414C252.793 205.006 253.291 202.897 253.118 201.089C253.066 200.218 252.914 199.355 252.665 198.519L250.154 192.232C249.974 191.903 249.892 190.968 249.908 189.426C250.107 187.28 251.219 184.602 253.246 181.393L254.214 181.987C258.69 184.823 262.804 186.241 266.555 186.241C267.722 186.243 268.884 186.098 270.014 185.81C271.5 185.523 272.963 185.131 274.393 184.637C275.029 184.506 277.279 183.579 281.141 181.856C285.061 180.034 290.963 176.85 298.847 172.305C300.348 173.88 301.421 174.669 302.067 174.672C302.182 174.674 302.295 174.643 302.392 174.582C302.461 174.554 302.52 174.506 302.563 174.445C302.605 174.384 302.629 174.311 302.631 174.237C302.217 174.258 301.805 174.161 301.444 173.957C300.522 172.623 299.819 171.933 299.334 171.887C299.016 171.787 298.682 171.746 298.349 171.766Z" fill="black" fill-opacity="0.11"/>
<path d="M275.614 151.101C275.53 151.101 275.448 151.126 275.379 151.173C275.309 151.22 275.255 151.286 275.223 151.363L269.661 165.189C269.64 165.242 269.629 165.298 269.63 165.355C269.631 165.411 269.644 165.467 269.667 165.519C269.69 165.57 269.724 165.617 269.766 165.655C269.808 165.693 269.857 165.723 269.91 165.742L273.169 166.887C273.214 166.904 273.262 166.912 273.31 166.911C273.374 166.911 273.436 166.897 273.494 166.87C273.544 166.846 273.588 166.812 273.625 166.77C273.662 166.729 273.69 166.681 273.708 166.628L278.741 152.074C278.758 152.017 278.764 151.957 278.757 151.897C278.751 151.838 278.732 151.781 278.703 151.729C278.671 151.676 278.628 151.631 278.576 151.597C278.525 151.563 278.466 151.541 278.405 151.532L275.68 151.115L275.614 151.101Z" fill="#FF6669"/>
<path d="M275.137 167.294C275.946 166.134 276.619 164.885 277.143 163.571C277.71 162.1 278.022 160.544 278.066 158.968C278.055 158.071 277.709 157.21 277.098 156.553C276.566 157.693 275.973 158.803 275.32 159.879C275.04 160.296 274.808 160.531 274.58 160.531C274.407 160.531 274.234 160.4 274.047 160.117C273.604 159.458 273.061 157.967 272.619 157.867H272.57C272.152 157.867 271.83 159.116 271.591 160.455C271.346 161.835 271.194 163.34 271.041 164.834C261.537 177.829 252.018 190.824 247.819 190.824C247.657 190.825 247.495 190.804 247.338 190.762C243.406 189.657 245.422 173.926 242.192 169.023C241.872 168.495 241.421 168.058 240.882 167.756C240.343 167.453 239.735 167.296 239.117 167.298C235.333 167.298 230.383 172.75 230.069 181.259C229.667 192.021 236.685 207.669 245.073 207.669C245.435 207.669 245.798 207.639 246.155 207.58C255.01 206.11 265.075 186.7 275.137 167.294Z" fill="#FFC290"/>
<path d="M239.131 167.26C238.8 167.259 238.47 167.296 238.148 167.37C237.436 167.544 236.76 167.839 236.149 168.243L235.16 168.989C234.463 169.608 233.837 170.302 233.292 171.059C231.431 173.547 230.269 176.925 230.069 181.231C229.896 184.944 230.587 188.822 231.916 192.863C233.244 196.904 235.053 200.351 237.367 203.184C238.39 204.467 239.627 205.565 241.023 206.431L243.008 207.328C243.833 207.495 244.669 207.61 245.509 207.673C245.654 207.673 245.72 207.652 245.702 207.614L248.393 206.834L250.68 205.423L253.004 203.391C254.732 201.616 256.324 199.714 257.767 197.701C260.589 193.86 264.338 187.694 268.959 179.119C268.005 178.834 267.095 178.416 266.258 177.877C265.139 177.113 264.235 176.076 263.633 174.865C255.622 185.513 250.424 190.838 248.037 190.838C247.964 190.843 247.892 190.843 247.819 190.838C247.778 190.861 247.732 190.873 247.684 190.872C247.215 190.798 246.787 190.562 246.474 190.206C245.92 189.678 245.599 188.757 245.329 187.597C245.031 186.286 244.824 184.955 244.71 183.616C244.174 177.432 243.89 174.34 243.81 174.34C243.202 171.037 242.595 169.171 241.991 168.744C241.662 168.294 241.232 167.927 240.735 167.673C240.238 167.42 239.689 167.286 239.131 167.284V167.26Z" fill="#FC8A2B"/>
<path d="M277.115 156.546C276.977 156.832 276.849 157.101 276.721 157.357C275.591 161.787 274.938 164.171 274.763 164.51C274.383 165.726 273.373 167.706 271.733 170.448C267.434 177.451 262.562 184.088 257.168 190.292C254.258 193.57 251.407 196.067 248.615 197.783C246.952 198.77 245.409 199.264 243.987 199.264C242.856 199.266 241.75 198.935 240.808 198.311C239.764 197.635 238.858 196.767 238.138 195.755L236.993 194.009C236.272 192.688 235.68 191.302 235.226 189.868C234.737 188.34 234.362 186.779 234.105 185.196C233.655 181.2 233.53 178.859 233.728 178.174C233.769 174.813 234.854 171.353 236.983 167.795C236.693 167.93 236.412 168.084 236.142 168.257L235.153 169.002C234.451 169.617 233.824 170.311 233.285 171.073C232.772 171.756 232.326 172.487 231.954 173.257C230.871 175.431 230.207 178.088 230.062 181.245C230.062 181.338 230.062 181.431 230.062 181.521C229.93 185.147 230.622 188.936 231.916 192.877C232.563 194.867 233.381 196.797 234.361 198.646C235.211 200.258 236.218 201.782 237.367 203.197C237.536 203.404 237.712 203.601 237.878 203.791C238.789 204.826 239.848 205.72 241.023 206.444L243.008 207.342C243.833 207.509 244.669 207.624 245.509 207.687C245.654 207.687 245.72 207.666 245.702 207.628L248.393 206.848L250.679 205.437L253.004 203.404C254.741 201.638 256.334 199.735 257.767 197.714C261.779 192.309 267.569 182.177 275.137 167.318L275.316 167.039C277.406 163.908 278.268 160.877 277.904 157.947C277.74 157.43 277.472 156.954 277.115 156.546Z" fill="black" fill-opacity="0.11"/>
<path d="M240.071 165.607C240.884 166.696 241.885 167.631 243.029 168.367C244.454 169.323 246.619 170.493 248.113 170.493C248.338 170.496 248.562 170.463 248.777 170.396C250.216 169.917 250.441 167.56 250.666 165.2C249.915 164.51 249.168 163.844 248.905 163.078C248.642 162.312 248.864 161.456 249.088 160.6C249.78 160.945 250.472 161.27 251.119 161.27C251.766 161.27 252.336 160.945 252.824 159.986C253.81 158.043 254.405 153.499 252.987 151.884C252.73 151.624 252.419 151.422 252.076 151.294C251.733 151.166 251.366 151.114 251.001 151.142C249.303 151.142 246.999 152.026 244.692 152.912C244.391 156.242 244.091 159.572 243.309 161.691C242.527 163.809 241.31 164.699 240.071 165.607Z" fill="#FFC290"/>
<path d="M250.987 151.115C250.692 151.117 250.397 151.143 250.105 151.194C249.201 151.274 247.397 151.841 244.692 152.895C244.323 157.418 243.862 160.344 243.309 161.673C242.827 163.169 241.744 164.48 240.061 165.607L240.224 165.811C241.181 167.17 242.95 168.49 245.533 169.772C246.334 170.172 247.208 170.407 248.103 170.462H248.224C248.66 170.452 249.076 170.278 249.389 169.975C249.535 169.822 249.662 169.652 249.766 169.468C249.285 169.604 248.789 169.68 248.289 169.696C248.155 169.697 248.021 169.686 247.888 169.661C246.966 169.661 245.903 169.194 244.699 168.26C243.572 167.322 242.961 166.268 242.866 165.1C242.891 164.543 243.026 163.997 243.263 163.493C243.501 162.989 243.836 162.537 244.25 162.163C244.585 161.792 244.993 161.492 245.447 161.282C245.902 161.071 246.395 160.954 246.896 160.938C247.043 160.937 247.189 160.947 247.335 160.966C247.874 161.042 248.397 161.2 248.888 161.435V161.418C248.947 161.138 249.012 160.856 249.088 160.573L246.124 159.406C245.73 159.141 245.554 158.968 245.592 158.896C245.522 158.637 245.678 158.337 246.055 157.992C246.255 157.802 246.466 157.626 246.688 157.464L249.227 155.666C249.566 155.368 249.871 155.034 250.137 154.669C250.214 154.586 250.304 154.516 250.403 154.462C250.621 154.36 250.855 154.293 251.095 154.265C252.305 154.199 253.198 154.127 253.761 154.051C253.747 153.874 253.724 153.698 253.692 153.523L253.53 152.878C253.417 152.5 253.23 152.148 252.98 151.843C252.715 151.592 252.402 151.397 252.059 151.272C251.717 151.147 251.352 151.093 250.987 151.115Z" fill="black" fill-opacity="0.11"/>
<path d="M249.172 160.642C249.327 160.724 249.479 160.8 249.628 160.866C249.499 160.786 249.364 160.717 249.223 160.659H249.178L249.172 160.642Z" fill="black" fill-opacity="0.11"/>
<path d="M250.23 152.705C250.8 152.813 251.379 152.875 251.959 152.888C252.564 152.89 253.164 152.788 253.734 152.588C255.093 152.119 256.736 151.004 256.66 149.103C256.584 147.202 254.785 144.51 253.121 143.817C252.823 143.689 252.502 143.623 252.177 143.623C250.873 143.623 249.638 144.676 248.407 145.732C245.315 146.891 242.226 148.054 241.144 150.248C240.061 152.443 240.974 155.676 242.323 157.698C243.316 159.185 244.544 160.017 245.619 160.017C246 160.018 246.373 159.905 246.688 159.693C247.93 158.861 248.635 156.394 249.137 154.955C249.638 153.516 249.926 153.102 250.23 152.705Z" fill="black"/>
</g>
<defs>
<clipPath id="clip0_28_1124">
<rect width="364" height="264" fill="white"/>
</clipPath>
</defs>
</svg>
