<?xml version="1.0" encoding="UTF-8" standalone="no"?>
<svg
   xmlns:dc="http://purl.org/dc/elements/1.1/"
   xmlns:cc="http://creativecommons.org/ns#"
   xmlns:rdf="http://www.w3.org/1999/02/22-rdf-syntax-ns#"
   xmlns:svg="http://www.w3.org/2000/svg"
   xmlns="http://www.w3.org/2000/svg"
   xmlns:sodipodi="http://sodipodi.sourceforge.net/DTD/sodipodi-0.dtd"
   xmlns:inkscape="http://www.inkscape.org/namespaces/inkscape"
   version="1.1"
   id="Camada_1"
   x="0px"
   y="0px"
   viewBox="0 0 65.429999 72.254994"
   xml:space="preserve"
   sodipodi:docname="PPGCC.svg"
   width="65.43"
   height="72.254997"
   inkscape:version="1.1-dev (bc69992, 2020-04-15)"><metadata
   id="metadata901"><rdf:RDF><cc:Work
       rdf:about=""><dc:format>image/svg+xml</dc:format><dc:type
         rdf:resource="http://purl.org/dc/dcmitype/StillImage" /><dc:title></dc:title></cc:Work></rdf:RDF></metadata><defs
   id="defs899" /><sodipodi:namedview
   pagecolor="#ffffff"
   bordercolor="#666666"
   borderopacity="1"
   objecttolerance="10"
   gridtolerance="10"
   guidetolerance="10"
   inkscape:pageopacity="0"
   inkscape:pageshadow="2"
   inkscape:window-width="2042"
   inkscape:window-height="1194"
   id="namedview897"
   showgrid="false"
   width="65430px"
   inkscape:zoom="0.52748284"
   inkscape:cx="151.74194"
   inkscape:cy="297.64001"
   inkscape:window-x="0"
   inkscape:window-y="25"
   inkscape:window-maximized="0"
   inkscape:current-layer="Camada_1" />
<style
   type="text/css"
   id="style868">
	.st0{font-family:'Klavika-Light';}
	.st1{font-size:24.8781px;}
	.st2{fill:#076CA1;}
	.st3{font-family:'Klavika-Bold';}
	.st4{fill:#1C4D63;}
</style>

<g
   id="g894"
   transform="translate(-216.77,-256.70529)">
	<g
   id="g884">
		<g
   id="g882">
			<path
   class="st2"
   d="m 271.95,272.49 -2.23,2.67 c 5.55,5.32 9.02,12.79 9.02,21.08 0,16.15 -13.09,29.24 -29.24,29.24 -6.41,0 -12.33,-2.09 -17.15,-5.59 l -2.23,2.67 c 5.43,4 12.12,6.4 19.38,6.4 18.07,0 32.72,-14.65 32.72,-32.72 0,-9.36 -3.96,-17.79 -10.27,-23.75 z"
   id="path878" />
			<path
   class="st2"
   d="m 228.55,316.62 c -5.12,-5.27 -8.29,-12.45 -8.29,-20.37 0,-16.15 13.09,-29.24 29.24,-29.24 6.05,0 11.67,1.84 16.33,4.98 l 2.23,-2.67 c -5.28,-3.65 -11.67,-5.79 -18.57,-5.79 -18.07,0 -32.72,14.65 -32.72,32.72 0,9 3.64,17.15 9.52,23.07 z"
   id="path880" />
		</g>
	</g>
	<g
   id="g890">
		<path
   class="st4"
   d="m 256.5,287.56 c 0.59,-0.73 1.47,-1.15 2.41,-1.15 h 6.77 c 0.51,0.92 1.49,1.54 2.62,1.54 1.66,0 3,-1.34 3,-3 0,-1.66 -1.34,-3 -3,-3 -1.1,0 -2.05,0.59 -2.58,1.47 h -6.43 c -2.08,0 -4.04,0.94 -5.34,2.55 l -2.73,3.39 1.92,2.38 z"
   id="path886" />
		<path
   class="st4"
   d="m 268.29,304.4 c -1.12,0 -2.1,0.62 -2.62,1.54 h -6.77 c -0.94,0 -1.82,-0.42 -2.41,-1.15 l -3.38,-4.19 -1.92,2.38 2.73,3.39 c 1.3,1.62 3.27,2.55 5.34,2.55 h 6.43 c 0.52,0.88 1.48,1.47 2.58,1.47 1.66,0 3,-1.34 3,-3 0,-1.66 -1.33,-2.99 -2.98,-2.99 z"
   id="path888" />
	</g>
	<path
   class="st2"
   d="m 251.8,293.31 -8.43,-10.43 h -10.52 c -0.54,-0.55 -1.29,-0.88 -2.13,-0.88 -1.66,0 -3,1.34 -3,3 0,1.66 1.34,3 3,3 0.86,0 1.64,-0.37 2.19,-0.95 h 8.46 l 1.99,2.47 v 0.06 l 4.9,6.07 c -0.04,0.2 -0.06,0.4 -0.06,0.6 0,0.21 0.02,0.41 0.06,0.6 l -1.93,2.37 h -0.01 l -1.21,1.5 -1.77,2.17 v 0.02 l -2,2.48 h -8.43 c -0.03,-0.04 -0.07,-0.07 -0.1,-0.1 v -6.86 h -0.02 c 0.58,-0.55 0.94,-1.32 0.94,-2.17 0,-1.66 -1.34,-3 -3,-3 -1.66,0 -3,1.34 -3,3 0,0.86 0.36,1.63 0.94,2.17 h -0.02 v 6.86 c -0.56,0.55 -0.92,1.31 -0.92,2.15 0,1.66 1.34,3 3,3 0.83,0 1.58,-0.34 2.13,-0.89 h 0.21 10.26 l 8.44,-10.36 c 1.38,-0.27 2.43,-1.48 2.43,-2.94 0,-1.45 -1.03,-2.66 -2.4,-2.94 z m -21.07,-7.04 c -0.7,0 -1.27,-0.57 -1.27,-1.27 0,-0.7 0.57,-1.27 1.27,-1.27 0.7,0 1.27,0.56 1.27,1.27 0,0.71 -0.57,1.27 -1.27,1.27 z m 0,8.66 c 0.7,0 1.27,0.57 1.27,1.27 0,0.7 -0.57,1.27 -1.27,1.27 -0.7,0 -1.27,-0.57 -1.27,-1.27 -0.01,-0.7 0.56,-1.27 1.27,-1.27 z m 0,13.74 c -0.7,0 -1.27,-0.57 -1.27,-1.27 0,-0.7 0.57,-1.27 1.27,-1.27 0.7,0 1.27,0.57 1.27,1.27 0,0.7 -0.57,1.27 -1.27,1.27 z m 20.47,-11.15 c -0.7,0 -1.27,-0.57 -1.27,-1.27 0,-0.7 0.57,-1.27 1.27,-1.27 0.7,0 1.27,0.57 1.27,1.27 0,0.7 -0.57,1.27 -1.27,1.27 z"
   id="path892" />
</g>
</svg>
