<svg width="49" height="29" viewBox="0 0 49 29" fill="none" xmlns="http://www.w3.org/2000/svg">
<g clip-path="url(#clip0_209_32)">
<path d="M32.112 5.74595C32.7523 5.01853 33.7072 4.60001 34.7272 4.60001H42.0735C42.6269 5.51677 43.6904 6.13459 44.9166 6.13459C46.7179 6.13459 48.1719 4.79932 48.1719 3.14517C48.1719 1.49103 46.7179 0.155762 44.9166 0.155762C43.7229 0.155762 42.6921 0.743681 42.1169 1.62058H35.1396C32.8825 1.62058 30.7556 2.55725 29.345 4.16156L26.3826 7.53958L28.466 9.91119L32.112 5.74595Z" fill="#1C4D63"/>
<path d="M44.9058 22.5263C43.6905 22.5263 42.627 23.1441 42.0628 24.0609H34.7164C33.6964 24.0609 32.7415 23.6424 32.1013 22.915L28.4335 18.7397L26.3501 21.1114L29.3125 24.4894C30.7232 26.1037 32.8609 27.0304 35.1071 27.0304H42.0845C42.6487 27.9073 43.6904 28.4952 44.8841 28.4952C46.6854 28.4952 48.1395 27.1599 48.1395 25.5058C48.1395 23.8516 46.6963 22.5263 44.9058 22.5263Z" fill="#1C4D63"/>
<path d="M27.012 11.4756L17.8643 1.08247H6.4488C5.86283 0.534407 5.04898 0.205566 4.13747 0.205566C2.33615 0.205566 0.88208 1.54084 0.88208 3.19498C0.88208 4.84912 2.33615 6.18439 4.13747 6.18439C5.07068 6.18439 5.91708 5.81569 6.5139 5.23773H15.6941L17.8535 7.69902V7.7588L23.1706 13.8074C23.1272 14.0067 23.1055 14.206 23.1055 14.4053C23.1055 14.6145 23.1272 14.8138 23.1706 15.0032L21.0763 17.3648H21.0655L19.7525 18.8595L17.8318 21.0219V21.0418L15.6615 23.513H6.5139C6.48135 23.4732 6.43794 23.4433 6.40538 23.4134V16.5776H6.38368C7.01305 16.0295 7.4037 15.2623 7.4037 14.4153C7.4037 12.7611 5.94963 11.4258 4.14831 11.4258C2.347 11.4258 0.892925 12.7611 0.892925 14.4153C0.892925 15.2722 1.28357 16.0395 1.91295 16.5776H1.89124V23.4134C1.28357 23.9614 0.892925 24.7188 0.892925 25.5558C0.892925 27.2099 2.347 28.5452 4.14831 28.5452C5.04897 28.5452 5.86282 28.2064 6.45964 27.6583H6.68753H17.8209L26.9794 17.3349C28.4769 17.0659 29.6163 15.8601 29.6163 14.4053C29.6163 12.9604 28.4986 11.7547 27.012 11.4756ZM4.14831 4.46049C3.38872 4.46049 2.77021 3.89251 2.77021 3.19498C2.77021 2.49745 3.38872 1.92947 4.14831 1.92947C4.9079 1.92947 5.52643 2.48748 5.52643 3.19498C5.52643 3.90247 4.9079 4.46049 4.14831 4.46049ZM4.14831 13.0899C4.9079 13.0899 5.52643 13.6579 5.52643 14.3555C5.52643 15.053 4.9079 15.621 4.14831 15.621C3.38872 15.621 2.77021 15.053 2.77021 14.3555C2.75936 13.6579 3.37787 13.0899 4.14831 13.0899ZM4.14831 26.7815C3.38872 26.7815 2.77021 26.2134 2.77021 25.5159C2.77021 24.8184 3.38872 24.2504 4.14831 24.2504C4.9079 24.2504 5.52643 24.8184 5.52643 25.5159C5.52643 26.2134 4.9079 26.7815 4.14831 26.7815ZM26.3609 15.6708C25.6013 15.6708 24.9828 15.1028 24.9828 14.4053C24.9828 13.7077 25.6013 13.1398 26.3609 13.1398C27.1205 13.1398 27.739 13.7077 27.739 14.4053C27.739 15.1028 27.1205 15.6708 26.3609 15.6708Z" fill="#076CA1"/>
</g>
<defs>
<clipPath id="clip0_209_32">
<rect width="49" height="29" fill="white"/>
</clipPath>
</defs>
</svg>
