<svg width="168" height="182" viewBox="0 0 168 182" fill="none" xmlns="http://www.w3.org/2000/svg">
<g opacity="0.8" clip-path="url(#clip0_1_1680)">
<path d="M107.578 120.128C103.738 115.754 104.127 109.056 108.448 105.168C112.769 101.28 119.386 101.675 123.226 106.049C127.066 110.423 126.677 117.121 122.356 121.009C118.035 124.897 111.419 124.503 107.578 120.128Z" fill="#323435"/>
<path d="M115.401 123.694C117.827 123.694 120.178 122.843 122.053 121.285C123.928 119.727 125.211 117.559 125.684 115.151C126.157 112.743 125.791 110.243 124.648 108.077C123.504 105.911 121.655 104.214 119.414 103.274C117.173 102.335 114.679 102.211 112.358 102.923C110.037 103.636 108.032 105.142 106.684 107.184C105.336 109.225 104.73 111.677 104.968 114.121C105.205 116.564 106.273 118.849 107.988 120.586C108.959 121.574 110.115 122.358 111.387 122.892C112.66 123.425 114.024 123.698 115.401 123.694ZM115.401 102.5C117.821 102.498 120.166 103.345 122.037 104.896C123.909 106.448 125.191 108.609 125.665 111.01C126.14 113.411 125.777 115.905 124.639 118.066C123.501 120.227 121.658 121.922 119.424 122.861C117.19 123.801 114.703 123.927 112.388 123.219C110.072 122.511 108.071 121.011 106.724 118.977C105.378 116.942 104.771 114.497 105.005 112.06C105.24 109.623 106.302 107.343 108.01 105.609C108.978 104.622 110.13 103.839 111.398 103.305C112.667 102.772 114.028 102.498 115.401 102.5Z" fill="#323435"/>
<path d="M137.179 164.263C134.674 166.8 134.674 170.912 137.179 173.449C139.685 175.986 143.748 175.986 146.253 173.449C148.759 170.912 148.759 166.8 146.253 164.263C143.748 161.726 139.685 161.726 137.179 164.263Z" fill="#323435"/>
<path d="M151.855 168.494L146.572 163.978L144.667 166.262L149.95 170.778C150.228 171.016 150.588 171.133 150.951 171.102C151.314 171.071 151.65 170.895 151.885 170.613L152.015 170.457C152.132 170.318 152.221 170.157 152.276 169.982C152.332 169.808 152.353 169.625 152.338 169.442C152.323 169.26 152.273 169.082 152.19 168.92C152.107 168.757 151.993 168.612 151.855 168.494Z" fill="#323435"/>
<path d="M138.427 180.643L138.427 173.835C138.427 173.783 138.447 173.732 138.484 173.695C138.521 173.658 138.571 173.637 138.623 173.637L141.178 173.637C141.23 173.637 141.28 173.658 141.317 173.695C141.354 173.732 141.374 173.783 141.374 173.835L141.374 180.643C141.374 181.011 141.23 181.365 140.972 181.626C140.715 181.886 140.365 182.033 140.001 182.033L139.8 182.033C139.436 182.033 139.086 181.886 138.829 181.626C138.571 181.365 138.427 181.011 138.427 180.643Z" fill="#323435"/>
<path d="M143.185 180.617L141.717 173.974C141.705 173.922 141.715 173.869 141.742 173.824C141.77 173.78 141.814 173.748 141.865 173.737L144.359 173.172C144.41 173.16 144.463 173.17 144.507 173.198C144.551 173.226 144.582 173.271 144.593 173.322L146.061 179.966C146.141 180.325 146.076 180.702 145.881 181.014C145.686 181.325 145.376 181.545 145.021 181.625L144.824 181.67C144.469 181.75 144.096 181.685 143.789 181.487C143.482 181.29 143.264 180.977 143.185 180.617Z" fill="#323435"/>
<path d="M147.769 176.922L144.406 171.026C144.38 170.981 144.373 170.927 144.387 170.876C144.4 170.825 144.433 170.781 144.478 170.755L146.691 169.462C146.736 169.435 146.79 169.428 146.84 169.442C146.89 169.456 146.933 169.489 146.959 169.534L150.321 175.43C150.503 175.749 150.553 176.128 150.458 176.484C150.364 176.841 150.134 177.144 149.819 177.328L149.644 177.431C149.329 177.615 148.954 177.665 148.602 177.569C148.251 177.474 147.951 177.241 147.769 176.922Z" fill="#323435"/>
<path d="M17.547 167.948L10.4824 164.907L30.8672 116.384L37.9318 119.425L17.547 167.948Z" fill="#616161"/>
<path d="M29.8551 121.02C26.1183 116.555 26.6648 109.868 31.0758 106.085C35.4868 102.302 42.0918 102.855 45.8286 107.321C49.5654 111.786 49.0189 118.473 44.608 122.256C40.197 126.039 33.5919 125.486 29.8551 121.02Z" fill="#323435"/>
<path d="M37.8203 124.806C39.4625 124.807 41.082 124.417 42.5484 123.669C44.0147 122.92 45.287 121.834 46.2628 120.497C47.2386 119.16 47.8906 117.609 48.1664 115.97C48.4422 114.331 48.3341 112.65 47.8507 111.061C47.2777 109.187 46.2025 107.51 44.7447 106.218C43.287 104.925 41.5037 104.067 39.5931 103.739C37.6826 103.411 35.7196 103.626 33.9223 104.359C32.1251 105.093 30.5639 106.317 29.4125 107.895C28.261 109.473 27.5643 111.343 27.3998 113.297C27.2353 115.252 27.6095 117.215 28.4807 118.967C29.3519 120.72 30.6861 122.193 32.3349 123.224C33.9837 124.255 35.8825 124.802 37.8203 124.806ZM37.8203 103.601C39.7549 103.603 41.651 104.148 43.2977 105.176C44.9444 106.204 46.2771 107.674 47.1476 109.423C48.0181 111.172 48.3922 113.132 48.2284 115.083C48.0646 117.034 47.3692 118.902 46.2196 120.477C45.07 122.052 43.5113 123.273 41.7169 124.005C39.9225 124.737 37.9627 124.951 36.0555 124.622C34.1484 124.294 32.3687 123.436 30.9144 122.144C29.46 120.853 28.3881 119.178 27.8179 117.307C27.004 114.625 27.2743 111.726 28.5697 109.245C29.8651 106.765 32.0796 104.907 34.7272 104.078C35.7397 103.76 36.7939 103.599 37.8539 103.601L37.8203 103.601Z" fill="#323435"/>
<path d="M16.648 145.854C15.4871 141.625 17.9326 137.244 22.11 136.069C26.2875 134.894 30.6151 137.369 31.776 141.599C32.9369 145.828 30.4914 150.209 26.3139 151.384C22.1364 152.559 17.8089 150.084 16.648 145.854Z" fill="#323435"/>
<path d="M12.3739 174.96C8.83042 174.96 5.95784 172.052 5.95784 168.464C5.95784 164.877 8.83042 161.969 12.3739 161.969C15.9174 161.969 18.79 164.877 18.79 168.464C18.79 172.052 15.9174 174.96 12.3739 174.96Z" fill="#323435"/>
<path d="M20.766 175.006L17.1733 169.038L14.6516 170.594L18.2443 176.562C18.4338 176.876 18.739 177.102 19.0929 177.189C19.4467 177.276 19.8202 177.217 20.1311 177.025L20.3034 176.919C20.4581 176.824 20.5929 176.7 20.6999 176.552C20.807 176.405 20.8842 176.237 20.9272 176.06C20.9702 175.882 20.9781 175.697 20.9504 175.516C20.9227 175.336 20.8601 175.162 20.766 175.006Z" fill="#323435"/>
<path d="M11.821 180.698L13.9502 174.241C13.9667 174.191 13.9629 174.136 13.9396 174.089C13.9164 174.042 13.8756 174.006 13.8263 173.989L11.4025 173.17C11.3532 173.154 11.2993 173.157 11.2528 173.181C11.2063 173.205 11.1709 173.246 11.1544 173.296L9.0252 179.753C8.97019 179.927 8.94955 180.11 8.96445 180.292C8.97935 180.474 9.0295 180.651 9.11203 180.813C9.19457 180.975 9.30787 181.12 9.44547 181.238C9.58307 181.356 9.74228 181.445 9.914 181.501L10.1053 181.565C10.4466 181.676 10.817 181.647 11.1376 181.485C11.4582 181.323 11.7034 181.04 11.821 180.698Z" fill="#323435"/>
<path d="M7.31106 179.15L10.7814 173.319C10.7947 173.297 10.8035 173.272 10.8073 173.246C10.8112 173.221 10.8099 173.194 10.8037 173.169C10.7975 173.144 10.7865 173.12 10.7712 173.099C10.7559 173.078 10.7367 173.06 10.7146 173.047L8.52595 171.712C8.50389 171.698 8.47943 171.689 8.45396 171.686C8.42849 171.682 8.40252 171.683 8.37752 171.689C8.35252 171.695 8.329 171.707 8.30827 171.722C8.28755 171.738 8.27004 171.757 8.25675 171.779L4.78644 177.61C4.59853 177.926 4.54221 178.304 4.62986 178.662C4.71752 179.02 4.94196 179.328 5.25383 179.518L5.42663 179.623C5.7385 179.814 6.11225 179.871 6.46566 179.782C6.81906 179.693 7.12315 179.466 7.31106 179.15Z" fill="#323435"/>
<path d="M2.97877 175.935L8.01186 171.421C8.05079 171.386 8.07443 171.337 8.07757 171.284C8.08071 171.232 8.06309 171.18 8.0286 171.141L6.33783 169.209C6.30334 169.169 6.25479 169.145 6.20287 169.142C6.15095 169.139 6.0999 169.157 6.06097 169.192L1.02788 173.706C0.755346 173.951 0.58989 174.295 0.567915 174.663C0.54594 175.03 0.669247 175.392 0.910704 175.668L1.04447 175.821C1.28639 176.095 1.62577 176.261 1.98829 176.282C2.35082 176.304 2.70696 176.179 2.97877 175.935Z" fill="#323435"/>
<path d="M118.512 102.058C118.512 102.058 117.755 176.452 76.5185 177.904C35.2817 179.356 33.5502 102.591 33.5502 102.058C33.5502 102.058 38.4197 90.9676 76.031 91.3987C113.642 91.8298 118.512 102.058 118.512 102.058Z" fill="#616161"/>
<path d="M95.3577 88.965L60.5034 88.965C58.2287 88.965 56.3848 87.0983 56.3848 84.7955L56.3848 84.1885C56.3848 81.8857 58.2287 80.019 60.5034 80.019L95.3577 80.019C97.6323 80.019 99.4763 81.8857 99.4763 84.1885L99.4763 84.7955C99.4763 87.0983 97.6323 88.965 95.3577 88.965Z" fill="#323435"/>
<path d="M79.4329 22.8139L76.4238 22.8139L76.4238 7.4121L79.4329 7.4121L79.4329 22.8139Z" fill="#323435"/>
<path d="M31.9172 68.6659C27.166 67.5226 24.2298 62.6967 25.3591 57.8867C26.4883 53.0768 31.2554 50.1043 36.0066 51.2476C40.7578 52.3908 43.6939 57.2168 42.5647 62.0267C41.4354 66.8366 36.6683 69.8091 31.9172 68.6659Z" fill="#616161"/>
<path d="M121.265 68.0845C116.503 66.9909 113.518 62.1958 114.598 57.3743C115.678 52.5529 120.415 49.5309 125.177 50.6245C129.94 51.7181 132.925 56.5133 131.845 61.3347C130.764 66.1562 126.028 69.1782 121.265 68.0845Z" fill="#616161"/>
<path d="M79.6786 19.4726C79.6786 19.4726 115.631 19.0358 121.313 50.5825C126.995 82.1293 96.6014 82.6965 87.8542 83.2922C83.8925 83.5645 75.4086 83.5929 67.9223 83.4567C51.3469 83.1674 39.6354 79.9225 35.6512 64.3562C35.1767 62.531 34.8784 60.6634 34.7603 58.7798C33.7124 41.6932 45.1045 18.633 79.6786 19.4726Z" fill="#616161"/>
<path d="M53.6001 67.4876L105.831 68.3102C107.134 68.3335 108.429 68.0963 109.642 67.6124C110.854 67.1284 111.961 66.4071 112.898 65.4897C113.834 64.5723 114.583 63.4769 115.102 62.2662C115.62 61.0554 115.897 59.7531 115.918 58.4338C115.94 57.1142 115.705 55.8031 115.226 54.5755C114.747 53.3479 114.034 52.2279 113.128 51.2795C112.221 50.3311 111.139 49.573 109.943 49.0485C108.746 48.5239 107.46 48.2433 106.156 48.2226L53.9251 47.4001C52.6217 47.376 51.3264 47.6126 50.1135 48.0963C48.9006 48.58 47.7939 49.3013 46.8569 50.2188C45.9199 51.1363 45.1709 52.2321 44.653 53.4431C44.1351 54.6542 43.8583 55.9569 43.8386 57.2765C43.8156 58.5963 44.05 59.9077 44.5285 61.1356C45.0069 62.3635 45.7199 63.4839 46.6266 64.4324C47.5334 65.3809 48.6161 66.139 49.8127 66.6633C51.0093 67.1876 52.2963 67.4677 53.6001 67.4876Z" fill="#323435"/>
<path d="M94.9764 57.3389C95.0979 57.9641 95.3997 58.5389 95.8438 58.9904C96.2879 59.442 96.8543 59.7501 97.4714 59.8759C98.0884 60.0016 98.7284 59.9393 99.3105 59.6968C99.8926 59.4544 100.391 59.0426 100.742 58.5136C101.093 57.9847 101.281 57.3622 101.282 56.725C101.284 56.0878 101.099 55.4644 100.75 54.9337C100.402 54.403 99.906 53.9887 99.3251 53.7434C98.7442 53.498 98.1045 53.4325 97.4868 53.5551C97.0765 53.6366 96.6861 53.7991 96.3378 54.0334C95.9896 54.2676 95.6904 54.5691 95.4572 54.9205C95.2241 55.2718 95.0616 55.6663 94.9791 56.0812C94.8966 56.4962 94.8957 56.9236 94.9764 57.3389Z" fill="black"/>
<path d="M58.5027 56.7489C58.6231 57.3746 58.9242 57.9501 59.3679 58.4026C59.8115 58.855 60.3777 59.164 60.9949 59.2906C61.6121 59.4171 62.2525 59.3555 62.8351 59.1135C63.4176 58.8714 63.9162 58.4599 64.2677 57.931C64.6191 57.402 64.8077 56.7794 64.8096 56.1419C64.8114 55.5044 64.6264 54.8807 64.278 54.3497C63.9295 53.8186 63.4333 53.4042 62.8522 53.1587C62.271 52.9133 61.631 52.8479 61.0131 52.9708C60.1856 53.1354 59.4565 53.6257 58.9858 54.3341C58.5151 55.0424 58.3414 55.911 58.5027 56.7489Z" fill="black"/>
<path d="M63.7536 131.602C63.9583 134.441 64.9899 137.155 66.7179 139.4C68.446 141.645 70.7929 143.321 73.4619 144.216C76.1309 145.111 79.0021 145.185 81.7125 144.428C84.4228 143.671 86.8507 142.118 88.6889 139.964C90.5272 137.81 91.6934 135.153 92.04 132.329C92.3866 129.504 91.8981 126.639 90.6362 124.095C89.3743 121.552 87.3957 119.444 84.9506 118.039C82.5055 116.633 79.7038 115.994 76.8996 116.2C73.1393 116.479 69.6422 118.258 67.1771 121.146C64.712 124.034 63.4806 127.795 63.7536 131.602Z" fill="#323435"/>
<path d="M67.6034 131.319C67.753 133.388 68.5052 135.365 69.7651 137.002C71.0249 138.638 72.7357 139.859 74.6812 140.511C76.6266 141.163 78.7193 141.216 80.6946 140.664C82.67 140.112 84.4392 138.979 85.7785 137.409C87.1179 135.839 87.9673 133.902 88.2192 131.843C88.4712 129.784 88.1144 127.696 87.194 125.842C86.2736 123.989 84.831 122.453 83.0485 121.429C81.266 120.406 79.2237 119.94 77.18 120.092C75.8228 120.192 74.4983 120.562 73.2824 121.18C72.0664 121.798 70.9827 122.653 70.0933 123.696C69.204 124.739 68.5263 125.948 68.099 127.256C67.6718 128.564 67.5034 129.945 67.6034 131.319Z" fill="black"/>
<path d="M72.5963 133.225C72.6755 132.652 72.7073 132.073 72.6916 131.494C72.7196 130.411 72.742 128.862 72.742 126.956L72.63 127.166L77.959 124.018L77.662 124.018L83.0414 127.075C83.1871 127.325 82.8453 126.741 82.8789 126.803L82.8789 127.609L82.8789 128.42C82.8789 128.953 82.8789 129.486 82.9069 130.008C82.9069 131.052 82.9462 132.062 82.963 133.037L83.1087 132.777L77.8413 136.033L78.0766 136.033C76.4348 135.136 75.0787 134.422 74.1541 133.934C73.6567 133.647 73.1377 133.4 72.6019 133.196C73.0198 133.541 73.4703 133.843 73.9468 134.098C74.8546 134.666 76.1882 135.465 77.8693 136.447L77.987 136.515L78.1047 136.447L83.4393 133.298L83.585 133.213L83.585 133.032C83.585 132.056 83.5738 131.046 83.5513 130.002C83.5513 129.481 83.5513 128.953 83.5513 128.414L83.5513 127.609L83.5513 126.826C83.585 126.888 83.2431 126.309 83.3888 126.553L77.9926 123.524L77.8357 123.439L77.69 123.53L72.4282 126.786L72.3106 126.86L72.3106 126.996C72.3722 128.959 72.4338 130.536 72.4899 131.608C72.4755 132.149 72.5112 132.69 72.5963 133.225Z" fill="#616161"/>
<path d="M74.4185 10.6501C72.4818 8.68944 72.4818 5.51065 74.4185 3.55003C76.3552 1.58942 79.4951 1.58942 81.4318 3.55004C83.3685 5.51065 83.3685 8.68944 81.4318 10.6501C79.4951 12.6107 76.3552 12.6107 74.4185 10.6501Z" fill="#616161"/>
<path d="M74.0486 55.8526C74.284 55.881 74.1663 56.9872 74.8611 58.5018C75.2548 59.3712 75.828 60.145 76.5422 60.771C77.3793 61.5166 78.4213 61.9856 79.5289 62.1154C80.6424 62.1882 81.7516 61.9193 82.7117 61.3439C83.5243 60.8655 84.2272 60.2177 84.7739 59.4435C85.7265 58.0991 85.8105 56.9702 86.0459 56.9872C86.1411 56.9872 86.2364 57.2708 86.2364 57.8041C86.2151 58.5638 86.0235 59.3087 85.676 59.9825C85.154 61.0008 84.3821 61.8661 83.4346 62.4955C82.2632 63.3312 80.8363 63.7175 79.4092 63.5855C77.9822 63.4536 76.6481 62.8118 75.6456 61.7751C74.8274 60.9829 74.2252 59.9903 73.8973 58.8933C73.6637 58.1614 73.6023 57.3843 73.718 56.6241C73.8133 56.0965 73.9589 55.8356 74.0486 55.8526Z" fill="black"/>
<path d="M37.9771 70.551C38.0331 70.551 37.3887 69.5299 36.7667 67.7429C35.9931 65.4026 35.5039 62.9757 35.3097 60.5157C35.0853 58.0643 35.0292 55.6002 35.1416 53.141C35.1809 52.1936 35.2257 51.4391 35.2705 50.8718C35.3084 50.5975 35.3178 50.3199 35.2985 50.0436C35.2268 50.3109 35.1799 50.5844 35.1585 50.8605C35.08 51.3881 35.0016 52.1539 34.9343 53.1296C34.7586 55.6086 34.7867 58.0981 35.0184 60.5724C35.2156 63.0555 35.7375 65.501 36.5706 67.845C36.8343 68.552 37.1528 69.2368 37.5232 69.8929C37.6556 70.125 37.8074 70.3452 37.9771 70.551Z" fill="#323435"/>
<path d="M121.247 49.5274C121.278 49.8029 121.336 50.0745 121.42 50.3386C121.493 50.5939 121.572 50.9059 121.644 51.2803C121.717 51.6547 121.829 52.0631 121.897 52.534C122.093 53.6274 122.224 54.7318 122.289 55.8413C122.364 57.1986 122.345 58.5597 122.233 59.9144C122.108 61.2667 121.89 62.6087 121.583 63.9307C121.325 65.0122 121.004 66.0769 120.619 67.1189C120.468 67.567 120.294 67.9585 120.154 68.3102C120.014 68.6619 119.879 68.9569 119.767 69.1952C119.639 69.4401 119.534 69.6964 119.453 69.961C119.613 69.736 119.752 69.4968 119.868 69.2462C120.026 68.9626 120.171 68.671 120.3 68.3726C120.456 68.0322 120.647 67.6408 120.809 67.1926C121.226 66.1534 121.57 65.0862 121.841 63.9988C122.168 62.6641 122.397 61.3064 122.524 59.9371C122.638 58.569 122.65 57.1941 122.558 55.8242C122.48 54.705 122.326 53.5924 122.098 52.4943C122.014 52.0234 121.897 51.6093 121.801 51.2406C121.706 50.8718 121.616 50.5598 121.532 50.3045C121.458 50.0381 121.362 49.7782 121.247 49.5274Z" fill="#323435"/>
<path d="M118.702 101.996L118.489 102.058L117.862 102.274L115.474 103.125L113.749 103.749C113.115 103.964 112.415 104.168 111.67 104.401C110.173 104.849 108.487 105.433 106.57 105.887L103.584 106.664C102.541 106.931 101.443 107.13 100.311 107.379C98.0698 107.901 95.6098 108.258 93.0265 108.678C87.4401 109.454 81.8097 109.862 76.171 109.898C70.5322 109.864 64.9016 109.457 59.3154 108.678C56.7489 108.258 54.3058 107.907 52.0307 107.379C50.91 107.135 49.7893 106.937 48.7582 106.67L45.7659 105.893C43.8551 105.439 42.1684 104.855 40.6723 104.407C39.927 104.174 39.2265 103.97 38.5933 103.754L36.8674 103.13L34.4803 102.279L33.8527 102.064C33.7821 102.035 33.7089 102.015 33.6342 102.001L33.8415 102.092L34.4579 102.336L36.8282 103.238L38.5933 103.907C39.2209 104.129 39.9214 104.339 40.6667 104.582C42.1628 105.048 43.8439 105.643 45.7603 106.114L48.7526 106.908C49.7893 107.181 50.8932 107.385 52.0251 107.64C54.2666 108.173 56.7321 108.536 59.3098 108.968C64.9077 109.763 70.5519 110.178 76.2046 110.21C81.8554 110.174 87.4976 109.757 93.0938 108.962C95.6658 108.536 98.137 108.168 100.378 107.634C101.499 107.379 102.62 107.175 103.651 106.903L106.643 106.108C108.56 105.638 110.241 105.042 111.737 104.577C112.482 104.333 113.177 104.123 113.81 103.902L115.531 103.249L117.901 102.347L118.517 102.103C118.582 102.074 118.644 102.037 118.702 101.996Z" fill="#323435"/>
<g opacity="0.3">
<path d="M118.512 102.058C118.512 102.058 113.642 91.8469 76.031 91.3987C38.4197 90.9506 33.5502 102.058 33.5502 102.058C33.5502 102.058 71.5089 121 118.512 102.058Z" fill="black"/>
</g>
<path d="M84.2345 21.8325C84.2774 21.8366 84.3205 21.8366 84.3634 21.8325L84.7388 21.8722C85.075 21.9062 85.5682 21.9176 86.2014 21.9913C87.988 22.1669 89.7609 22.4644 91.508 22.882C100.544 24.977 108.514 30.3386 113.922 37.9604C116.535 41.6231 118.513 45.7091 119.772 50.0436C119.969 50.6563 120.075 51.1441 120.17 51.4675L120.277 51.8419C120.287 51.8851 120.302 51.927 120.322 51.9667C120.329 51.9235 120.329 51.8794 120.322 51.8362C120.322 51.7341 120.277 51.6093 120.243 51.4561C120.165 51.1271 120.081 50.6336 119.901 50.0096C119.434 48.2471 118.834 46.5233 118.108 44.8529C115.713 39.302 112.067 34.3963 107.461 30.529C102.836 26.6908 97.3883 24.002 91.5528 22.6777C89.7955 22.2735 88.0102 22.0061 86.2126 21.8779C85.5738 21.8211 85.0919 21.8268 84.7444 21.8098L84.3634 21.8098C84.2737 21.8211 84.2345 21.8268 84.2345 21.8325Z" fill="black"/>
<path d="M119.408 65.5021C119.633 65.1509 119.806 64.7688 119.924 64.3676C120.588 62.4718 120.898 60.4672 120.837 58.4565C120.853 58.039 120.804 57.6217 120.691 57.2198C120.602 57.2198 120.725 59.1145 120.366 61.4063C120.008 63.6982 119.324 65.4681 119.408 65.5021Z" fill="black"/>
<path d="M128.839 62.5693C128.839 62.5693 128.968 62.4785 129.142 62.2629C129.389 61.9574 129.602 61.6244 129.775 61.2702C130.373 60.0975 130.602 58.7673 130.431 57.4589C130.26 56.1504 129.696 54.9265 128.817 53.9522C128.559 53.6538 128.268 53.3872 127.948 53.158C127.839 53.0645 127.713 52.9915 127.578 52.9424C127.545 52.9878 128.049 53.3339 128.66 54.077C129.462 55.0489 129.974 56.231 130.139 57.4862C130.304 58.7413 130.113 60.018 129.59 61.1681C129.198 62.0701 128.8 62.5352 128.839 62.5693Z" fill="black"/>
<path d="M77.6056 3.59993C78.0428 3.55121 78.4835 3.54172 78.9224 3.57156C79.445 3.61799 79.9502 3.785 80.3992 4.05977C80.8482 4.33455 81.229 4.70978 81.5125 5.1567C81.796 5.60362 81.9746 6.11034 82.0346 6.63798C82.0946 7.16562 82.0344 7.70017 81.8587 8.20062C81.7074 8.61567 81.5199 9.01625 81.2983 9.39759C81.2983 9.39759 81.4104 9.32951 81.5673 9.14798C81.7826 8.88537 81.9531 8.58818 82.0716 8.26869C82.2854 7.73896 82.37 7.16488 82.3182 6.59505C82.2665 6.02522 82.0799 5.47639 81.7742 4.99501C81.4686 4.51364 81.0529 4.11389 80.5624 3.82958C80.0718 3.54527 79.5208 3.38477 78.956 3.36167C78.6206 3.33811 78.2836 3.37069 77.9586 3.45811C77.7064 3.49782 77.6056 3.58291 77.6056 3.59993Z" fill="black"/>
<path d="M28.7649 55.6881C28.8265 55.7562 29.6951 54.9109 31.0063 54.2756C32.3176 53.6402 33.5111 53.453 33.4999 53.3622C32.5864 53.3392 31.6833 53.5624 30.883 54.0089C30.0407 54.3656 29.3089 54.9457 28.7649 55.6881Z" fill="black"/>
<path d="M105.624 155.003C105.649 154.969 105.672 154.933 105.691 154.895L105.876 154.56C106.044 154.237 106.268 153.806 106.56 153.256C106.705 152.972 106.862 152.654 107.041 152.314L107.568 151.179C107.949 150.357 108.375 149.421 108.795 148.343C109.008 147.815 109.232 147.259 109.468 146.686C109.703 146.113 109.905 145.489 110.135 144.86C110.617 143.606 111.026 142.227 111.502 140.798C112.382 137.905 113.245 134.7 114.001 131.296C114.758 127.892 115.307 124.608 115.755 121.618C116.203 118.628 116.495 115.945 116.674 113.642C116.781 112.507 116.848 111.475 116.904 110.567C116.96 109.66 117.01 108.865 117.027 108.241C117.044 107.617 117.061 107.135 117.077 106.772L117.077 106.392C117.084 106.349 117.084 106.305 117.077 106.262C117.071 106.305 117.071 106.349 117.077 106.392L117.044 106.772C117.044 107.13 116.982 107.623 116.943 108.236C116.904 108.848 116.848 109.654 116.769 110.556C116.691 111.458 116.618 112.49 116.495 113.625C116.293 115.894 115.934 118.594 115.514 121.567C115.094 124.54 114.483 127.807 113.743 131.211C113.004 134.615 112.135 137.814 111.278 140.701C110.801 142.131 110.404 143.504 109.933 144.758C109.709 145.393 109.496 146 109.283 146.584L108.633 148.252C108.229 149.313 107.815 150.255 107.445 151.088L106.941 152.223C106.778 152.569 106.621 152.887 106.481 153.176L105.854 154.504L105.697 154.85C105.663 154.895 105.638 154.947 105.624 155.003Z" fill="black"/>
<path d="M127.551 108.752C128.918 108.804 130.287 108.755 131.647 108.604C133.013 108.556 134.375 108.41 135.721 108.168C134.354 108.115 132.984 108.165 131.624 108.315C130.258 108.363 128.897 108.509 127.551 108.752Z" fill="black"/>
<path d="M148.631 96.6404C149.426 95.4685 150.139 94.2421 150.766 92.9701C151.477 91.7449 152.102 90.4711 152.638 89.1579C151.845 90.3323 151.134 91.5606 150.508 92.834C149.794 94.0561 149.167 95.3282 148.631 96.6404Z" fill="black"/>
<path d="M85.7308 172.889C85.9514 172.885 86.171 172.859 86.3864 172.81C86.9793 172.703 87.565 172.559 88.1403 172.379C88.9949 172.115 89.83 171.791 90.6395 171.409C91.6256 170.927 92.5735 170.37 93.4749 169.741C94.3662 169.096 95.2056 168.381 95.9853 167.602C96.6168 166.962 97.2011 166.275 97.7336 165.549C98.0985 165.064 98.4299 164.554 98.7255 164.023C98.8464 163.836 98.9461 163.636 99.0225 163.427C98.9776 163.399 98.5069 164.221 97.5711 165.424C97.0211 166.123 96.4278 166.786 95.7948 167.409C94.2438 168.935 92.4641 170.202 90.5218 171.165C89.7284 171.553 88.9125 171.892 88.0787 172.18C86.6441 172.668 85.7196 172.833 85.7308 172.889Z" fill="black"/>
<path d="M77.1351 146.647C77.2647 146.669 77.3958 146.683 77.5273 146.686C77.9 146.718 78.2742 146.73 78.6481 146.72C80.0415 146.689 81.4239 146.462 82.7555 146.045C83.6756 145.755 84.5713 145.391 85.434 144.956C86.4232 144.441 87.3614 143.831 88.2358 143.135C90.2613 141.56 91.8578 139.489 92.8753 137.117C93.8928 134.746 94.2978 132.151 94.0523 129.577C93.961 128.46 93.7639 127.354 93.4639 126.275C93.1954 125.34 92.8486 124.429 92.4273 123.552C91.8195 122.282 91.0386 121.103 90.1074 120.052C89.8577 119.765 89.592 119.492 89.3117 119.235C89.2189 119.141 89.1197 119.054 89.0147 118.974C89.0147 118.974 89.3845 119.377 90.0233 120.109C90.92 121.177 91.6737 122.359 92.2648 123.626C93.146 125.493 93.6708 127.512 93.8114 129.577C94.0385 132.105 93.6341 134.651 92.6353 136.979C91.6366 139.308 90.0755 141.345 88.0957 142.903C87.2471 143.594 86.3351 144.202 85.3724 144.718C84.5286 145.168 83.6496 145.548 82.7443 145.852C81.4324 146.283 80.0702 146.537 78.6929 146.607C77.6786 146.647 77.1351 146.613 77.1351 146.647Z" fill="black"/>
<path d="M62.2292 45.5677C62.2292 45.6471 69.1104 45.7152 77.5942 45.7152C86.078 45.7152 92.9648 45.6471 92.9648 45.5677C92.9648 45.4883 86.0836 45.4202 77.5942 45.4202C69.1048 45.4202 62.2292 45.477 62.2292 45.5677Z" fill="black"/>
<path d="M88.4538 81.0401C88.5377 81.0641 88.6243 81.0774 88.7115 81.0798L89.4624 81.1479C89.7874 81.1762 90.1853 81.1989 90.6504 81.2103C91.1155 81.2216 91.6422 81.2443 92.225 81.2103C93.3961 81.2103 94.7858 81.1252 96.3268 80.9607C97.9944 80.7642 99.65 80.4745 101.286 80.0927C102.918 79.6964 104.527 79.2078 106.105 78.6291C107.391 78.1525 108.651 77.6091 109.882 77.001C110.442 76.7514 110.874 76.4905 111.283 76.2692C111.692 76.048 112.039 75.8494 112.319 75.7019L112.964 75.3048C113.04 75.262 113.112 75.2106 113.177 75.1517C113.177 75.1517 113.087 75.1517 112.936 75.2538L112.263 75.5998C111.978 75.7587 111.625 75.9459 111.21 76.1671C110.795 76.3884 110.325 76.6153 109.792 76.8535C108.739 77.3527 107.455 77.886 106.01 78.4136C102.868 79.554 99.608 80.3305 96.2932 80.7281C94.769 80.9096 93.3849 81.0117 92.225 81.0401C91.6646 81.0741 91.1042 81.0401 90.6504 81.0401C90.1965 81.0401 89.793 81.0401 89.468 81.0401L88.7171 81.0401C88.6299 81.0254 88.5409 81.0254 88.4538 81.0401Z" fill="black"/>
<path d="M43.7208 106.602C43.7622 106.63 43.8075 106.651 43.8553 106.664L44.2587 106.818L45.8165 107.385C46.4946 107.634 47.3239 107.924 48.3045 108.213C49.2851 108.502 50.389 108.877 51.6386 109.194L53.5887 109.716C54.2667 109.892 54.984 110.04 55.7181 110.216C57.1862 110.573 58.7776 110.857 60.4475 111.18C67.7209 112.462 75.1127 112.921 82.4864 112.547C84.1674 112.439 85.7981 112.354 87.2998 112.178C88.0507 112.099 88.7792 112.042 89.474 111.946L91.4745 111.668C92.7521 111.515 93.8953 111.282 94.8983 111.101C95.9013 110.919 96.7699 110.749 97.4703 110.584L99.0842 110.221L99.5044 110.119C99.5531 110.111 99.6003 110.096 99.6445 110.074C99.5942 110.069 99.5436 110.069 99.4932 110.074L99.073 110.147L97.4479 110.459C96.7419 110.601 95.8789 110.766 94.8703 110.919C93.8616 111.072 92.7241 111.293 91.4465 111.435L89.4516 111.691C88.7568 111.781 88.0283 111.832 87.2774 111.906C85.7813 112.071 84.1674 112.144 82.4752 112.246C79.085 112.388 75.3586 112.394 71.4473 112.161C67.536 111.929 63.8432 111.435 60.4979 110.879C58.8168 110.567 57.2366 110.312 55.7685 109.949C55.0344 109.779 54.3172 109.637 53.6391 109.467L51.6891 108.962C50.4395 108.661 49.3356 108.309 48.355 108.026C47.3743 107.742 46.5338 107.459 45.8557 107.249L44.2811 106.738L43.8665 106.613L43.7208 106.602Z" fill="black"/>
<path d="M137.024 166.952L144.089 163.91L123.704 115.387L116.64 118.429L137.024 166.952Z" fill="#616161"/>
<path d="M116.752 123.81C115.11 123.811 113.49 123.421 112.024 122.672C110.558 121.924 109.285 120.837 108.309 119.5C107.334 118.163 106.682 116.613 106.406 114.974C106.13 113.335 106.238 111.653 106.722 110.064C107.295 108.19 108.37 106.514 109.828 105.221C111.285 103.929 113.069 103.071 114.979 102.743C116.89 102.415 118.853 102.629 120.65 103.363C122.447 104.096 124.008 105.32 125.16 106.898C126.311 108.476 127.008 110.346 127.172 112.301C127.337 114.256 126.963 116.218 126.092 117.971C125.22 119.723 123.886 121.197 122.237 122.227C120.589 123.258 118.69 123.806 116.752 123.81ZM116.752 102.605C114.817 102.607 112.921 103.152 111.275 104.18C109.628 105.208 108.295 106.678 107.425 108.427C106.554 110.176 106.18 112.135 106.344 114.087C106.508 116.038 107.203 117.905 108.353 119.48C109.502 121.056 111.061 122.277 112.855 123.009C114.65 123.741 116.61 123.954 118.517 123.626C120.424 123.297 122.204 122.439 123.658 121.148C125.112 119.856 126.184 118.182 126.754 116.31C127.568 113.628 127.298 110.729 126.003 108.249C124.707 105.769 122.493 103.91 119.845 103.081C118.833 102.764 117.778 102.603 116.718 102.605L116.752 102.605Z" fill="#323435"/>
<path d="M137.924 144.858C139.085 140.629 136.64 136.248 132.462 135.073C128.285 133.897 123.957 136.373 122.796 140.602C121.635 144.831 124.081 149.212 128.258 150.388C132.436 151.563 136.763 149.087 137.924 144.858Z" fill="#323435"/>
<path d="M142.197 173.963C145.741 173.963 148.613 171.055 148.613 167.468C148.613 163.881 145.741 160.973 142.197 160.973C138.654 160.973 135.781 163.881 135.781 167.468C135.781 171.055 138.654 173.963 142.197 173.963Z" fill="#323435"/>
</g>
<defs>
<clipPath id="clip0_1_1680">
<rect width="168" height="182" fill="white" transform="matrix(-1 8.74228e-08 8.74228e-08 1 168 0)"/>
</clipPath>
</defs>
</svg>
