<svg width="825" height="642" viewBox="0 0 825 642" fill="none" xmlns="http://www.w3.org/2000/svg">
<path d="M64.8689 388.255C-68.3458 311.833 41.0295 170.262 64.8689 147.26C87.3125 125.605 265.393 -55.6881 567.5 17.1632C1107 147.26 648.607 294.556 535.5 496.205C422.393 697.853 190.541 660.475 198.5 558.704C206.459 456.934 198.084 464.677 64.8689 388.255Z" fill="#E9EBEE"/>
<g opacity="0.8" clip-path="url(#clip0_212_659)">
<path d="M415.635 355.303L481.384 348.413L509.232 284.427L530.868 290.132C530.868 290.132 514.883 357.753 496.994 368.23C479.105 378.707 417.992 380.588 417.992 380.588L415.635 355.303Z" fill="#6B6B6B"/>
<path d="M380.682 387.848C369.983 375.662 371.068 357.003 383.106 346.173C395.143 335.342 413.574 336.441 424.272 348.627C434.97 360.813 433.885 379.471 421.848 390.302C409.811 401.133 391.38 400.034 380.682 387.848Z" fill="#9C9C9C"/>
<path d="M402.475 397.782C409.232 397.782 415.78 395.41 421.004 391.07C426.227 386.73 429.802 380.691 431.12 373.982C432.439 367.273 431.418 360.309 428.233 354.276C425.048 348.243 419.895 343.515 413.652 340.898C407.409 338.28 400.463 337.934 393.997 339.92C387.531 341.906 381.945 346.1 378.191 351.788C374.437 357.475 372.747 364.305 373.41 371.112C374.072 377.92 377.045 384.285 381.823 389.121C384.529 391.876 387.748 394.059 391.293 395.545C394.838 397.032 398.638 397.792 402.475 397.782ZM402.475 338.742C409.214 338.735 415.747 341.093 420.961 345.416C426.174 349.738 429.746 355.757 431.068 362.447C432.39 369.136 431.379 376.083 428.209 382.103C425.038 388.123 419.904 392.844 413.681 395.462C407.458 398.079 400.531 398.431 394.08 396.458C387.629 394.484 382.054 390.308 378.304 384.639C374.554 378.971 372.861 372.162 373.514 365.372C374.168 358.582 377.126 352.231 381.886 347.402C384.582 344.652 387.79 342.47 391.324 340.984C394.858 339.497 398.648 338.735 402.475 338.742Z" fill="#9C9C9C"/>
<path d="M487.278 373.285C475.533 370.43 468.298 358.478 471.118 346.588C473.938 334.698 485.744 327.374 497.489 330.228C509.233 333.083 516.468 345.035 513.649 356.925C510.829 368.815 499.022 376.139 487.278 373.285Z" fill="#9C9C9C"/>
<path d="M508.991 289.6C502.01 282.534 502.011 271.077 508.991 264.011C515.971 256.945 527.287 256.945 534.267 264.011C541.247 271.077 541.247 282.534 534.267 289.6C527.287 296.666 515.971 296.666 508.991 289.6Z" fill="#9C9C9C"/>
<path d="M493.771 267.013L508.488 279.595L513.795 273.232L499.078 260.65C498.303 259.988 497.3 259.664 496.289 259.75C495.279 259.837 494.343 260.326 493.689 261.11L493.326 261.545C493 261.933 492.752 262.383 492.598 262.868C492.443 263.353 492.385 263.865 492.427 264.373C492.468 264.881 492.608 265.376 492.838 265.829C493.069 266.282 493.386 266.684 493.771 267.013Z" fill="#9C9C9C"/>
<path d="M512.463 243.971L512.463 262.935C512.463 263.082 512.521 263.222 512.623 263.326C512.726 263.43 512.865 263.488 513.01 263.488L520.128 263.488C520.273 263.488 520.412 263.43 520.514 263.326C520.617 263.222 520.674 263.082 520.674 262.935L520.674 243.971C520.674 242.944 520.271 241.96 519.554 241.234C518.837 240.508 517.864 240.1 516.85 240.1L516.288 240.1C515.274 240.1 514.301 240.508 513.584 241.234C512.866 241.96 512.463 242.944 512.463 243.971Z" fill="#9C9C9C"/>
<path d="M525.718 244.043L521.628 262.549C521.597 262.692 521.623 262.842 521.7 262.966C521.778 263.09 521.901 263.178 522.042 263.21L528.989 264.783C529.13 264.815 529.278 264.789 529.401 264.71C529.523 264.632 529.61 264.507 529.641 264.364L533.731 245.858C533.952 244.856 533.771 243.806 533.228 242.938C532.684 242.071 531.823 241.458 530.833 241.234L530.285 241.11C529.295 240.886 528.258 241.069 527.401 241.619C526.545 242.169 525.939 243.041 525.718 244.043Z" fill="#9C9C9C"/>
<path d="M539.977 248.681L530.611 265.104C530.539 265.231 530.519 265.382 530.556 265.523C530.594 265.665 530.685 265.786 530.811 265.859L536.975 269.462C537.101 269.536 537.25 269.556 537.39 269.518C537.53 269.48 537.649 269.387 537.722 269.26L547.088 252.837C547.595 251.948 547.732 250.891 547.47 249.899C547.207 248.907 546.566 248.061 545.688 247.548L545.201 247.264C544.323 246.75 543.279 246.611 542.299 246.877C541.319 247.143 540.484 247.791 539.977 248.681Z" fill="#9C9C9C"/>
<path d="M129.881 521.061L110.201 512.587L166.987 377.416L186.667 385.889L129.881 521.061Z" fill="#6B6B6B"/>
<path d="M164.167 390.333C153.757 377.893 155.279 359.266 167.567 348.728C179.855 338.189 198.255 339.73 208.664 352.17C219.074 364.61 217.552 383.237 205.264 393.775C192.976 404.314 174.576 402.772 164.167 390.333Z" fill="#9C9C9C"/>
<path d="M186.355 400.879C190.93 400.881 195.442 399.796 199.526 397.711C203.611 395.626 207.155 392.599 209.874 388.874C212.592 385.149 214.408 380.83 215.177 376.264C215.945 371.699 215.644 367.014 214.297 362.588C212.701 357.368 209.706 352.698 205.645 349.097C201.584 345.496 196.616 343.106 191.294 342.192C185.972 341.278 180.503 341.876 175.497 343.92C170.49 345.963 166.141 349.372 162.934 353.768C159.726 358.164 157.785 363.374 157.327 368.819C156.869 374.264 157.911 379.732 160.338 384.613C162.765 389.495 166.481 393.599 171.075 396.471C175.668 399.342 180.957 400.868 186.355 400.879ZM186.355 341.807C191.745 341.813 197.027 343.332 201.614 346.195C206.201 349.059 209.914 353.155 212.339 358.027C214.764 362.899 215.806 368.357 215.349 373.793C214.893 379.229 212.956 384.431 209.753 388.819C206.551 393.207 202.209 396.609 197.21 398.648C192.211 400.687 186.752 401.281 181.439 400.366C176.126 399.451 171.169 397.061 167.117 393.464C163.066 389.866 160.08 385.201 158.492 379.987C156.224 372.517 156.977 364.44 160.586 357.531C164.194 350.622 170.363 345.444 177.739 343.135C180.56 342.251 183.496 341.803 186.449 341.807L186.355 341.807Z" fill="#9C9C9C"/>
<path d="M127.375 459.513C124.142 447.732 130.954 435.528 142.591 432.254C154.228 428.98 166.284 435.877 169.518 447.658C172.751 459.439 165.939 471.643 154.302 474.917C142.665 478.191 130.609 471.294 127.375 459.513Z" fill="#9C9C9C"/>
<path d="M115.47 540.593C105.599 540.593 97.5969 532.492 97.5969 522.498C97.5969 512.505 105.599 504.404 115.47 504.404C125.342 504.404 133.344 512.505 133.344 522.498C133.344 532.492 125.342 540.593 115.47 540.593Z" fill="#9C9C9C"/>
<path d="M138.848 540.721L128.839 524.096L121.815 528.43L131.823 545.055C132.351 545.932 133.201 546.56 134.187 546.802C135.172 547.045 136.213 546.88 137.079 546.346L137.559 546.05C137.99 545.786 138.365 545.439 138.663 545.029C138.962 544.618 139.177 544.151 139.297 543.656C139.416 543.161 139.438 542.647 139.361 542.143C139.284 541.639 139.11 541.156 138.848 540.721Z" fill="#9C9C9C"/>
<path d="M113.928 556.577L119.86 538.589C119.905 538.45 119.895 538.298 119.83 538.167C119.765 538.036 119.652 537.936 119.514 537.889L112.762 535.608C112.625 535.561 112.475 535.572 112.345 535.637C112.216 535.703 112.117 535.818 112.071 535.957L106.14 553.945C105.987 554.429 105.929 554.939 105.971 555.446C106.012 555.953 106.152 556.446 106.382 556.898C106.612 557.35 106.927 557.752 107.311 558.081C107.694 558.409 108.137 558.658 108.616 558.813L109.149 558.993C110.099 559.302 111.131 559.222 112.024 558.77C112.917 558.319 113.601 557.531 113.928 556.577Z" fill="#9C9C9C"/>
<path d="M101.365 552.266L111.032 536.023C111.069 535.961 111.094 535.892 111.104 535.82C111.115 535.748 111.112 535.675 111.094 535.604C111.077 535.534 111.046 535.467 111.004 535.409C110.961 535.35 110.908 535.301 110.846 535.264L104.749 531.545C104.688 531.507 104.62 531.482 104.549 531.471C104.478 531.461 104.405 531.464 104.336 531.482C104.266 531.499 104.201 531.53 104.143 531.573C104.085 531.616 104.036 531.671 103.999 531.733L94.332 547.976C93.8085 548.855 93.6516 549.909 93.8958 550.906C94.14 551.903 94.7652 552.76 95.634 553.29L96.1154 553.584C96.9841 554.114 98.0253 554.273 99.0098 554.025C99.9943 553.778 100.841 553.145 101.365 552.266Z" fill="#9C9C9C"/>
<path d="M89.2972 543.31L103.318 530.735C103.426 530.637 103.492 530.5 103.501 530.354C103.51 530.207 103.461 530.064 103.365 529.954L98.6545 524.572C98.5585 524.462 98.4232 524.395 98.2786 524.386C98.1339 524.378 97.9917 524.427 97.8833 524.525L83.8625 537.1C83.1033 537.781 82.6424 538.739 82.5812 539.764C82.52 540.789 82.8635 541.797 83.5361 542.566L83.9088 542.991C84.5827 543.755 85.5281 544.218 86.538 544.277C87.5479 544.337 88.54 543.989 89.2972 543.31Z" fill="#9C9C9C"/>
<path d="M411.139 337.509C411.139 337.509 409.032 544.749 294.158 548.794C179.284 552.84 174.461 338.994 174.461 337.509C174.461 337.509 188.026 306.614 292.8 307.815C397.574 309.016 411.139 337.509 411.139 337.509Z" fill="#6B6B6B"/>
<path d="M346.639 301.036L249.545 301.036C243.208 301.036 238.071 295.835 238.071 289.421L238.071 287.73C238.071 281.315 243.208 276.115 249.545 276.115L346.639 276.115C352.975 276.115 358.112 281.315 358.112 287.73L358.112 289.421C358.112 295.835 352.975 301.036 346.639 301.036Z" fill="#9C9C9C"/>
<path d="M302.275 116.758L293.893 116.758L293.893 73.8526L302.275 73.8526L302.275 116.758Z" fill="#9C9C9C"/>
<path d="M169.911 244.488C156.676 241.303 148.496 227.86 151.642 214.46C154.788 201.061 168.068 192.781 181.303 195.966C194.539 199.15 202.718 212.594 199.572 225.993C196.426 239.392 183.147 247.673 169.911 244.488Z" fill="#6B6B6B"/>
<path d="M418.809 242.869C405.542 239.822 397.227 226.464 400.236 213.033C403.245 199.602 416.44 191.183 429.707 194.23C442.974 197.276 451.29 210.634 448.281 224.066C445.271 237.497 432.077 245.915 418.809 242.869Z" fill="#6B6B6B"/>
<path d="M302.962 107.45C302.962 107.45 403.116 106.233 418.944 194.113C434.773 281.993 350.104 283.573 325.737 285.233C314.701 285.991 291.067 286.07 270.212 285.691C224.038 284.885 191.413 275.846 180.314 232.482C178.993 227.398 178.161 222.195 177.832 216.948C174.913 169.35 206.648 105.111 302.962 107.45Z" fill="#6B6B6B"/>
<path d="M230.313 241.206L375.814 243.497C379.444 243.562 383.051 242.902 386.429 241.553C389.807 240.205 392.889 238.196 395.499 235.64C398.109 233.085 400.195 230.033 401.639 226.66C403.082 223.288 403.855 219.66 403.912 215.984C403.974 212.308 403.319 208.656 401.986 205.236C400.652 201.817 398.666 198.697 396.14 196.055C393.615 193.413 390.599 191.301 387.267 189.84C383.934 188.378 380.35 187.597 376.719 187.539L231.218 185.248C227.587 185.181 223.979 185.84 220.6 187.187C217.222 188.535 214.139 190.544 211.528 193.1C208.918 195.656 206.832 198.708 205.389 202.082C203.946 205.456 203.175 209.085 203.12 212.761C203.056 216.437 203.709 220.09 205.042 223.511C206.375 226.932 208.361 230.052 210.887 232.695C213.413 235.337 216.429 237.449 219.762 238.909C223.096 240.37 226.681 241.15 230.313 241.206Z" fill="#9C9C9C"/>
<path d="M345.577 212.934C345.916 214.676 346.757 216.277 347.994 217.535C349.231 218.793 350.809 219.651 352.528 220.002C354.247 220.352 356.029 220.178 357.651 219.503C359.272 218.827 360.66 217.68 361.637 216.207C362.615 214.733 363.139 212.999 363.144 211.224C363.148 209.449 362.632 207.713 361.662 206.234C360.691 204.756 359.31 203.602 357.691 202.918C356.073 202.235 354.291 202.052 352.571 202.394C351.428 202.621 350.34 203.073 349.37 203.726C348.4 204.379 347.566 205.218 346.917 206.197C346.267 207.176 345.815 208.275 345.585 209.431C345.355 210.587 345.353 211.777 345.577 212.934Z" fill="black"/>
<path d="M243.972 211.291C244.307 213.034 245.146 214.637 246.382 215.897C247.618 217.158 249.195 218.019 250.914 218.371C252.634 218.724 254.418 218.552 256.041 217.878C257.663 217.204 259.052 216.057 260.031 214.584C261.011 213.11 261.536 211.376 261.541 209.6C261.546 207.824 261.031 206.086 260.06 204.607C259.089 203.128 257.707 201.973 256.088 201.29C254.469 200.606 252.686 200.424 250.965 200.766C248.66 201.225 246.629 202.59 245.318 204.564C244.006 206.537 243.522 208.957 243.972 211.291Z" fill="black"/>
<path d="M258.598 419.811C259.168 427.719 262.042 435.278 266.856 441.533C271.67 447.788 278.208 452.457 285.643 454.95C293.078 457.444 301.076 457.649 308.627 455.541C316.177 453.432 322.94 449.104 328.061 443.105C333.182 437.105 336.431 429.703 337.396 421.834C338.362 413.966 337.001 405.984 333.486 398.898C329.97 391.812 324.458 385.941 317.647 382.026C310.836 378.112 303.031 376.33 295.219 376.906C284.744 377.682 275.002 382.638 268.135 390.683C261.268 398.729 257.838 409.206 258.598 419.811Z" fill="#9C9C9C"/>
<path d="M269.322 419.021C269.739 424.784 271.835 430.294 275.344 434.852C278.854 439.41 283.62 442.812 289.039 444.628C294.458 446.444 300.288 446.592 305.791 445.054C311.294 443.516 316.222 440.36 319.953 435.986C323.684 431.612 326.05 426.216 326.752 420.481C327.454 414.745 326.46 408.928 323.896 403.765C321.332 398.601 317.313 394.323 312.348 391.472C307.382 388.621 301.693 387.324 296 387.747C292.219 388.025 288.53 389.055 285.142 390.778C281.755 392.5 278.736 394.882 276.259 397.786C273.781 400.691 271.893 404.061 270.703 407.705C269.513 411.348 269.044 415.194 269.322 419.021Z" fill="black"/>
<path d="M283.231 424.33C283.451 422.734 283.54 421.122 283.496 419.511C283.574 416.492 283.637 412.178 283.637 406.868L283.324 407.453L298.169 398.682L297.342 398.682L312.328 407.2C312.733 407.895 311.781 406.268 311.875 406.441L311.875 408.685L311.875 410.945C311.875 412.431 311.875 413.916 311.953 415.37C311.953 418.278 312.062 421.091 312.109 423.809L312.515 423.082L297.842 432.153L298.497 432.153C293.923 429.656 290.146 427.665 287.57 426.306C286.184 425.507 284.739 424.82 283.246 424.251C284.41 425.212 285.665 426.053 286.993 426.764C289.521 428.344 293.237 430.573 297.92 433.306L298.247 433.496L298.575 433.306L313.436 424.536L313.842 424.299L313.842 423.793C313.842 421.075 313.811 418.262 313.748 415.354C313.748 413.9 313.748 412.431 313.748 410.93L313.748 408.685L313.748 406.505C313.842 406.679 312.89 405.067 313.295 405.746L298.263 397.307L297.826 397.07L297.42 397.323L282.762 406.394L282.435 406.599L282.435 406.979C282.606 412.447 282.778 416.84 282.934 419.827C282.894 421.334 282.993 422.842 283.231 424.33Z" fill="#6B6B6B"/>
<path d="M288.306 82.8725C282.911 77.4108 282.911 68.5556 288.306 63.0938C293.701 57.6321 302.448 57.6321 307.843 63.0938C313.238 68.5556 313.238 77.4108 307.843 82.8725C302.448 88.3342 293.701 88.3342 288.306 82.8725Z" fill="#6B6B6B"/>
<path d="M320.149 208.794C319.493 208.873 319.821 211.955 317.885 216.174C316.789 218.596 315.192 220.751 313.202 222.495C310.87 224.572 307.967 225.879 304.882 226.24C301.78 226.443 298.69 225.694 296.016 224.091C293.752 222.758 291.794 220.954 290.271 218.797C287.617 215.052 287.383 211.907 286.728 211.955C286.462 211.955 286.197 212.745 286.197 214.23C286.256 216.347 286.79 218.422 287.758 220.298C289.212 223.135 291.362 225.546 294.002 227.299C297.265 229.627 301.24 230.703 305.215 230.336C309.191 229.968 312.907 228.18 315.7 225.292C317.979 223.086 319.657 220.32 320.57 217.264C321.221 215.225 321.392 213.061 321.07 210.943C320.804 209.473 320.398 208.747 320.149 208.794Z" fill="black"/>
<path d="M186.792 249.739C186.948 249.739 185.153 246.895 183.421 241.917C181.266 235.398 179.903 228.637 179.362 221.784C178.737 214.955 178.58 208.091 178.894 201.24C179.003 198.601 179.128 196.499 179.253 194.919C179.358 194.155 179.384 193.381 179.331 192.612C179.131 193.356 179 194.118 178.94 194.887C178.722 196.357 178.503 198.49 178.316 201.209C177.826 208.114 177.905 215.049 178.55 221.942C179.099 228.859 180.554 235.672 182.874 242.201C183.609 244.171 184.496 246.078 185.528 247.906C185.897 248.553 186.32 249.166 186.792 249.739Z" fill="#9C9C9C"/>
<path d="M418.757 191.174C418.845 191.941 419.007 192.698 419.241 193.434C419.444 194.145 419.662 195.014 419.865 196.057C420.068 197.1 420.38 198.238 420.568 199.549C421.115 202.595 421.48 205.672 421.66 208.762C421.87 212.544 421.818 216.335 421.504 220.109C421.155 223.876 420.55 227.614 419.694 231.297C418.977 234.31 418.08 237.276 417.009 240.179C416.587 241.427 416.103 242.517 415.713 243.497C415.323 244.477 414.948 245.299 414.636 245.963C414.28 246.645 413.987 247.359 413.762 248.096C414.206 247.469 414.593 246.803 414.917 246.105C415.358 245.315 415.759 244.503 416.119 243.671C416.556 242.723 417.087 241.633 417.539 240.384C418.698 237.489 419.658 234.516 420.412 231.487C421.325 227.769 421.962 223.987 422.316 220.172C422.634 216.361 422.665 212.531 422.41 208.715C422.192 205.597 421.764 202.498 421.13 199.439C420.895 198.127 420.568 196.973 420.302 195.946C420.037 194.919 419.787 194.05 419.553 193.339C419.346 192.596 419.08 191.872 418.757 191.174Z" fill="#9C9C9C"/>
<path d="M411.67 337.335L411.077 337.509L409.328 338.11L402.679 340.48L397.871 342.218C396.107 342.819 394.156 343.388 392.079 344.036C387.912 345.284 383.213 346.912 377.874 348.176L369.554 350.341C366.651 351.084 363.591 351.637 360.438 352.332C354.194 353.786 347.341 354.782 340.145 355.951C324.583 358.113 308.898 359.247 293.19 359.349C277.482 359.255 261.797 358.12 246.235 355.951C239.086 354.782 232.28 353.802 225.942 352.332C222.82 351.653 219.698 351.1 216.826 350.357L208.49 348.192C203.167 346.928 198.469 345.3 194.301 344.051C192.225 343.404 190.274 342.835 188.51 342.234L183.702 340.496L177.052 338.125L175.304 337.525C175.107 337.446 174.903 337.388 174.695 337.351L175.272 337.604L176.989 338.283L183.593 340.796L188.51 342.661C190.258 343.277 192.209 343.862 194.285 344.541C198.453 345.837 203.136 347.497 208.475 348.808L216.811 351.021C219.698 351.779 222.774 352.348 225.927 353.059C232.171 354.545 239.039 355.556 246.22 356.757C261.814 358.972 277.537 360.128 293.284 360.218C309.025 360.117 324.743 358.955 340.332 356.741C347.497 355.556 354.381 354.529 360.625 353.043C363.747 352.332 366.869 351.763 369.742 351.005L378.077 348.792C383.416 347.481 388.099 345.821 392.267 344.526C394.343 343.846 396.278 343.261 398.042 342.645L402.835 340.828L409.438 338.315L411.155 337.635C411.336 337.552 411.508 337.452 411.67 337.335Z" fill="#9C9C9C"/>
<g opacity="0.3">
<path d="M411.139 337.509C411.139 337.509 397.574 309.064 292.8 307.815C188.026 306.567 174.461 337.509 174.461 337.509C174.461 337.509 280.203 390.275 411.139 337.509Z" fill="black"/>
</g>
<path d="M315.653 114.024C315.772 114.035 315.893 114.035 316.012 114.024L317.058 114.134C317.995 114.229 319.368 114.261 321.132 114.466C326.109 114.955 331.048 115.784 335.915 116.947C361.086 122.783 383.289 137.719 398.355 158.951C405.633 169.155 411.144 180.537 414.651 192.612C415.198 194.318 415.494 195.678 415.76 196.578L416.056 197.621C416.084 197.742 416.126 197.858 416.181 197.969C416.202 197.849 416.202 197.726 416.181 197.605C416.181 197.321 416.056 196.973 415.963 196.547C415.744 195.63 415.51 194.255 415.011 192.517C413.708 187.607 412.038 182.805 410.015 178.152C403.343 162.689 393.185 149.023 380.356 138.25C367.473 127.558 352.296 120.067 336.04 116.378C331.144 115.252 326.171 114.507 321.163 114.15C319.384 113.992 318.041 114.008 317.074 113.96L316.012 113.96C315.762 113.992 315.653 114.008 315.653 114.024Z" fill="black"/>
<path d="M413.637 235.675C414.262 234.696 414.746 233.632 415.073 232.514C416.924 227.233 417.787 221.649 417.617 216.047C417.662 214.885 417.525 213.722 417.211 212.602C416.962 212.602 417.305 217.881 416.306 224.265C415.307 230.649 413.402 235.58 413.637 235.675Z" fill="black"/>
<path d="M439.908 227.505C439.908 227.505 440.267 227.252 440.751 226.651C441.441 225.8 442.033 224.872 442.515 223.886C444.182 220.619 444.82 216.913 444.343 213.268C443.865 209.623 442.296 206.214 439.846 203.5C439.128 202.669 438.316 201.926 437.426 201.288C437.121 201.027 436.772 200.824 436.396 200.687C436.302 200.813 437.707 201.777 439.409 203.848C441.642 206.555 443.071 209.848 443.529 213.345C443.988 216.841 443.458 220.398 442 223.601C440.907 226.114 439.799 227.41 439.908 227.505Z" fill="black"/>
<path d="M297.186 63.233C298.404 63.0973 299.632 63.0708 300.855 63.154C302.31 63.2833 303.718 63.7485 304.968 64.514C306.219 65.2794 307.28 66.3247 308.07 67.5697C308.86 68.8147 309.357 70.2263 309.524 71.6961C309.691 73.166 309.524 74.6551 309.034 76.0492C308.613 77.2054 308.09 78.3213 307.473 79.3836C307.473 79.3836 307.785 79.194 308.222 78.6883C308.822 77.9567 309.297 77.1288 309.627 76.2388C310.223 74.7631 310.458 73.1639 310.314 71.5765C310.17 69.9891 309.65 68.4603 308.799 67.1193C307.947 65.7783 306.789 64.6647 305.423 63.8727C304.056 63.0807 302.522 62.6336 300.948 62.5693C300.014 62.5036 299.075 62.5944 298.17 62.8379C297.467 62.9485 297.186 63.1856 297.186 63.233Z" fill="black"/>
<path d="M161.13 208.336C161.301 208.525 163.721 206.171 167.374 204.401C171.026 202.631 174.351 202.109 174.32 201.856C171.775 201.792 169.26 202.414 167.03 203.658C164.684 204.652 162.645 206.268 161.13 208.336Z" fill="black"/>
<path d="M375.236 484.998C375.308 484.904 375.37 484.803 375.424 484.698L375.939 483.765C376.407 482.865 377.031 481.664 377.843 480.131C378.249 479.34 378.686 478.456 379.186 477.507L380.653 474.347C381.714 472.055 382.901 469.448 384.072 466.445C384.665 464.976 385.289 463.427 385.945 461.831C386.6 460.235 387.162 458.496 387.802 456.742C389.145 453.25 390.284 449.41 391.611 445.427C394.062 437.368 396.466 428.439 398.573 418.957C400.681 409.476 402.21 400.326 403.459 391.998C404.708 383.669 405.52 376.195 406.019 369.779C406.316 366.618 406.503 363.742 406.659 361.213C406.815 358.685 406.956 356.473 407.003 354.734C407.049 352.996 407.096 351.653 407.143 350.641L407.143 349.582C407.16 349.462 407.16 349.34 407.143 349.219C407.125 349.339 407.125 349.462 407.143 349.582L407.049 350.641C407.049 351.637 406.878 353.012 406.768 354.718C406.659 356.425 406.503 358.669 406.285 361.182C406.066 363.695 405.863 366.571 405.52 369.731C404.958 376.052 403.959 383.575 402.788 391.855C401.617 400.136 399.916 409.239 397.855 418.72C395.795 428.202 393.375 437.115 390.987 445.159C389.66 449.141 388.552 452.965 387.24 456.458C386.616 458.228 386.023 459.919 385.43 461.546L383.619 466.192C382.495 469.148 381.34 471.771 380.31 474.094L378.905 477.255C378.452 478.219 378.015 479.103 377.625 479.909L375.876 483.607L375.439 484.571C375.345 484.699 375.276 484.844 375.236 484.998Z" fill="black"/>
<path d="M436.318 356.157C440.126 356.302 443.94 356.165 447.729 355.746C451.535 355.611 455.327 355.204 459.077 354.529C455.269 354.383 451.455 354.52 447.666 354.94C443.86 355.073 440.067 355.48 436.318 356.157Z" fill="black"/>
<path d="M495.042 322.417C497.256 319.153 499.244 315.736 500.99 312.193C502.969 308.78 504.711 305.231 506.204 301.573C503.996 304.845 502.014 308.266 500.272 311.813C498.283 315.218 496.535 318.762 495.042 322.417Z" fill="black"/>
<path d="M319.821 534.825C320.435 534.813 321.047 534.739 321.647 534.603C323.299 534.306 324.931 533.905 326.533 533.402C328.914 532.669 331.24 531.766 333.495 530.7C336.242 529.359 338.883 527.806 341.394 526.054C343.877 524.258 346.215 522.266 348.387 520.096C350.146 518.312 351.774 516.4 353.257 514.376C354.274 513.025 355.197 511.604 356.02 510.125C356.357 509.605 356.635 509.048 356.848 508.465C356.723 508.386 355.412 510.678 352.805 514.028C351.272 515.976 349.62 517.823 347.856 519.559C343.536 523.809 338.578 527.339 333.167 530.021C330.957 531.102 328.684 532.046 326.361 532.849C322.365 534.208 319.79 534.667 319.821 534.825Z" fill="black"/>
<path d="M295.875 461.72C296.236 461.784 296.601 461.821 296.968 461.831C298.006 461.92 299.048 461.952 300.09 461.926C303.971 461.839 307.822 461.206 311.532 460.045C314.095 459.237 316.59 458.222 318.993 457.011C321.749 455.576 324.363 453.877 326.798 451.938C332.441 447.55 336.888 441.781 339.723 435.174C342.557 428.567 343.685 421.339 343.001 414.169C342.747 411.057 342.198 407.977 341.362 404.972C340.614 402.365 339.648 399.827 338.475 397.386C336.781 393.846 334.606 390.564 332.012 387.636C331.316 386.835 330.576 386.076 329.795 385.36C329.537 385.098 329.261 384.855 328.968 384.633C328.968 384.633 329.998 385.755 331.778 387.794C334.276 390.768 336.375 394.062 338.022 397.592C340.477 402.793 341.939 408.418 342.33 414.169C342.963 421.212 341.836 428.303 339.054 434.789C336.272 441.276 331.923 446.95 326.408 451.29C324.044 453.217 321.504 454.91 318.822 456.347C316.471 457.602 314.022 458.66 311.501 459.508C307.846 460.708 304.051 461.414 300.215 461.61C297.389 461.72 295.875 461.625 295.875 461.72Z" fill="black"/>
<path d="M484.865 337.272C484.865 337.398 486.067 336.814 487.987 336.355C490.556 335.786 493.219 335.813 495.777 336.434C498.334 337.056 500.72 338.255 502.754 339.943C504.315 341.254 505.064 342.297 505.173 342.218C504.745 341.173 504.082 340.242 503.238 339.5C501.212 337.618 498.745 336.291 496.071 335.644C493.396 334.997 490.603 335.051 487.956 335.802C486.827 336.045 485.77 336.548 484.865 337.272Z" fill="black"/>
<path d="M254.352 180.143C254.352 180.364 273.521 180.554 297.155 180.554C320.788 180.554 339.973 180.364 339.973 180.143C339.973 179.922 320.804 179.732 297.155 179.732C273.506 179.732 254.352 179.89 254.352 180.143Z" fill="black"/>
<path d="M327.407 278.959C327.641 279.026 327.882 279.063 328.125 279.07L330.217 279.259C331.122 279.338 332.231 279.402 333.526 279.433C334.822 279.465 336.289 279.528 337.913 279.433C341.175 279.433 345.046 279.196 349.339 278.738C353.985 278.191 358.597 277.384 363.154 276.32C367.701 275.216 372.182 273.855 376.579 272.243C380.16 270.915 383.672 269.401 387.1 267.707C388.661 267.012 389.863 266.285 391.002 265.669C392.142 265.053 393.109 264.499 393.89 264.089L395.685 262.982C395.898 262.863 396.097 262.72 396.278 262.556C396.278 262.556 396.029 262.556 395.607 262.84L393.734 263.804C392.938 264.247 391.954 264.768 390.799 265.384C389.644 266.001 388.333 266.633 386.85 267.297C383.915 268.687 380.341 270.173 376.313 271.642C367.56 274.819 358.48 276.982 349.245 278.09C345 278.596 341.144 278.88 337.913 278.959C336.352 279.054 334.791 278.959 333.526 278.959C332.262 278.959 331.138 278.959 330.232 278.959L328.141 278.959C327.898 278.918 327.65 278.918 327.407 278.959Z" fill="black"/>
<path d="M202.793 350.167C202.908 350.244 203.034 350.303 203.167 350.341L204.291 350.768L208.631 352.348C210.519 353.043 212.83 353.849 215.561 354.655C218.293 355.461 221.368 356.504 224.849 357.389L230.282 358.843C232.17 359.333 234.169 359.744 236.213 360.234C240.303 361.229 244.737 362.019 249.388 362.92C269.65 366.493 290.241 367.77 310.782 366.729C315.465 366.428 320.008 366.191 324.191 365.701C326.283 365.48 328.312 365.322 330.248 365.054L335.821 364.279C339.38 363.852 342.564 363.205 345.358 362.699C348.153 362.193 350.572 361.719 352.523 361.261L357.019 360.249L358.19 359.965C358.325 359.942 358.457 359.9 358.58 359.839C358.44 359.827 358.299 359.827 358.159 359.839L356.988 360.044L352.461 360.913C350.494 361.308 348.09 361.766 345.28 362.193C342.471 362.62 339.302 363.236 335.743 363.631L330.186 364.342C328.25 364.595 326.221 364.737 324.129 364.943C319.961 365.401 315.465 365.607 310.751 365.891C301.307 366.286 290.926 366.302 280.031 365.654C269.135 365.006 258.848 363.631 249.529 362.083C244.846 361.213 240.444 360.502 236.354 359.491C234.309 359.017 232.311 358.622 230.422 358.148L224.99 356.741C221.509 355.904 218.434 354.924 215.702 354.134C212.97 353.344 210.629 352.553 208.74 351.969L204.354 350.546L203.198 350.199L202.793 350.167Z" fill="black"/>
</g>
<defs>
<clipPath id="clip0_212_659">
<rect width="468" height="507" fill="white" transform="matrix(-1 8.74228e-08 8.74228e-08 1 549 53.2046)"/>
</clipPath>
</defs>
</svg>
