<svg width="825" height="665" viewBox="0 0 825 665" fill="none" xmlns="http://www.w3.org/2000/svg">
<path d="M64.8689 411.255C-68.3458 334.833 41.0295 193.262 64.8689 170.26C87.3125 148.605 265.393 -32.6881 567.5 40.1632C1107 170.26 648.607 317.556 535.5 519.205C422.393 720.853 190.541 683.475 198.5 581.704C206.459 479.934 198.084 487.677 64.8689 411.255Z" fill="#0F0F0F"/>
<g opacity="0.8" clip-path="url(#clip0_72_11)">
<path d="M502.578 87.1284C498.738 82.7539 499.127 76.056 503.448 72.168C507.769 68.2801 514.386 68.6745 518.226 73.049C522.066 77.4234 521.677 84.1214 517.356 88.0093C513.035 91.8973 506.419 91.5028 502.578 87.1284Z" fill="#323435"/>
<path d="M510.401 90.6943C512.827 90.6943 515.178 89.8428 517.053 88.285C518.928 86.7272 520.211 84.5594 520.684 82.151C521.157 79.7426 520.791 77.2426 519.648 75.077C518.504 72.9114 516.655 71.2141 514.414 70.2744C512.173 69.3347 509.679 69.2107 507.358 69.9235C505.037 70.6363 503.032 72.1419 501.684 74.1836C500.336 76.2254 499.73 78.677 499.968 81.1207C500.205 83.5645 501.273 85.8492 502.988 87.5855C503.959 88.5742 505.115 89.358 506.387 89.8916C507.66 90.4252 509.024 90.698 510.401 90.6943ZM510.401 69.5005C512.821 69.498 515.166 70.3447 517.037 71.8963C518.909 73.448 520.191 75.6086 520.665 78.01C521.14 80.4114 520.777 82.9051 519.639 85.0661C518.501 87.2272 516.658 88.9219 514.424 89.8615C512.19 90.8011 509.703 90.9275 507.388 90.2191C505.072 89.5107 503.071 88.0114 501.724 85.9766C500.378 83.9418 499.771 81.4975 500.005 79.06C500.24 76.6226 501.302 74.3428 503.01 72.6092C503.978 71.622 505.13 70.839 506.398 70.3054C507.667 69.7718 509.028 69.4982 510.401 69.5005Z" fill="#323435"/>
<path d="M532.179 131.263C529.674 133.8 529.674 137.912 532.179 140.449C534.685 142.986 538.748 142.986 541.253 140.449C543.759 137.912 543.759 133.8 541.253 131.263C538.748 128.726 534.685 128.726 532.179 131.263Z" fill="#323435"/>
<path d="M546.855 135.494L541.572 130.978L539.667 133.262L544.95 137.778C545.228 138.016 545.588 138.133 545.951 138.102C546.314 138.071 546.65 137.895 546.885 137.613L547.015 137.457C547.132 137.318 547.221 137.157 547.276 136.982C547.332 136.808 547.353 136.625 547.338 136.442C547.323 136.26 547.273 136.082 547.19 135.92C547.107 135.757 546.993 135.612 546.855 135.494Z" fill="#323435"/>
<path d="M533.427 147.643L533.427 140.835C533.427 140.783 533.447 140.732 533.484 140.695C533.521 140.658 533.571 140.637 533.623 140.637L536.178 140.637C536.23 140.637 536.28 140.658 536.317 140.695C536.354 140.732 536.374 140.783 536.374 140.835L536.374 147.643C536.374 148.011 536.23 148.365 535.972 148.626C535.715 148.886 535.365 149.033 535.001 149.033L534.8 149.033C534.436 149.033 534.086 148.886 533.829 148.626C533.571 148.365 533.427 148.011 533.427 147.643Z" fill="#323435"/>
<path d="M538.185 147.617L536.717 140.974C536.705 140.922 536.715 140.869 536.742 140.824C536.77 140.78 536.814 140.748 536.865 140.737L539.359 140.172C539.41 140.16 539.463 140.17 539.507 140.198C539.551 140.226 539.582 140.271 539.593 140.322L541.061 146.966C541.141 147.325 541.076 147.702 540.881 148.014C540.686 148.325 540.376 148.545 540.021 148.625L539.824 148.67C539.469 148.75 539.096 148.685 538.789 148.487C538.482 148.29 538.264 147.977 538.185 147.617Z" fill="#323435"/>
<path d="M542.769 143.922L539.406 138.026C539.38 137.981 539.373 137.927 539.387 137.876C539.4 137.825 539.433 137.781 539.478 137.755L541.691 136.462C541.736 136.435 541.79 136.428 541.84 136.442C541.89 136.456 541.933 136.489 541.959 136.534L545.321 142.43C545.503 142.749 545.553 143.128 545.458 143.484C545.364 143.841 545.134 144.144 544.819 144.328L544.644 144.431C544.329 144.615 543.954 144.665 543.602 144.569C543.251 144.474 542.951 144.241 542.769 143.922Z" fill="#323435"/>
<path d="M412.547 134.948L405.482 131.907L425.867 83.3835L432.932 86.4252L412.547 134.948Z" fill="#616161"/>
<path d="M424.855 88.0204C421.118 83.5549 421.665 76.8682 426.076 73.0852C430.487 69.3022 437.092 69.8554 440.829 74.3209C444.565 78.7864 444.019 85.4732 439.608 89.2562C435.197 93.0392 428.592 92.4859 424.855 88.0204Z" fill="#323435"/>
<path d="M432.82 91.8062C434.463 91.807 436.082 91.4175 437.548 90.669C439.015 89.9205 440.287 88.8339 441.263 87.4967C442.239 86.1595 442.891 84.609 443.166 82.9701C443.442 81.3313 443.334 79.6497 442.851 78.0608C442.278 76.1868 441.203 74.5103 439.745 73.2177C438.287 71.9252 436.504 71.0672 434.593 70.7391C432.683 70.411 430.72 70.6257 428.922 71.3593C427.125 72.0929 425.564 73.3167 424.412 74.8946C423.261 76.4725 422.564 78.3428 422.4 80.2975C422.235 82.2522 422.61 84.2148 423.481 85.9672C424.352 87.7195 425.686 89.193 427.335 90.2238C428.984 91.2546 430.882 91.8023 432.82 91.8062ZM432.82 70.601C434.755 70.603 436.651 71.1483 438.298 72.1762C439.944 73.2041 441.277 74.6744 442.148 76.4234C443.018 78.1724 443.392 80.1316 443.228 82.083C443.065 84.0345 442.369 85.9016 441.22 87.4768C440.07 89.052 438.511 90.2735 436.717 91.0053C434.922 91.7371 432.963 91.9507 431.056 91.6221C429.148 91.2935 427.369 90.4358 425.914 89.1443C424.46 87.8528 423.388 86.1781 422.818 84.3067C422.004 81.6248 422.274 78.7256 423.57 76.2454C424.865 73.7651 427.08 71.9065 429.727 71.0775C430.74 70.7601 431.794 70.5994 432.854 70.601L432.82 70.601Z" fill="#323435"/>
<path d="M411.648 112.854C410.487 108.625 412.933 104.244 417.11 103.069C421.288 101.894 425.615 104.369 426.776 108.599C427.937 112.828 425.491 117.209 421.314 118.384C417.136 119.559 412.809 117.084 411.648 112.854Z" fill="#323435"/>
<path d="M407.374 141.96C403.83 141.96 400.958 139.052 400.958 135.464C400.958 131.877 403.83 128.969 407.374 128.969C410.917 128.969 413.79 131.877 413.79 135.464C413.79 139.052 410.917 141.96 407.374 141.96Z" fill="#323435"/>
<path d="M415.766 142.006L412.173 136.038L409.652 137.594L413.244 143.562C413.434 143.876 413.739 144.102 414.093 144.189C414.447 144.276 414.82 144.217 415.131 144.025L415.303 143.919C415.458 143.824 415.593 143.7 415.7 143.552C415.807 143.405 415.884 143.237 415.927 143.06C415.97 142.882 415.978 142.697 415.95 142.516C415.923 142.336 415.86 142.162 415.766 142.006Z" fill="#323435"/>
<path d="M406.821 147.698L408.95 141.241C408.967 141.191 408.963 141.136 408.94 141.089C408.916 141.042 408.876 141.006 408.826 140.989L406.403 140.17C406.353 140.154 406.299 140.157 406.253 140.181C406.206 140.205 406.171 140.246 406.154 140.296L404.025 146.753C403.97 146.927 403.95 147.11 403.964 147.292C403.979 147.474 404.029 147.651 404.112 147.813C404.195 147.975 404.308 148.12 404.445 148.238C404.583 148.356 404.742 148.445 404.914 148.501L405.105 148.565C405.447 148.676 405.817 148.647 406.138 148.485C406.458 148.323 406.703 148.04 406.821 147.698Z" fill="#323435"/>
<path d="M402.311 146.15L405.781 140.319C405.795 140.297 405.803 140.272 405.807 140.246C405.811 140.221 405.81 140.194 405.804 140.169C405.798 140.144 405.786 140.12 405.771 140.099C405.756 140.078 405.737 140.06 405.715 140.047L403.526 138.712C403.504 138.698 403.479 138.689 403.454 138.686C403.428 138.682 403.403 138.683 403.378 138.689C403.353 138.695 403.329 138.707 403.308 138.722C403.288 138.738 403.27 138.757 403.257 138.779L399.786 144.61C399.599 144.926 399.542 145.304 399.63 145.662C399.718 146.02 399.942 146.328 400.254 146.518L400.427 146.623C400.739 146.814 401.112 146.871 401.466 146.782C401.819 146.693 402.123 146.466 402.311 146.15Z" fill="#323435"/>
<path d="M397.979 142.935L403.012 138.421C403.051 138.386 403.074 138.337 403.078 138.284C403.081 138.232 403.063 138.18 403.029 138.141L401.338 136.209C401.303 136.169 401.255 136.145 401.203 136.142C401.151 136.139 401.1 136.157 401.061 136.192L396.028 140.706C395.755 140.951 395.59 141.295 395.568 141.663C395.546 142.03 395.669 142.392 395.911 142.668L396.044 142.821C396.286 143.095 396.626 143.261 396.988 143.282C397.351 143.304 397.707 143.179 397.979 142.935Z" fill="#323435"/>
<path d="M513.512 69.058C513.512 69.058 512.755 143.452 471.518 144.904C430.282 146.356 428.55 69.5913 428.55 69.058C428.55 69.058 433.42 57.9676 471.031 58.3987C508.642 58.8299 513.512 69.058 513.512 69.058Z" fill="#616161"/>
<path d="M490.358 55.965L455.503 55.965C453.229 55.965 451.385 54.0983 451.385 51.7955L451.385 51.1885C451.385 48.8857 453.229 47.019 455.503 47.019L490.358 47.019C492.632 47.019 494.476 48.8857 494.476 51.1885L494.476 51.7955C494.476 54.0983 492.632 55.965 490.358 55.965Z" fill="#323435"/>
<path d="M426.917 35.6659C422.166 34.5226 419.23 29.6967 420.359 24.8867C421.488 20.0768 426.255 17.1043 431.007 18.2476C435.758 19.3908 438.694 24.2168 437.565 29.0267C436.435 33.8366 431.668 36.8091 426.917 35.6659Z" fill="#616161"/>
<path d="M516.265 35.0845C511.503 33.9909 508.518 29.1958 509.598 24.3743C510.678 19.5529 515.415 16.5309 520.177 17.6245C524.94 18.7181 527.925 23.5133 526.845 28.3347C525.764 33.1562 521.028 36.1782 516.265 35.0845Z" fill="#616161"/>
<path d="M474.679 -13.5274C474.679 -13.5274 510.631 -13.9642 516.313 17.5825C521.995 49.1293 491.601 49.6965 482.854 50.2922C478.892 50.5645 470.409 50.5929 462.922 50.4567C446.347 50.1674 434.635 46.9225 430.651 31.3562C430.177 29.531 429.878 27.6634 429.76 25.7798C428.712 8.69316 440.104 -14.367 474.679 -13.5274Z" fill="#616161"/>
<path d="M448.6 34.4876L500.831 35.3102C502.134 35.3335 503.429 35.0963 504.642 34.6124C505.854 34.1284 506.961 33.4071 507.898 32.4897C508.834 31.5723 509.583 30.4769 510.102 29.2662C510.62 28.0554 510.897 26.7531 510.918 25.4337C510.94 24.1142 510.705 22.8031 510.226 21.5755C509.747 20.3479 509.034 19.2279 508.128 18.2795C507.221 17.3311 506.139 16.573 504.943 16.0485C503.746 15.5239 502.46 15.2433 501.156 15.2226L448.925 14.4001C447.622 14.376 446.326 14.6126 445.114 15.0963C443.901 15.58 442.794 16.3013 441.857 17.2188C440.92 18.1363 440.171 19.2321 439.653 20.4431C439.135 21.6542 438.858 22.9569 438.839 24.2765C438.816 25.5963 439.05 26.9077 439.528 28.1356C440.007 29.3635 440.72 30.4839 441.627 31.4324C442.533 32.3809 443.616 33.139 444.813 33.6633C446.009 34.1876 447.296 34.4677 448.6 34.4876Z" fill="#323435"/>
<path d="M489.976 24.3389C490.098 24.9641 490.4 25.5389 490.844 25.9904C491.288 26.442 491.854 26.7501 492.471 26.8759C493.088 27.0016 493.728 26.9393 494.311 26.6968C494.893 26.4544 495.391 26.0426 495.742 25.5136C496.093 24.9847 496.281 24.3622 496.282 23.725C496.284 23.0878 496.099 22.4644 495.75 21.9337C495.402 21.403 494.906 20.9887 494.325 20.7434C493.744 20.498 493.104 20.4325 492.487 20.5551C492.076 20.6366 491.686 20.7991 491.338 21.0334C490.99 21.2676 490.69 21.5691 490.457 21.9205C490.224 22.2718 490.062 22.6663 489.979 23.0812C489.897 23.4962 489.896 23.9236 489.976 24.3389Z" fill="black"/>
<path d="M453.503 23.7489C453.623 24.3746 453.924 24.9501 454.368 25.4026C454.812 25.855 455.378 26.164 455.995 26.2906C456.612 26.4171 457.252 26.3555 457.835 26.1135C458.418 25.8714 458.916 25.4599 459.268 24.931C459.619 24.402 459.808 23.7794 459.81 23.1419C459.811 22.5044 459.626 21.8807 459.278 21.3497C458.93 20.8186 458.433 20.4042 457.852 20.1587C457.271 19.9133 456.631 19.8479 456.013 19.9708C455.186 20.1354 454.456 20.6257 453.986 21.3341C453.515 22.0424 453.341 22.911 453.503 23.7489Z" fill="black"/>
<path d="M458.754 98.6022C458.958 101.441 459.99 104.155 461.718 106.4C463.446 108.645 465.793 110.321 468.462 111.216C471.131 112.111 474.002 112.185 476.712 111.428C479.423 110.671 481.851 109.118 483.689 106.964C485.527 104.81 486.693 102.153 487.04 99.3286C487.387 96.504 486.898 93.6387 485.636 91.0951C484.374 88.5515 482.396 86.4438 479.951 85.0386C477.506 83.6334 474.704 82.9937 471.9 83.2004C468.139 83.4792 464.642 85.2581 462.177 88.1463C459.712 91.0344 458.481 94.7953 458.754 98.6022Z" fill="#323435"/>
<path d="M462.603 98.3186C462.753 100.388 463.505 102.365 464.765 104.002C466.025 105.638 467.736 106.859 469.681 107.511C471.627 108.163 473.719 108.216 475.695 107.664C477.67 107.112 479.439 105.979 480.779 104.409C482.118 102.839 482.967 100.902 483.219 98.8427C483.471 96.7839 483.114 94.6956 482.194 92.8421C481.274 90.9885 479.831 89.4529 478.048 88.4294C476.266 87.4059 474.224 86.9405 472.18 87.092C470.823 87.1919 469.498 87.5616 468.282 88.18C467.066 88.7984 465.983 89.6534 465.093 90.696C464.204 91.7386 463.526 92.9485 463.099 94.2564C462.672 95.5644 462.503 96.9447 462.603 98.3186Z" fill="black"/>
<path d="M467.596 100.225C467.675 99.6516 467.707 99.0729 467.692 98.4944C467.72 97.4109 467.742 95.8622 467.742 93.9562L467.63 94.1661L472.959 91.0176L472.662 91.0176L478.041 94.0753C478.187 94.3249 477.845 93.7406 477.879 93.803L477.879 94.6085L477.879 95.4198C477.879 95.953 477.879 96.4863 477.907 97.0082C477.907 98.052 477.946 99.0617 477.963 100.037L478.109 99.7765L472.841 103.033L473.077 103.033C471.435 102.136 470.079 101.422 469.154 100.934C468.657 100.647 468.138 100.4 467.602 100.196C468.02 100.541 468.47 100.843 468.947 101.098C469.855 101.666 471.188 102.465 472.869 103.447L472.987 103.515L473.105 103.447L478.439 100.298L478.585 100.213L478.585 100.032C478.585 99.0561 478.574 98.0463 478.551 97.0025C478.551 96.4806 478.551 95.953 478.551 95.4141L478.551 94.6085L478.551 93.8257C478.585 93.8881 478.243 93.3095 478.389 93.5534L472.993 90.5241L472.836 90.439L472.69 90.5298L467.428 93.786L467.311 93.8597L467.311 93.9959C467.372 95.9587 467.434 97.5357 467.49 98.6079C467.476 99.149 467.511 99.6903 467.596 100.225Z" fill="#616161"/>
<path d="M469.049 22.8526C469.284 22.881 469.166 23.9872 469.861 25.5018C470.255 26.3712 470.828 27.145 471.542 27.771C472.379 28.5166 473.421 28.9856 474.529 29.1154C475.642 29.1882 476.752 28.9193 477.712 28.3439C478.524 27.8655 479.227 27.2177 479.774 26.4435C480.726 25.0991 480.811 23.9702 481.046 23.9872C481.141 23.9872 481.236 24.2708 481.236 24.8041C481.215 25.5638 481.023 26.3087 480.676 26.9825C480.154 28.0008 479.382 28.8661 478.435 29.4955C477.263 30.3312 475.836 30.7175 474.409 30.5855C472.982 30.4536 471.648 29.8118 470.646 28.7751C469.827 27.9829 469.225 26.9903 468.897 25.8933C468.664 25.1614 468.602 24.3843 468.718 23.6241C468.813 23.0965 468.959 22.8356 469.049 22.8526Z" fill="black"/>
<path d="M432.977 37.551C433.033 37.551 432.389 36.5299 431.767 34.7429C430.993 32.4026 430.504 29.9757 430.31 27.5157C430.085 25.0643 430.029 22.6002 430.142 20.141C430.181 19.1936 430.226 18.4391 430.271 17.8718C430.308 17.5975 430.318 17.3199 430.299 17.0436C430.227 17.3109 430.18 17.5844 430.158 17.8605C430.08 18.3881 430.002 19.1539 429.934 20.1296C429.759 22.6086 429.787 25.0981 430.018 27.5724C430.216 30.0555 430.738 32.501 431.571 34.845C431.834 35.552 432.153 36.2368 432.523 36.8929C432.656 37.125 432.807 37.3452 432.977 37.551Z" fill="#323435"/>
<path d="M516.247 16.5274C516.278 16.8028 516.336 17.0745 516.42 17.3386C516.493 17.5939 516.572 17.9059 516.644 18.2803C516.717 18.6547 516.829 19.0631 516.897 19.534C517.093 20.6274 517.224 21.7318 517.289 22.8413C517.364 24.1986 517.345 25.5597 517.233 26.9144C517.108 28.2667 516.89 29.6087 516.583 30.9307C516.325 32.0122 516.004 33.0769 515.619 34.1189C515.468 34.567 515.294 34.9585 515.154 35.3102C515.014 35.6619 514.879 35.9569 514.767 36.1952C514.639 36.4401 514.534 36.6964 514.453 36.961C514.613 36.736 514.752 36.4968 514.868 36.2462C515.026 35.9626 515.171 35.671 515.3 35.3726C515.456 35.0322 515.647 34.6408 515.809 34.1926C516.226 33.1534 516.57 32.0862 516.841 30.9988C517.168 29.6641 517.397 28.3064 517.524 26.9371C517.638 25.569 517.65 24.1941 517.558 22.8242C517.48 21.705 517.326 20.5924 517.098 19.4943C517.014 19.0234 516.897 18.6093 516.801 18.2406C516.706 17.8718 516.616 17.5598 516.532 17.3045C516.458 17.0381 516.362 16.7782 516.247 16.5274Z" fill="#323435"/>
<path d="M513.702 68.9956L513.489 69.058L512.862 69.2736L510.474 70.1245L508.749 70.7485C508.115 70.9641 507.415 71.1683 506.67 71.4009C505.173 71.8491 503.487 72.4334 501.57 72.8872L498.584 73.6644C497.541 73.931 496.443 74.1295 495.311 74.3791C493.07 74.9011 490.61 75.2584 488.027 75.6782C482.44 76.4541 476.81 76.8615 471.171 76.8979C465.532 76.8644 459.902 76.457 454.315 75.6782C451.749 75.2584 449.306 74.9067 447.031 74.3792C445.91 74.1352 444.789 73.9367 443.758 73.67L440.766 72.8929C438.855 72.439 437.168 71.8547 435.672 71.4066C434.927 71.174 434.227 70.9698 433.593 70.7542L431.867 70.1302L429.48 69.2793L428.853 69.0637C428.782 69.0355 428.709 69.0146 428.634 69.0013L428.841 69.092L429.458 69.336L431.828 70.238L433.593 70.9074C434.221 71.1286 434.921 71.3385 435.667 71.5824C437.163 72.0476 438.844 72.6433 440.76 73.1141L443.753 73.9083C444.789 74.1806 445.893 74.3848 447.025 74.6401C449.267 75.1733 451.732 75.5364 454.31 75.9676C459.908 76.7627 465.552 77.1777 471.205 77.2099C476.855 77.1736 482.498 76.7567 488.094 75.9619C490.666 75.5364 493.137 75.1677 495.378 74.6344C496.499 74.3792 497.62 74.1749 498.651 73.9026L501.643 73.1084C503.56 72.6376 505.241 72.0419 506.737 71.5768C507.482 71.3328 508.177 71.1229 508.81 70.9017L510.531 70.2493L512.901 69.3473L513.517 69.1034C513.582 69.0735 513.644 69.0374 513.702 68.9956Z" fill="#323435"/>
<g opacity="0.3">
<path d="M513.512 69.058C513.512 69.058 508.642 58.8469 471.031 58.3987C433.42 57.9506 428.55 69.058 428.55 69.058C428.55 69.058 466.509 87.9997 513.512 69.058Z" fill="black"/>
</g>
<path d="M479.235 -11.1675C479.277 -11.1634 479.321 -11.1634 479.363 -11.1675L479.739 -11.1278C480.075 -11.0938 480.568 -11.0824 481.201 -11.0087C482.988 -10.8331 484.761 -10.5356 486.508 -10.118C495.544 -8.02301 503.514 -2.66142 508.922 4.96041C511.535 8.62308 513.513 12.7091 514.772 17.0436C514.969 17.6563 515.075 18.1441 515.17 18.4675L515.277 18.8419C515.287 18.8851 515.302 18.927 515.322 18.9667C515.329 18.9235 515.329 18.8794 515.322 18.8362C515.322 18.7341 515.277 18.6093 515.243 18.4561C515.165 18.1271 515.081 17.6336 514.901 17.0096C514.434 15.2471 513.834 13.5233 513.108 11.8529C510.713 6.30201 507.067 1.3963 502.461 -2.47103C497.836 -6.30921 492.388 -8.99802 486.553 -10.3223C484.795 -10.7265 483.01 -10.9939 481.213 -11.1221C480.574 -11.1789 480.092 -11.1732 479.744 -11.1902L479.363 -11.1902C479.274 -11.1789 479.235 -11.1732 479.235 -11.1675Z" fill="black"/>
<path d="M514.408 32.5021C514.633 32.1509 514.806 31.7688 514.924 31.3676C515.588 29.4718 515.898 27.4672 515.837 25.4564C515.853 25.039 515.804 24.6217 515.691 24.2198C515.602 24.2198 515.725 26.1145 515.366 28.4063C515.008 30.6982 514.324 32.4681 514.408 32.5021Z" fill="black"/>
<path d="M523.839 29.5693C523.839 29.5693 523.968 29.4785 524.142 29.2629C524.389 28.9574 524.602 28.6244 524.775 28.2702C525.373 27.0975 525.602 25.7673 525.431 24.4589C525.26 23.1504 524.696 21.9265 523.817 20.9522C523.559 20.6538 523.268 20.3872 522.948 20.158C522.839 20.0645 522.713 19.9915 522.578 19.9424C522.545 19.9878 523.049 20.3339 523.66 21.077C524.462 22.0489 524.974 23.231 525.139 24.4862C525.304 25.7414 525.113 27.018 524.59 28.1681C524.198 29.0701 523.8 29.5352 523.839 29.5693Z" fill="black"/>
<path d="M423.765 22.6881C423.827 22.7562 424.695 21.9109 426.006 21.2755C427.318 20.6402 428.511 20.453 428.5 20.3622C427.586 20.3392 426.683 20.5624 425.883 21.0089C425.041 21.3656 424.309 21.9457 423.765 22.6881Z" fill="black"/>
<path d="M500.624 122.003C500.649 121.969 500.672 121.933 500.691 121.895L500.876 121.56C501.044 121.237 501.268 120.806 501.56 120.256C501.705 119.972 501.862 119.654 502.041 119.314L502.568 118.179C502.949 117.357 503.375 116.421 503.795 115.343C504.008 114.815 504.232 114.259 504.468 113.686C504.703 113.113 504.905 112.489 505.135 111.86C505.617 110.606 506.026 109.227 506.502 107.798C507.382 104.905 508.245 101.7 509.001 98.2959C509.758 94.8922 510.307 91.6076 510.755 88.618C511.203 85.6284 511.495 82.9452 511.674 80.642C511.781 79.5074 511.848 78.4749 511.904 77.5673C511.96 76.6596 512.01 75.8654 512.027 75.2414C512.044 74.6174 512.061 74.1352 512.077 73.7721L512.077 73.3921C512.084 73.3488 512.084 73.3049 512.077 73.2616C512.071 73.3048 512.071 73.3488 512.077 73.3921L512.044 73.7721C512.044 74.1295 511.982 74.6231 511.943 75.2357C511.904 75.8484 511.848 76.654 511.769 77.5559C511.691 78.4579 511.618 79.4904 511.495 80.625C511.293 82.8941 510.934 85.5944 510.514 88.567C510.094 91.5395 509.483 94.8071 508.743 98.2108C508.004 101.615 507.135 104.814 506.278 107.701C505.801 109.131 505.404 110.504 504.933 111.758C504.709 112.393 504.496 113 504.283 113.584L503.633 115.252C503.229 116.313 502.815 117.255 502.445 118.088L501.941 119.223C501.778 119.569 501.621 119.887 501.481 120.176L500.854 121.504L500.697 121.85C500.663 121.895 500.638 121.947 500.624 122.003Z" fill="black"/>
<path d="M522.551 75.752C523.918 75.8044 525.287 75.7551 526.647 75.6045C528.013 75.556 529.375 75.41 530.721 75.1677C529.354 75.1153 527.984 75.1646 526.624 75.3152C525.258 75.3632 523.897 75.5091 522.551 75.752Z" fill="black"/>
<path d="M543.631 63.6404C544.426 62.4685 545.139 61.2421 545.766 59.9701C546.477 58.7449 547.102 57.4711 547.638 56.1579C546.845 57.3323 546.134 58.5606 545.508 59.834C544.794 61.0561 544.167 62.3282 543.631 63.6404Z" fill="black"/>
<path d="M480.731 139.889C480.951 139.885 481.171 139.859 481.386 139.81C481.979 139.703 482.565 139.559 483.14 139.379C483.995 139.115 484.83 138.791 485.639 138.409C486.626 137.927 487.574 137.37 488.475 136.741C489.366 136.096 490.206 135.381 490.985 134.602C491.617 133.962 492.201 133.275 492.734 132.549C493.098 132.064 493.43 131.554 493.725 131.023C493.846 130.836 493.946 130.636 494.022 130.427C493.978 130.399 493.507 131.221 492.571 132.424C492.021 133.123 491.428 133.786 490.795 134.409C489.244 135.935 487.464 137.202 485.522 138.165C484.728 138.553 483.913 138.892 483.079 139.18C481.644 139.668 480.72 139.833 480.731 139.889Z" fill="black"/>
<path d="M472.135 113.647C472.265 113.669 472.396 113.683 472.527 113.686C472.9 113.718 473.274 113.73 473.648 113.72C475.042 113.689 476.424 113.462 477.755 113.045C478.676 112.755 479.571 112.391 480.434 111.956C481.423 111.441 482.361 110.831 483.236 110.135C485.261 108.56 486.858 106.489 487.875 104.117C488.893 101.746 489.298 99.1508 489.052 96.577C488.961 95.46 488.764 94.3544 488.464 93.2754C488.195 92.3396 487.849 91.4286 487.427 90.5524C486.819 89.2816 486.039 88.1034 485.107 87.0523C484.858 86.7649 484.592 86.4922 484.312 86.2354C484.219 86.1414 484.12 86.0542 484.015 85.9744C484.015 85.9744 484.385 86.3772 485.023 87.109C485.92 88.1765 486.674 89.3591 487.265 90.6262C488.146 92.4934 488.671 94.5125 488.811 96.577C489.039 99.1052 488.634 101.651 487.635 103.979C486.637 106.308 485.076 108.345 483.096 109.903C482.247 110.594 481.335 111.202 480.372 111.718C479.529 112.168 478.65 112.548 477.744 112.852C476.432 113.283 475.07 113.537 473.693 113.607C472.679 113.647 472.135 113.613 472.135 113.647Z" fill="black"/>
<path d="M457.229 12.5677C457.229 12.6471 464.11 12.7152 472.594 12.7152C481.078 12.7152 487.965 12.6471 487.965 12.5677C487.965 12.4883 481.084 12.4202 472.594 12.4202C464.105 12.4202 457.229 12.477 457.229 12.5677Z" fill="black"/>
<path d="M483.454 48.0401C483.538 48.0641 483.624 48.0774 483.712 48.0798L484.462 48.1479C484.787 48.1762 485.185 48.1989 485.65 48.2103C486.115 48.2216 486.642 48.2443 487.225 48.2103C488.396 48.2103 489.786 48.1252 491.327 47.9607C492.994 47.7642 494.65 47.4745 496.286 47.0927C497.918 46.6964 499.527 46.2078 501.105 45.6291C502.391 45.1525 503.651 44.6091 504.882 44.001C505.442 43.7514 505.874 43.4905 506.283 43.2692C506.692 43.048 507.039 42.8494 507.319 42.7019L507.964 42.3048C508.04 42.262 508.112 42.2106 508.177 42.1517C508.177 42.1517 508.087 42.1517 507.936 42.2538L507.263 42.5998C506.978 42.7587 506.625 42.9459 506.21 43.1671C505.795 43.3884 505.325 43.6153 504.792 43.8535C503.739 44.3527 502.455 44.886 501.01 45.4136C497.868 46.554 494.608 47.3305 491.293 47.7281C489.769 47.9096 488.385 48.0117 487.225 48.0401C486.665 48.0741 486.104 48.0401 485.65 48.0401C485.196 48.0401 484.793 48.0401 484.468 48.0401L483.717 48.0401C483.63 48.0254 483.541 48.0254 483.454 48.0401Z" fill="black"/>
<path d="M438.721 73.602C438.762 73.6296 438.808 73.6507 438.855 73.6643L439.259 73.8175L440.817 74.3848C441.495 74.6344 442.324 74.9237 443.305 75.213C444.285 75.5024 445.389 75.8768 446.639 76.1945L448.589 76.7163C449.267 76.8922 449.984 77.0397 450.718 77.2156C452.186 77.573 453.778 77.8566 455.447 78.18C462.721 79.4624 470.113 79.921 477.486 79.5471C479.167 79.4393 480.798 79.3542 482.3 79.1784C483.051 79.0989 483.779 79.0422 484.474 78.9458L486.475 78.6678C487.752 78.5146 488.895 78.2821 489.898 78.1005C490.901 77.919 491.77 77.7488 492.47 77.5843L494.084 77.2212L494.504 77.1191C494.553 77.111 494.6 77.0957 494.645 77.0737C494.594 77.0695 494.544 77.0695 494.493 77.0737L494.073 77.1475L492.448 77.4595C491.742 77.6013 490.879 77.7658 489.87 77.919C488.862 78.0722 487.724 78.2934 486.446 78.4352L484.452 78.6905C483.757 78.7813 483.028 78.8323 482.277 78.9061C480.781 79.0706 479.167 79.1443 477.475 79.2465C474.085 79.3883 470.359 79.3939 466.447 79.1613C462.536 78.9288 458.843 78.4352 455.498 77.8793C453.817 77.5673 452.237 77.312 450.768 76.9489C450.034 76.7788 449.317 76.6369 448.639 76.4667L446.689 75.9619C445.439 75.6612 444.336 75.3095 443.355 75.0258C442.374 74.7422 441.534 74.4586 440.856 74.2487L439.281 73.7381L438.866 73.6133L438.721 73.602Z" fill="black"/>
<path d="M532.024 133.952L539.089 130.91L518.704 82.3871L511.64 85.4288L532.024 133.952Z" fill="#616161"/>
<path d="M511.752 90.8097C510.11 90.8105 508.49 90.421 507.024 89.6725C505.558 88.924 504.285 87.8374 503.309 86.5002C502.334 85.163 501.682 83.6126 501.406 81.9737C501.13 80.3348 501.238 78.6532 501.722 77.0644C502.295 75.1903 503.37 73.5138 504.828 72.2213C506.285 70.9287 508.069 70.0707 509.979 69.7426C511.89 69.4146 513.853 69.6292 515.65 70.3628C517.447 71.0964 519.008 72.3202 520.16 73.8981C521.311 75.476 522.008 77.3463 522.172 79.301C522.337 81.2557 521.963 83.2184 521.092 84.9707C520.22 86.7231 518.886 88.1965 517.237 89.2273C515.589 90.2581 513.69 90.8059 511.752 90.8097ZM511.752 69.6046C509.817 69.6066 507.921 70.1518 506.275 71.1797C504.628 72.2077 503.295 73.6779 502.425 75.4269C501.554 77.1759 501.18 79.1351 501.344 81.0866C501.508 83.038 502.203 84.9052 503.353 86.4804C504.502 88.0556 506.061 89.277 507.855 90.0089C509.65 90.7407 511.61 90.9542 513.517 90.6256C515.424 90.2971 517.204 89.4393 518.658 88.1478C520.112 86.8563 521.184 85.1817 521.754 83.3102C522.568 80.6283 522.298 77.7291 521.003 75.2489C519.707 72.7686 517.493 70.9101 514.845 70.0811C513.833 69.7636 512.778 69.603 511.718 69.6046L511.752 69.6046Z" fill="#323435"/>
<path d="M532.924 111.858C534.085 107.629 531.64 103.248 527.462 102.073C523.285 100.897 518.957 103.373 517.796 107.602C516.635 111.831 519.081 116.212 523.258 117.388C527.436 118.563 531.763 116.087 532.924 111.858Z" fill="#323435"/>
<path d="M537.197 140.963C540.741 140.963 543.613 138.055 543.613 134.468C543.613 130.881 540.741 127.973 537.197 127.973C533.654 127.973 530.781 130.881 530.781 134.468C530.781 138.055 533.654 140.963 537.197 140.963Z" fill="#323435"/>
</g>
<defs>
<clipPath id="clip0_72_11">
<rect width="168" height="182" fill="white" transform="matrix(-1 8.74228e-08 8.74228e-08 1 563 -33)"/>
</clipPath>
</defs>
</svg>
