<svg width="500" height="390" viewBox="0 0 500 390" fill="none" xmlns="http://www.w3.org/2000/svg">
<g clip-path="url(#clip0_111_590)">
<path d="M89.9999 325.856C89.9999 325.856 20.4006 376.138 34.2014 291.935C45.4999 223 193.702 285.435 316.358 278.022C359.286 271.076 422.241 276.134 419.754 289.183C417.267 302.232 354.158 327.056 354.158 327.056L89.9999 325.856Z" fill="#CCDDEE"/>
<path d="M407 49.2284C407 23.2962 391.971 -8.88317 361.496 2.27381C337.811 10.9484 316 23.342 316 49.2284C316 75.1148 338.193 105.856 361.496 96.1738C389.752 84.4489 407 75.1606 407 49.2284Z" fill="#E8F4FF"/>
<path d="M12.9102 313.221C12.9102 313.221 -36.4442 342.603 57.8449 372.535C118.643 391.835 195.56 372.535 260.411 372.535C325.263 372.535 302.408 372.535 401.853 383.026C488.061 392.12 512.779 335.146 494.178 312.109C463.512 274.129 351.45 264.902 309 277.5C252.089 294.39 195.714 289.438 151.5 277.5C101.5 264 49 282.5 12.9102 313.221Z" fill="#E8F4FF"/>
<path d="M261.5 356C354.56 356 430 345.031 430 331.5C430 317.969 354.56 307 261.5 307C168.44 307 93 317.969 93 331.5C93 345.031 168.44 356 261.5 356Z" fill="#CCDDEE"/>
<path d="M418.573 230.051C416.668 238.449 419.67 246.418 425.297 247.795C430.923 249.172 437.026 243.47 438.939 235.048C440.852 226.625 440.553 214.516 434.903 213.131C429.252 211.745 420.486 221.629 418.573 230.051Z" fill="#00E3B1"/>
<path d="M450.678 235.983C439.606 240.195 432.295 248.24 434.344 253.892C436.393 259.544 447.023 260.682 458.112 256.419C469.2 252.157 480.806 239.613 478.765 233.969C476.724 228.325 461.751 231.712 450.678 235.983Z" fill="#00E3B1"/>
<path d="M391.478 243.003C396.267 254.89 403.953 262.789 408.599 260.651C413.244 258.512 413.117 247.127 408.304 235.24C403.49 223.352 398.845 210.076 394.199 212.232C389.554 214.388 386.672 231.132 391.478 243.003Z" fill="#00E3B1"/>
<path d="M368.257 261.572C376.578 273.122 387.103 279.59 391.78 276.016C396.457 272.443 393.504 260.171 385.183 248.613C376.863 237.054 367.078 220.933 362.409 224.506C357.741 228.079 359.945 250.022 368.257 261.572Z" fill="#00E3B1"/>
<path d="M353.15 290.031C365.478 296.784 377.691 297.988 380.445 292.714C383.199 287.439 375.426 277.668 363.098 270.922C350.77 264.177 336.21 254.205 333.456 259.487C330.702 264.77 340.822 283.277 353.15 290.031Z" fill="#00E3B1"/>
<path d="M434.594 284.992C423.304 279.833 416.046 271.891 418.465 267.231C420.885 262.571 431.949 263.003 443.255 268.195C454.561 273.388 471.149 285.44 468.77 290.075C466.391 294.709 445.948 290.168 434.594 284.992Z" fill="#00E3B1"/>
<path d="M416.465 303.753C406.786 296.159 401.648 286.877 405.051 282.827C408.455 278.777 419.07 281.697 428.773 289.24C438.477 296.783 449.785 306.191 446.381 310.199C442.977 314.207 426.168 311.296 416.465 303.753Z" fill="#00E3B1"/>
<path d="M395.25 318.457C389.928 307.432 389.571 296.721 394.366 294.431C399.16 292.142 407.418 299.197 412.748 310.146C418.078 321.094 427.496 334.367 422.661 336.656C417.827 338.946 400.531 329.448 395.25 318.457Z" fill="#00E3B1"/>
<path d="M368 284.561L384.57 294.775C387.594 289.992 390.98 285.464 394.696 281.235L386.488 268.756L396.24 279.576C399.409 276.115 402.809 272.888 406.414 269.918L407.381 252.9L409.998 267.114C412.403 265.312 414.96 263.589 417.669 261.944L426.608 244L420.635 260.251C427.398 256.498 434.571 253.597 442 251.612C442 251.612 429.168 255.755 414.833 266.508L430.273 272.158L412.996 267.948C408.864 271.181 404.974 274.733 401.359 278.574C404.61 280.536 413.078 285.631 413.46 285.85L399.75 280.334C396.363 284.122 393.28 288.192 390.535 292.502L399.246 297.958L388.763 295.432C385.626 300.804 381.449 309.149 379.353 315.734C376.102 316.576 374.924 315.229 374.477 314.345C376.907 308.637 379.692 303.098 382.815 297.765L368 284.561Z" fill="#C16D26"/>
<path d="M158.525 221C158.525 221 155.001 301.985 166.216 322H173C173 322 164.71 223.466 168.595 221H158.525Z" fill="#765230"/>
<path d="M366.441 219C366.441 219 370.194 300.787 358.252 321H351C351 321 359.828 221.491 355.691 219H366.441Z" fill="#765230"/>
<path d="M133.637 222C133.637 222 129.384 319.823 142.854 344H151C151 344 141.082 224.974 145.686 222H133.637Z" fill="#AE7A49"/>
<path d="M383.367 222C383.367 222 387.605 319.784 374.152 344H366C366 344 375.925 224.946 371.318 222H383.367Z" fill="#AE7A49"/>
<path d="M380 12.8405V72.5934C380 72.5934 383.25 73.5083 383.25 72.5934V41.3308C383.25 41.3308 390.115 33.2522 388.843 24.8624C387.57 16.4727 381.465 9.53763 380 12.8405Z" fill="#DF761E"/>
<path d="M371 23.817C371 18.4218 368.09 10 364.504 10C360.919 10 358 18.4594 358 23.817C358 28.5167 360.226 32.4738 363.197 33.3855C363.162 33.5042 363.145 33.6278 363.145 33.7521V72.5337C363.145 72.9226 363.287 73.2956 363.54 73.5705C363.794 73.8455 364.137 74 364.496 74C364.854 74 365.198 73.8455 365.451 73.5705C365.704 73.2956 365.847 72.9226 365.847 72.5337V33.7145C365.845 33.5909 365.831 33.4679 365.803 33.3479C368.765 32.4738 371 28.5355 371 23.817Z" fill="#DF761E"/>
<path d="M350.998 9H349.306V25.0709H347.846V9H346.153V25.0709H344.693V9H343V25.8605C343 27.7184 343.186 32.0287 345.78 33.0599V71.6578C345.804 72.0233 345.943 72.3644 346.168 72.6132C346.394 72.8619 346.689 73 346.995 73C347.302 73 347.597 72.8619 347.822 72.6132C348.048 72.3644 348.186 72.0233 348.211 71.6578V33.0599C350.804 32.0287 351.022 27.6998 350.998 25.8605V9Z" fill="#DF761E"/>
<path d="M263.086 79.7539C263.086 79.7539 238.983 78.7767 240.033 68.9211C241.084 59.0654 252.379 59.4563 256.571 52.5601C260.763 45.6639 248.418 30.8013 271.826 22.8907C295.235 14.9802 285.916 25.813 285.916 25.813C285.916 25.813 296.98 26.1667 297.576 32.6813C298.172 39.1959 278.6 48.6234 296.766 58.8513C314.932 69.0793 304.821 87.1061 297.594 84.7981C290.366 82.49 263.086 79.7539 263.086 79.7539Z" fill="black"/>
<path d="M248.423 315C248.423 315 234.166 323.171 234.001 325.13C233.836 327.088 255 325.13 255 325.13L253.558 315.975L248.423 315Z" fill="black"/>
<path d="M275.67 317.303C275.67 317.303 272.776 322.431 274.607 324.028C276.438 325.624 293 326 293 326C293 326 289.051 318.752 282.051 316L275.67 317.303Z" fill="black"/>
<path d="M256.2 126.765C256.2 126.765 242.119 137.766 238.695 166.866C235.272 195.966 245.604 317 245.604 317H253.604C253.604 317 278 144.818 278 132.891C278 120.964 272.473 124.485 272.473 124.485L256.2 126.765Z" fill="#272063"/>
<path d="M282.372 124C282.372 124 309.253 135.833 294.658 212.52C286.687 254.412 283.756 316.186 283.756 316.186L272.935 317C272.935 317 266.384 154.022 270.187 138.849C273.989 123.676 272.102 124.046 272.102 124.046L282.372 124Z" fill="#15124C"/>
<path d="M341 96.8116C341 96.8116 346.555 86.0017 349.641 84.7271C352.728 83.4526 355.025 83.9719 353.078 85.3691C351.131 86.7664 358.337 88.0315 361.235 87.465C364.133 86.8986 369.212 88.3525 363.173 90.0047C357.134 91.6568 352.836 88.7301 350.844 91.2131C348.852 93.6961 344.203 97.633 344.078 97.954C343.952 98.275 341 96.8116 341 96.8116Z" fill="#F8A084"/>
<path d="M335.069 106.679C327.225 118.786 310.665 124.374 302.821 111.336C297.208 100.16 294.524 87.4937 286 79C286.418 80.6391 297.261 122.167 313.507 121.999C323.286 121.906 332.821 112.817 339 105.385C337.583 105.264 336.177 105.727 335.069 106.679Z" fill="#8A3232"/>
<path d="M343.002 89.9125C343.002 89.9125 318.077 104.836 315.3 109.696C306.968 93.8061 295.708 67.8802 287.987 70.1382C280.265 72.3963 286.138 79.217 286.138 79.217V79.2727C294.788 87.7474 297.513 100.422 303.209 111.536C311.169 124.545 327.975 118.97 335.935 106.89C337.059 105.94 338.486 105.478 339.924 105.598C342.479 102.596 344.843 99.4204 347 96.092L343.002 89.9125Z" fill="#FF6669"/>
<path d="M249.228 88.6783C251.756 108.672 250.441 121.878 250.441 121.878C250.441 121.878 246.582 132.907 259.482 133.37C262.22 133.472 265.127 133.759 268 134C259.507 115.127 254.031 94.0773 253.306 73C250.349 76.3153 248.293 81.2513 249.228 88.6783Z" fill="#8A3232"/>
<path d="M287.522 69.8827C282.534 67.2168 266.312 66 266.312 66C266.312 66 258.325 66.8174 253 72.4093C253.763 93.5506 259.532 114.664 268.477 133.595C279.739 134.523 290.663 134.83 290.663 123.238C290.663 108.533 292.518 72.5672 287.522 69.8827Z" fill="#FF6669"/>
<path d="M259.886 120L266.32 123.039C266.32 123.039 274.535 121.524 272.745 125.635C270.954 129.747 267.182 133.069 265.009 131.678C263.679 130.788 262.738 129.487 262.356 128.01L258 125.999L259.886 120Z" fill="#F8A084"/>
<path d="M241.676 118.832C221.579 109.181 244.855 85.3058 254.948 72C252.336 73.6621 246.654 77.8586 240.799 85.9761C232.833 96.9954 225.187 109.53 233.792 116.894C241.201 123.24 254.51 130.173 260 128.832C254.283 124.821 248.136 121.467 241.676 118.832Z" fill="#8A3232"/>
<path d="M240.842 118.992C247.249 121.625 253.345 124.982 259.017 129C259.417 128.923 259.798 128.765 260.138 128.535C260.477 128.305 260.768 128.008 260.992 127.661C264 122.666 264 121.54 264 121.54L240.924 108.974C240.924 108.974 255.112 92.0968 258.437 84.3598C261.762 76.6227 258.745 71.554 255.493 71C254.981 71.2791 254.485 71.5874 254.007 71.9233C243.995 85.283 220.946 109.288 240.842 118.992Z" fill="#FF6669"/>
<path d="M270.19 55.2386L269 69.4667C269 69.4667 273.726 74.6743 277.839 72.4452C279.143 66.0564 279.35 59.468 278.452 53L270.19 55.2386Z" fill="#EF8C70"/>
<path d="M284.863 30.4951C284.863 30.4951 286.328 54.3586 279.669 57.2915C273.01 60.2244 265.751 59.4889 264.914 54.2469C264.077 49.0049 258.71 32.1989 270.736 29.8899C282.762 27.5808 284.863 30.4951 284.863 30.4951Z" fill="#F8A084"/>
<path d="M277 27.703C277 27.703 281.619 42.2394 286.239 39.7028C291.325 31.054 284.517 24.8482 277 27.703Z" fill="black"/>
<path d="M275 27C275 27 273.131 35.5925 268.868 39.3175C264.606 43.0425 266.544 49.2848 266.544 49.6843C266.432 50.487 266.091 51.2315 265.568 51.813C265.045 52.3945 264.367 52.7838 263.629 52.9262C261.159 53.5765 258.844 49.9351 260.636 41.7791C262.428 33.6232 260.036 29.9447 265.781 28.5699C268.811 27.7826 271.894 27.2577 275 27Z" fill="black"/>
<path d="M397 213H126L150.489 178H372.511L397 213Z" fill="#D8D9EE"/>
<path d="M126.365 225.873C123.294 222.81 126.365 213 126.365 213H397C397 213 395.287 223.306 393.069 225.873C390.851 228.44 129.444 228.965 126.365 225.873Z" fill="#A8AABC"/>
<path d="M220.31 199.505C220.31 203.646 209.049 207 195.155 207C181.261 207 170 203.646 170 199.505C170.059 198.113 170.206 196.726 170.442 195.354C172.208 191.735 182.516 192.01 195.173 192.01C208.024 192.01 219.471 191.643 220.99 195.354C221.096 195.657 220.31 199.203 220.31 199.505Z" fill="#511C74"/>
<path d="M196 204C209.807 204 221 200.642 221 196.5C221 192.358 209.807 189 196 189C182.193 189 171 192.358 171 196.5C171 200.642 182.193 204 196 204Z" fill="#7B635C"/>
<path d="M196.5 202C206.717 202 215 199.538 215 196.5C215 193.462 206.717 191 196.5 191C186.283 191 178 193.462 178 196.5C178 199.538 186.283 202 196.5 202Z" fill="#D65959"/>
<path d="M171.786 196C171.786 196 165.589 187.062 169.052 182L173.226 182.978C173.226 182.978 172.599 191.816 175 194.225L171.786 196Z" fill="#15124C"/>
<path d="M218.221 196C218.221 196 224.402 187.062 220.954 182L216.773 183.023C216.773 183.023 217.399 191.862 215 194.27L218.221 196Z" fill="#15124C"/>
<path d="M196.999 189C196.999 189 195.016 181.645 196.637 180L200 180.096C200 180.096 197.809 187.852 199.759 188.77L196.999 189Z" fill="white" stroke="black" stroke-miterlimit="10"/>
<path d="M192.082 201.96C192.082 201.96 189.315 194.72 192.63 193H198C198 193 193.74 198.856 195.874 201.96C193.185 202.05 192.082 201.96 192.082 201.96Z" fill="#15124C"/>
<path d="M343.971 149.897C343.752 149.576 343.612 149.207 343.56 148.82C343.509 148.434 343.548 148.041 343.674 147.672C343.8 147.304 344.009 146.97 344.286 146.699C344.563 146.428 344.898 146.227 345.266 146.111C345.633 145.996 346.022 145.97 346.401 146.035C346.781 146.1 347.139 146.255 347.449 146.487C347.758 146.719 348.01 147.021 348.182 147.369C348.355 147.718 348.445 148.102 348.444 148.492C348.441 149.019 348.271 149.53 347.959 149.951C354.488 150.559 359.641 153.395 361 157H331C331 157 336.815 150.639 343.971 149.897Z" fill="#91CDA5"/>
<path d="M331.637 164.173C332.528 170.769 334.408 180.787 337.945 184.321L334.711 197.788C340.993 199.578 348.308 199.22 356.15 197.788L352.746 183.652H352.603C353.396 182.38 354.671 180.222 356.007 177.526C356.007 177.526 360.863 177.932 362.387 176.584C363.911 175.236 370.478 162.863 368.696 160.347C366.914 157.83 361.345 160.347 361.345 160.347C361.41 159.555 361.437 158.773 361.425 158H330.959L331.057 159.15C328.89 159.038 326.718 159.054 324.553 159.197C322.138 159.395 328.215 162.523 331.637 164.173ZM357.477 174.247C359.035 170.753 360.187 167.073 360.908 163.287C360.908 163.287 363.866 162.203 364.722 162.844C365.577 163.485 360.908 173.804 360.908 173.804L357.477 174.247Z" fill="#99D8AE"/>
<path d="M180.481 188.702C173.885 176.997 173.266 164.535 173.885 152H170V182.6C170 184.421 170.713 186.168 171.983 187.456C173.252 188.744 174.974 189.468 176.769 189.468C178.543 190.031 180.281 190.548 182 191C181.437 190.274 180.929 189.506 180.481 188.702Z" fill="#876DB2"/>
<path d="M215.733 152H174.183C173.576 164.413 174.183 176.753 180.658 188.343C181.098 189.139 181.597 189.9 182.15 190.619C189.054 192.447 195.547 193.361 201.362 192.867C213.295 183.526 219.94 167.539 215.733 152Z" fill="#B8A3D3"/>
<path d="M215.687 152C219.694 167.589 213.365 183.619 202 193C206.109 192.716 210.104 191.423 213.68 189.222C215.355 189.215 216.96 188.493 218.144 187.215C219.328 185.937 219.996 184.206 220 182.399V152H215.687Z" fill="#C9BAE0"/>
<path d="M170 152H221C221 152 221.285 146 194.868 146C179.055 146 170.953 146.875 170 152Z" fill="#A58ACE"/>
<path d="M192.903 145.674C192.903 145.674 190.287 141.914 191.19 138.966C192.093 136.017 194.146 136.973 194.531 138.064C194.917 139.155 195.357 145.006 194.531 145.71C194.291 145.905 194.005 146.006 193.712 146C193.42 145.993 193.137 145.879 192.903 145.674Z" fill="#15124C"/>
<path d="M219.46 154H234.602C234.602 154 238.038 156.573 234.136 156.907C230.234 157.24 218.527 154.419 218.841 156.907C219.155 159.394 220.787 163.454 219.146 162.959C217.504 162.463 216.805 163.702 217.047 161.796C217.157 159.198 217.142 156.596 217.002 154H219.46Z" fill="#15124C"/>
<path d="M169.285 154H158.956C158.956 154 156.606 156.573 159.274 156.907C161.943 157.24 169.956 154.419 169.741 156.907C169.526 159.394 168.407 163.454 169.526 162.959C170.645 162.463 171.127 163.702 170.972 161.796C170.817 159.89 170.972 154 170.972 154H169.285Z" fill="#15124C"/>
<path d="M252.634 184.654C252.634 184.654 243.924 190.432 243.02 194.667C242.975 194.856 243.02 196.992 243.02 197.171C242.986 197.569 243.084 197.968 243.297 198.299C243.511 198.63 243.828 198.873 244.193 198.987C249.375 201.123 283.856 202.168 286.506 198.987C289.155 195.806 288.296 195.411 290.238 194.724C292.181 194.037 308.562 195.166 308.92 194.027C309.162 193.265 310.218 191.505 309.949 190.263C309.949 190.178 310.021 187.581 309.994 187.496C309.797 187.026 309.215 189.19 308.32 189.077C305.187 188.673 291.688 191.204 291.688 189.811C291.688 188.691 293.076 187.252 292.825 186.273C292.763 186.019 293.121 183.732 292.825 183.553C291.232 182.706 254.728 182.659 252.634 184.654Z" fill="#15124C"/>
<path d="M252.621 182.828C252.621 182.828 238.992 194.941 244.177 197.019C249.362 199.097 283.857 200.169 286.508 197.019C289.158 193.87 288.299 193.488 290.242 192.798C292.185 192.109 308.573 193.246 308.931 192.109C309.29 190.972 311.466 187.645 308.331 187.244C305.197 186.844 291.693 189.35 291.693 187.971C291.693 186.592 293.86 184.71 292.293 183.834C290.726 182.958 254.717 180.833 252.621 182.828Z" fill="#7B635C"/>
</g>
<defs>
<clipPath id="clip0_111_590">
<rect width="500" height="390" fill="white"/>
</clipPath>
</defs>
</svg>
