<svg width="424" height="587" viewBox="0 0 424 587" fill="none" xmlns="http://www.w3.org/2000/svg">
<path d="M64.2031 429.101C68.7778 429.103 73.2892 428.018 77.374 425.933C81.4589 423.847 85.0031 420.821 87.7213 417.096C90.4396 413.371 92.256 409.051 93.0244 404.486C93.7927 399.92 93.4915 395.236 92.145 390.81C90.5486 385.589 87.5534 380.919 83.4925 377.319C79.4316 373.718 74.4639 371.328 69.1416 370.414C63.8194 369.5 58.351 370.098 53.3444 372.141C48.3377 374.185 43.9889 377.594 40.7812 381.99C37.5736 386.385 35.6328 391.595 35.1746 397.041C34.7164 402.486 35.7587 407.953 38.1856 412.835C40.6126 417.716 44.3291 421.821 48.9222 424.693C53.5152 427.564 58.8048 429.09 64.2031 429.101ZM64.2031 370.029C69.5922 370.035 74.8742 371.554 79.4614 374.417C84.0487 377.281 87.7613 381.376 90.1862 386.248C92.6112 391.121 93.6534 396.578 93.1971 402.015C92.7407 407.451 90.8035 412.652 87.6011 417.04C84.3987 421.428 80.0566 424.831 75.0578 426.87C70.0591 428.908 64.5997 429.503 59.2869 428.588C53.9741 427.673 49.0163 425.283 44.965 421.685C40.9137 418.088 37.9277 413.422 36.3393 408.209C34.0718 400.738 34.825 392.662 38.4335 385.753C42.042 378.843 48.211 373.666 55.5864 371.357C58.4072 370.472 61.3438 370.025 64.2968 370.029L64.2031 370.029Z" fill="#323435"/>
<path d="M288.987 365.731C288.987 365.731 286.879 572.97 172.006 577.016C57.1319 581.062 52.3084 367.216 52.3084 365.731C52.3084 365.731 65.8734 334.836 170.648 336.037C275.422 337.238 288.987 365.731 288.987 365.731Z" fill="#616161"/>
<path d="M219.692 371.831L122.598 371.831C116.262 371.831 111.125 366.631 111.125 360.216L111.125 358.525C111.125 352.11 116.262 346.91 122.598 346.91L219.692 346.91C226.029 346.91 231.166 352.11 231.166 358.525L231.166 360.216C231.166 366.631 226.029 371.831 219.692 371.831Z" fill="#323435"/>
<path d="M175.329 187.553L166.946 187.553L166.946 144.648L175.329 144.648L175.329 187.553Z" fill="#323435"/>
<path d="M42.9654 315.283C29.7299 312.099 21.5506 298.655 24.6964 285.256C27.8422 271.857 41.1219 263.576 54.3573 266.761C67.5928 269.946 75.7721 283.389 72.6263 296.789C69.4805 310.188 56.2008 318.468 42.9654 315.283Z" fill="#616161"/>
<path d="M291.863 313.664C278.596 310.617 270.28 297.26 273.29 283.828C276.299 270.397 289.494 261.979 302.761 265.025C316.028 268.072 324.344 281.43 321.334 294.861C318.325 308.292 305.13 316.711 291.863 313.664Z" fill="#616161"/>
<g opacity="0.3">
<path d="M288.987 365.73C288.987 365.73 275.422 337.285 170.648 336.037C65.8734 334.788 52.3084 365.731 52.3084 365.731C52.3084 365.731 158.05 418.497 288.987 365.73Z" fill="black"/>
</g>
<path d="M176.016 178.245C176.016 178.245 276.169 177.028 291.998 264.908C307.826 352.789 223.158 354.369 198.791 356.028C187.754 356.787 164.121 356.866 143.266 356.486C97.0916 355.68 64.4668 346.641 53.3681 303.278C52.0463 298.193 51.2151 292.991 50.8861 287.744C47.9671 240.145 79.7021 175.906 176.016 178.245Z" fill="#616161"/>
<path d="M103.367 312.001L248.867 314.293C252.498 314.358 256.105 313.697 259.483 312.349C262.861 311.001 265.943 308.991 268.553 306.436C271.162 303.88 273.249 300.829 274.692 297.456C276.136 294.083 276.908 290.455 276.965 286.78C277.027 283.104 276.373 279.451 275.039 276.032C273.706 272.612 271.72 269.492 269.194 266.85C266.668 264.208 263.653 262.096 260.321 260.635C256.988 259.174 253.404 258.392 249.773 258.334L104.272 256.043C100.641 255.976 97.0329 256.635 93.6541 257.983C90.2753 259.33 87.1924 261.339 84.5821 263.895C81.9718 266.451 79.8855 269.504 78.4427 272.877C76.9999 276.251 76.2289 279.88 76.1741 283.556C76.11 287.232 76.763 290.886 78.0957 294.306C79.4285 297.727 81.4147 300.848 83.9407 303.49C86.4666 306.133 89.4827 308.244 92.8161 309.705C96.1496 311.165 99.7349 311.946 103.367 312.001Z" fill="#323435"/>
<path d="M136.446 448.032C137.016 455.941 139.89 463.5 144.704 469.755C149.518 476.009 156.055 480.679 163.49 483.172C170.926 485.665 178.924 485.871 186.474 483.762C194.025 481.654 200.788 477.326 205.909 471.326C211.03 465.327 214.278 457.925 215.244 450.056C216.209 442.187 214.848 434.205 211.333 427.12C207.818 420.034 202.306 414.163 195.495 410.248C188.684 406.333 180.879 404.551 173.067 405.127C162.592 405.904 152.85 410.86 145.983 418.905C139.116 426.951 135.685 437.427 136.446 448.032Z" fill="#323435"/>
<path d="M147.17 447.242C147.587 453.006 149.682 458.515 153.192 463.073C156.701 467.631 161.467 471.034 166.887 472.849C172.306 474.665 178.136 474.814 183.638 473.275C189.141 471.737 194.07 468.581 197.801 464.207C201.532 459.834 203.898 454.438 204.6 448.702C205.302 442.967 204.308 437.15 201.744 431.986C199.18 426.823 195.161 422.545 190.196 419.694C185.23 416.843 179.541 415.546 173.848 415.968C170.067 416.246 166.377 417.276 162.99 418.999C159.603 420.722 156.584 423.103 154.106 426.008C151.629 428.912 149.741 432.283 148.551 435.926C147.361 439.57 146.891 443.415 147.17 447.242Z" fill="black"/>
<path d="M161.079 452.552C161.299 450.956 161.388 449.344 161.344 447.732C161.422 444.714 161.485 440.4 161.485 435.09L161.172 435.675L176.018 426.904L175.19 426.904L190.176 435.422C190.582 436.117 189.629 434.489 189.723 434.663L189.723 436.907L189.723 439.167C189.723 440.652 189.723 442.138 189.801 443.592C189.801 446.5 189.91 449.313 189.957 452.031L190.363 451.304L175.69 460.375L176.345 460.375C171.772 457.878 167.994 455.887 165.418 454.527C164.033 453.729 162.587 453.042 161.094 452.473C162.259 453.433 163.513 454.275 164.841 454.986C167.37 456.566 171.085 458.794 175.768 461.528L176.096 461.718L176.423 461.528L191.284 452.758L191.69 452.521L191.69 452.015C191.69 449.297 191.659 446.484 191.596 443.576C191.596 442.122 191.596 440.652 191.596 439.151L191.596 436.907L191.596 434.726C191.69 434.9 190.738 433.288 191.144 433.968L176.111 425.529L175.674 425.292L175.268 425.545L160.61 434.616L160.283 434.821L160.283 435.2C160.454 440.668 160.626 445.061 160.782 448.048C160.742 449.556 160.842 451.063 161.079 452.552Z" fill="#616161"/>
<path d="M161.36 153.668C155.965 148.206 155.965 139.351 161.36 133.889C166.755 128.428 175.502 128.428 180.897 133.889C186.292 139.351 186.292 148.206 180.897 153.668C175.502 159.13 166.755 159.13 161.36 153.668Z" fill="#616161"/>
<path d="M59.8465 320.535C60.0026 320.535 58.2074 317.69 56.4747 312.712C54.3198 306.193 52.9569 299.432 52.4161 292.579C51.791 285.751 51.6345 278.886 51.9478 272.036C52.0571 269.397 52.182 267.295 52.3069 265.714C52.4123 264.95 52.4384 264.177 52.3849 263.407C52.1849 264.152 52.0543 264.914 51.9946 265.683C51.7761 267.153 51.5576 269.286 51.3703 272.004C50.8806 278.91 50.9589 285.845 51.6044 292.738C52.1537 299.655 53.6077 306.467 55.9284 312.997C56.6631 314.966 57.5504 316.874 58.5821 318.702C58.9509 319.348 59.3739 319.962 59.8465 320.535Z" fill="#323435"/>
<path d="M291.811 261.969C291.899 262.736 292.061 263.493 292.295 264.229C292.497 264.94 292.716 265.809 292.919 266.852C293.122 267.895 293.434 269.033 293.621 270.345C294.169 273.391 294.534 276.467 294.714 279.558C294.924 283.339 294.872 287.13 294.558 290.904C294.209 294.671 293.604 298.41 292.747 302.093C292.031 305.105 291.134 308.071 290.062 310.974C289.641 312.222 289.157 313.313 288.767 314.293C288.376 315.272 288.002 316.094 287.69 316.758C287.334 317.44 287.041 318.154 286.815 318.891C287.26 318.265 287.646 317.598 287.971 316.9C288.412 316.11 288.813 315.298 289.173 314.466C289.61 313.518 290.14 312.428 290.593 311.179C291.752 308.284 292.712 305.312 293.465 302.282C294.379 298.564 295.015 294.782 295.37 290.967C295.688 287.156 295.719 283.326 295.463 279.51C295.246 276.392 294.818 273.293 294.183 270.234C293.949 268.922 293.621 267.769 293.356 266.741C293.091 265.714 292.841 264.845 292.607 264.134C292.4 263.392 292.134 262.668 291.811 261.969Z" fill="#323435"/>
<path d="M289.518 365.557L288.924 365.731L287.176 366.331L280.526 368.702L275.718 370.44C273.954 371.041 272.003 371.609 269.927 372.257C265.759 373.506 261.061 375.133 255.722 376.398L247.402 378.563C244.498 379.305 241.439 379.859 238.286 380.554C232.042 382.008 225.189 383.003 217.993 384.173C202.43 386.334 186.746 387.469 171.038 387.57C155.33 387.477 139.645 386.342 124.083 384.173C116.934 383.003 110.128 382.024 103.79 380.554C100.668 379.874 97.5461 379.321 94.6738 378.579L86.3381 376.414C81.0151 375.149 76.3165 373.522 72.1486 372.273C70.0725 371.625 68.1213 371.056 66.3573 370.456L61.5494 368.717L54.8996 366.347L53.1513 365.747C52.9547 365.668 52.7507 365.61 52.5425 365.573L53.12 365.826L54.8372 366.505L61.4402 369.018L66.3573 370.882C68.1056 371.499 70.0569 372.084 72.133 372.763C76.3009 374.059 80.9839 375.718 86.3225 377.03L94.6582 379.242C97.546 380.001 100.621 380.57 103.774 381.281C110.018 382.766 116.887 383.778 124.067 384.979C139.662 387.194 155.385 388.35 171.132 388.44C186.873 388.338 202.591 387.177 218.18 384.963C225.345 383.778 232.229 382.751 238.473 381.265C241.595 380.554 244.717 379.985 247.589 379.226L255.925 377.014C261.264 375.702 265.947 374.043 270.114 372.747C272.191 372.068 274.126 371.483 275.89 370.867L280.682 369.049L287.285 366.537L289.002 365.857C289.183 365.774 289.356 365.673 289.518 365.557Z" fill="#323435"/>
<path d="M188.707 184.819C188.826 184.831 188.946 184.831 189.066 184.819L190.112 184.93C191.048 185.025 192.422 185.056 194.186 185.262C199.163 185.751 204.102 186.579 208.968 187.743C234.14 193.579 256.342 208.515 271.408 229.747C278.687 239.95 284.198 251.333 287.705 263.407C288.252 265.114 288.548 266.473 288.813 267.374L289.11 268.417C289.138 268.537 289.18 268.654 289.235 268.764C289.256 268.644 289.256 268.521 289.235 268.401C289.235 268.116 289.11 267.769 289.016 267.342C288.798 266.426 288.564 265.051 288.064 263.312C286.761 258.403 285.091 253.601 283.069 248.947C276.397 233.484 266.239 219.818 253.41 209.045C240.526 198.353 225.349 190.863 209.093 187.174C204.198 186.048 199.225 185.303 194.217 184.945C192.438 184.787 191.095 184.803 190.127 184.756L189.066 184.756C188.816 184.787 188.707 184.803 188.707 184.819Z" fill="black"/>
<path d="M286.69 306.47C287.316 305.492 287.8 304.427 288.126 303.31C289.978 298.029 290.841 292.444 290.671 286.843C290.715 285.68 290.578 284.518 290.265 283.398C290.015 283.398 290.359 288.676 289.36 295.061C288.361 301.445 286.456 306.375 286.69 306.47Z" fill="black"/>
<rect x="155" y="288.019" width="32" height="7.85552" rx="3.92776" transform="rotate(-180 155 288.019)" fill="black"/>
<rect x="155" y="288.019" width="32" height="7.85552" rx="3.92776" transform="rotate(-180 155 288.019)" fill="black"/>
<rect x="242" y="287.855" width="32" height="7.85552" rx="3.92776" transform="rotate(-180 242 287.855)" fill="black"/>
<rect x="242" y="287.855" width="32" height="7.85552" rx="3.92776" transform="rotate(-180 242 287.855)" fill="black"/>
<path d="M312.962 298.3C312.962 298.3 313.321 298.047 313.805 297.447C314.495 296.596 315.086 295.668 315.569 294.681C317.236 291.414 317.874 287.709 317.396 284.064C316.919 280.419 315.35 277.01 312.899 274.295C312.182 273.464 311.37 272.721 310.48 272.083C310.174 271.823 309.825 271.619 309.45 271.482C309.356 271.609 310.761 272.573 312.462 274.643C314.695 277.35 316.124 280.644 316.583 284.14C317.042 287.637 316.511 291.193 315.054 294.397C313.961 296.909 312.853 298.205 312.962 298.3Z" fill="black"/>
<path d="M170.24 134.028C171.458 133.893 172.686 133.866 173.908 133.949C175.364 134.079 176.771 134.544 178.022 135.309C179.273 136.075 180.334 137.12 181.124 138.365C181.913 139.61 182.411 141.022 182.578 142.492C182.745 143.961 182.577 145.451 182.088 146.845C181.666 148.001 181.144 149.117 180.527 150.179C180.527 150.179 180.839 149.989 181.276 149.484C181.876 148.752 182.351 147.924 182.681 147.034C183.277 145.559 183.512 143.959 183.368 142.372C183.224 140.785 182.704 139.256 181.853 137.915C181.001 136.574 179.843 135.46 178.477 134.668C177.11 133.876 175.575 133.429 174.002 133.365C173.067 133.299 172.129 133.39 171.223 133.633C170.521 133.744 170.24 133.981 170.24 134.028Z" fill="black"/>
<path d="M34.1834 279.131C34.3551 279.321 36.7746 276.966 40.4273 275.196C44.0801 273.426 47.405 272.905 47.3738 272.652C44.8291 272.588 42.3132 273.21 40.0839 274.454C37.7373 275.447 35.6989 277.063 34.1834 279.131Z" fill="black"/>
<path d="M253.084 513.22C253.155 513.125 253.218 513.025 253.271 512.919L253.786 511.987C254.255 511.086 254.879 509.885 255.691 508.352C256.097 507.562 256.534 506.677 257.033 505.729L258.501 502.568C259.562 500.277 260.748 497.67 261.919 494.667C262.512 493.197 263.137 491.649 263.792 490.053C264.448 488.456 265.01 486.718 265.65 484.964C266.992 481.472 268.132 477.631 269.459 473.649C271.91 465.59 274.314 456.661 276.421 447.179C278.528 437.697 280.058 428.547 281.307 420.219C282.556 411.891 283.367 404.416 283.867 398C284.163 394.84 284.351 391.964 284.507 389.435C284.663 386.907 284.803 384.694 284.85 382.956C284.897 381.218 284.944 379.874 284.991 378.863L284.991 377.804C285.008 377.684 285.008 377.561 284.991 377.441C284.973 377.561 284.973 377.684 284.991 377.804L284.897 378.863C284.897 379.859 284.725 381.233 284.616 382.94C284.507 384.647 284.351 386.891 284.132 389.404C283.914 391.916 283.711 394.792 283.367 397.953C282.805 404.274 281.806 411.796 280.636 420.077C279.465 428.358 277.763 437.46 275.703 446.942C273.642 456.424 271.223 465.337 268.834 473.38C267.508 477.363 266.399 481.187 265.088 484.68C264.464 486.449 263.87 488.14 263.277 489.768L261.467 494.414C260.343 497.369 259.187 499.993 258.157 502.316L256.752 505.476C256.3 506.44 255.863 507.325 255.472 508.131L253.724 511.829L253.287 512.793C253.192 512.92 253.123 513.065 253.084 513.22Z" fill="black"/>
<path d="M197.668 563.046C198.283 563.035 198.895 562.961 199.495 562.825C201.146 562.527 202.778 562.126 204.381 561.624C206.761 560.89 209.088 559.987 211.343 558.922C214.09 557.581 216.73 556.028 219.241 554.276C221.724 552.48 224.063 550.488 226.235 548.318C227.994 546.534 229.622 544.622 231.105 542.597C232.121 541.246 233.045 539.826 233.868 538.346C234.205 537.827 234.483 537.27 234.695 536.687C234.57 536.608 233.259 538.899 230.652 542.25C229.12 544.197 227.467 546.045 225.704 547.781C221.383 552.03 216.426 555.561 211.015 558.242C208.805 559.323 206.532 560.268 204.209 561.071C200.213 562.43 197.637 562.888 197.668 563.046Z" fill="black"/>
<path d="M173.723 489.942C174.084 490.005 174.449 490.042 174.815 490.052C175.853 490.141 176.896 490.173 177.937 490.147C181.819 490.061 185.67 489.428 189.379 488.267C191.943 487.458 194.438 486.444 196.841 485.232C199.597 483.798 202.21 482.099 204.646 480.16C210.288 475.772 214.736 470.003 217.57 463.396C220.405 456.789 221.533 449.561 220.849 442.391C220.595 439.279 220.046 436.199 219.21 433.193C218.462 430.586 217.496 428.049 216.322 425.608C214.629 422.068 212.454 418.786 209.86 415.858C209.164 415.057 208.424 414.297 207.643 413.582C207.385 413.32 207.108 413.077 206.816 412.855C206.816 412.855 207.846 413.977 209.626 416.016C212.124 418.989 214.223 422.284 215.87 425.813C218.325 431.015 219.786 436.639 220.178 442.391C220.811 449.433 219.684 456.524 216.902 463.011C214.12 469.497 209.771 475.172 204.256 479.512C201.892 481.438 199.351 483.131 196.669 484.569C194.319 485.824 191.87 486.881 189.348 487.729C185.694 488.929 181.899 489.636 178.062 489.831C175.237 489.942 173.723 489.847 173.723 489.942Z" fill="black"/>
<path d="M127.406 250.939C127.406 251.16 146.575 251.35 170.209 251.35C193.842 251.35 213.027 251.16 213.027 250.939C213.027 250.717 193.858 250.528 170.209 250.528C146.56 250.528 127.406 250.686 127.406 250.939Z" fill="black"/>
<path d="M200.461 349.755C200.695 349.821 200.936 349.859 201.179 349.865L203.271 350.055C204.176 350.134 205.284 350.197 206.58 350.229C207.876 350.26 209.343 350.323 210.966 350.229C214.229 350.229 218.1 349.992 222.393 349.533C227.038 348.986 231.65 348.179 236.208 347.115C240.754 346.012 245.236 344.65 249.632 343.038C253.214 341.71 256.726 340.197 260.153 338.503C261.714 337.808 262.916 337.081 264.056 336.464C265.195 335.848 266.163 335.295 266.944 334.884L268.739 333.778C268.952 333.658 269.151 333.515 269.332 333.351C269.332 333.351 269.082 333.351 268.661 333.636L266.788 334.6C265.991 335.042 265.008 335.564 263.853 336.18C262.698 336.796 261.387 337.428 259.904 338.092C256.969 339.483 253.394 340.968 249.367 342.438C240.614 345.615 231.533 347.778 222.299 348.885C218.053 349.391 214.198 349.676 210.966 349.755C209.405 349.849 207.844 349.755 206.58 349.755C205.316 349.755 204.192 349.755 203.286 349.755L201.194 349.755C200.952 349.714 200.704 349.714 200.461 349.755Z" fill="black"/>
<path d="M80.6407 378.389C80.756 378.466 80.8823 378.524 81.0153 378.562L82.1392 378.989L86.4788 380.57C88.3676 381.265 90.6779 382.071 93.4096 382.877C96.1414 383.683 99.2165 384.726 102.698 385.611L108.13 387.064C110.019 387.554 112.017 387.965 114.062 388.455C118.151 389.451 122.585 390.241 127.236 391.142C147.498 394.714 168.09 395.992 188.63 394.95C193.313 394.65 197.856 394.413 202.039 393.923C204.131 393.702 206.16 393.544 208.096 393.275L213.669 392.501C217.228 392.074 220.412 391.426 223.207 390.92C226.001 390.415 228.42 389.941 230.372 389.482L234.867 388.471L236.038 388.187C236.173 388.164 236.305 388.121 236.428 388.06C236.288 388.048 236.147 388.048 236.007 388.06L234.836 388.266L230.309 389.135C228.342 389.53 225.938 389.988 223.129 390.415C220.319 390.841 217.15 391.458 213.591 391.853L208.034 392.564C206.098 392.817 204.069 392.959 201.977 393.164C197.809 393.623 193.313 393.828 188.599 394.113C179.155 394.508 168.775 394.523 157.879 393.876C146.983 393.228 136.696 391.853 127.377 390.304C122.694 389.435 118.292 388.724 114.202 387.712C112.157 387.238 110.159 386.843 108.27 386.369L102.838 384.963C99.357 384.125 96.2819 383.145 93.5501 382.355C90.8184 381.565 88.4769 380.775 86.5881 380.19L82.2017 378.768L81.0465 378.42L80.6407 378.389Z" fill="black"/>
<path d="M274.886 118.578C274.541 119.48 274.174 120.367 273.785 121.239C273.395 122.111 273.024 122.979 272.671 123.843C271.084 127.731 269.493 131.6 267.897 135.45C266.339 139.293 264.789 143.173 263.247 147.09C263.801 146.968 264.227 146.874 264.523 146.809C264.819 146.744 265.059 146.691 265.244 146.65C265.466 146.601 265.706 146.548 265.965 146.491C266.224 146.434 266.617 146.367 267.143 146.291C267.66 146.177 268.363 146.022 269.251 145.827C270.176 145.623 271.396 145.354 272.913 145.021C273.874 144.809 274.818 144.601 275.742 144.398C276.704 144.186 277.674 144.012 278.652 143.875C278.845 143.872 279.057 143.864 279.287 143.853C279.509 143.804 279.721 143.797 279.922 143.831L280.292 143.927C280.292 143.927 280.411 143.94 280.65 143.966C281.151 144.131 281.587 144.349 281.958 144.622C282.641 145.258 282.974 146.069 282.959 147.055C282.98 147.326 282.941 147.59 282.842 147.847C282.773 148.059 282.68 148.256 282.565 148.439C282.336 148.804 282.03 149.088 281.647 149.29C281.29 149.604 280.894 149.829 280.458 149.965C280.281 150.043 280.105 150.121 279.928 150.199C279.78 150.232 279.614 150.268 279.429 150.309L259.289 154.743C259.067 154.792 258.845 154.841 258.623 154.89C258.401 154.939 258.175 154.969 257.945 154.98C257.826 154.967 257.711 154.973 257.6 154.997C257.526 155.013 257.448 155.011 257.366 154.99C257.209 154.985 257.057 154.999 256.909 155.031C256.79 155.018 256.634 155.013 256.441 155.016C255.984 154.881 255.625 154.744 255.361 154.605C254.843 154.366 254.524 154.062 254.405 153.695L254.392 153.639C254.277 153.468 254.185 153.311 254.114 153.17C254.081 153.02 254.059 152.828 254.046 152.595C254.038 152.557 254.015 152.543 253.978 152.551C253.97 152.513 253.958 152.457 253.941 152.382C253.892 152.157 253.883 151.943 253.916 151.739C253.94 151.498 253.965 151.256 253.989 151.015C254.038 150.886 254.069 150.762 254.081 150.641C254.122 150.475 254.186 150.323 254.272 150.186C254.305 149.982 254.356 149.775 254.426 149.563C254.532 149.343 254.602 149.131 254.635 148.927C254.676 148.761 254.717 148.594 254.757 148.428C254.827 148.216 254.887 148.046 254.936 147.917C255.051 147.734 255.133 147.579 255.182 147.45C255.26 147.276 255.319 147.105 255.36 146.939L257.341 142.198L260.829 133.468C261.404 132.201 261.951 130.901 262.472 129.568C263.021 128.189 263.581 126.768 264.151 125.306C264.565 124.192 264.953 123.222 265.314 122.396C265.667 121.532 266.044 120.604 266.446 119.611C265.151 119.896 263.931 120.165 262.784 120.417C261.674 120.661 260.565 120.906 259.455 121.15C258.337 121.357 257.168 121.595 255.947 121.863C254.756 122.086 253.434 122.338 251.984 122.618C251.457 122.695 250.831 122.754 250.103 122.796C249.404 122.793 248.788 122.634 248.253 122.319C247.764 122.033 247.436 121.693 247.272 121.296C247.078 120.946 246.924 120.508 246.808 119.983C246.676 119.383 246.727 118.822 246.961 118.298C247.223 117.729 247.607 117.271 248.112 116.924C248.823 116.453 249.548 116.136 250.288 115.973C250.687 115.846 251.089 115.738 251.496 115.648C251.903 115.559 252.283 115.436 252.636 115.279L252.914 115.218C253.978 114.945 255.569 114.594 257.685 114.168C259.831 113.695 262.512 113.105 265.73 112.397C266.137 112.307 266.562 112.213 267.006 112.116C267.442 111.98 267.867 111.887 268.282 111.835C269.149 111.722 270.041 111.546 270.958 111.305C271.911 111.055 272.826 111.07 273.701 111.349C273.948 111.413 274.18 111.499 274.398 111.609C274.616 111.718 274.849 111.804 275.095 111.868C275.63 112.183 275.941 112.625 276.028 113.196C276.152 113.759 276.15 114.368 276.023 115.025C275.933 115.674 275.765 116.321 275.519 116.964C275.273 117.608 275.062 118.146 274.886 118.578Z" fill="#323435"/>
<path d="M318.531 75.9462C318 77.109 317.441 78.2506 316.853 79.3709C316.265 80.4912 315.701 81.6076 315.163 82.7202C312.74 87.7269 310.313 92.7085 307.881 97.665C305.5 102.614 303.126 107.613 300.76 112.662C301.504 112.547 302.074 112.459 302.471 112.397C302.867 112.336 303.19 112.286 303.437 112.248C303.735 112.202 304.057 112.152 304.404 112.098C304.751 112.045 305.276 111.989 305.977 111.932C306.671 111.825 307.613 111.679 308.803 111.495C310.043 111.303 311.679 111.05 313.711 110.735C315 110.536 316.264 110.34 317.504 110.149C318.793 109.949 320.089 109.8 321.394 109.701C321.649 109.713 321.93 109.721 322.235 109.725C322.533 109.679 322.813 109.687 323.076 109.749L323.558 109.907C323.558 109.907 323.714 109.934 324.027 109.988C324.676 110.248 325.234 110.573 325.701 110.964C326.551 111.862 326.924 112.962 326.821 114.265C326.826 114.624 326.752 114.97 326.601 115.303C326.491 115.577 326.352 115.83 326.185 116.062C325.851 116.525 325.423 116.874 324.901 117.109C324.402 117.495 323.859 117.76 323.272 117.902C323.032 117.99 322.792 118.079 322.552 118.168C322.353 118.198 322.13 118.233 321.882 118.271L294.889 122.448C294.591 122.494 294.294 122.54 293.996 122.586C293.699 122.632 293.398 122.653 293.092 122.649C292.936 122.622 292.783 122.62 292.635 122.643C292.535 122.658 292.432 122.648 292.325 122.613C292.119 122.594 291.917 122.599 291.719 122.63C291.562 122.603 291.356 122.583 291.101 122.571C290.509 122.354 290.044 122.143 289.708 121.938C289.043 121.577 288.647 121.15 288.52 120.655L288.508 120.579C288.37 120.343 288.261 120.129 288.18 119.935C288.149 119.734 288.135 119.479 288.138 119.17C288.13 119.12 288.101 119.098 288.052 119.106C288.044 119.056 288.032 118.98 288.017 118.88C287.97 118.578 287.977 118.294 288.037 118.028C288.09 117.711 288.142 117.394 288.195 117.077C288.27 116.911 288.321 116.748 288.348 116.59C288.416 116.374 288.512 116.178 288.638 116.005C288.698 115.738 288.783 115.468 288.893 115.193C289.052 114.911 289.162 114.637 289.222 114.37C289.291 114.154 289.359 113.938 289.427 113.721C289.536 113.447 289.629 113.227 289.705 113.06C289.872 112.829 289.994 112.63 290.07 112.464C290.187 112.24 290.28 112.019 290.348 111.803L293.363 105.701L298.704 94.4533C299.569 92.827 300.402 91.1542 301.202 89.4351C302.044 87.658 302.902 85.8268 303.778 83.9415C304.419 82.5043 305.012 81.2545 305.558 80.1922C306.097 79.0796 306.673 77.8839 307.288 76.6052C305.553 76.8737 303.917 77.1268 302.38 77.3646C300.893 77.5948 299.405 77.8249 297.918 78.055C296.423 78.2349 294.857 78.4514 293.222 78.7046C291.627 78.8998 289.86 79.1219 287.918 79.3708C287.217 79.4279 286.383 79.454 285.418 79.4489C284.494 79.386 283.692 79.1241 283.012 78.6633C282.389 78.245 281.985 77.7672 281.8 77.2296C281.574 76.7501 281.406 76.1584 281.297 75.4548C281.173 74.6506 281.287 73.9125 281.64 73.2403C282.034 72.5102 282.58 71.9368 283.277 71.5202C284.256 70.957 285.241 70.5987 286.233 70.4453C286.77 70.3107 287.312 70.2011 287.857 70.1168C288.402 70.0324 288.915 69.9016 289.395 69.7243L289.767 69.6668C291.197 69.3941 293.329 69.0642 296.162 68.6772C299.038 68.2323 302.632 67.6761 306.945 67.0088C307.49 66.9244 308.06 66.8362 308.655 66.7441C309.242 66.6018 309.812 66.5136 310.366 66.4794C311.521 66.4035 312.715 66.2446 313.947 66.0025C315.228 65.7528 316.436 65.849 317.57 66.291C317.891 66.3957 318.191 66.5295 318.47 66.6922C318.749 66.8548 319.049 66.9886 319.369 67.0933C320.05 67.5541 320.424 68.1653 320.491 68.9269C320.607 69.6808 320.554 70.4867 320.332 71.3446C320.159 72.1948 319.883 73.0352 319.504 73.8658C319.124 74.6964 318.8 75.3899 318.531 75.9462Z" fill="#323435"/>
<path d="M386.782 38.6448C385.718 40.0433 384.621 41.4045 383.493 42.7285C382.365 44.0525 381.271 45.3789 380.212 46.7076C375.444 52.6869 370.68 58.6313 365.917 64.5409C361.223 70.4551 356.525 76.4392 351.822 82.493C352.854 82.5641 353.645 82.6186 354.195 82.6566C354.746 82.6945 355.193 82.7253 355.537 82.749C355.95 82.7775 356.397 82.8083 356.879 82.8415C357.36 82.8747 358.08 82.9593 359.039 83.0955C360.002 83.1619 361.309 83.2519 362.961 83.3657C364.681 83.4843 366.951 83.6407 369.772 83.8351C371.561 83.9584 373.316 84.0793 375.036 84.1979C376.825 84.3212 378.609 84.5142 380.388 84.777C380.727 84.8704 381.101 84.9663 381.509 85.0645C381.922 85.0929 382.295 85.1888 382.63 85.352L383.227 85.7086C383.227 85.7086 383.429 85.7925 383.832 85.9605C384.624 86.5057 385.274 87.1111 385.781 87.7769C386.648 89.2384 386.815 90.8268 386.282 92.5423C386.18 93.0258 385.976 93.4674 385.672 93.867C385.442 94.2015 385.179 94.4988 384.885 94.7589C384.296 95.279 383.616 95.6176 382.845 95.7747C382.059 96.1411 381.251 96.3307 380.421 96.3436C380.072 96.3896 379.723 96.4357 379.374 96.4817C379.099 96.4627 378.789 96.4414 378.445 96.4177L340.981 93.836C340.568 93.8075 340.156 93.7791 339.743 93.7506C339.33 93.7222 338.92 93.6588 338.512 93.5606C338.31 93.4767 338.106 93.4276 337.899 93.4133C337.762 93.4038 337.627 93.3595 337.494 93.2802C337.223 93.1915 336.951 93.1377 336.675 93.1187C336.474 93.0347 336.203 92.946 335.864 92.8525C335.136 92.3819 334.578 91.9579 334.189 91.5807C333.407 90.896 333.005 90.2025 332.984 89.5002L332.992 89.3955C332.878 89.0373 332.796 88.7163 332.747 88.4325C332.766 88.1535 332.824 87.8071 332.922 87.3933C332.927 87.3235 332.895 87.2863 332.826 87.2815C332.831 87.2118 332.838 87.1071 332.848 86.9676C332.877 86.5491 332.972 86.1702 333.133 85.8309C333.3 85.4218 333.466 85.0128 333.633 84.6037C333.785 84.4039 333.902 84.2018 333.986 83.9973C334.143 83.7277 334.331 83.4954 334.552 83.3004C334.714 82.9611 334.91 82.6242 335.14 82.2896C335.44 81.9598 335.67 81.6253 335.832 81.286C335.989 81.0164 336.145 80.7469 336.302 80.4773C336.533 80.1428 336.724 79.8756 336.876 79.6758C337.17 79.4158 337.394 79.1859 337.546 78.9861C337.771 78.7213 337.963 78.4541 338.119 78.1846L344.012 70.9161L354.584 57.4521C356.237 55.5335 357.861 53.5427 359.455 51.4799C361.122 49.352 362.829 47.1567 364.575 44.8941C365.869 43.1611 367.044 41.665 368.099 40.4061C369.158 39.0773 370.294 37.6487 371.505 36.1202C369.097 35.9542 366.826 35.7978 364.693 35.6508C362.629 35.5085 360.565 35.3663 358.501 35.2241C356.442 35.0121 354.277 34.8278 352.006 34.6713C349.809 34.4499 347.371 34.2118 344.693 33.9571C343.734 33.821 342.609 33.6032 341.316 33.3039C340.097 32.9395 339.101 32.3452 338.328 31.521C337.619 30.7713 337.222 30.008 337.138 29.2312C336.979 28.5195 336.934 27.6753 337.001 26.6987C337.078 25.5826 337.455 24.6274 338.132 23.833C338.882 22.9736 339.788 22.3702 340.849 22.0227C342.332 21.5643 343.762 21.3824 345.138 21.4773C345.9 21.4597 346.659 21.477 347.416 21.5291C348.173 21.5813 348.9 21.5613 349.598 21.4692L350.114 21.5048C352.114 21.5725 355.072 21.7764 358.989 22.1164C362.98 22.3914 367.968 22.7352 373.954 23.1477C374.711 23.1998 375.502 23.2544 376.328 23.3113C377.159 23.2984 377.95 23.3529 378.702 23.4748C380.275 23.7234 381.924 23.8721 383.649 23.9209C385.442 23.9744 387.033 24.4695 388.42 25.4061C388.818 25.6438 389.18 25.914 389.505 26.2168C389.83 26.5195 390.191 26.7897 390.59 27.0274C391.362 27.8517 391.678 28.7846 391.537 29.8262C391.465 30.8725 391.15 31.9371 390.591 33.02C390.102 34.1077 389.477 35.1509 388.717 36.1499C387.956 37.1488 387.311 37.9804 386.782 38.6448Z" fill="#323435"/>
</svg>
